<svg version="1.1" xmlns="http://www.w3.org/2000/svg" xmlns:xlink="http://www.w3.org/1999/xlink" width="690.89308" height="115.2" viewBox="91.54846,210.59125,690.89308,115.2"><g fill="#000000" fill-rule="nonzero" stroke="none" stroke-width="1" stroke-linecap="butt" stroke-linejoin="miter" stroke-miterlimit="10" stroke-dasharray="" stroke-dashoffset="0" font-family="none" font-weight="none" font-size="none" text-anchor="none" style="mix-blend-mode: normal"><path d="M178.91846,294.51125v0c0,4.16 -0.76333,7.74333 -2.29,10.75c-1.52667,3.01333 -3.57,5.57 -6.13,7.67c-2.55333,2.10667 -5.5,3.82333 -8.84,5.15c-3.33333,1.33333 -6.80333,2.37333 -10.41,3.12c-3.60667,0.75333 -7.23,1.25667 -10.87,1.51c-3.63333,0.24667 -7.02667,0.37 -10.18,0.37v0c-3.11333,0 -6.33667,-0.11 -9.67,-0.33c-3.33333,-0.22667 -6.65333,-0.61667 -9.96,-1.17c-3.30667,-0.55333 -6.56667,-1.29333 -9.78,-2.22c-3.20667,-0.92667 -6.23667,-2.09 -9.09,-3.49v0l-0.15,-96.86c2.80667,-1.15333 5.78667,-2.19333 8.94,-3.12c3.16,-0.92667 6.38333,-1.70333 9.67,-2.33c3.28,-0.62667 6.55,-1.10333 9.81,-1.43c3.26,-0.32 6.41667,-0.48 9.47,-0.48v0c3.56,0 7.15667,0.22333 10.79,0.67c3.64,0.45333 7.13667,1.20667 10.49,2.26c3.36,1.05333 6.49333,2.42 9.4,4.1c2.90667,1.68 5.45333,3.74667 7.64,6.2c2.18,2.45333 3.88333,5.31 5.11,8.57c1.22667,3.26 1.84,7.02 1.84,11.28v0c0,2.80667 -0.4,5.44 -1.2,7.9c-0.8,2.45333 -1.95333,4.65667 -3.46,6.61c-1.50667,1.96 -3.33667,3.62667 -5.49,5c-2.15333,1.38 -4.58333,2.39667 -7.29,3.05v0c3.25333,0.85333 6.22333,2.10667 8.91,3.76c2.68,1.65333 4.96,3.66 6.84,6.02c1.88,2.35333 3.33333,5.01 4.36,7.97c1.02667,2.95333 1.54,6.11 1.54,9.47zM140.71846,251.65125v0c0,-1.45333 -0.3,-2.69333 -0.9,-3.72c-0.6,-1.02667 -1.34,-1.86667 -2.22,-2.52c-0.87333,-0.65333 -1.82333,-1.13 -2.85,-1.43c-1.03333,-0.3 -1.95,-0.45 -2.75,-0.45v0c-1,0 -1.97667,0.15 -2.93,0.45c-0.95333,0.3 -1.88,0.65 -2.78,1.05v0l-0.46,16.7c1.15333,0 2.58333,-0.10333 4.29,-0.31c1.70667,-0.2 3.35,-0.63667 4.93,-1.31c1.57333,-0.68 2.91333,-1.68333 4.02,-3.01c1.1,-1.32667 1.65,-3.14333 1.65,-5.45zM130.04846,276.16125v0c-1.46,0 -2.86667,0.15 -4.22,0.45v0l-0.3,17.15c0.75333,0.14667 1.49333,0.28333 2.22,0.41c0.72667,0.12667 1.44,0.19 2.14,0.19v0c1.05333,0 2.20667,-0.11333 3.46,-0.34c1.25333,-0.22667 2.43333,-0.67667 3.54,-1.35c1.1,-0.68 2.01333,-1.59667 2.74,-2.75c0.72667,-1.15333 1.09,-2.68 1.09,-4.58v0c0,-1.90667 -0.36333,-3.46333 -1.09,-4.67c-0.72667,-1.2 -1.61667,-2.14 -2.67,-2.82c-1.05333,-0.67333 -2.20667,-1.12333 -3.46,-1.35c-1.25333,-0.22667 -2.40333,-0.34 -3.45,-0.34zM271.03115,248.79125v0c0,3.91333 -0.33667,7.46 -1.01,10.64c-0.68,3.18667 -1.74667,6.10667 -3.2,8.76c-1.45333,2.66 -3.33333,5.11667 -5.64,7.37c-2.30667,2.26 -5.08667,4.41667 -8.34,6.47v0l17.89,31.88l-33.83,6.62l-11.58,-32.04l-9.33,0.31l-1.35,31.28h-32.34c0.25333,-11.43333 0.49333,-22.81333 0.72,-34.14c0.22667,-11.33333 0.49,-22.71333 0.79,-34.14v0c0.1,-5.76667 0.2,-11.48333 0.3,-17.15c0.1,-5.66 0.3,-11.37333 0.6,-17.14v0c3.50667,-1.3 6.96667,-2.37667 10.38,-3.23c3.40667,-0.85333 6.82667,-1.52 10.26,-2c3.43333,-0.47333 6.91667,-0.79667 10.45,-0.97c3.53333,-0.18 7.15667,-0.27 10.87,-0.27v0c5.71333,0 11.24,0.79 16.58,2.37c5.34,1.58 10.06333,3.95 14.17,7.11c4.11333,3.16 7.41,7.09333 9.89,11.8c2.48,4.71333 3.72,10.20333 3.72,16.47zM237.35115,251.20125v0c0,-2.10667 -0.29,-4.03667 -0.87,-5.79c-0.57333,-1.75333 -1.42667,-3.27 -2.56,-4.55c-1.12667,-1.28 -2.53,-2.28333 -4.21,-3.01c-1.67333,-0.72667 -3.64,-1.09 -5.9,-1.09v0c-1,0 -1.97667,0.06333 -2.93,0.19c-0.95333,0.12667 -1.88,0.31333 -2.78,0.56v0l-1.21,27.98h1.81c2.15333,0 4.34667,-0.27667 6.58,-0.83c2.22667,-0.55333 4.23,-1.40667 6.01,-2.56c1.78,-1.15333 3.23333,-2.63333 4.36,-4.44c1.13333,-1.8 1.7,-3.95333 1.7,-6.46zM341.71854,213.60125l29.33,101.21l-37.3,4.82l-4.51,-17h-17.15l-3.76,17l-38.35,-3.76l29.93,-100.16zM315.24854,279.62125h11.28l-5.71,-26.17zM465.93893,283.23125v0c0,5.66667 -0.06333,11.27 -0.19,16.81c-0.12,5.54 -0.30667,11.11667 -0.56,16.73v0l-43.31,-0.75c1.5,-8.87333 2.80333,-17.73667 3.91,-26.59c1.1,-8.84667 1.65,-17.78 1.65,-26.8v0c0,-0.65333 -0.02333,-1.70667 -0.07,-3.16c-0.05333,-1.45333 -0.15333,-3.09667 -0.3,-4.93c-0.15333,-1.82667 -0.36667,-3.70667 -0.64,-5.64c-0.28,-1.92667 -0.65667,-3.69333 -1.13,-5.3c-0.48,-1.6 -1.05667,-2.91333 -1.73,-3.94c-0.68,-1.03333 -1.49333,-1.55 -2.44,-1.55v0c-1.70667,0 -3.15,0.50333 -4.33,1.51c-1.17333,1 -2.15,2.29 -2.93,3.87c-0.78,1.58 -1.39333,3.34667 -1.84,5.3c-0.45333,1.95333 -0.79333,3.91 -1.02,5.87c-0.22667,1.95333 -0.37667,3.79333 -0.45,5.52c-0.07333,1.73333 -0.11,3.15 -0.11,4.25v0c-0.25333,8.87333 -0.45333,17.68333 -0.6,26.43c-0.15333,8.75333 -0.35333,17.59 -0.6,26.51v0l-38.35,1.65c1,-17.69333 1.96333,-35.28667 2.89,-52.78c0.92667,-17.5 1.66667,-35.09667 2.22,-52.79v0l35.49,-1.8l-0.3,12.03c1.40667,-1.70667 2.92333,-3.31333 4.55,-4.82c1.62667,-1.5 3.37,-2.79 5.23,-3.87c1.85333,-1.08 3.82,-1.93333 5.9,-2.56c2.08,-0.62667 4.27333,-0.94 6.58,-0.94v0c4.26,0 7.99333,0.70333 11.2,2.11c3.20667,1.40667 5.96333,3.31333 8.27,5.72c2.30667,2.4 4.23667,5.24333 5.79,8.53c1.55333,3.28667 2.80667,6.78333 3.76,10.49c0.95333,3.70667 1.68,7.58 2.18,11.62c0.50667,4.03333 0.84667,8.00667 1.02,11.92c0.17333,3.90667 0.26,7.69 0.26,11.35c0,3.66 0,6.99333 0,10zM558.20467,261.57125v0c0,7.02 -0.90333,13.31333 -2.71,18.88c-1.8,5.56667 -4.31667,10.49 -7.55,14.77c-3.23333,4.28667 -7.08333,7.93667 -11.55,10.95c-4.46,3.00667 -9.34667,5.47333 -14.66,7.4c-5.31333,1.93333 -10.96667,3.35 -16.96,4.25c-5.98667,0.9 -12.14,1.35 -18.46,1.35v0c-2.35333,0 -4.65667,-0.06 -6.91,-0.18c-2.26,-0.12667 -4.56667,-0.31667 -6.92,-0.57v0l2.1,-97.9c5.52,-1.75333 11.2,-2.99333 17.04,-3.72c5.84,-0.72667 11.64,-1.09 17.4,-1.09v0c7.17333,0 13.76667,1 19.78,3c6.01333,2.00667 11.20333,4.95333 15.57,8.84c4.36,3.88667 7.75333,8.67333 10.18,14.36c2.43333,5.69333 3.65,12.24667 3.65,19.66zM510.08467,246.84125l-3.01,43.61c3.00667,-0.45333 5.75,-1.36667 8.23,-2.74c2.48,-1.38 4.62333,-3.08667 6.43,-5.12c1.80667,-2.02667 3.19667,-4.33333 4.17,-6.92c0.98,-2.58 1.47,-5.32333 1.47,-8.23v0c0,-2.86 -0.3,-5.53 -0.9,-8.01c-0.6,-2.48 -1.57667,-4.63333 -2.93,-6.46c-1.35333,-1.83333 -3.13333,-3.29 -5.34,-4.37c-2.20667,-1.07333 -4.91333,-1.66 -8.12,-1.76zM620.31307,210.59125l37.9,3.01l-36.24,50.08l30.53,53.24l-34.89,6.16l-22.86,-32.48l-1.21,33.99l-31.28,1.2l2.41,-115.2l35.04,1.96l-2.71,33.99zM656.70877,217.51125l40.01,-2.11l-5.27,102.42l-31.73,1.66zM700.47154,215.40125l81.97,-0.15l-0.76,31.89l-22.4,0.9l-2.71,69.78l-31.73,1.66l-2.86,-69.79l-22.41,1.21z"/></g></svg>