<svg width="282" height="132" viewBox="0 0 282 132" fill="none" xmlns="http://www.w3.org/2000/svg">
<g clip-path="url(#clip0_41_52)">
<path fill-rule="evenodd" clip-rule="evenodd" d="M24.0698 14.2079C28.5968 15.1928 32.3509 15.9588 37.8717 17.0531C37.3855 17.274 36.9551 17.4691 36.5681 17.6445C34.8459 18.4249 33.9849 18.8151 32.903 19.3512C32.1269 19.649 31.2146 19.823 30.3025 19.9969C27.1917 20.5901 24.0833 21.1829 26.3885 26.6832C26.4392 26.8338 26.118 27.0766 25.7449 27.3586C25.3046 27.6913 24.792 28.0788 24.7323 28.4342C23.849 33.0303 23.0761 37.6265 22.3031 42.3321C22.143 43.0462 22.2731 43.8178 22.3989 44.5635C22.4466 44.8463 22.4936 45.1254 22.524 45.3962C22.6344 45.7245 22.9656 46.0528 23.2969 46.1623C28.0447 48.0226 27.4927 51.6339 26.8302 55.5735C26.4393 57.9751 26.2699 60.3767 26.0867 62.9724C26.0345 63.7112 25.9813 64.4658 25.9215 65.2405C24.1181 65.4144 22.3159 65.5889 20.5151 65.7635C19.7022 65.6568 18.8942 65.5164 18.1074 65.313C13.8367 64.2125 12.4072 66.9101 11.0587 69.4546C10.664 70.1994 10.2762 70.9312 9.8262 71.5507C9.62812 71.8255 9.77117 72.3539 10.082 72.9995C9.96266 73.0906 9.84437 73.1807 9.72727 73.2699C7.94589 74.6268 6.44151 75.7727 5.83171 77.2836C5.4388 78.2182 6.61177 79.7624 7.79841 81.3247C8.27916 81.9576 8.76215 82.5935 9.14417 83.1929C9.28927 83.797 9.42675 84.4312 9.56862 85.0857C9.96655 86.9216 10.3991 88.9172 11.1317 90.8532C13.5608 96.872 12.6775 99.0607 6.38378 100.374C-0.79322 101.906 -1.78696 104.532 2.74007 110.113C2.80611 110.195 2.87242 110.277 2.93896 110.36C4.20732 111.93 5.55549 113.599 6.60461 115.366C6.88096 115.846 6.85471 116.539 6.82339 117.366C6.80466 117.861 6.78411 118.404 6.82544 118.977C7.59835 119.306 9.14417 119.962 11.1317 120.728C9.91708 123.026 8.81293 125.106 7.26711 127.951C8.81028 128.194 10.3423 128.482 11.8667 128.768C15.1416 129.382 18.3813 129.99 21.6211 130.14C39.1772 131.015 56.7332 131.781 74.3997 132C77.8254 132 81.2511 131.234 84.6768 130.468C87.324 129.876 89.9711 129.284 92.6182 129.045C97.9963 128.648 103.433 128.712 108.885 128.777C110.933 128.802 112.983 128.826 115.033 128.826C119.928 128.826 124.823 128.79 129.718 128.753C139.508 128.681 149.298 128.608 159.088 128.826C163.401 128.945 167.715 129.45 172.045 129.958C175.697 130.386 179.361 130.815 183.048 131.015L183.049 131.015C194.09 131.562 205.132 132.109 216.173 131.781C225.006 131.562 234.171 131.015 242.673 128.826C245.874 127.984 249.006 126.872 252.153 125.755C255.954 124.405 259.776 123.049 263.762 122.151C265.142 121.847 266.203 120.224 267.239 118.638C267.696 117.94 268.148 117.248 268.62 116.679C267.924 116.314 267.212 115.918 266.497 115.521C265.284 114.846 264.059 114.166 262.879 113.615C262.273 113.324 261.665 113.035 261.055 112.745C257.774 111.187 254.451 109.61 251.285 107.487H274.583C274.749 107.268 274.887 107.022 275.025 106.776C275.163 106.529 275.301 106.283 275.466 106.064C273.769 104.889 272.111 103.656 270.454 102.423C264.237 97.7987 258.021 93.1744 249.739 91.6193C251.965 90.557 254.161 89.5405 256.331 88.5357C258.587 87.4912 260.815 86.4592 263.023 85.4014C264.125 85.2385 265.223 85.0378 266.321 84.792C270.407 83.9166 271.732 81.3996 269.634 77.46C274.713 76.694 274.713 76.694 269.302 66.7356L271.952 62.796C271.275 62.2428 270.64 61.7323 270.033 61.244C268.959 60.3803 267.971 59.586 266.984 58.747C272.615 55.5735 271.511 52.2905 262.457 47.0377C263.089 47.0105 263.659 46.9901 264.181 46.9713C265.759 46.9147 266.899 46.8738 267.977 46.7094C268.69 46.6239 269.402 46.5425 270.114 46.4612C273.042 46.1266 275.956 45.7936 278.798 45.1774C279.514 45.0354 280.184 44.433 280.868 43.8181C281.238 43.4851 281.612 43.1484 282 42.8793C281.803 42.5996 281.612 42.2984 281.42 41.994C280.86 41.1077 280.283 40.1945 279.461 39.7057C277.521 38.4521 275.453 37.4538 273.207 36.3695C272.512 36.0341 271.8 35.6904 271.069 35.3284C272.72 34.6881 274.044 34.1403 275.072 33.7151C275.626 33.4863 276.093 33.2929 276.479 33.1398C276.696 32.2112 276.9 31.3643 277.1 30.5342C277.514 28.8209 277.91 27.1796 278.357 25.0417C277.695 24.8138 276.997 24.5487 276.266 24.2717C274.192 23.4847 271.863 22.6012 269.413 22.1965C268.587 22.0637 267.751 21.9756 266.919 21.888C263.64 21.5424 260.418 21.2029 258.04 18.1475C257.378 17.272 255.501 16.7248 254.507 17.0531C249.207 18.9135 244.017 19.5701 238.276 18.6946C234.729 18.0743 231.051 18.192 227.38 18.3094C225.222 18.3784 223.066 18.4474 220.941 18.3663C217.914 18.2064 214.903 17.988 211.896 17.7698C206.673 17.3911 201.462 17.0132 196.207 16.9437C190.984 16.9437 185.723 17.205 180.468 17.466C176.726 17.6519 172.986 17.8376 169.266 17.9286C162.797 18.0743 156.278 18.123 149.776 18.1716C146.512 18.196 143.253 18.2203 140.006 18.2569H127.639C128.792 17.6251 129.939 17.0041 131.079 16.3867C135.074 14.2237 138.987 12.1049 142.766 9.72115C144.091 8.84569 145.527 6.5476 145.196 5.56271C144.754 4.24951 142.656 2.82689 141.11 2.71746C139.957 2.59586 138.804 2.47292 137.65 2.34997C128.425 1.36643 119.199 0.38289 109.973 0.0910692C103.011 -0.12017 96.0024 0.076348 89.0074 0.272498C85.131 0.381196 81.2587 0.489781 77.4004 0.5288C76.1474 0.5288 74.884 0.487621 73.6165 0.446311C70.7516 0.352936 67.8662 0.258892 65.0339 0.638233C61.1571 1.18713 57.2996 1.92723 53.4452 2.66672C48.0784 3.69639 42.7177 4.72488 37.3196 5.23441C31.5512 5.96204 28.4726 9.35554 24.6772 13.5392C24.4769 13.76 24.2746 13.983 24.0698 14.2079Z" fill="#FDB8A9"/>
<path d="M54.304 68C53.5947 68 52.7827 68 51.868 68C50.972 68 50.0853 68 49.208 68C48.3307 68 47.5747 68 46.94 68C46.3053 68 45.9133 68 45.764 68C45.6707 68 45.596 67.972 45.54 67.916C45.484 67.86 45.456 67.7853 45.456 67.692C45.456 66.18 45.456 64.6867 45.456 63.212C45.456 61.7373 45.456 60.272 45.456 58.816C45.456 57.3413 45.456 55.876 45.456 54.42C45.456 52.9453 45.456 51.452 45.456 49.94H51.336L51.084 50.696C51.084 51.4987 51.084 52.2267 51.084 52.88C51.084 53.5333 51.084 54.2427 51.084 55.008C51.084 55.6987 51.084 56.3893 51.084 57.08C51.084 57.7707 51.084 58.4707 51.084 59.18C51.084 59.8707 51.084 60.5707 51.084 61.28C51.084 61.9707 51.084 62.68 51.084 63.408C51.252 63.408 51.4107 63.408 51.56 63.408C51.728 63.408 51.8867 63.408 52.036 63.408C52.204 63.408 52.3627 63.408 52.512 63.408C52.9227 63.408 53.24 63.3613 53.464 63.268C53.7067 63.156 53.8747 62.9973 53.968 62.792C54.08 62.5867 54.136 62.3347 54.136 62.036V61.42C54.136 61.1213 54.08 60.8693 53.968 60.664C53.856 60.4587 53.6787 60.3093 53.436 60.216C53.1933 60.1227 52.876 60.076 52.484 60.076H49.236L49.292 57.528H56.208V58.368C57.3467 58.5547 58.2427 58.9747 58.896 59.628C59.5493 60.2813 59.876 61.252 59.876 62.54V63.128C59.876 64.1733 59.652 65.06 59.204 65.788C58.756 66.516 58.112 67.0667 57.272 67.44C56.432 67.8133 55.4427 68 54.304 68ZM44.476 48.4C46.044 48.4 47.6213 48.4 49.208 48.4C50.8133 48.4 52.4467 48.4 54.108 48.4C55.06 48.4 55.8907 48.512 56.6 48.736C57.3093 48.96 57.8973 49.2773 58.364 49.688C58.8307 50.08 59.176 50.556 59.4 51.116C59.6427 51.6573 59.764 52.2547 59.764 52.908V53.496C59.764 54.168 59.6427 54.784 59.4 55.344C59.1573 55.8853 58.8027 56.352 58.336 56.744C57.888 57.1173 57.3467 57.4067 56.712 57.612C56.096 57.8173 55.4147 57.92 54.668 57.92C53.6413 57.92 52.736 57.92 51.952 57.92C51.168 57.92 50.412 57.92 49.684 57.92L49.292 58.172L49.236 56.268C49.852 56.268 50.4307 56.268 50.972 56.268C51.5133 56.268 52.0827 56.268 52.68 56.268C53.016 56.268 53.296 56.2213 53.52 56.128C53.744 56.016 53.912 55.8573 54.024 55.652C54.1547 55.428 54.22 55.1667 54.22 54.868V54.364C54.22 54.14 54.192 53.9533 54.136 53.804C54.08 53.636 53.996 53.496 53.884 53.384C53.7533 53.2533 53.5853 53.16 53.38 53.104C53.1747 53.0293 52.9133 52.992 52.596 52.992C51.7373 52.992 50.8693 52.992 49.992 52.992C49.1147 52.992 48.2373 52.992 47.36 52.992C46.5013 52.992 45.6427 52.992 44.784 52.992C44.6907 52.992 44.616 52.964 44.56 52.908C44.504 52.8333 44.476 52.7587 44.476 52.684C44.476 51.956 44.476 51.2467 44.476 50.556C44.476 49.8467 44.476 49.128 44.476 48.4ZM63.8131 68C63.7571 68 63.7104 68 63.6731 68C63.6357 67.9813 63.5984 67.9627 63.5611 67.944C63.5424 67.9067 63.5237 67.8693 63.5051 67.832C63.5051 67.7947 63.5051 67.748 63.5051 67.692C63.5051 66.292 63.5051 64.9013 63.5051 63.52C63.5051 62.1387 63.5051 60.748 63.5051 59.348C63.5051 57.948 63.5051 56.5573 63.5051 55.176C63.5051 53.776 63.5051 52.3853 63.5051 51.004C63.5051 50.556 63.5051 50.1173 63.5051 49.688C63.5051 49.2587 63.5051 48.8293 63.5051 48.4C64.4384 48.4 65.3624 48.4 66.2771 48.4C67.2104 48.4 68.1437 48.4 69.0771 48.4C69.1517 48.4 69.2077 48.4187 69.2451 48.456C69.2824 48.4747 69.3104 48.512 69.3291 48.568C69.3664 48.6053 69.3851 48.652 69.3851 48.708C69.3851 49.884 69.3851 51.06 69.3851 52.236C69.3851 53.412 69.3851 54.588 69.3851 55.764C69.3851 56.94 69.3851 58.116 69.3851 59.292C69.3851 60.468 69.3851 61.644 69.3851 62.82H73.1651C73.7997 62.82 74.3877 62.96 74.9291 63.24C75.4891 63.5013 75.9744 63.8747 76.3851 64.36C76.8144 64.8267 77.1597 65.3773 77.4211 66.012C77.6824 66.628 77.8317 67.2907 77.8691 68H63.8131ZM72.9131 60.44C73.4544 60.44 73.9771 60.44 74.4811 60.44C74.9851 60.44 75.4891 60.44 75.9931 60.44C76.5157 60.44 77.0384 60.44 77.5611 60.44C77.6171 60.44 77.6637 60.4587 77.7011 60.496C77.7571 60.5147 77.7944 60.5427 77.8131 60.58C77.8504 60.6173 77.8691 60.664 77.8691 60.72C77.8691 61.3547 77.8691 61.98 77.8691 62.596C77.8691 63.1933 77.8691 63.7907 77.8691 64.388C77.8691 64.9667 77.8691 65.5547 77.8691 66.152C77.8691 66.7493 77.8691 67.3653 77.8691 68C76.8237 67.9627 75.9277 67.7293 75.1811 67.3C74.4531 66.8707 73.8931 66.292 73.5011 65.564C73.1091 64.8173 72.9131 63.968 72.9131 63.016C72.9131 62.848 72.9131 62.6333 72.9131 62.372C72.9131 62.092 72.9131 61.784 72.9131 61.448C72.9131 61.112 72.9131 60.776 72.9131 60.44ZM84.3821 59.964H89.1701C89.4875 59.964 89.8048 59.964 90.1221 59.964C90.4581 59.964 90.7848 59.964 91.1021 59.964L92.3061 59.712L92.6421 62.036L93.0341 64.724H84.6621C84.6061 64.724 84.5501 64.7147 84.4941 64.696C84.4568 64.6587 84.4195 64.6213 84.3821 64.584C84.3635 64.528 84.3541 64.472 84.3541 64.416L84.3821 59.964ZM85.9221 68C85.1008 68 84.2795 68 83.4581 68C82.6368 68 81.8061 68 80.9661 68C80.9288 68 80.8821 67.9907 80.8261 67.972C80.7888 67.9533 80.7608 67.916 80.7421 67.86C80.7235 67.804 80.7235 67.7293 80.7421 67.636C80.8728 66.908 81.0221 66.1147 81.1901 65.256C81.3768 64.3973 81.5635 63.492 81.7501 62.54C81.9368 61.588 82.1328 60.608 82.3381 59.6C82.5621 58.592 82.7675 57.584 82.9541 56.576C83.1595 55.568 83.3555 54.5787 83.5421 53.608C83.7475 52.6373 83.9341 51.7133 84.1021 50.836C84.2888 49.9587 84.4568 49.1467 84.6061 48.4C86.0061 48.4 87.3688 48.4 88.6941 48.4C90.0195 48.4 91.3541 48.4 92.6981 48.4C92.7541 48.4 92.8008 48.4093 92.8381 48.428C92.8755 48.4467 92.9035 48.484 92.9221 48.54C92.9595 48.5773 92.9875 48.6333 93.0061 48.708C93.2488 49.9027 93.4915 51.1253 93.7341 52.376C93.9768 53.608 94.2288 54.868 94.4901 56.156C94.7515 57.4253 95.0128 58.7227 95.2741 60.048C95.5541 61.3733 95.8248 62.7173 96.0861 64.08C96.2168 64.7333 96.3475 65.3867 96.4781 66.04C96.6275 66.6747 96.7675 67.328 96.8981 68C96.0581 68 95.2275 68 94.4061 68C93.6035 68 92.8381 68 92.1101 68C91.9795 68 91.8675 67.9813 91.7741 67.944C91.6995 67.888 91.6341 67.776 91.5781 67.608C91.5221 67.44 91.4568 67.16 91.3821 66.768C91.1768 65.6667 90.9715 64.6027 90.7661 63.576C90.5795 62.5493 90.4021 61.5507 90.2341 60.58C90.0661 59.6093 89.9075 58.6667 89.7581 57.752C89.6088 56.8187 89.4688 55.904 89.3381 55.008C89.2075 54.0933 89.0861 53.188 88.9741 52.292L89.7301 53.048H87.8261L88.6101 52.292C88.4981 53.2253 88.3675 54.1493 88.2181 55.064C88.0875 55.9787 87.9381 56.9213 87.7701 57.892C87.6208 58.8627 87.4435 59.8707 87.2381 60.916C87.0515 61.9613 86.8461 63.072 86.6221 64.248C86.4168 65.4053 86.1835 66.656 85.9221 68ZM107.975 68.56C106.575 68.56 105.343 68.392 104.279 68.056C103.234 67.72 102.357 67.2347 101.647 66.6C100.938 65.9653 100.406 65.2 100.051 64.304C99.6965 63.3893 99.5192 62.372 99.5192 61.252V55.036C99.5192 53.972 99.6965 53.0013 100.051 52.124C100.425 51.2467 100.966 50.4907 101.675 49.856C102.403 49.2027 103.281 48.708 104.307 48.372C105.353 48.0173 106.538 47.84 107.863 47.84C108.909 47.84 109.851 47.9427 110.691 48.148C111.55 48.3347 112.278 48.5773 112.875 48.876C113.473 49.156 113.911 49.4453 114.191 49.744C114.247 49.7813 114.285 49.828 114.303 49.884C114.322 49.9213 114.331 49.968 114.331 50.024C114.35 50.08 114.359 50.1453 114.359 50.22C114.359 51.06 114.359 51.9467 114.359 52.88C114.359 53.7947 114.359 54.7 114.359 55.596C113.594 55.596 112.819 55.596 112.035 55.596C111.27 55.596 110.495 55.596 109.711 55.596C109.599 55.596 109.525 55.568 109.487 55.512C109.45 55.456 109.431 55.3813 109.431 55.288C109.431 55.064 109.431 54.8307 109.431 54.588C109.431 54.3267 109.431 54.028 109.431 53.692C109.431 53.3373 109.431 52.908 109.431 52.404L110.187 53.58C109.739 53.3187 109.329 53.1413 108.955 53.048C108.582 52.9547 108.171 52.908 107.723 52.908C107.238 52.908 106.818 53.0013 106.463 53.188C106.109 53.3747 105.838 53.6547 105.651 54.028C105.483 54.4013 105.399 54.8867 105.399 55.484V60.468C105.399 60.972 105.446 61.4013 105.539 61.756C105.651 62.1107 105.829 62.4093 106.071 62.652C106.314 62.8947 106.622 63.072 106.995 63.184C107.387 63.2773 107.845 63.324 108.367 63.324C109.338 63.324 110.243 63.2213 111.083 63.016C111.923 62.8107 112.857 62.4373 113.883 61.896H114.443C114.443 62.3067 114.443 62.7173 114.443 63.128C114.443 63.52 114.443 63.912 114.443 64.304C114.443 64.6773 114.443 65.0693 114.443 65.48C114.443 65.872 114.443 66.2733 114.443 66.684C114.443 66.74 114.434 66.796 114.415 66.852C114.397 66.8893 114.369 66.936 114.331 66.992C114.07 67.2347 113.631 67.4773 113.015 67.72C112.418 67.9627 111.681 68.1587 110.803 68.308C109.945 68.476 109.002 68.56 107.975 68.56ZM127.228 56.548C127.807 57.5187 128.386 58.4893 128.964 59.46C129.562 60.412 130.159 61.3733 130.756 62.344C130.906 62.5867 131.046 62.764 131.176 62.876C131.326 62.9693 131.522 63.016 131.764 63.016C131.839 63.016 131.904 63.016 131.96 63.016C132.035 63.016 132.119 63.016 132.212 63.016H132.716C132.716 63.4267 132.716 63.9027 132.716 64.444C132.716 64.9667 132.716 65.48 132.716 65.984C132.716 66.488 132.716 66.9173 132.716 67.272C132.716 67.6267 132.716 67.832 132.716 67.888C132.716 67.9813 132.688 68.056 132.632 68.112C132.576 68.168 132.502 68.196 132.408 68.196C132.334 68.196 132.203 68.196 132.016 68.196C131.848 68.196 131.652 68.196 131.428 68.196C131.204 68.196 130.99 68.196 130.784 68.196C130 68.196 129.347 68.1307 128.824 68C128.302 67.8693 127.844 67.6173 127.452 67.244C127.079 66.8707 126.696 66.3293 126.304 65.62C126.062 65.1907 125.875 64.8453 125.744 64.584C125.614 64.304 125.511 64.0613 125.436 63.856C125.362 63.632 125.296 63.3893 125.24 63.128C125.203 62.8667 125.147 62.5493 125.072 62.176H123.392L127.228 56.548ZM132.968 48.4C133.024 48.4 133.071 48.4093 133.108 48.428C133.146 48.4467 133.174 48.4747 133.192 48.512C133.211 48.5493 133.22 48.5867 133.22 48.624C133.22 48.6613 133.202 48.736 133.164 48.848C133.127 48.9413 133.015 49.156 132.828 49.492C132.66 49.8093 132.371 50.3413 131.96 51.088C131.419 52.04 130.906 52.936 130.42 53.776C129.954 54.5973 129.487 55.372 129.02 56.1C128.554 56.8093 128.078 57.5093 127.592 58.2C127.126 58.872 126.622 59.5533 126.08 60.244C125.558 60.9347 124.988 61.644 124.372 62.372C123.775 63.1 123.103 63.884 122.356 64.724V56.968H123.896C123.99 56.4453 124.064 56.0253 124.12 55.708C124.195 55.372 124.27 55.0733 124.344 54.812C124.438 54.532 124.54 54.2427 124.652 53.944C124.783 53.6453 124.942 53.272 125.128 52.824C125.39 52.1893 125.623 51.6293 125.828 51.144C126.052 50.6587 126.267 50.2013 126.472 49.772C126.678 49.324 126.892 48.8667 127.116 48.4H132.968ZM117.792 48.4C118.688 48.4 119.556 48.4 120.396 48.4C121.255 48.4 122.132 48.4 123.028 48.4C123.122 48.4 123.196 48.428 123.252 48.484C123.308 48.54 123.336 48.6147 123.336 48.708C123.336 50.3133 123.336 51.9187 123.336 53.524C123.336 55.1293 123.336 56.744 123.336 58.368C123.336 59.9733 123.336 61.5787 123.336 63.184C123.336 64.7893 123.336 66.3947 123.336 68C122.44 68 121.563 68 120.704 68C119.864 68 118.996 68 118.1 68C118.007 68 117.932 67.972 117.876 67.916C117.82 67.86 117.792 67.7853 117.792 67.692C117.792 65.8627 117.792 64.0427 117.792 62.232C117.792 60.4027 117.792 58.5733 117.792 56.744C117.792 54.9147 117.792 53.0853 117.792 51.256C117.792 50.7893 117.792 50.3227 117.792 49.856C117.792 49.3707 117.792 48.8853 117.792 48.4ZM142.729 68C141.852 68 140.956 68 140.041 68C139.145 68 138.249 68 137.353 68C137.297 68 137.241 67.9907 137.185 67.972C137.148 67.9347 137.111 67.8973 137.073 67.86C137.055 67.8227 137.045 67.7667 137.045 67.692C137.045 66.1987 137.045 64.724 137.045 63.268C137.045 61.812 137.045 60.3653 137.045 58.928C137.045 57.472 137.045 56.016 137.045 54.56C137.045 53.0853 137.045 51.6107 137.045 50.136H143.121L142.729 50.724C142.729 51.6013 142.729 52.4787 142.729 53.356C142.729 54.2147 142.729 55.064 142.729 55.904C142.729 56.9493 142.729 57.9853 142.729 59.012C142.729 60.02 142.729 61.0467 142.729 62.092C142.729 63.1187 142.729 64.1733 142.729 65.256C142.729 65.76 142.729 66.2453 142.729 66.712C142.729 67.1787 142.729 67.608 142.729 68ZM135.589 48.4H150.289C150.383 48.4 150.448 48.4187 150.485 48.456C150.523 48.4747 150.551 48.512 150.569 48.568C150.607 48.6053 150.625 48.652 150.625 48.708C150.625 49.1373 150.625 49.6507 150.625 50.248C150.625 50.8453 150.625 51.4427 150.625 52.04C150.625 52.6373 150.625 53.1507 150.625 53.58H135.925C135.869 53.58 135.813 53.5707 135.757 53.552C135.701 53.5147 135.655 53.4773 135.617 53.44C135.599 53.384 135.589 53.328 135.589 53.272C135.589 52.432 135.589 51.62 135.589 50.836C135.589 50.0333 135.589 49.2213 135.589 48.4ZM139.957 56.884H148.721C148.815 56.884 148.889 56.912 148.945 56.968C149.001 57.024 149.029 57.0987 149.029 57.192C149.029 57.6213 149.029 58.1067 149.029 58.648C149.029 59.1893 149.029 59.7307 149.029 60.272C149.029 60.8133 149.029 61.2893 149.029 61.7H139.957V56.884ZM165.09 58.872C165.445 59.488 165.79 60.076 166.126 60.636C166.462 61.196 166.808 61.784 167.162 62.4C167.293 62.6053 167.414 62.764 167.526 62.876C167.657 62.9693 167.816 63.016 168.002 63.016C168.058 63.016 168.114 63.016 168.17 63.016C168.226 63.016 168.282 63.016 168.338 63.016H169.122C169.122 63.8373 169.122 64.6493 169.122 65.452C169.122 66.236 169.122 67.048 169.122 67.888C169.122 67.9813 169.094 68.056 169.038 68.112C168.982 68.168 168.908 68.196 168.814 68.196C168.59 68.196 168.338 68.196 168.058 68.196C167.778 68.196 167.508 68.196 167.246 68.196C166.462 68.196 165.828 68.1307 165.342 68C164.857 67.8693 164.437 67.636 164.082 67.3C163.728 66.964 163.373 66.46 163.018 65.788C162.626 65.004 162.234 64.2293 161.842 63.464C161.45 62.68 161.049 61.9053 160.638 61.14L165.09 58.872ZM153.498 48.4C154.973 48.4 156.448 48.4 157.922 48.4C159.397 48.4 160.872 48.4 162.346 48.4C163.504 48.4 164.502 48.5307 165.342 48.792C166.182 49.0533 166.873 49.4453 167.414 49.968C167.956 50.472 168.348 51.1067 168.59 51.872C168.852 52.6373 168.982 53.524 168.982 54.532V55.848C168.982 56.8187 168.833 57.6867 168.534 58.452C168.254 59.1987 167.834 59.8427 167.274 60.384C166.733 60.9067 166.089 61.308 165.342 61.588C164.596 61.868 163.756 62.008 162.822 62.008C162.132 62.008 161.432 62.008 160.722 62.008C160.013 62.008 159.313 62.008 158.622 62.008L158.314 62.204V57.528C158.837 57.528 159.36 57.528 159.882 57.528C160.405 57.528 160.918 57.528 161.422 57.528C161.852 57.528 162.188 57.4813 162.43 57.388C162.692 57.276 162.869 57.0987 162.962 56.856C163.074 56.6133 163.13 56.2773 163.13 55.848V54.952C163.13 54.6347 163.093 54.3827 163.018 54.196C162.962 54.0093 162.869 53.86 162.738 53.748C162.608 53.5987 162.43 53.5053 162.206 53.468C162.001 53.412 161.768 53.384 161.506 53.384C160.648 53.384 159.789 53.384 158.93 53.384C158.09 53.384 157.241 53.384 156.382 53.384C155.524 53.384 154.665 53.384 153.806 53.384C153.713 53.384 153.638 53.356 153.582 53.3C153.526 53.244 153.498 53.1693 153.498 53.076C153.498 52.292 153.498 51.5173 153.498 50.752C153.498 49.9867 153.498 49.2027 153.498 48.4ZM160.162 68C159.248 68 158.352 68 157.474 68C156.597 68 155.701 68 154.786 68C154.693 68 154.618 67.972 154.562 67.916C154.506 67.8413 154.478 67.7667 154.478 67.692C154.478 66.1987 154.478 64.724 154.478 63.268C154.478 61.812 154.478 60.356 154.478 58.9C154.478 57.444 154.478 55.988 154.478 54.532C154.478 53.076 154.478 51.6013 154.478 50.108H160.554L160.162 50.612C160.162 51.4333 160.162 52.2453 160.162 53.048C160.162 53.8507 160.162 54.6533 160.162 55.456C160.162 56.5387 160.162 57.612 160.162 58.676C160.162 59.74 160.162 60.8133 160.162 61.896C160.162 62.96 160.162 64.0613 160.162 65.2C160.162 65.704 160.162 66.1987 160.162 66.684C160.162 67.1507 160.162 67.5893 160.162 68ZM182.551 66.264H176.671L176.895 65.648C176.895 65.0133 176.895 64.3693 176.895 63.716C176.895 63.0627 176.895 62.4187 176.895 61.784C176.895 60.7947 176.895 59.824 176.895 58.872C176.895 57.9013 176.895 56.9307 176.895 55.96C176.895 54.9893 176.895 54.0187 176.895 53.048C176.895 52.0587 176.895 51.088 176.895 50.136H182.775L182.551 50.752C182.551 51.424 182.551 52.1147 182.551 52.824C182.551 53.5333 182.551 54.2333 182.551 54.924C182.551 55.8573 182.551 56.8 182.551 57.752C182.551 58.704 182.551 59.656 182.551 60.608C182.551 61.56 182.551 62.512 182.551 63.464C182.551 64.3973 182.551 65.3307 182.551 66.264ZM186.919 68H172.835C172.779 68 172.733 67.9907 172.695 67.972C172.658 67.9533 172.621 67.9347 172.583 67.916C172.565 67.8787 172.546 67.8413 172.527 67.804C172.527 67.7667 172.527 67.7293 172.527 67.692C172.527 67.2627 172.527 66.7493 172.527 66.152C172.527 65.5547 172.527 64.9573 172.527 64.36C172.527 63.7627 172.527 63.2493 172.527 62.82H186.583C186.658 62.82 186.714 62.8387 186.751 62.876C186.807 62.8947 186.845 62.9227 186.863 62.96C186.901 62.9973 186.919 63.0533 186.919 63.128C186.919 63.5573 186.919 64.0707 186.919 64.668C186.919 65.2653 186.919 65.8627 186.919 66.46C186.919 67.0573 186.919 67.5707 186.919 68ZM172.527 48.4H186.583C186.695 48.4 186.779 48.428 186.835 48.484C186.891 48.54 186.919 48.6147 186.919 48.708C186.919 49.0253 186.919 49.3987 186.919 49.828C186.919 50.2387 186.919 50.6773 186.919 51.144C186.919 51.6107 186.919 52.0587 186.919 52.488C186.919 52.8987 186.919 53.2627 186.919 53.58H172.863C172.751 53.58 172.667 53.552 172.611 53.496C172.555 53.4213 172.527 53.3467 172.527 53.272C172.527 52.9547 172.527 52.5907 172.527 52.18C172.527 51.7507 172.527 51.3027 172.527 50.836C172.527 50.3693 172.527 49.9307 172.527 49.52C172.527 49.0907 172.527 48.7173 172.527 48.4ZM205.276 61.196C205.276 62.26 205.127 63.2213 204.828 64.08C204.53 64.92 204.091 65.6387 203.512 66.236C202.934 66.8147 202.243 67.2533 201.44 67.552C200.638 67.8507 199.732 68 198.724 68C198.22 68 197.698 68 197.156 68C196.634 68 196.102 68 195.56 68C195.038 68 194.515 68 193.992 68C193.47 68 192.966 68 192.48 68C192.014 68 191.575 68 191.164 68C191.071 68 190.996 67.972 190.94 67.916C190.884 67.86 190.856 67.7853 190.856 67.692C190.856 66.2173 190.856 64.752 190.856 63.296C190.856 61.8213 190.856 60.3467 190.856 58.872C190.856 57.3973 190.856 55.932 190.856 54.476C190.856 53.0013 190.856 51.5267 190.856 50.052H196.764L196.512 50.5C196.512 51.1907 196.512 51.928 196.512 52.712C196.512 53.496 196.512 54.28 196.512 55.064C196.512 55.792 196.512 56.52 196.512 57.248C196.512 57.976 196.512 58.6853 196.512 59.376C196.512 60.048 196.512 60.692 196.512 61.308C196.512 61.924 196.512 62.5027 196.512 63.044C196.643 63.044 196.774 63.044 196.904 63.044C197.035 63.044 197.156 63.044 197.268 63.044C197.399 63.044 197.53 63.044 197.66 63.044C198.146 63.044 198.519 62.9787 198.78 62.848C199.042 62.7173 199.228 62.5027 199.34 62.204C199.471 61.9053 199.536 61.504 199.536 61V55.4C199.536 55.12 199.518 54.8867 199.48 54.7C199.462 54.4947 199.415 54.3173 199.34 54.168C199.284 54 199.2 53.8693 199.088 53.776C198.995 53.664 198.874 53.58 198.724 53.524C198.594 53.468 198.435 53.4307 198.248 53.412C198.08 53.3747 197.884 53.356 197.66 53.356C197.063 53.356 196.447 53.356 195.812 53.356C195.196 53.356 194.571 53.356 193.936 53.356C193.32 53.356 192.695 53.356 192.06 53.356C191.444 53.356 190.819 53.356 190.184 53.356C190.128 53.356 190.072 53.3467 190.016 53.328C189.979 53.2907 189.942 53.2533 189.904 53.216C189.886 53.16 189.876 53.104 189.876 53.048C189.876 52.2827 189.876 51.5173 189.876 50.752C189.876 49.968 189.876 49.184 189.876 48.4C190.604 48.4 191.332 48.4 192.06 48.4C192.788 48.4 193.516 48.4 194.244 48.4C194.991 48.4 195.738 48.4 196.484 48.4C197.231 48.4 197.978 48.4 198.724 48.4C199.732 48.4 200.638 48.5493 201.44 48.848C202.243 49.1467 202.934 49.5947 203.512 50.192C204.091 50.7707 204.53 51.48 204.828 52.32C205.127 53.16 205.276 54.1213 205.276 55.204V61.196ZM211.706 59.964H216.494C216.811 59.964 217.128 59.964 217.446 59.964C217.782 59.964 218.108 59.964 218.426 59.964L219.63 59.712L219.966 62.036L220.358 64.724H211.986C211.93 64.724 211.874 64.7147 211.818 64.696C211.78 64.6587 211.743 64.6213 211.706 64.584C211.687 64.528 211.678 64.472 211.678 64.416L211.706 59.964ZM213.246 68C212.424 68 211.603 68 210.782 68C209.96 68 209.13 68 208.29 68C208.252 68 208.206 67.9907 208.15 67.972C208.112 67.9533 208.084 67.916 208.066 67.86C208.047 67.804 208.047 67.7293 208.066 67.636C208.196 66.908 208.346 66.1147 208.514 65.256C208.7 64.3973 208.887 63.492 209.074 62.54C209.26 61.588 209.456 60.608 209.662 59.6C209.886 58.592 210.091 57.584 210.278 56.576C210.483 55.568 210.679 54.5787 210.866 53.608C211.071 52.6373 211.258 51.7133 211.426 50.836C211.612 49.9587 211.78 49.1467 211.93 48.4C213.33 48.4 214.692 48.4 216.018 48.4C217.343 48.4 218.678 48.4 220.022 48.4C220.078 48.4 220.124 48.4093 220.162 48.428C220.199 48.4467 220.227 48.484 220.246 48.54C220.283 48.5773 220.311 48.6333 220.33 48.708C220.572 49.9027 220.815 51.1253 221.058 52.376C221.3 53.608 221.552 54.868 221.814 56.156C222.075 57.4253 222.336 58.7227 222.598 60.048C222.878 61.3733 223.148 62.7173 223.41 64.08C223.54 64.7333 223.671 65.3867 223.802 66.04C223.951 66.6747 224.091 67.328 224.222 68C223.382 68 222.551 68 221.73 68C220.927 68 220.162 68 219.434 68C219.303 68 219.191 67.9813 219.098 67.944C219.023 67.888 218.958 67.776 218.902 67.608C218.846 67.44 218.78 67.16 218.706 66.768C218.5 65.6667 218.295 64.6027 218.09 63.576C217.903 62.5493 217.726 61.5507 217.558 60.58C217.39 59.6093 217.231 58.6667 217.082 57.752C216.932 56.8187 216.792 55.904 216.662 55.008C216.531 54.0933 216.41 53.188 216.298 52.292L217.054 53.048H215.15L215.934 52.292C215.822 53.2253 215.691 54.1493 215.542 55.064C215.411 55.9787 215.262 56.9213 215.094 57.892C214.944 58.8627 214.767 59.8707 214.562 60.916C214.375 61.9613 214.17 63.072 213.946 64.248C213.74 65.4053 213.507 66.656 213.246 68ZM237.147 68C236.549 68 235.952 68 235.355 68C234.757 68 234.151 68 233.535 68C232.937 68 232.34 68 231.743 68C231.687 68 231.631 67.9907 231.575 67.972C231.537 67.9347 231.5 67.8973 231.463 67.86C231.444 67.804 231.435 67.748 231.435 67.692C231.435 66.3667 231.435 65.0227 231.435 63.66C231.435 62.2787 231.435 60.9253 231.435 59.6H237.147C237.147 60.1973 237.147 60.8133 237.147 61.448C237.147 62.064 237.147 62.6893 237.147 63.324C237.147 63.9587 237.147 64.5747 237.147 65.172C237.147 65.676 237.147 66.1613 237.147 66.628C237.147 67.0947 237.147 67.552 237.147 68ZM226.115 48.4C227.085 48.4 228.047 48.4 228.999 48.4C229.969 48.4 230.912 48.4 231.827 48.4C231.939 48.4 232.032 48.4187 232.107 48.456C232.181 48.4747 232.237 48.5213 232.275 48.596C232.331 48.652 232.377 48.7547 232.415 48.904C232.601 49.7253 232.779 50.556 232.947 51.396C233.115 52.236 233.273 53.0667 233.423 53.888C233.572 54.7093 233.703 55.512 233.815 56.296C233.945 57.0613 234.048 57.7893 234.123 58.48L233.283 57.556H235.355L234.543 58.452C234.617 57.724 234.701 56.9773 234.795 56.212C234.907 55.4467 235.037 54.6627 235.187 53.86C235.336 53.0387 235.504 52.18 235.691 51.284C235.877 50.388 236.101 49.4267 236.363 48.4C237.296 48.4 238.22 48.4 239.135 48.4C240.068 48.4 240.992 48.4 241.907 48.4C242.056 48.4 242.159 48.456 242.215 48.568C242.271 48.68 242.261 48.8387 242.187 49.044C241.832 49.9027 241.468 50.7613 241.095 51.62C240.74 52.4787 240.385 53.3467 240.031 54.224C239.676 55.0827 239.312 55.9507 238.939 56.828C238.565 57.6867 238.192 58.5547 237.819 59.432C237.464 60.3093 237.1 61.1867 236.727 62.064C235.532 62.064 234.599 62.064 233.927 62.064C233.255 62.0453 232.76 62.0173 232.443 61.98C232.144 61.9427 231.948 61.9053 231.855 61.868C231.761 61.812 231.705 61.7467 231.687 61.672C231.425 61.0373 231.127 60.3187 230.791 59.516C230.455 58.6947 230.091 57.8267 229.699 56.912C229.325 55.9787 228.924 55.0267 228.495 54.056C228.084 53.0853 227.673 52.124 227.263 51.172C226.871 50.2013 226.488 49.2773 226.115 48.4ZM53.1 82.84C54.724 82.84 56.0587 82.9987 57.104 83.316C58.168 83.6333 58.8493 83.9413 59.148 84.24C59.2227 84.3147 59.2693 84.3893 59.288 84.464C59.3067 84.52 59.316 84.6133 59.316 84.744C59.316 85.2107 59.316 85.696 59.316 86.2C59.316 86.704 59.316 87.208 59.316 87.712C59.316 88.216 59.316 88.72 59.316 89.224C58.5507 89.224 57.776 89.224 56.992 89.224C56.208 89.224 55.424 89.224 54.64 89.224C54.528 89.224 54.4533 89.196 54.416 89.14C54.3787 89.084 54.36 89.0093 54.36 88.916C54.36 88.804 54.36 88.6733 54.36 88.524C54.36 88.3747 54.36 88.216 54.36 88.048C54.36 87.88 54.36 87.712 54.36 87.544C54.36 87.3573 54.36 87.1613 54.36 86.956L55.144 87.992C54.7893 87.8613 54.4533 87.7773 54.136 87.74C53.8187 87.684 53.4827 87.656 53.128 87.656C52.7547 87.656 52.4093 87.6747 52.092 87.712C51.7933 87.7307 51.5227 87.7867 51.28 87.88C51.056 87.9733 50.8787 88.104 50.748 88.272C50.636 88.44 50.58 88.6547 50.58 88.916V89.308C50.58 89.532 50.608 89.728 50.664 89.896C50.7387 90.064 50.888 90.204 51.112 90.316C51.336 90.428 51.6627 90.54 52.092 90.652L54.892 91.324C55.844 91.548 56.6373 91.8093 57.272 92.108C57.9067 92.388 58.4013 92.7333 58.756 93.144C59.1107 93.5547 59.3627 94.04 59.512 94.6C59.6613 95.16 59.736 95.804 59.736 96.532V97.96C59.736 99.192 59.4093 100.228 58.756 101.068C58.1213 101.889 57.2067 102.515 56.012 102.944C54.8173 103.355 53.3987 103.56 51.756 103.56C50.7293 103.56 49.768 103.485 48.872 103.336C47.976 103.205 47.2107 103.019 46.576 102.776C45.9413 102.533 45.4933 102.3 45.232 102.076C45.1947 102.02 45.1667 101.973 45.148 101.936C45.1293 101.88 45.12 101.815 45.12 101.74C45.12 101.199 45.12 100.667 45.12 100.144C45.12 99.6213 45.12 99.0987 45.12 98.576C45.12 98.0347 45.12 97.4933 45.12 96.952H45.68C46.5947 97.4747 47.5467 97.876 48.536 98.156C49.544 98.4173 50.692 98.548 51.98 98.548C52.9693 98.548 53.6227 98.436 53.94 98.212C54.276 97.9693 54.444 97.708 54.444 97.428V96.868C54.444 96.7 54.4067 96.5413 54.332 96.392C54.2573 96.2427 54.108 96.112 53.884 96C53.6787 95.8693 53.3613 95.748 52.932 95.636L50.356 94.992C49.2547 94.7307 48.3587 94.4227 47.668 94.068C46.996 93.7133 46.4827 93.3213 46.128 92.892C45.792 92.444 45.568 91.968 45.456 91.464C45.344 90.9413 45.288 90.3813 45.288 89.784V88.468C45.288 87.628 45.4653 86.872 45.82 86.2C46.1747 85.5093 46.688 84.912 47.36 84.408C48.0507 83.904 48.872 83.5213 49.824 83.26C50.7947 82.98 51.8867 82.84 53.1 82.84ZM66.1931 94.964H70.9811C71.2984 94.964 71.6157 94.964 71.9331 94.964C72.2691 94.964 72.5957 94.964 72.9131 94.964L74.1171 94.712L74.4531 97.036L74.8451 99.724H66.4731C66.4171 99.724 66.3611 99.7147 66.3051 99.696C66.2677 99.6587 66.2304 99.6213 66.1931 99.584C66.1744 99.528 66.1651 99.472 66.1651 99.416L66.1931 94.964ZM67.7331 103C66.9117 103 66.0904 103 65.2691 103C64.4477 103 63.6171 103 62.7771 103C62.7397 103 62.6931 102.991 62.6371 102.972C62.5997 102.953 62.5717 102.916 62.5531 102.86C62.5344 102.804 62.5344 102.729 62.5531 102.636C62.6837 101.908 62.8331 101.115 63.0011 100.256C63.1877 99.3973 63.3744 98.492 63.5611 97.54C63.7477 96.588 63.9437 95.608 64.1491 94.6C64.3731 93.592 64.5784 92.584 64.7651 91.576C64.9704 90.568 65.1664 89.5787 65.3531 88.608C65.5584 87.6373 65.7451 86.7133 65.9131 85.836C66.0997 84.9587 66.2677 84.1467 66.4171 83.4C67.8171 83.4 69.1797 83.4 70.5051 83.4C71.8304 83.4 73.1651 83.4 74.5091 83.4C74.5651 83.4 74.6117 83.4093 74.6491 83.428C74.6864 83.4467 74.7144 83.484 74.7331 83.54C74.7704 83.5773 74.7984 83.6333 74.8171 83.708C75.0597 84.9027 75.3024 86.1253 75.5451 87.376C75.7877 88.608 76.0397 89.868 76.3011 91.156C76.5624 92.4253 76.8237 93.7227 77.0851 95.048C77.3651 96.3733 77.6357 97.7173 77.8971 99.08C78.0277 99.7333 78.1584 100.387 78.2891 101.04C78.4384 101.675 78.5784 102.328 78.7091 103C77.8691 103 77.0384 103 76.2171 103C75.4144 103 74.6491 103 73.9211 103C73.7904 103 73.6784 102.981 73.5851 102.944C73.5104 102.888 73.4451 102.776 73.3891 102.608C73.3331 102.44 73.2677 102.16 73.1931 101.768C72.9877 100.667 72.7824 99.6027 72.5771 98.576C72.3904 97.5493 72.2131 96.5507 72.0451 95.58C71.8771 94.6093 71.7184 93.6667 71.5691 92.752C71.4197 91.8187 71.2797 90.904 71.1491 90.008C71.0184 89.0933 70.8971 88.188 70.7851 87.292L71.5411 88.048H69.6371L70.4211 87.292C70.3091 88.2253 70.1784 89.1493 70.0291 90.064C69.8984 90.9787 69.7491 91.9213 69.5811 92.892C69.4317 93.8627 69.2544 94.8707 69.0491 95.916C68.8624 96.9613 68.6571 98.072 68.4331 99.248C68.2277 100.405 67.9944 101.656 67.7331 103ZM82.0021 103C81.9461 103 81.8995 103 81.8621 103C81.8248 102.981 81.7875 102.963 81.7501 102.944C81.7315 102.907 81.7128 102.869 81.6941 102.832C81.6941 102.795 81.6941 102.748 81.6941 102.692C81.6941 101.292 81.6941 99.9013 81.6941 98.52C81.6941 97.1387 81.6941 95.748 81.6941 94.348C81.6941 92.948 81.6941 91.5573 81.6941 90.176C81.6941 88.776 81.6941 87.3853 81.6941 86.004C81.6941 85.556 81.6941 85.1173 81.6941 84.688C81.6941 84.2587 81.6941 83.8293 81.6941 83.4C82.6275 83.4 83.5515 83.4 84.4661 83.4C85.3995 83.4 86.3328 83.4 87.2661 83.4C87.3408 83.4 87.3968 83.4187 87.4341 83.456C87.4715 83.4747 87.4995 83.512 87.5181 83.568C87.5555 83.6053 87.5741 83.652 87.5741 83.708C87.5741 84.884 87.5741 86.06 87.5741 87.236C87.5741 88.412 87.5741 89.588 87.5741 90.764C87.5741 91.94 87.5741 93.116 87.5741 94.292C87.5741 95.468 87.5741 96.644 87.5741 97.82H91.3541C91.9888 97.82 92.5768 97.96 93.1181 98.24C93.6781 98.5013 94.1635 98.8747 94.5741 99.36C95.0035 99.8267 95.3488 100.377 95.6101 101.012C95.8715 101.628 96.0208 102.291 96.0581 103H82.0021ZM91.1021 95.44C91.6435 95.44 92.1661 95.44 92.6701 95.44C93.1741 95.44 93.6781 95.44 94.1821 95.44C94.7048 95.44 95.2275 95.44 95.7501 95.44C95.8061 95.44 95.8528 95.4587 95.8901 95.496C95.9461 95.5147 95.9835 95.5427 96.0021 95.58C96.0395 95.6173 96.0581 95.664 96.0581 95.72C96.0581 96.3547 96.0581 96.98 96.0581 97.596C96.0581 98.1933 96.0581 98.7907 96.0581 99.388C96.0581 99.9667 96.0581 100.555 96.0581 101.152C96.0581 101.749 96.0581 102.365 96.0581 103C95.0128 102.963 94.1168 102.729 93.3701 102.3C92.6421 101.871 92.0821 101.292 91.6901 100.564C91.2981 99.8173 91.1021 98.968 91.1021 98.016C91.1021 97.848 91.1021 97.6333 91.1021 97.372C91.1021 97.092 91.1021 96.784 91.1021 96.448C91.1021 96.112 91.1021 95.776 91.1021 95.44ZM98.9312 83.4H113.911C114.005 83.4 114.07 83.4093 114.107 83.428C114.145 83.4467 114.173 83.484 114.191 83.54C114.229 83.596 114.247 83.652 114.247 83.708C114.247 84.4733 114.247 85.22 114.247 85.948C114.247 86.676 114.247 87.432 114.247 88.216H99.2672C99.2112 88.216 99.1552 88.2067 99.0992 88.188C99.0432 88.1507 98.9965 88.1133 98.9592 88.076C98.9405 88.02 98.9312 87.964 98.9312 87.908C98.9312 87.124 98.9312 86.368 98.9312 85.64C98.9312 84.912 98.9312 84.1653 98.9312 83.4ZM103.103 90.988H112.259C112.334 90.988 112.39 91.0067 112.427 91.044C112.483 91.0627 112.521 91.1 112.539 91.156C112.558 91.1933 112.567 91.24 112.567 91.296C112.567 91.7813 112.567 92.248 112.567 92.696C112.567 93.144 112.567 93.592 112.567 94.04C112.567 94.4693 112.567 94.9173 112.567 95.384H103.103V90.988ZM100.415 103C100.359 103 100.313 103 100.275 103C100.238 102.981 100.201 102.963 100.163 102.944C100.145 102.907 100.126 102.869 100.107 102.832C100.107 102.795 100.107 102.748 100.107 102.692C100.107 101.777 100.107 100.769 100.107 99.668C100.107 98.5667 100.107 97.4187 100.107 96.224C100.107 95.0107 100.107 93.7787 100.107 92.528C100.107 91.2587 100.107 89.9987 100.107 88.748C100.107 87.4973 100.107 86.284 100.107 85.108H106.043L105.791 85.724C105.791 86.396 105.791 87.068 105.791 87.74C105.791 88.3933 105.791 89.056 105.791 89.728C105.791 90.4187 105.791 91.1187 105.791 91.828C105.791 92.5373 105.791 93.256 105.791 93.984C105.791 94.6933 105.791 95.4027 105.791 96.112C105.791 96.8027 105.791 97.4933 105.791 98.184H113.911C114.023 98.184 114.107 98.212 114.163 98.268C114.219 98.324 114.247 98.3987 114.247 98.492C114.247 99.2573 114.247 100.013 114.247 100.76C114.247 101.488 114.247 102.235 114.247 103H100.415Z" fill="#053761"/>
</g>
<defs>
<clipPath id="clip0_41_52">
<rect width="282" height="132" fill="white"/>
</clipPath>
</defs>
</svg>
