<svg width="282" height="132" viewBox="0 0 282 132" fill="none" xmlns="http://www.w3.org/2000/svg">
<g clip-path="url(#clip0_56_8)">
<path fill-rule="evenodd" clip-rule="evenodd" d="M13.9662 100.043C-5.62166 79.4887 9.26843 37.9874 34.3091 19.3852C60.5768 -0.128566 98.2562 17.6652 131.431 14.801C144.67 13.658 159.194 11.257 170.072 9.6808C183.865 7.09918 199.805 1.45602 217.183 1.37371C239.349 1.26873 263.918 13.5195 269.51 31.5704C275.073 49.5287 253.414 66.478 241.908 83.2624C232.439 97.0772 222.906 110.315 208.575 120.463C192.982 131.506 177.6 131.898 158.623 126.937C143.749 123.048 137.195 114.087 119.372 108.646C85.7216 98.3739 36.5746 123.767 13.9662 100.043Z" stroke="#FEB8AA" stroke-width="2.5"/>
<path d="M206 13.5C207.49 12.5076 209 11.6725 210.818 11.1396C213 10.5 215.364 10.5217 217.59 10.7701C224.665 11.5456 229.9 15.4452 233.902 21.1179C234.904 22.5562 235.722 24.1523 236.625 25.6862C236.915 26.3952 237.205 27.1041 237.495 27.813C237.55 28.1492 237.581 28.495 237.706 28.8022C239.206 33.3468 239.668 37.9846 239.264 42.7287C238.819 47.8475 237.515 52.6838 233.975 56.6412C233.186 57.5433 232.191 58.281 231.254 59.1605C231.827 59.616 232.399 60.0715 232.962 60.5033C233.567 60.9728 234.197 61.4326 234.741 61.9546C235.701 62.886 235.63 63.5218 234.521 64.1134C233.935 64.4356 233.34 64.7341 232.721 65.0422C234.147 66.6385 235.509 68.1499 236.848 69.671C241.133 74.4834 241.642 80.3156 241.357 86.3624C240.577 86.6813 239.774 87.0099 238.994 87.3287C238.81 86.8798 238.522 86.4458 238.476 85.9958C238.356 84.5554 238.35 83.1237 238.254 81.6737C238.007 77.9682 236.877 74.5966 234.494 71.7371C233.393 70.3943 232.146 69.1665 231.093 67.8045C230.145 66.5649 229.254 66.0739 227.725 66.92C226.578 67.5546 225.853 66.996 225.804 65.6641C225.786 65.1475 225.892 64.6631 225.987 64.1551C226.145 63.1251 226.327 62.0855 226.485 61.0555C220.756 61.4123 218.04 60.8405 213.916 58.4447C210.23 56.3111 207.071 53.576 204.522 50.1773C202.76 47.8915 202.045 46.4297 200.5 44C200.142 43.1257 199.12 41.2157 198.763 40.3413C198.503 39.2339 198.162 38.1319 197.96 37.0288C196.558 29.8239 197.336 23.0241 202.093 17.1895C203.582 15.3671 204.49 14.5076 206 13.5ZM229.053 21.8045C228.723 21.4704 228.565 21.2868 228.384 21.1127C224.782 18.1725 220.658 16.3836 216.077 15.6364C215.275 15.4956 213.658 15.4314 213.5 17C213.407 17.9205 214.24 18.7593 215 19C217.385 19.7071 218.897 20.5273 221.194 21.491C222.659 22.1056 224.813 23.6767 226.194 24.491C227.219 25.0612 228.5 25 229.053 24.491C229.573 24.012 230 23 229.053 21.8045Z" fill="#FEB8AA"/>
<path d="M118.4 71.96C120.256 71.96 121.781 72.1413 122.976 72.504C124.192 72.8667 124.971 73.2187 125.312 73.56C125.397 73.6453 125.451 73.7307 125.472 73.816C125.493 73.88 125.504 73.9867 125.504 74.136C125.504 74.6693 125.504 75.224 125.504 75.8C125.504 76.376 125.504 76.952 125.504 77.528C125.504 78.104 125.504 78.68 125.504 79.256C124.629 79.256 123.744 79.256 122.848 79.256C121.952 79.256 121.056 79.256 120.16 79.256C120.032 79.256 119.947 79.224 119.904 79.16C119.861 79.096 119.84 79.0107 119.84 78.904C119.84 78.776 119.84 78.6267 119.84 78.456C119.84 78.2853 119.84 78.104 119.84 77.912C119.84 77.72 119.84 77.528 119.84 77.336C119.84 77.1227 119.84 76.8987 119.84 76.664L120.736 77.848C120.331 77.6773 119.957 77.5707 119.616 77.528C119.296 77.4853 118.933 77.464 118.528 77.464C118.08 77.464 117.675 77.4853 117.312 77.528C116.949 77.5493 116.629 77.6133 116.352 77.72C116.096 77.8267 115.893 77.976 115.744 78.168C115.595 78.36 115.52 78.6053 115.52 78.904V79.352C115.52 79.608 115.552 79.832 115.616 80.024C115.701 80.216 115.872 80.376 116.128 80.504C116.384 80.632 116.757 80.76 117.248 80.888L120.448 81.656C121.536 81.912 122.443 82.2107 123.168 82.552C123.893 82.872 124.459 83.2667 124.864 83.736C125.269 84.2053 125.557 84.76 125.728 85.4C125.899 86.04 125.984 86.776 125.984 87.608V89.24C125.984 90.648 125.611 91.832 124.864 92.792C124.139 93.7307 123.093 94.4453 121.728 94.936C120.363 95.4053 118.741 95.64 116.864 95.64C115.691 95.64 114.592 95.5547 113.568 95.384C112.544 95.2347 111.669 95.0213 110.944 94.744C110.219 94.4667 109.707 94.2 109.408 93.944C109.365 93.88 109.333 93.8267 109.312 93.784C109.291 93.72 109.28 93.6453 109.28 93.56C109.28 92.9413 109.28 92.3333 109.28 91.736C109.28 91.1387 109.28 90.5413 109.28 89.944C109.28 89.3253 109.28 88.7067 109.28 88.088H109.92C110.965 88.6853 112.053 89.144 113.184 89.464C114.336 89.7627 115.648 89.912 117.12 89.912C118.251 89.912 118.997 89.784 119.36 89.528C119.744 89.2507 119.936 88.952 119.936 88.632V87.992C119.936 87.8 119.893 87.6187 119.808 87.448C119.723 87.2773 119.552 87.128 119.296 87C119.061 86.8507 118.699 86.712 118.208 86.584L115.264 85.848C114.005 85.5493 112.981 85.1973 112.192 84.792C111.424 84.3867 110.837 83.9387 110.432 83.448C110.048 82.936 109.792 82.392 109.664 81.816C109.536 81.2187 109.472 80.5787 109.472 79.896V78.392C109.472 77.432 109.675 76.568 110.08 75.8C110.485 75.0107 111.072 74.328 111.84 73.752C112.629 73.176 113.568 72.7387 114.656 72.44C115.765 72.12 117.013 71.96 118.4 71.96ZM133.62 85.816H139.924C140.329 85.816 140.713 85.816 141.076 85.816C141.46 85.816 141.854 85.816 142.26 85.816L143.732 85.528L144.148 88.184L144.564 90.84H133.94C133.876 90.84 133.812 90.8293 133.748 90.808C133.705 90.7653 133.662 90.7227 133.62 90.68C133.598 90.616 133.588 90.552 133.588 90.488L133.62 85.816ZM135.604 95C134.601 95 133.598 95 132.596 95C131.593 95 130.59 95 129.588 95C129.545 95 129.492 94.9893 129.428 94.968C129.385 94.9467 129.342 94.904 129.3 94.84C129.278 94.776 129.278 94.6907 129.3 94.584C129.492 93.7307 129.684 92.8133 129.876 91.832C130.089 90.8507 130.313 89.816 130.548 88.728C130.782 87.64 131.017 86.5307 131.252 85.4C131.508 84.248 131.753 83.1067 131.988 81.976C132.244 80.8453 132.489 79.736 132.724 78.648C132.958 77.5387 133.182 76.4827 133.396 75.48C133.609 74.456 133.812 73.496 134.004 72.6C135.668 72.6 137.353 72.6 139.06 72.6C140.766 72.6 142.42 72.6 144.02 72.6C144.105 72.6 144.169 72.6107 144.212 72.632C144.254 72.6533 144.286 72.696 144.308 72.76C144.35 72.8027 144.382 72.8667 144.404 72.952C144.702 74.3173 145.001 75.704 145.3 77.112C145.62 78.52 145.929 79.96 146.228 81.432C146.548 82.904 146.868 84.3973 147.188 85.912C147.529 87.4267 147.86 88.9627 148.18 90.52C148.329 91.2667 148.478 92.0133 148.628 92.76C148.798 93.4853 148.958 94.232 149.108 95C148.126 95 147.134 95 146.132 95C145.129 95 144.169 95 143.252 95C143.102 95 142.985 94.9893 142.9 94.968C142.836 94.9253 142.782 94.8507 142.74 94.744C142.697 94.616 142.644 94.424 142.58 94.168C142.302 92.8027 142.025 91.4907 141.748 90.232C141.492 88.952 141.246 87.7253 141.012 86.552C140.798 85.3787 140.585 84.2373 140.372 83.128C140.18 82.0187 139.998 80.952 139.828 79.928C139.678 78.8827 139.529 77.8693 139.38 76.888L140.436 77.752H137.94L138.964 76.888C138.814 77.8907 138.654 78.9253 138.484 79.992C138.313 81.0373 138.121 82.1253 137.908 83.256C137.716 84.3867 137.492 85.5707 137.236 86.808C137.001 88.024 136.745 89.3147 136.468 90.68C136.19 92.0453 135.902 93.4853 135.604 95ZM153.056 95C153.013 95 152.971 94.9893 152.928 94.968C152.885 94.9467 152.843 94.9253 152.8 94.904C152.779 94.8613 152.757 94.8187 152.736 94.776C152.715 94.7333 152.704 94.6907 152.704 94.648C152.704 93.048 152.704 91.4587 152.704 89.88C152.704 88.3013 152.704 86.712 152.704 85.112C152.704 83.512 152.704 81.9227 152.704 80.344C152.704 78.744 152.704 77.1547 152.704 75.576C152.704 75.064 152.704 74.5627 152.704 74.072C152.704 73.5813 152.704 73.0907 152.704 72.6C153.771 72.6 154.795 72.6 155.776 72.6C156.757 72.6 157.781 72.6 158.848 72.6C158.933 72.6 158.997 72.6213 159.04 72.664C159.083 72.6853 159.115 72.7173 159.136 72.76C159.179 72.8027 159.2 72.8667 159.2 72.952C159.2 74.2533 159.2 75.5867 159.2 76.952C159.2 78.296 159.2 79.6507 159.2 81.016C159.2 82.3813 159.2 83.736 159.2 85.08C159.2 86.424 159.2 87.7573 159.2 89.08H162.464C163.317 89.08 164.053 89.208 164.672 89.464C165.312 89.6987 165.835 90.0613 166.24 90.552C166.667 91.0427 166.987 91.6613 167.2 92.408C167.435 93.1333 167.573 93.9973 167.616 95H153.056ZM161.984 86.936C162.688 86.936 163.307 86.936 163.84 86.936C164.373 86.936 164.907 86.936 165.44 86.936C165.973 86.936 166.581 86.936 167.264 86.936C167.328 86.936 167.381 86.9573 167.424 87C167.488 87.0213 167.531 87.064 167.552 87.128C167.595 87.1707 167.616 87.224 167.616 87.288C167.616 88.0347 167.616 88.7173 167.616 89.336C167.616 89.9547 167.616 90.5627 167.616 91.16C167.616 91.736 167.616 92.3333 167.616 92.952C167.616 93.5707 167.616 94.2533 167.616 95C166.379 94.9573 165.333 94.712 164.48 94.264C163.648 93.816 163.019 93.176 162.592 92.344C162.187 91.512 161.984 90.5413 161.984 89.432C161.984 89.0907 161.984 88.8027 161.984 88.568C161.984 88.312 161.984 88.056 161.984 87.8C161.984 87.544 161.984 87.256 161.984 86.936ZM170.281 72.6H185.833C185.918 72.6 185.982 72.6213 186.025 72.664C186.067 72.6853 186.099 72.7173 186.121 72.76C186.163 72.8027 186.185 72.8667 186.185 72.952C186.185 73.8267 186.185 74.68 186.185 75.512C186.185 76.344 186.185 77.208 186.185 78.104H170.633C170.569 78.104 170.505 78.0933 170.441 78.072C170.398 78.0293 170.355 77.9867 170.313 77.944C170.291 77.88 170.281 77.816 170.281 77.752C170.281 76.856 170.281 75.992 170.281 75.16C170.281 74.328 170.281 73.4747 170.281 72.6ZM174.825 81.272H183.913C183.998 81.272 184.062 81.2933 184.105 81.336C184.169 81.3573 184.211 81.4 184.233 81.464C184.254 81.5067 184.265 81.56 184.265 81.624C184.265 82.1787 184.265 82.712 184.265 83.224C184.265 83.736 184.265 84.248 184.265 84.76C184.265 85.2507 184.265 85.7627 184.265 86.296H174.825V81.272ZM171.753 95C171.689 95 171.635 95 171.593 95C171.55 94.9787 171.507 94.9573 171.465 94.936C171.443 94.8933 171.422 94.8507 171.401 94.808C171.401 94.7653 171.401 94.712 171.401 94.648C171.401 93.6027 171.401 92.4507 171.401 91.192C171.401 89.9333 171.401 88.6213 171.401 87.256C171.401 85.8693 171.401 84.4613 171.401 83.032C171.401 81.5813 171.401 80.1413 171.401 78.712C171.401 77.2827 171.401 75.896 171.401 74.552H178.089L177.897 75.064C177.897 75.832 177.897 76.6213 177.897 77.432C177.897 78.2213 177.897 79.0213 177.897 79.832C177.897 80.6213 177.897 81.4213 177.897 82.232C177.897 83.0427 177.897 83.8533 177.897 84.664C177.897 85.4747 177.897 86.2853 177.897 87.096C177.897 87.9067 177.897 88.7067 177.897 89.496H185.833C185.939 89.496 186.025 89.528 186.089 89.592C186.153 89.656 186.185 89.7413 186.185 89.848C186.185 90.7227 186.185 91.5867 186.185 92.44C186.185 93.272 186.185 94.1253 186.185 95H171.753Z" fill="#FEB8AA"/>
<path d="M34.832 63C34.224 63 33.528 63 32.744 63C31.976 63 31.216 63 30.464 63C29.712 63 29.064 63 28.52 63C27.976 63 27.64 63 27.512 63C27.432 63 27.368 62.976 27.32 62.928C27.272 62.88 27.248 62.816 27.248 62.736C27.248 61.44 27.248 60.16 27.248 58.896C27.248 57.632 27.248 56.376 27.248 55.128C27.248 53.864 27.248 52.608 27.248 51.36C27.248 50.096 27.248 48.816 27.248 47.52H32.288L32.072 48.168C32.072 48.856 32.072 49.48 32.072 50.04C32.072 50.6 32.072 51.208 32.072 51.864C32.072 52.456 32.072 53.048 32.072 53.64C32.072 54.232 32.072 54.832 32.072 55.44C32.072 56.032 32.072 56.632 32.072 57.24C32.072 57.832 32.072 58.44 32.072 59.064C32.216 59.064 32.352 59.064 32.48 59.064C32.624 59.064 32.76 59.064 32.888 59.064C33.032 59.064 33.168 59.064 33.296 59.064C33.648 59.064 33.92 59.024 34.112 58.944C34.32 58.848 34.464 58.712 34.544 58.536C34.64 58.36 34.688 58.144 34.688 57.888V57.36C34.688 57.104 34.64 56.888 34.544 56.712C34.448 56.536 34.296 56.408 34.088 56.328C33.88 56.248 33.608 56.208 33.272 56.208H30.488L30.536 54.024H36.464V54.744C37.44 54.904 38.208 55.264 38.768 55.824C39.328 56.384 39.608 57.216 39.608 58.32V58.824C39.608 59.72 39.416 60.48 39.032 61.104C38.648 61.728 38.096 62.2 37.376 62.52C36.656 62.84 35.808 63 34.832 63ZM26.408 46.2C27.752 46.2 29.104 46.2 30.464 46.2C31.84 46.2 33.24 46.2 34.664 46.2C35.48 46.2 36.192 46.296 36.8 46.488C37.408 46.68 37.912 46.952 38.312 47.304C38.712 47.64 39.008 48.048 39.2 48.528C39.408 48.992 39.512 49.504 39.512 50.064V50.568C39.512 51.144 39.408 51.672 39.2 52.152C38.992 52.616 38.688 53.016 38.288 53.352C37.904 53.672 37.44 53.92 36.896 54.096C36.368 54.272 35.784 54.36 35.144 54.36C34.264 54.36 33.488 54.36 32.816 54.36C32.144 54.36 31.496 54.36 30.872 54.36L30.536 54.576L30.488 52.944C31.016 52.944 31.512 52.944 31.976 52.944C32.44 52.944 32.928 52.944 33.44 52.944C33.728 52.944 33.968 52.904 34.16 52.824C34.352 52.728 34.496 52.592 34.592 52.416C34.704 52.224 34.76 52 34.76 51.744V51.312C34.76 51.12 34.736 50.96 34.688 50.832C34.64 50.688 34.568 50.568 34.472 50.472C34.36 50.36 34.216 50.28 34.04 50.232C33.864 50.168 33.64 50.136 33.368 50.136C32.632 50.136 31.888 50.136 31.136 50.136C30.384 50.136 29.632 50.136 28.88 50.136C28.144 50.136 27.408 50.136 26.672 50.136C26.592 50.136 26.528 50.112 26.48 50.064C26.432 50 26.408 49.936 26.408 49.872C26.408 49.248 26.408 48.64 26.408 48.048C26.408 47.44 26.408 46.824 26.408 46.2ZM43.2226 63C43.1906 63 43.1586 62.992 43.1266 62.976C43.0946 62.96 43.0626 62.944 43.0306 62.928C43.0146 62.896 42.9986 62.864 42.9826 62.832C42.9666 62.8 42.9586 62.768 42.9586 62.736C42.9586 61.536 42.9586 60.344 42.9586 59.16C42.9586 57.976 42.9586 56.784 42.9586 55.584C42.9586 54.384 42.9586 53.192 42.9586 52.008C42.9586 50.808 42.9586 49.616 42.9586 48.432C42.9586 48.048 42.9586 47.672 42.9586 47.304C42.9586 46.936 42.9586 46.568 42.9586 46.2C43.7586 46.2 44.5266 46.2 45.2626 46.2C45.9986 46.2 46.7666 46.2 47.5666 46.2C47.6306 46.2 47.6786 46.216 47.7106 46.248C47.7426 46.264 47.7666 46.288 47.7826 46.32C47.8146 46.352 47.8306 46.4 47.8306 46.464C47.8306 47.44 47.8306 48.44 47.8306 49.464C47.8306 50.472 47.8306 51.488 47.8306 52.512C47.8306 53.536 47.8306 54.552 47.8306 55.56C47.8306 56.568 47.8306 57.568 47.8306 58.56H50.2786C50.9186 58.56 51.4706 58.656 51.9346 58.848C52.4146 59.024 52.8066 59.296 53.1106 59.664C53.4306 60.032 53.6706 60.496 53.8306 61.056C54.0066 61.6 54.1106 62.248 54.1426 63H43.2226ZM49.9186 56.952C50.4466 56.952 50.9106 56.952 51.3106 56.952C51.7106 56.952 52.1106 56.952 52.5106 56.952C52.9106 56.952 53.3666 56.952 53.8786 56.952C53.9266 56.952 53.9666 56.968 53.9986 57C54.0466 57.016 54.0786 57.048 54.0946 57.096C54.1266 57.128 54.1426 57.168 54.1426 57.216C54.1426 57.776 54.1426 58.288 54.1426 58.752C54.1426 59.216 54.1426 59.672 54.1426 60.12C54.1426 60.552 54.1426 61 54.1426 61.464C54.1426 61.928 54.1426 62.44 54.1426 63C53.2146 62.968 52.4306 62.784 51.7906 62.448C51.1666 62.112 50.6946 61.632 50.3746 61.008C50.0706 60.384 49.9186 59.656 49.9186 58.824C49.9186 58.568 49.9186 58.352 49.9186 58.176C49.9186 57.984 49.9186 57.792 49.9186 57.6C49.9186 57.408 49.9186 57.192 49.9186 56.952ZM60.0899 56.112H64.8179C65.1219 56.112 65.4099 56.112 65.6819 56.112C65.9699 56.112 66.2659 56.112 66.5699 56.112L67.6739 55.896L67.9859 57.888L68.2979 59.88H60.3299C60.2819 59.88 60.2339 59.872 60.1859 59.856C60.1539 59.824 60.1219 59.792 60.0899 59.76C60.0739 59.712 60.0659 59.664 60.0659 59.616L60.0899 56.112ZM61.5779 63C60.8259 63 60.0739 63 59.3219 63C58.5699 63 57.8179 63 57.0659 63C57.0339 63 56.9939 62.992 56.9459 62.976C56.9139 62.96 56.8819 62.928 56.8499 62.88C56.8339 62.832 56.8339 62.768 56.8499 62.688C56.9939 62.048 57.1379 61.36 57.2819 60.624C57.4419 59.888 57.6099 59.112 57.7859 58.296C57.9619 57.48 58.1379 56.648 58.3139 55.8C58.5059 54.936 58.6899 54.08 58.8659 53.232C59.0579 52.384 59.2419 51.552 59.4179 50.736C59.5939 49.904 59.7619 49.112 59.9219 48.36C60.0819 47.592 60.2339 46.872 60.3779 46.2C61.6259 46.2 62.8899 46.2 64.1699 46.2C65.4499 46.2 66.6899 46.2 67.8899 46.2C67.9539 46.2 68.0019 46.208 68.0339 46.224C68.0659 46.24 68.0899 46.272 68.1059 46.32C68.1379 46.352 68.1619 46.4 68.1779 46.464C68.4019 47.488 68.6259 48.528 68.8499 49.584C69.0899 50.64 69.3219 51.72 69.5459 52.824C69.7859 53.928 70.0259 55.048 70.2659 56.184C70.5219 57.32 70.7699 58.472 71.0099 59.64C71.1219 60.2 71.2339 60.76 71.3459 61.32C71.4739 61.864 71.5939 62.424 71.7059 63C70.9699 63 70.2259 63 69.4739 63C68.7219 63 68.0019 63 67.3139 63C67.2019 63 67.1139 62.992 67.0499 62.976C67.0019 62.944 66.9619 62.888 66.9299 62.808C66.8979 62.712 66.8579 62.568 66.8099 62.376C66.6019 61.352 66.3939 60.368 66.1859 59.424C65.9939 58.464 65.8099 57.544 65.6339 56.664C65.4739 55.784 65.3139 54.928 65.1539 54.096C65.0099 53.264 64.8739 52.464 64.7459 51.696C64.6339 50.912 64.5219 50.152 64.4099 49.416L65.2019 50.064H63.3299L64.0979 49.416C63.9859 50.168 63.8659 50.944 63.7379 51.744C63.6099 52.528 63.4659 53.344 63.3059 54.192C63.1619 55.04 62.9939 55.928 62.8019 56.856C62.6259 57.768 62.4339 58.736 62.2259 59.76C62.0179 60.784 61.8019 61.864 61.5779 63ZM81.1106 63.48C79.9106 63.48 78.8546 63.336 77.9426 63.048C77.0466 62.76 76.2946 62.344 75.6866 61.8C75.0786 61.256 74.6226 60.6 74.3186 59.832C74.0146 59.048 73.8626 58.176 73.8626 57.216V51.888C73.8626 50.976 74.0146 50.144 74.3186 49.392C74.6386 48.64 75.1026 47.992 75.7106 47.448C76.3346 46.888 77.0866 46.464 77.9666 46.176C78.8626 45.872 79.8786 45.72 81.0146 45.72C81.9106 45.72 82.7186 45.808 83.4386 45.984C84.1746 46.144 84.7986 46.352 85.3106 46.608C85.8226 46.848 86.1986 47.096 86.4386 47.352C86.4866 47.384 86.5186 47.424 86.5346 47.472C86.5506 47.504 86.5586 47.544 86.5586 47.592C86.5746 47.64 86.5826 47.696 86.5826 47.76C86.5826 48.48 86.5826 49.24 86.5826 50.04C86.5826 50.824 86.5826 51.6 86.5826 52.368C85.9266 52.368 85.2626 52.368 84.5906 52.368C83.9346 52.368 83.2706 52.368 82.5986 52.368C82.5026 52.368 82.4386 52.344 82.4066 52.296C82.3746 52.248 82.3586 52.184 82.3586 52.104C82.3586 51.912 82.3586 51.712 82.3586 51.504C82.3586 51.28 82.3586 51.024 82.3586 50.736C82.3586 50.432 82.3586 50.064 82.3586 49.632L83.0066 50.64C82.6226 50.416 82.2706 50.264 81.9506 50.184C81.6306 50.104 81.2786 50.064 80.8946 50.064C80.4786 50.064 80.1186 50.144 79.8146 50.304C79.5106 50.464 79.2786 50.704 79.1186 51.024C78.9746 51.344 78.9026 51.76 78.9026 52.272V56.544C78.9026 56.976 78.9426 57.344 79.0226 57.648C79.1186 57.952 79.2706 58.208 79.4786 58.416C79.6866 58.624 79.9506 58.776 80.2706 58.872C80.6066 58.952 80.9986 58.992 81.4466 58.992C82.2786 58.992 83.0546 58.904 83.7746 58.728C84.4946 58.552 85.2946 58.232 86.1746 57.768H86.6546C86.6546 58.12 86.6546 58.472 86.6546 58.824C86.6546 59.16 86.6546 59.496 86.6546 59.832C86.6546 60.152 86.6546 60.488 86.6546 60.84C86.6546 61.176 86.6546 61.52 86.6546 61.872C86.6546 61.92 86.6466 61.968 86.6306 62.016C86.6146 62.048 86.5906 62.088 86.5586 62.136C86.3346 62.344 85.9586 62.552 85.4306 62.76C84.9186 62.968 84.2866 63.136 83.5346 63.264C82.7986 63.408 81.9906 63.48 81.1106 63.48ZM97.8532 53.184C98.3492 54.016 98.8452 54.848 99.3412 55.68C99.8532 56.496 100.365 57.32 100.877 58.152C101.005 58.36 101.125 58.512 101.237 58.608C101.365 58.688 101.533 58.728 101.741 58.728C101.805 58.728 101.861 58.728 101.909 58.728C101.973 58.728 102.045 58.728 102.125 58.728H102.557C102.557 59.08 102.557 59.488 102.557 59.952C102.557 60.4 102.557 60.84 102.557 61.272C102.557 61.704 102.557 62.072 102.557 62.376C102.557 62.68 102.557 62.856 102.557 62.904C102.557 62.984 102.533 63.048 102.485 63.096C102.437 63.144 102.373 63.168 102.293 63.168C102.229 63.168 102.117 63.168 101.957 63.168C101.813 63.168 101.645 63.168 101.453 63.168C101.261 63.168 101.077 63.168 100.901 63.168C100.229 63.168 99.6692 63.112 99.2212 63C98.7732 62.888 98.3812 62.672 98.0452 62.352C97.7252 62.032 97.3972 61.568 97.0612 60.96C96.8532 60.592 96.6932 60.296 96.5812 60.072C96.4692 59.832 96.3812 59.624 96.3172 59.448C96.2532 59.256 96.1972 59.048 96.1492 58.824C96.1172 58.6 96.0692 58.328 96.0052 58.008H94.5652L97.8532 53.184ZM102.773 46.2C102.821 46.2 102.861 46.208 102.893 46.224C102.925 46.24 102.949 46.264 102.965 46.296C102.981 46.328 102.989 46.36 102.989 46.392C102.989 46.424 102.973 46.488 102.941 46.584C102.909 46.664 102.813 46.848 102.653 47.136C102.509 47.408 102.261 47.864 101.909 48.504C101.445 49.32 101.005 50.088 100.589 50.808C100.189 51.512 99.7892 52.176 99.3892 52.8C98.9892 53.408 98.5812 54.008 98.1652 54.6C97.7652 55.176 97.3332 55.76 96.8692 56.352C96.4212 56.944 95.9332 57.552 95.4052 58.176C94.8932 58.8 94.3172 59.472 93.6772 60.192V53.544H94.9972C95.0772 53.096 95.1412 52.736 95.1892 52.464C95.2532 52.176 95.3172 51.92 95.3812 51.696C95.4612 51.456 95.5492 51.208 95.6452 50.952C95.7572 50.696 95.8932 50.376 96.0532 49.992C96.2772 49.448 96.4772 48.968 96.6532 48.552C96.8452 48.136 97.0292 47.744 97.2052 47.376C97.3812 46.992 97.5652 46.6 97.7572 46.2H102.773ZM89.7652 46.2C90.5332 46.2 91.2772 46.2 91.9972 46.2C92.7332 46.2 93.4852 46.2 94.2532 46.2C94.3332 46.2 94.3972 46.224 94.4452 46.272C94.4932 46.32 94.5172 46.384 94.5172 46.464C94.5172 47.84 94.5172 49.216 94.5172 50.592C94.5172 51.968 94.5172 53.352 94.5172 54.744C94.5172 56.12 94.5172 57.496 94.5172 58.872C94.5172 60.248 94.5172 61.624 94.5172 63C93.7492 63 92.9972 63 92.2612 63C91.5412 63 90.7972 63 90.0292 63C89.9492 63 89.8852 62.976 89.8372 62.928C89.7892 62.88 89.7652 62.816 89.7652 62.736C89.7652 61.168 89.7652 59.608 89.7652 58.056C89.7652 56.488 89.7652 54.92 89.7652 53.352C89.7652 51.784 89.7652 50.216 89.7652 48.648C89.7652 48.248 89.7652 47.848 89.7652 47.448C89.7652 47.032 89.7652 46.616 89.7652 46.2ZM111.284 63C110.532 63 109.764 63 108.98 63C108.212 63 107.444 63 106.676 63C106.628 63 106.58 62.992 106.532 62.976C106.5 62.944 106.468 62.912 106.436 62.88C106.42 62.848 106.412 62.8 106.412 62.736C106.412 61.456 106.412 60.192 106.412 58.944C106.412 57.696 106.412 56.456 106.412 55.224C106.412 53.976 106.412 52.728 106.412 51.48C106.412 50.216 106.412 48.952 106.412 47.688H111.524L111.284 48.192C111.284 48.944 111.284 49.688 111.284 50.424C111.284 51.16 111.284 51.896 111.284 52.632C111.284 53.528 111.284 54.416 111.284 55.296C111.284 56.16 111.284 57.04 111.284 57.936C111.284 58.816 111.284 59.72 111.284 60.648C111.284 61.08 111.284 61.496 111.284 61.896C111.284 62.296 111.284 62.664 111.284 63ZM105.26 46.2H116.684C116.748 46.2 116.796 46.216 116.828 46.248C116.86 46.264 116.884 46.288 116.9 46.32C116.932 46.352 116.948 46.4 116.948 46.464C116.948 46.832 116.948 47.272 116.948 47.784C116.948 48.296 116.948 48.808 116.948 49.32C116.948 49.832 116.948 50.272 116.948 50.64H105.524C105.476 50.64 105.428 50.632 105.38 50.616C105.348 50.584 105.316 50.552 105.284 50.52C105.268 50.472 105.26 50.424 105.26 50.376C105.26 49.656 105.26 48.96 105.26 48.288C105.26 47.6 105.26 46.904 105.26 46.2ZM108.908 53.472H115.484C115.564 53.472 115.628 53.496 115.676 53.544C115.724 53.592 115.748 53.656 115.748 53.736C115.748 54.104 115.748 54.536 115.748 55.032C115.748 55.528 115.748 56.024 115.748 56.52C115.748 57 115.748 57.416 115.748 57.768H108.908V53.472ZM129.591 55.176C129.895 55.704 130.191 56.208 130.479 56.688C130.767 57.168 131.063 57.672 131.367 58.2C131.479 58.376 131.583 58.512 131.679 58.608C131.791 58.688 131.927 58.728 132.087 58.728C132.135 58.728 132.183 58.728 132.231 58.728C132.279 58.728 132.327 58.728 132.375 58.728H133.047C133.047 59.432 133.047 60.128 133.047 60.816C133.047 61.488 133.047 62.184 133.047 62.904C133.047 62.984 133.023 63.048 132.975 63.096C132.927 63.144 132.863 63.168 132.783 63.168C132.591 63.168 132.375 63.168 132.135 63.168C131.895 63.168 131.663 63.168 131.439 63.168C130.767 63.168 130.223 63.112 129.807 63C129.391 62.888 129.031 62.688 128.727 62.4C128.423 62.112 128.119 61.68 127.815 61.104C127.479 60.432 127.143 59.768 126.807 59.112C126.471 58.44 126.127 57.776 125.775 57.12L129.591 55.176ZM119.655 46.2C120.919 46.2 122.183 46.2 123.447 46.2C124.711 46.2 125.975 46.2 127.239 46.2C128.231 46.2 129.087 46.312 129.807 46.536C130.527 46.76 131.119 47.096 131.583 47.544C132.047 47.976 132.383 48.52 132.591 49.176C132.815 49.832 132.927 50.592 132.927 51.456V52.584C132.927 53.416 132.799 54.16 132.543 54.816C132.303 55.456 131.943 56.008 131.463 56.472C130.999 56.92 130.447 57.264 129.807 57.504C129.167 57.744 128.447 57.864 127.647 57.864C127.055 57.864 126.455 57.864 125.847 57.864C125.239 57.864 124.639 57.864 124.047 57.864L123.783 58.032V54.024C124.231 54.024 124.679 54.024 125.127 54.024C125.575 54.024 126.015 54.024 126.447 54.024C126.815 54.024 127.103 53.984 127.311 53.904C127.535 53.808 127.687 53.656 127.767 53.448C127.863 53.24 127.911 52.952 127.911 52.584V51.816C127.911 51.544 127.879 51.328 127.815 51.168C127.767 51.008 127.687 50.88 127.575 50.784C127.463 50.656 127.311 50.576 127.119 50.544C126.943 50.496 126.743 50.472 126.519 50.472C125.783 50.472 125.047 50.472 124.311 50.472C123.591 50.472 122.863 50.472 122.127 50.472C121.391 50.472 120.655 50.472 119.919 50.472C119.839 50.472 119.775 50.448 119.727 50.4C119.679 50.352 119.655 50.288 119.655 50.208C119.655 49.536 119.655 48.872 119.655 48.216C119.655 47.56 119.655 46.888 119.655 46.2ZM125.367 63C124.583 63 123.815 63 123.063 63C122.311 63 121.543 63 120.759 63C120.679 63 120.615 62.976 120.567 62.928C120.519 62.864 120.495 62.8 120.495 62.736C120.495 61.456 120.495 60.192 120.495 58.944C120.495 57.696 120.495 56.448 120.495 55.2C120.495 53.952 120.495 52.704 120.495 51.456C120.495 50.208 120.495 48.944 120.495 47.664H125.703L125.367 48.096C125.367 48.8 125.367 49.496 125.367 50.184C125.367 50.872 125.367 51.56 125.367 52.248C125.367 53.176 125.367 54.096 125.367 55.008C125.367 55.92 125.367 56.84 125.367 57.768C125.367 58.68 125.367 59.624 125.367 60.6C125.367 61.032 125.367 61.456 125.367 61.872C125.367 62.272 125.367 62.648 125.367 63ZM143.598 61.512H138.654L138.75 60.984C138.75 60.44 138.75 59.888 138.75 59.328C138.75 58.768 138.75 58.216 138.75 57.672C138.75 56.92 138.75 56.136 138.75 55.32C138.75 54.504 138.75 53.672 138.75 52.824C138.75 51.96 138.75 51.096 138.75 50.232C138.75 49.352 138.75 48.504 138.75 47.688H143.766L143.598 48.216C143.598 48.792 143.598 49.384 143.598 49.992C143.598 50.6 143.598 51.2 143.598 51.792C143.598 52.592 143.598 53.4 143.598 54.216C143.598 55.032 143.598 55.848 143.598 56.664C143.598 57.48 143.598 58.296 143.598 59.112C143.598 59.912 143.598 60.712 143.598 61.512ZM146.142 63H136.47C136.438 63 136.406 63 136.374 63C136.342 62.984 136.31 62.968 136.278 62.952C136.262 62.92 136.246 62.888 136.23 62.856C136.214 62.824 136.206 62.784 136.206 62.736C136.206 62.368 136.206 61.928 136.206 61.416C136.206 60.904 136.206 60.392 136.206 59.88C136.206 59.368 136.206 58.928 136.206 58.56H145.878C145.926 58.56 145.966 58.576 145.998 58.608C146.046 58.624 146.078 58.656 146.094 58.704C146.126 58.736 146.142 58.776 146.142 58.824C146.142 59.192 146.142 59.632 146.142 60.144C146.142 60.656 146.142 61.168 146.142 61.68C146.142 62.192 146.142 62.632 146.142 63ZM136.206 46.2H145.878C145.958 46.2 146.022 46.224 146.07 46.272C146.118 46.32 146.142 46.384 146.142 46.464C146.142 46.736 146.142 47.056 146.142 47.424C146.142 47.776 146.142 48.152 146.142 48.552C146.142 48.952 146.142 49.336 146.142 49.704C146.142 50.056 146.142 50.368 146.142 50.64H136.47C136.406 50.64 136.342 50.616 136.278 50.568C136.23 50.52 136.206 50.456 136.206 50.376C136.206 50.104 136.206 49.792 136.206 49.44C136.206 49.072 136.206 48.688 136.206 48.288C136.206 47.888 136.206 47.512 136.206 47.16C136.206 46.792 136.206 46.472 136.206 46.2ZM163.374 57.168C163.374 58.064 163.246 58.872 162.99 59.592C162.734 60.312 162.358 60.928 161.862 61.44C161.382 61.936 160.798 62.32 160.11 62.592C159.438 62.864 158.67 63 157.806 63C157.31 63 156.79 63 156.246 63C155.702 63 155.15 63 154.59 63C154.03 63 153.478 63 152.934 63C152.39 63 151.87 63 151.374 63C150.878 63 150.43 63 150.03 63C149.95 63 149.886 62.976 149.838 62.928C149.79 62.88 149.766 62.816 149.766 62.736C149.766 61.472 149.766 60.216 149.766 58.968C149.766 57.704 149.766 56.44 149.766 55.176C149.766 53.912 149.766 52.656 149.766 51.408C149.766 50.144 149.766 48.88 149.766 47.616H154.854L154.662 48C154.662 48.656 154.662 49.336 154.662 50.04C154.662 50.728 154.662 51.408 154.662 52.08C154.662 52.64 154.662 53.192 154.662 53.736C154.662 54.28 154.662 54.824 154.662 55.368C154.662 55.912 154.662 56.456 154.662 57C154.662 57.544 154.662 58.096 154.662 58.656C154.854 58.656 155.086 58.656 155.358 58.656C155.63 58.656 155.902 58.656 156.174 58.656C156.446 58.656 156.686 58.656 156.894 58.656C157.31 58.656 157.63 58.6 157.854 58.488C158.078 58.36 158.238 58.168 158.334 57.912C158.446 57.656 158.502 57.328 158.502 56.928V52.152C158.502 51.944 158.486 51.76 158.454 51.6C158.422 51.44 158.374 51.296 158.31 51.168C158.262 51.04 158.198 50.936 158.118 50.856C158.054 50.776 157.966 50.712 157.854 50.664C157.758 50.616 157.638 50.584 157.494 50.568C157.366 50.552 157.214 50.544 157.038 50.544C156.43 50.544 155.79 50.544 155.118 50.544C154.462 50.544 153.79 50.544 153.102 50.544C152.43 50.544 151.766 50.544 151.11 50.544C150.454 50.544 149.814 50.544 149.19 50.544C149.142 50.544 149.094 50.536 149.046 50.52C149.014 50.488 148.982 50.456 148.95 50.424C148.934 50.376 148.926 50.328 148.926 50.28C148.926 49.608 148.926 48.928 148.926 48.24C148.926 47.552 148.926 46.872 148.926 46.2C149.614 46.2 150.326 46.2 151.062 46.2C151.798 46.2 152.534 46.2 153.27 46.2C154.022 46.2 154.766 46.2 155.502 46.2C156.238 46.2 156.95 46.2 157.638 46.2C158.566 46.2 159.39 46.336 160.11 46.608C160.83 46.864 161.43 47.248 161.91 47.76C162.406 48.256 162.774 48.864 163.014 49.584C163.254 50.288 163.374 51.096 163.374 52.008V57.168ZM169.053 56.112H173.781C174.085 56.112 174.373 56.112 174.645 56.112C174.933 56.112 175.229 56.112 175.533 56.112L176.637 55.896L176.949 57.888L177.261 59.88H169.293C169.245 59.88 169.197 59.872 169.149 59.856C169.117 59.824 169.085 59.792 169.053 59.76C169.037 59.712 169.029 59.664 169.029 59.616L169.053 56.112ZM170.541 63C169.789 63 169.037 63 168.285 63C167.533 63 166.781 63 166.029 63C165.997 63 165.957 62.992 165.909 62.976C165.877 62.96 165.845 62.928 165.813 62.88C165.797 62.832 165.797 62.768 165.813 62.688C165.957 62.048 166.101 61.36 166.245 60.624C166.405 59.888 166.573 59.112 166.749 58.296C166.925 57.48 167.101 56.648 167.277 55.8C167.469 54.936 167.653 54.08 167.829 53.232C168.021 52.384 168.205 51.552 168.381 50.736C168.557 49.904 168.725 49.112 168.885 48.36C169.045 47.592 169.197 46.872 169.341 46.2C170.589 46.2 171.853 46.2 173.133 46.2C174.413 46.2 175.653 46.2 176.853 46.2C176.917 46.2 176.965 46.208 176.997 46.224C177.029 46.24 177.053 46.272 177.069 46.32C177.101 46.352 177.125 46.4 177.141 46.464C177.365 47.488 177.589 48.528 177.813 49.584C178.053 50.64 178.285 51.72 178.509 52.824C178.749 53.928 178.989 55.048 179.229 56.184C179.485 57.32 179.733 58.472 179.973 59.64C180.085 60.2 180.197 60.76 180.309 61.32C180.437 61.864 180.557 62.424 180.669 63C179.933 63 179.189 63 178.437 63C177.685 63 176.965 63 176.277 63C176.165 63 176.077 62.992 176.013 62.976C175.965 62.944 175.925 62.888 175.893 62.808C175.861 62.712 175.821 62.568 175.773 62.376C175.565 61.352 175.357 60.368 175.149 59.424C174.957 58.464 174.773 57.544 174.597 56.664C174.437 55.784 174.277 54.928 174.117 54.096C173.973 53.264 173.837 52.464 173.709 51.696C173.597 50.912 173.485 50.152 173.373 49.416L174.165 50.064H172.293L173.061 49.416C172.949 50.168 172.829 50.944 172.701 51.744C172.573 52.528 172.429 53.344 172.269 54.192C172.125 55.04 171.957 55.928 171.765 56.856C171.589 57.768 171.397 58.736 171.189 59.76C170.981 60.784 170.765 61.864 170.541 63ZM191.068 63C190.556 63 189.988 63 189.364 63C188.74 63 188.116 63 187.492 63C186.884 63 186.324 63 185.812 63C185.764 63 185.716 62.992 185.668 62.976C185.636 62.944 185.604 62.912 185.572 62.88C185.556 62.832 185.548 62.784 185.548 62.736C185.548 61.6 185.548 60.448 185.548 59.28C185.548 58.096 185.548 56.936 185.548 55.8H191.068C191.068 56.312 191.068 56.84 191.068 57.384C191.068 57.912 191.068 58.448 191.068 58.992C191.068 59.536 191.068 60.064 191.068 60.576C191.068 61.008 191.068 61.424 191.068 61.824C191.068 62.224 191.068 62.616 191.068 63ZM180.796 46.2C181.628 46.2 182.5 46.2 183.412 46.2C184.34 46.2 185.204 46.2 186.004 46.2C186.1 46.2 186.172 46.216 186.22 46.248C186.284 46.264 186.34 46.304 186.388 46.368C186.436 46.416 186.476 46.496 186.508 46.608C186.716 47.376 186.9 48.136 187.06 48.888C187.236 49.624 187.388 50.344 187.516 51.048C187.66 51.736 187.788 52.4 187.9 53.04C188.012 53.68 188.1 54.28 188.164 54.84L187.444 54.048H189.22L188.524 54.816C188.588 54.224 188.676 53.6 188.788 52.944C188.9 52.272 189.028 51.576 189.172 50.856C189.332 50.12 189.5 49.368 189.676 48.6C189.868 47.816 190.068 47.016 190.276 46.2C191.092 46.2 191.948 46.2 192.844 46.2C193.74 46.2 194.564 46.2 195.316 46.2C195.46 46.2 195.556 46.248 195.604 46.344C195.668 46.424 195.676 46.544 195.628 46.704C195.324 47.456 195.012 48.224 194.692 49.008C194.372 49.776 194.044 50.56 193.708 51.36C193.388 52.144 193.06 52.936 192.724 53.736C192.388 54.52 192.052 55.304 191.716 56.088C191.38 56.872 191.044 57.64 190.708 58.392C189.7 58.392 188.876 58.392 188.236 58.392C187.596 58.376 187.1 58.352 186.748 58.32C186.396 58.288 186.148 58.256 186.004 58.224C185.86 58.176 185.772 58.12 185.74 58.056C185.532 57.512 185.276 56.88 184.972 56.16C184.668 55.44 184.34 54.672 183.988 53.856C183.652 53.024 183.292 52.168 182.908 51.288C182.54 50.408 182.172 49.536 181.804 48.672C181.452 47.808 181.116 46.984 180.796 46.2Z" fill="#FEB8AA"/>
</g>
<defs>
<clipPath id="clip0_56_8">
<rect width="282" height="132" fill="white"/>
</clipPath>
</defs>
</svg>
