<svg width="282" height="132" viewBox="0 0 282 132" fill="none" xmlns="http://www.w3.org/2000/svg">
<path d="M53.304 63C52.5947 63 51.7827 63 50.868 63C49.972 63 49.0853 63 48.208 63C47.3307 63 46.5747 63 45.94 63C45.3053 63 44.9133 63 44.764 63C44.6707 63 44.596 62.972 44.54 62.916C44.484 62.86 44.456 62.7853 44.456 62.692C44.456 61.18 44.456 59.6867 44.456 58.212C44.456 56.7373 44.456 55.272 44.456 53.816C44.456 52.3413 44.456 50.876 44.456 49.42C44.456 47.9453 44.456 46.452 44.456 44.94H50.336L50.084 45.696C50.084 46.4987 50.084 47.2267 50.084 47.88C50.084 48.5333 50.084 49.2427 50.084 50.008C50.084 50.6987 50.084 51.3893 50.084 52.08C50.084 52.7707 50.084 53.4707 50.084 54.18C50.084 54.8707 50.084 55.5707 50.084 56.28C50.084 56.9707 50.084 57.68 50.084 58.408C50.252 58.408 50.4107 58.408 50.56 58.408C50.728 58.408 50.8867 58.408 51.036 58.408C51.204 58.408 51.3627 58.408 51.512 58.408C51.9227 58.408 52.24 58.3613 52.464 58.268C52.7067 58.156 52.8747 57.9973 52.968 57.792C53.08 57.5867 53.136 57.3347 53.136 57.036V56.42C53.136 56.1213 53.08 55.8693 52.968 55.664C52.856 55.4587 52.6787 55.3093 52.436 55.216C52.1933 55.1227 51.876 55.076 51.484 55.076H48.236L48.292 52.528H55.208V53.368C56.3467 53.5547 57.2427 53.9747 57.896 54.628C58.5493 55.2813 58.876 56.252 58.876 57.54V58.128C58.876 59.1733 58.652 60.06 58.204 60.788C57.756 61.516 57.112 62.0667 56.272 62.44C55.432 62.8133 54.4427 63 53.304 63ZM43.476 43.4C45.044 43.4 46.6213 43.4 48.208 43.4C49.8133 43.4 51.4467 43.4 53.108 43.4C54.06 43.4 54.8907 43.512 55.6 43.736C56.3093 43.96 56.8973 44.2773 57.364 44.688C57.8307 45.08 58.176 45.556 58.4 46.116C58.6427 46.6573 58.764 47.2547 58.764 47.908V48.496C58.764 49.168 58.6427 49.784 58.4 50.344C58.1573 50.8853 57.8027 51.352 57.336 51.744C56.888 52.1173 56.3467 52.4067 55.712 52.612C55.096 52.8173 54.4147 52.92 53.668 52.92C52.6413 52.92 51.736 52.92 50.952 52.92C50.168 52.92 49.412 52.92 48.684 52.92L48.292 53.172L48.236 51.268C48.852 51.268 49.4307 51.268 49.972 51.268C50.5133 51.268 51.0827 51.268 51.68 51.268C52.016 51.268 52.296 51.2213 52.52 51.128C52.744 51.016 52.912 50.8573 53.024 50.652C53.1547 50.428 53.22 50.1667 53.22 49.868V49.364C53.22 49.14 53.192 48.9533 53.136 48.804C53.08 48.636 52.996 48.496 52.884 48.384C52.7533 48.2533 52.5853 48.16 52.38 48.104C52.1747 48.0293 51.9133 47.992 51.596 47.992C50.7373 47.992 49.8693 47.992 48.992 47.992C48.1147 47.992 47.2373 47.992 46.36 47.992C45.5013 47.992 44.6427 47.992 43.784 47.992C43.6907 47.992 43.616 47.964 43.56 47.908C43.504 47.8333 43.476 47.7587 43.476 47.684C43.476 46.956 43.476 46.2467 43.476 45.556C43.476 44.8467 43.476 44.128 43.476 43.4ZM62.8131 63C62.7571 63 62.7104 63 62.6731 63C62.6357 62.9813 62.5984 62.9627 62.5611 62.944C62.5424 62.9067 62.5237 62.8693 62.5051 62.832C62.5051 62.7947 62.5051 62.748 62.5051 62.692C62.5051 61.292 62.5051 59.9013 62.5051 58.52C62.5051 57.1387 62.5051 55.748 62.5051 54.348C62.5051 52.948 62.5051 51.5573 62.5051 50.176C62.5051 48.776 62.5051 47.3853 62.5051 46.004C62.5051 45.556 62.5051 45.1173 62.5051 44.688C62.5051 44.2587 62.5051 43.8293 62.5051 43.4C63.4384 43.4 64.3624 43.4 65.2771 43.4C66.2104 43.4 67.1437 43.4 68.0771 43.4C68.1517 43.4 68.2077 43.4187 68.2451 43.456C68.2824 43.4747 68.3104 43.512 68.3291 43.568C68.3664 43.6053 68.3851 43.652 68.3851 43.708C68.3851 44.884 68.3851 46.06 68.3851 47.236C68.3851 48.412 68.3851 49.588 68.3851 50.764C68.3851 51.94 68.3851 53.116 68.3851 54.292C68.3851 55.468 68.3851 56.644 68.3851 57.82H72.1651C72.7997 57.82 73.3877 57.96 73.9291 58.24C74.4891 58.5013 74.9744 58.8747 75.3851 59.36C75.8144 59.8267 76.1597 60.3773 76.4211 61.012C76.6824 61.628 76.8317 62.2907 76.8691 63H62.8131ZM71.9131 55.44C72.4544 55.44 72.9771 55.44 73.4811 55.44C73.9851 55.44 74.4891 55.44 74.9931 55.44C75.5157 55.44 76.0384 55.44 76.5611 55.44C76.6171 55.44 76.6637 55.4587 76.7011 55.496C76.7571 55.5147 76.7944 55.5427 76.8131 55.58C76.8504 55.6173 76.8691 55.664 76.8691 55.72C76.8691 56.3547 76.8691 56.98 76.8691 57.596C76.8691 58.1933 76.8691 58.7907 76.8691 59.388C76.8691 59.9667 76.8691 60.5547 76.8691 61.152C76.8691 61.7493 76.8691 62.3653 76.8691 63C75.8237 62.9627 74.9277 62.7293 74.1811 62.3C73.4531 61.8707 72.8931 61.292 72.5011 60.564C72.1091 59.8173 71.9131 58.968 71.9131 58.016C71.9131 57.848 71.9131 57.6333 71.9131 57.372C71.9131 57.092 71.9131 56.784 71.9131 56.448C71.9131 56.112 71.9131 55.776 71.9131 55.44ZM83.3821 54.964H88.1701C88.4875 54.964 88.8048 54.964 89.1221 54.964C89.4581 54.964 89.7848 54.964 90.1021 54.964L91.3061 54.712L91.6421 57.036L92.0341 59.724H83.6621C83.6061 59.724 83.5501 59.7147 83.4941 59.696C83.4568 59.6587 83.4195 59.6213 83.3821 59.584C83.3635 59.528 83.3541 59.472 83.3541 59.416L83.3821 54.964ZM84.9221 63C84.1008 63 83.2795 63 82.4581 63C81.6368 63 80.8061 63 79.9661 63C79.9288 63 79.8821 62.9907 79.8261 62.972C79.7888 62.9533 79.7608 62.916 79.7421 62.86C79.7235 62.804 79.7235 62.7293 79.7421 62.636C79.8728 61.908 80.0221 61.1147 80.1901 60.256C80.3768 59.3973 80.5635 58.492 80.7501 57.54C80.9368 56.588 81.1328 55.608 81.3381 54.6C81.5621 53.592 81.7675 52.584 81.9541 51.576C82.1595 50.568 82.3555 49.5787 82.5421 48.608C82.7475 47.6373 82.9341 46.7133 83.1021 45.836C83.2888 44.9587 83.4568 44.1467 83.6061 43.4C85.0061 43.4 86.3688 43.4 87.6941 43.4C89.0195 43.4 90.3541 43.4 91.6981 43.4C91.7541 43.4 91.8008 43.4093 91.8381 43.428C91.8755 43.4467 91.9035 43.484 91.9221 43.54C91.9595 43.5773 91.9875 43.6333 92.0061 43.708C92.2488 44.9027 92.4915 46.1253 92.7341 47.376C92.9768 48.608 93.2288 49.868 93.4901 51.156C93.7515 52.4253 94.0128 53.7227 94.2741 55.048C94.5541 56.3733 94.8248 57.7173 95.0861 59.08C95.2168 59.7333 95.3475 60.3867 95.4781 61.04C95.6275 61.6747 95.7675 62.328 95.8981 63C95.0581 63 94.2275 63 93.4061 63C92.6035 63 91.8381 63 91.1101 63C90.9795 63 90.8675 62.9813 90.7741 62.944C90.6995 62.888 90.6341 62.776 90.5781 62.608C90.5221 62.44 90.4568 62.16 90.3821 61.768C90.1768 60.6667 89.9715 59.6027 89.7661 58.576C89.5795 57.5493 89.4021 56.5507 89.2341 55.58C89.0661 54.6093 88.9075 53.6667 88.7581 52.752C88.6088 51.8187 88.4688 50.904 88.3381 50.008C88.2075 49.0933 88.0861 48.188 87.9741 47.292L88.7301 48.048H86.8261L87.6101 47.292C87.4981 48.2253 87.3675 49.1493 87.2181 50.064C87.0875 50.9787 86.9381 51.9213 86.7701 52.892C86.6208 53.8627 86.4435 54.8707 86.2381 55.916C86.0515 56.9613 85.8461 58.072 85.6221 59.248C85.4168 60.4053 85.1835 61.656 84.9221 63ZM106.975 63.56C105.575 63.56 104.343 63.392 103.279 63.056C102.234 62.72 101.357 62.2347 100.647 61.6C99.9379 60.9653 99.4059 60.2 99.0512 59.304C98.6965 58.3893 98.5192 57.372 98.5192 56.252V50.036C98.5192 48.972 98.6965 48.0013 99.0512 47.124C99.4245 46.2467 99.9659 45.4907 100.675 44.856C101.403 44.2027 102.281 43.708 103.307 43.372C104.353 43.0173 105.538 42.84 106.863 42.84C107.909 42.84 108.851 42.9427 109.691 43.148C110.55 43.3347 111.278 43.5773 111.875 43.876C112.473 44.156 112.911 44.4453 113.191 44.744C113.247 44.7813 113.285 44.828 113.303 44.884C113.322 44.9213 113.331 44.968 113.331 45.024C113.35 45.08 113.359 45.1453 113.359 45.22C113.359 46.06 113.359 46.9467 113.359 47.88C113.359 48.7947 113.359 49.7 113.359 50.596C112.594 50.596 111.819 50.596 111.035 50.596C110.27 50.596 109.495 50.596 108.711 50.596C108.599 50.596 108.525 50.568 108.487 50.512C108.45 50.456 108.431 50.3813 108.431 50.288C108.431 50.064 108.431 49.8307 108.431 49.588C108.431 49.3267 108.431 49.028 108.431 48.692C108.431 48.3373 108.431 47.908 108.431 47.404L109.187 48.58C108.739 48.3187 108.329 48.1413 107.955 48.048C107.582 47.9547 107.171 47.908 106.723 47.908C106.238 47.908 105.818 48.0013 105.463 48.188C105.109 48.3747 104.838 48.6547 104.651 49.028C104.483 49.4013 104.399 49.8867 104.399 50.484V55.468C104.399 55.972 104.446 56.4013 104.539 56.756C104.651 57.1107 104.829 57.4093 105.071 57.652C105.314 57.8947 105.622 58.072 105.995 58.184C106.387 58.2773 106.845 58.324 107.367 58.324C108.338 58.324 109.243 58.2213 110.083 58.016C110.923 57.8107 111.857 57.4373 112.883 56.896H113.443C113.443 57.3067 113.443 57.7173 113.443 58.128C113.443 58.52 113.443 58.912 113.443 59.304C113.443 59.6773 113.443 60.0693 113.443 60.48C113.443 60.872 113.443 61.2733 113.443 61.684C113.443 61.74 113.434 61.796 113.415 61.852C113.397 61.8893 113.369 61.936 113.331 61.992C113.07 62.2347 112.631 62.4773 112.015 62.72C111.418 62.9627 110.681 63.1587 109.803 63.308C108.945 63.476 108.002 63.56 106.975 63.56ZM126.228 51.548C126.807 52.5187 127.386 53.4893 127.964 54.46C128.562 55.412 129.159 56.3733 129.756 57.344C129.906 57.5867 130.046 57.764 130.176 57.876C130.326 57.9693 130.522 58.016 130.764 58.016C130.839 58.016 130.904 58.016 130.96 58.016C131.035 58.016 131.119 58.016 131.212 58.016H131.716C131.716 58.4267 131.716 58.9027 131.716 59.444C131.716 59.9667 131.716 60.48 131.716 60.984C131.716 61.488 131.716 61.9173 131.716 62.272C131.716 62.6267 131.716 62.832 131.716 62.888C131.716 62.9813 131.688 63.056 131.632 63.112C131.576 63.168 131.502 63.196 131.408 63.196C131.334 63.196 131.203 63.196 131.016 63.196C130.848 63.196 130.652 63.196 130.428 63.196C130.204 63.196 129.99 63.196 129.784 63.196C129 63.196 128.347 63.1307 127.824 63C127.302 62.8693 126.844 62.6173 126.452 62.244C126.079 61.8707 125.696 61.3293 125.304 60.62C125.062 60.1907 124.875 59.8453 124.744 59.584C124.614 59.304 124.511 59.0613 124.436 58.856C124.362 58.632 124.296 58.3893 124.24 58.128C124.203 57.8667 124.147 57.5493 124.072 57.176H122.392L126.228 51.548ZM131.968 43.4C132.024 43.4 132.071 43.4093 132.108 43.428C132.146 43.4467 132.174 43.4747 132.192 43.512C132.211 43.5493 132.22 43.5867 132.22 43.624C132.22 43.6613 132.202 43.736 132.164 43.848C132.127 43.9413 132.015 44.156 131.828 44.492C131.66 44.8093 131.371 45.3413 130.96 46.088C130.419 47.04 129.906 47.936 129.42 48.776C128.954 49.5973 128.487 50.372 128.02 51.1C127.554 51.8093 127.078 52.5093 126.592 53.2C126.126 53.872 125.622 54.5533 125.08 55.244C124.558 55.9347 123.988 56.644 123.372 57.372C122.775 58.1 122.103 58.884 121.356 59.724V51.968H122.896C122.99 51.4453 123.064 51.0253 123.12 50.708C123.195 50.372 123.27 50.0733 123.344 49.812C123.438 49.532 123.54 49.2427 123.652 48.944C123.783 48.6453 123.942 48.272 124.128 47.824C124.39 47.1893 124.623 46.6293 124.828 46.144C125.052 45.6587 125.267 45.2013 125.472 44.772C125.678 44.324 125.892 43.8667 126.116 43.4H131.968ZM116.792 43.4C117.688 43.4 118.556 43.4 119.396 43.4C120.255 43.4 121.132 43.4 122.028 43.4C122.122 43.4 122.196 43.428 122.252 43.484C122.308 43.54 122.336 43.6147 122.336 43.708C122.336 45.3133 122.336 46.9187 122.336 48.524C122.336 50.1293 122.336 51.744 122.336 53.368C122.336 54.9733 122.336 56.5787 122.336 58.184C122.336 59.7893 122.336 61.3947 122.336 63C121.44 63 120.563 63 119.704 63C118.864 63 117.996 63 117.1 63C117.007 63 116.932 62.972 116.876 62.916C116.82 62.86 116.792 62.7853 116.792 62.692C116.792 60.8627 116.792 59.0427 116.792 57.232C116.792 55.4027 116.792 53.5733 116.792 51.744C116.792 49.9147 116.792 48.0853 116.792 46.256C116.792 45.7893 116.792 45.3227 116.792 44.856C116.792 44.3707 116.792 43.8853 116.792 43.4ZM141.729 63C140.852 63 139.956 63 139.041 63C138.145 63 137.249 63 136.353 63C136.297 63 136.241 62.9907 136.185 62.972C136.148 62.9347 136.111 62.8973 136.073 62.86C136.055 62.8227 136.045 62.7667 136.045 62.692C136.045 61.1987 136.045 59.724 136.045 58.268C136.045 56.812 136.045 55.3653 136.045 53.928C136.045 52.472 136.045 51.016 136.045 49.56C136.045 48.0853 136.045 46.6107 136.045 45.136H142.121L141.729 45.724C141.729 46.6013 141.729 47.4787 141.729 48.356C141.729 49.2147 141.729 50.064 141.729 50.904C141.729 51.9493 141.729 52.9853 141.729 54.012C141.729 55.02 141.729 56.0467 141.729 57.092C141.729 58.1187 141.729 59.1733 141.729 60.256C141.729 60.76 141.729 61.2453 141.729 61.712C141.729 62.1787 141.729 62.608 141.729 63ZM134.589 43.4H149.289C149.383 43.4 149.448 43.4187 149.485 43.456C149.523 43.4747 149.551 43.512 149.569 43.568C149.607 43.6053 149.625 43.652 149.625 43.708C149.625 44.1373 149.625 44.6507 149.625 45.248C149.625 45.8453 149.625 46.4427 149.625 47.04C149.625 47.6373 149.625 48.1507 149.625 48.58H134.925C134.869 48.58 134.813 48.5707 134.757 48.552C134.701 48.5147 134.655 48.4773 134.617 48.44C134.599 48.384 134.589 48.328 134.589 48.272C134.589 47.432 134.589 46.62 134.589 45.836C134.589 45.0333 134.589 44.2213 134.589 43.4ZM138.957 51.884H147.721C147.815 51.884 147.889 51.912 147.945 51.968C148.001 52.024 148.029 52.0987 148.029 52.192C148.029 52.6213 148.029 53.1067 148.029 53.648C148.029 54.1893 148.029 54.7307 148.029 55.272C148.029 55.8133 148.029 56.2893 148.029 56.7H138.957V51.884ZM164.09 53.872C164.445 54.488 164.79 55.076 165.126 55.636C165.462 56.196 165.808 56.784 166.162 57.4C166.293 57.6053 166.414 57.764 166.526 57.876C166.657 57.9693 166.816 58.016 167.002 58.016C167.058 58.016 167.114 58.016 167.17 58.016C167.226 58.016 167.282 58.016 167.338 58.016H168.122C168.122 58.8373 168.122 59.6493 168.122 60.452C168.122 61.236 168.122 62.048 168.122 62.888C168.122 62.9813 168.094 63.056 168.038 63.112C167.982 63.168 167.908 63.196 167.814 63.196C167.59 63.196 167.338 63.196 167.058 63.196C166.778 63.196 166.508 63.196 166.246 63.196C165.462 63.196 164.828 63.1307 164.342 63C163.857 62.8693 163.437 62.636 163.082 62.3C162.728 61.964 162.373 61.46 162.018 60.788C161.626 60.004 161.234 59.2293 160.842 58.464C160.45 57.68 160.049 56.9053 159.638 56.14L164.09 53.872ZM152.498 43.4C153.973 43.4 155.448 43.4 156.922 43.4C158.397 43.4 159.872 43.4 161.346 43.4C162.504 43.4 163.502 43.5307 164.342 43.792C165.182 44.0533 165.873 44.4453 166.414 44.968C166.956 45.472 167.348 46.1067 167.59 46.872C167.852 47.6373 167.982 48.524 167.982 49.532V50.848C167.982 51.8187 167.833 52.6867 167.534 53.452C167.254 54.1987 166.834 54.8427 166.274 55.384C165.733 55.9067 165.089 56.308 164.342 56.588C163.596 56.868 162.756 57.008 161.822 57.008C161.132 57.008 160.432 57.008 159.722 57.008C159.013 57.008 158.313 57.008 157.622 57.008L157.314 57.204V52.528C157.837 52.528 158.36 52.528 158.882 52.528C159.405 52.528 159.918 52.528 160.422 52.528C160.852 52.528 161.188 52.4813 161.43 52.388C161.692 52.276 161.869 52.0987 161.962 51.856C162.074 51.6133 162.13 51.2773 162.13 50.848V49.952C162.13 49.6347 162.093 49.3827 162.018 49.196C161.962 49.0093 161.869 48.86 161.738 48.748C161.608 48.5987 161.43 48.5053 161.206 48.468C161.001 48.412 160.768 48.384 160.506 48.384C159.648 48.384 158.789 48.384 157.93 48.384C157.09 48.384 156.241 48.384 155.382 48.384C154.524 48.384 153.665 48.384 152.806 48.384C152.713 48.384 152.638 48.356 152.582 48.3C152.526 48.244 152.498 48.1693 152.498 48.076C152.498 47.292 152.498 46.5173 152.498 45.752C152.498 44.9867 152.498 44.2027 152.498 43.4ZM159.162 63C158.248 63 157.352 63 156.474 63C155.597 63 154.701 63 153.786 63C153.693 63 153.618 62.972 153.562 62.916C153.506 62.8413 153.478 62.7667 153.478 62.692C153.478 61.1987 153.478 59.724 153.478 58.268C153.478 56.812 153.478 55.356 153.478 53.9C153.478 52.444 153.478 50.988 153.478 49.532C153.478 48.076 153.478 46.6013 153.478 45.108H159.554L159.162 45.612C159.162 46.4333 159.162 47.2453 159.162 48.048C159.162 48.8507 159.162 49.6533 159.162 50.456C159.162 51.5387 159.162 52.612 159.162 53.676C159.162 54.74 159.162 55.8133 159.162 56.896C159.162 57.96 159.162 59.0613 159.162 60.2C159.162 60.704 159.162 61.1987 159.162 61.684C159.162 62.1507 159.162 62.5893 159.162 63ZM181.551 61.264H175.671L175.895 60.648C175.895 60.0133 175.895 59.3693 175.895 58.716C175.895 58.0627 175.895 57.4187 175.895 56.784C175.895 55.7947 175.895 54.824 175.895 53.872C175.895 52.9013 175.895 51.9307 175.895 50.96C175.895 49.9893 175.895 49.0187 175.895 48.048C175.895 47.0587 175.895 46.088 175.895 45.136H181.775L181.551 45.752C181.551 46.424 181.551 47.1147 181.551 47.824C181.551 48.5333 181.551 49.2333 181.551 49.924C181.551 50.8573 181.551 51.8 181.551 52.752C181.551 53.704 181.551 54.656 181.551 55.608C181.551 56.56 181.551 57.512 181.551 58.464C181.551 59.3973 181.551 60.3307 181.551 61.264ZM185.919 63H171.835C171.779 63 171.733 62.9907 171.695 62.972C171.658 62.9533 171.621 62.9347 171.583 62.916C171.565 62.8787 171.546 62.8413 171.527 62.804C171.527 62.7667 171.527 62.7293 171.527 62.692C171.527 62.2627 171.527 61.7493 171.527 61.152C171.527 60.5547 171.527 59.9573 171.527 59.36C171.527 58.7627 171.527 58.2493 171.527 57.82H185.583C185.658 57.82 185.714 57.8387 185.751 57.876C185.807 57.8947 185.845 57.9227 185.863 57.96C185.901 57.9973 185.919 58.0533 185.919 58.128C185.919 58.5573 185.919 59.0707 185.919 59.668C185.919 60.2653 185.919 60.8627 185.919 61.46C185.919 62.0573 185.919 62.5707 185.919 63ZM171.527 43.4H185.583C185.695 43.4 185.779 43.428 185.835 43.484C185.891 43.54 185.919 43.6147 185.919 43.708C185.919 44.0253 185.919 44.3987 185.919 44.828C185.919 45.2387 185.919 45.6773 185.919 46.144C185.919 46.6107 185.919 47.0587 185.919 47.488C185.919 47.8987 185.919 48.2627 185.919 48.58H171.863C171.751 48.58 171.667 48.552 171.611 48.496C171.555 48.4213 171.527 48.3467 171.527 48.272C171.527 47.9547 171.527 47.5907 171.527 47.18C171.527 46.7507 171.527 46.3027 171.527 45.836C171.527 45.3693 171.527 44.9307 171.527 44.52C171.527 44.0907 171.527 43.7173 171.527 43.4ZM204.276 56.196C204.276 57.26 204.127 58.2213 203.828 59.08C203.53 59.92 203.091 60.6387 202.512 61.236C201.934 61.8147 201.243 62.2533 200.44 62.552C199.638 62.8507 198.732 63 197.724 63C197.22 63 196.698 63 196.156 63C195.634 63 195.102 63 194.56 63C194.038 63 193.515 63 192.992 63C192.47 63 191.966 63 191.48 63C191.014 63 190.575 63 190.164 63C190.071 63 189.996 62.972 189.94 62.916C189.884 62.86 189.856 62.7853 189.856 62.692C189.856 61.2173 189.856 59.752 189.856 58.296C189.856 56.8213 189.856 55.3467 189.856 53.872C189.856 52.3973 189.856 50.932 189.856 49.476C189.856 48.0013 189.856 46.5267 189.856 45.052H195.764L195.512 45.5C195.512 46.1907 195.512 46.928 195.512 47.712C195.512 48.496 195.512 49.28 195.512 50.064C195.512 50.792 195.512 51.52 195.512 52.248C195.512 52.976 195.512 53.6853 195.512 54.376C195.512 55.048 195.512 55.692 195.512 56.308C195.512 56.924 195.512 57.5027 195.512 58.044C195.643 58.044 195.774 58.044 195.904 58.044C196.035 58.044 196.156 58.044 196.268 58.044C196.399 58.044 196.53 58.044 196.66 58.044C197.146 58.044 197.519 57.9787 197.78 57.848C198.042 57.7173 198.228 57.5027 198.34 57.204C198.471 56.9053 198.536 56.504 198.536 56V50.4C198.536 50.12 198.518 49.8867 198.48 49.7C198.462 49.4947 198.415 49.3173 198.34 49.168C198.284 49 198.2 48.8693 198.088 48.776C197.995 48.664 197.874 48.58 197.724 48.524C197.594 48.468 197.435 48.4307 197.248 48.412C197.08 48.3747 196.884 48.356 196.66 48.356C196.063 48.356 195.447 48.356 194.812 48.356C194.196 48.356 193.571 48.356 192.936 48.356C192.32 48.356 191.695 48.356 191.06 48.356C190.444 48.356 189.819 48.356 189.184 48.356C189.128 48.356 189.072 48.3467 189.016 48.328C188.979 48.2907 188.942 48.2533 188.904 48.216C188.886 48.16 188.876 48.104 188.876 48.048C188.876 47.2827 188.876 46.5173 188.876 45.752C188.876 44.968 188.876 44.184 188.876 43.4C189.604 43.4 190.332 43.4 191.06 43.4C191.788 43.4 192.516 43.4 193.244 43.4C193.991 43.4 194.738 43.4 195.484 43.4C196.231 43.4 196.978 43.4 197.724 43.4C198.732 43.4 199.638 43.5493 200.44 43.848C201.243 44.1467 201.934 44.5947 202.512 45.192C203.091 45.7707 203.53 46.48 203.828 47.32C204.127 48.16 204.276 49.1213 204.276 50.204V56.196ZM210.706 54.964H215.494C215.811 54.964 216.128 54.964 216.446 54.964C216.782 54.964 217.108 54.964 217.426 54.964L218.63 54.712L218.966 57.036L219.358 59.724H210.986C210.93 59.724 210.874 59.7147 210.818 59.696C210.78 59.6587 210.743 59.6213 210.706 59.584C210.687 59.528 210.678 59.472 210.678 59.416L210.706 54.964ZM212.246 63C211.424 63 210.603 63 209.782 63C208.96 63 208.13 63 207.29 63C207.252 63 207.206 62.9907 207.15 62.972C207.112 62.9533 207.084 62.916 207.066 62.86C207.047 62.804 207.047 62.7293 207.066 62.636C207.196 61.908 207.346 61.1147 207.514 60.256C207.7 59.3973 207.887 58.492 208.074 57.54C208.26 56.588 208.456 55.608 208.662 54.6C208.886 53.592 209.091 52.584 209.278 51.576C209.483 50.568 209.679 49.5787 209.866 48.608C210.071 47.6373 210.258 46.7133 210.426 45.836C210.612 44.9587 210.78 44.1467 210.93 43.4C212.33 43.4 213.692 43.4 215.018 43.4C216.343 43.4 217.678 43.4 219.022 43.4C219.078 43.4 219.124 43.4093 219.162 43.428C219.199 43.4467 219.227 43.484 219.246 43.54C219.283 43.5773 219.311 43.6333 219.33 43.708C219.572 44.9027 219.815 46.1253 220.058 47.376C220.3 48.608 220.552 49.868 220.814 51.156C221.075 52.4253 221.336 53.7227 221.598 55.048C221.878 56.3733 222.148 57.7173 222.41 59.08C222.54 59.7333 222.671 60.3867 222.802 61.04C222.951 61.6747 223.091 62.328 223.222 63C222.382 63 221.551 63 220.73 63C219.927 63 219.162 63 218.434 63C218.303 63 218.191 62.9813 218.098 62.944C218.023 62.888 217.958 62.776 217.902 62.608C217.846 62.44 217.78 62.16 217.706 61.768C217.5 60.6667 217.295 59.6027 217.09 58.576C216.903 57.5493 216.726 56.5507 216.558 55.58C216.39 54.6093 216.231 53.6667 216.082 52.752C215.932 51.8187 215.792 50.904 215.662 50.008C215.531 49.0933 215.41 48.188 215.298 47.292L216.054 48.048H214.15L214.934 47.292C214.822 48.2253 214.691 49.1493 214.542 50.064C214.411 50.9787 214.262 51.9213 214.094 52.892C213.944 53.8627 213.767 54.8707 213.562 55.916C213.375 56.9613 213.17 58.072 212.946 59.248C212.74 60.4053 212.507 61.656 212.246 63ZM236.147 63C235.549 63 234.952 63 234.355 63C233.757 63 233.151 63 232.535 63C231.937 63 231.34 63 230.743 63C230.687 63 230.631 62.9907 230.575 62.972C230.537 62.9347 230.5 62.8973 230.463 62.86C230.444 62.804 230.435 62.748 230.435 62.692C230.435 61.3667 230.435 60.0227 230.435 58.66C230.435 57.2787 230.435 55.9253 230.435 54.6H236.147C236.147 55.1973 236.147 55.8133 236.147 56.448C236.147 57.064 236.147 57.6893 236.147 58.324C236.147 58.9587 236.147 59.5747 236.147 60.172C236.147 60.676 236.147 61.1613 236.147 61.628C236.147 62.0947 236.147 62.552 236.147 63ZM225.115 43.4C226.085 43.4 227.047 43.4 227.999 43.4C228.969 43.4 229.912 43.4 230.827 43.4C230.939 43.4 231.032 43.4187 231.107 43.456C231.181 43.4747 231.237 43.5213 231.275 43.596C231.331 43.652 231.377 43.7547 231.415 43.904C231.601 44.7253 231.779 45.556 231.947 46.396C232.115 47.236 232.273 48.0667 232.423 48.888C232.572 49.7093 232.703 50.512 232.815 51.296C232.945 52.0613 233.048 52.7893 233.123 53.48L232.283 52.556H234.355L233.543 53.452C233.617 52.724 233.701 51.9773 233.795 51.212C233.907 50.4467 234.037 49.6627 234.187 48.86C234.336 48.0387 234.504 47.18 234.691 46.284C234.877 45.388 235.101 44.4267 235.363 43.4C236.296 43.4 237.22 43.4 238.135 43.4C239.068 43.4 239.992 43.4 240.907 43.4C241.056 43.4 241.159 43.456 241.215 43.568C241.271 43.68 241.261 43.8387 241.187 44.044C240.832 44.9027 240.468 45.7613 240.095 46.62C239.74 47.4787 239.385 48.3467 239.031 49.224C238.676 50.0827 238.312 50.9507 237.939 51.828C237.565 52.6867 237.192 53.5547 236.819 54.432C236.464 55.3093 236.1 56.1867 235.727 57.064C234.532 57.064 233.599 57.064 232.927 57.064C232.255 57.0453 231.76 57.0173 231.443 56.98C231.144 56.9427 230.948 56.9053 230.855 56.868C230.761 56.812 230.705 56.7467 230.687 56.672C230.425 56.0373 230.127 55.3187 229.791 54.516C229.455 53.6947 229.091 52.8267 228.699 51.912C228.325 50.9787 227.924 50.0267 227.495 49.056C227.084 48.0853 226.673 47.124 226.263 46.172C225.871 45.2013 225.488 44.2773 225.115 43.4ZM52.1 72.84C53.724 72.84 55.0587 72.9987 56.104 73.316C57.168 73.6333 57.8493 73.9413 58.148 74.24C58.2227 74.3147 58.2693 74.3893 58.288 74.464C58.3067 74.52 58.316 74.6133 58.316 74.744C58.316 75.2107 58.316 75.696 58.316 76.2C58.316 76.704 58.316 77.208 58.316 77.712C58.316 78.216 58.316 78.72 58.316 79.224C57.5507 79.224 56.776 79.224 55.992 79.224C55.208 79.224 54.424 79.224 53.64 79.224C53.528 79.224 53.4533 79.196 53.416 79.14C53.3787 79.084 53.36 79.0093 53.36 78.916C53.36 78.804 53.36 78.6733 53.36 78.524C53.36 78.3747 53.36 78.216 53.36 78.048C53.36 77.88 53.36 77.712 53.36 77.544C53.36 77.3573 53.36 77.1613 53.36 76.956L54.144 77.992C53.7893 77.8613 53.4533 77.7773 53.136 77.74C52.8187 77.684 52.4827 77.656 52.128 77.656C51.7547 77.656 51.4093 77.6747 51.092 77.712C50.7933 77.7307 50.5227 77.7867 50.28 77.88C50.056 77.9733 49.8787 78.104 49.748 78.272C49.636 78.44 49.58 78.6547 49.58 78.916V79.308C49.58 79.532 49.608 79.728 49.664 79.896C49.7387 80.064 49.888 80.204 50.112 80.316C50.336 80.428 50.6627 80.54 51.092 80.652L53.892 81.324C54.844 81.548 55.6373 81.8093 56.272 82.108C56.9067 82.388 57.4013 82.7333 57.756 83.144C58.1107 83.5547 58.3627 84.04 58.512 84.6C58.6613 85.16 58.736 85.804 58.736 86.532V87.96C58.736 89.192 58.4093 90.228 57.756 91.068C57.1213 91.8893 56.2067 92.5147 55.012 92.944C53.8173 93.3547 52.3987 93.56 50.756 93.56C49.7293 93.56 48.768 93.4853 47.872 93.336C46.976 93.2053 46.2107 93.0187 45.576 92.776C44.9413 92.5333 44.4933 92.3 44.232 92.076C44.1947 92.02 44.1667 91.9733 44.148 91.936C44.1293 91.88 44.12 91.8147 44.12 91.74C44.12 91.1987 44.12 90.6667 44.12 90.144C44.12 89.6213 44.12 89.0987 44.12 88.576C44.12 88.0347 44.12 87.4933 44.12 86.952H44.68C45.5947 87.4747 46.5467 87.876 47.536 88.156C48.544 88.4173 49.692 88.548 50.98 88.548C51.9693 88.548 52.6227 88.436 52.94 88.212C53.276 87.9693 53.444 87.708 53.444 87.428V86.868C53.444 86.7 53.4067 86.5413 53.332 86.392C53.2573 86.2427 53.108 86.112 52.884 86C52.6787 85.8693 52.3613 85.748 51.932 85.636L49.356 84.992C48.2547 84.7307 47.3587 84.4227 46.668 84.068C45.996 83.7133 45.4827 83.3213 45.128 82.892C44.792 82.444 44.568 81.968 44.456 81.464C44.344 80.9413 44.288 80.3813 44.288 79.784V78.468C44.288 77.628 44.4653 76.872 44.82 76.2C45.1747 75.5093 45.688 74.912 46.36 74.408C47.0507 73.904 47.872 73.5213 48.824 73.26C49.7947 72.98 50.8867 72.84 52.1 72.84ZM65.1931 84.964H69.9811C70.2984 84.964 70.6157 84.964 70.9331 84.964C71.2691 84.964 71.5957 84.964 71.9131 84.964L73.1171 84.712L73.4531 87.036L73.8451 89.724H65.4731C65.4171 89.724 65.3611 89.7147 65.3051 89.696C65.2677 89.6587 65.2304 89.6213 65.1931 89.584C65.1744 89.528 65.1651 89.472 65.1651 89.416L65.1931 84.964ZM66.7331 93C65.9117 93 65.0904 93 64.2691 93C63.4477 93 62.6171 93 61.7771 93C61.7397 93 61.6931 92.9907 61.6371 92.972C61.5997 92.9533 61.5717 92.916 61.5531 92.86C61.5344 92.804 61.5344 92.7293 61.5531 92.636C61.6837 91.908 61.8331 91.1147 62.0011 90.256C62.1877 89.3973 62.3744 88.492 62.5611 87.54C62.7477 86.588 62.9437 85.608 63.1491 84.6C63.3731 83.592 63.5784 82.584 63.7651 81.576C63.9704 80.568 64.1664 79.5787 64.3531 78.608C64.5584 77.6373 64.7451 76.7133 64.9131 75.836C65.0997 74.9587 65.2677 74.1467 65.4171 73.4C66.8171 73.4 68.1797 73.4 69.5051 73.4C70.8304 73.4 72.1651 73.4 73.5091 73.4C73.5651 73.4 73.6117 73.4093 73.6491 73.428C73.6864 73.4467 73.7144 73.484 73.7331 73.54C73.7704 73.5773 73.7984 73.6333 73.8171 73.708C74.0597 74.9027 74.3024 76.1253 74.5451 77.376C74.7877 78.608 75.0397 79.868 75.3011 81.156C75.5624 82.4253 75.8237 83.7227 76.0851 85.048C76.3651 86.3733 76.6357 87.7173 76.8971 89.08C77.0277 89.7333 77.1584 90.3867 77.2891 91.04C77.4384 91.6747 77.5784 92.328 77.7091 93C76.8691 93 76.0384 93 75.2171 93C74.4144 93 73.6491 93 72.9211 93C72.7904 93 72.6784 92.9813 72.5851 92.944C72.5104 92.888 72.4451 92.776 72.3891 92.608C72.3331 92.44 72.2677 92.16 72.1931 91.768C71.9877 90.6667 71.7824 89.6027 71.5771 88.576C71.3904 87.5493 71.2131 86.5507 71.0451 85.58C70.8771 84.6093 70.7184 83.6667 70.5691 82.752C70.4197 81.8187 70.2797 80.904 70.1491 80.008C70.0184 79.0933 69.8971 78.188 69.7851 77.292L70.5411 78.048H68.6371L69.4211 77.292C69.3091 78.2253 69.1784 79.1493 69.0291 80.064C68.8984 80.9787 68.7491 81.9213 68.5811 82.892C68.4317 83.8627 68.2544 84.8707 68.0491 85.916C67.8624 86.9613 67.6571 88.072 67.4331 89.248C67.2277 90.4053 66.9944 91.656 66.7331 93ZM81.0021 93C80.9461 93 80.8995 93 80.8621 93C80.8248 92.9813 80.7875 92.9627 80.7501 92.944C80.7315 92.9067 80.7128 92.8693 80.6941 92.832C80.6941 92.7947 80.6941 92.748 80.6941 92.692C80.6941 91.292 80.6941 89.9013 80.6941 88.52C80.6941 87.1387 80.6941 85.748 80.6941 84.348C80.6941 82.948 80.6941 81.5573 80.6941 80.176C80.6941 78.776 80.6941 77.3853 80.6941 76.004C80.6941 75.556 80.6941 75.1173 80.6941 74.688C80.6941 74.2587 80.6941 73.8293 80.6941 73.4C81.6275 73.4 82.5515 73.4 83.4661 73.4C84.3995 73.4 85.3328 73.4 86.2661 73.4C86.3408 73.4 86.3968 73.4187 86.4341 73.456C86.4715 73.4747 86.4995 73.512 86.5181 73.568C86.5555 73.6053 86.5741 73.652 86.5741 73.708C86.5741 74.884 86.5741 76.06 86.5741 77.236C86.5741 78.412 86.5741 79.588 86.5741 80.764C86.5741 81.94 86.5741 83.116 86.5741 84.292C86.5741 85.468 86.5741 86.644 86.5741 87.82H90.3541C90.9888 87.82 91.5768 87.96 92.1181 88.24C92.6781 88.5013 93.1635 88.8747 93.5741 89.36C94.0035 89.8267 94.3488 90.3773 94.6101 91.012C94.8715 91.628 95.0208 92.2907 95.0581 93H81.0021ZM90.1021 85.44C90.6435 85.44 91.1661 85.44 91.6701 85.44C92.1741 85.44 92.6781 85.44 93.1821 85.44C93.7048 85.44 94.2275 85.44 94.7501 85.44C94.8061 85.44 94.8528 85.4587 94.8901 85.496C94.9461 85.5147 94.9835 85.5427 95.0021 85.58C95.0395 85.6173 95.0581 85.664 95.0581 85.72C95.0581 86.3547 95.0581 86.98 95.0581 87.596C95.0581 88.1933 95.0581 88.7907 95.0581 89.388C95.0581 89.9667 95.0581 90.5547 95.0581 91.152C95.0581 91.7493 95.0581 92.3653 95.0581 93C94.0128 92.9627 93.1168 92.7293 92.3701 92.3C91.6421 91.8707 91.0821 91.292 90.6901 90.564C90.2981 89.8173 90.1021 88.968 90.1021 88.016C90.1021 87.848 90.1021 87.6333 90.1021 87.372C90.1021 87.092 90.1021 86.784 90.1021 86.448C90.1021 86.112 90.1021 85.776 90.1021 85.44ZM97.9312 73.4H112.911C113.005 73.4 113.07 73.4093 113.107 73.428C113.145 73.4467 113.173 73.484 113.191 73.54C113.229 73.596 113.247 73.652 113.247 73.708C113.247 74.4733 113.247 75.22 113.247 75.948C113.247 76.676 113.247 77.432 113.247 78.216H98.2672C98.2112 78.216 98.1552 78.2067 98.0992 78.188C98.0432 78.1507 97.9965 78.1133 97.9592 78.076C97.9405 78.02 97.9312 77.964 97.9312 77.908C97.9312 77.124 97.9312 76.368 97.9312 75.64C97.9312 74.912 97.9312 74.1653 97.9312 73.4ZM102.103 80.988H111.259C111.334 80.988 111.39 81.0067 111.427 81.044C111.483 81.0627 111.521 81.1 111.539 81.156C111.558 81.1933 111.567 81.24 111.567 81.296C111.567 81.7813 111.567 82.248 111.567 82.696C111.567 83.144 111.567 83.592 111.567 84.04C111.567 84.4693 111.567 84.9173 111.567 85.384H102.103V80.988ZM99.4152 93C99.3592 93 99.3125 93 99.2752 93C99.2379 92.9813 99.2005 92.9627 99.1632 92.944C99.1445 92.9067 99.1259 92.8693 99.1072 92.832C99.1072 92.7947 99.1072 92.748 99.1072 92.692C99.1072 91.7773 99.1072 90.7693 99.1072 89.668C99.1072 88.5667 99.1072 87.4187 99.1072 86.224C99.1072 85.0107 99.1072 83.7787 99.1072 82.528C99.1072 81.2587 99.1072 79.9987 99.1072 78.748C99.1072 77.4973 99.1072 76.284 99.1072 75.108H105.043L104.791 75.724C104.791 76.396 104.791 77.068 104.791 77.74C104.791 78.3933 104.791 79.056 104.791 79.728C104.791 80.4187 104.791 81.1187 104.791 81.828C104.791 82.5373 104.791 83.256 104.791 83.984C104.791 84.6933 104.791 85.4027 104.791 86.112C104.791 86.8027 104.791 87.4933 104.791 88.184H112.911C113.023 88.184 113.107 88.212 113.163 88.268C113.219 88.324 113.247 88.3987 113.247 88.492C113.247 89.2573 113.247 90.0133 113.247 90.76C113.247 91.488 113.247 92.2347 113.247 93H99.4152Z" fill="#FDB8A9"/>
<path d="M280.5 66C280.5 83.3017 265.514 99.4251 240.211 111.311C215.026 123.142 180.128 130.5 141.5 130.5C102.872 130.5 67.974 123.142 42.7893 111.311C17.486 99.4251 2.5 83.3017 2.5 66C2.5 48.6983 17.486 32.5749 42.7893 20.6886C67.974 8.85806 102.872 1.5 141.5 1.5C180.128 1.5 215.026 8.85806 240.211 20.6886C265.514 32.5749 280.5 48.6983 280.5 66Z" stroke="#FDB8A9" stroke-width="3"/>
</svg>
