<svg xmlns="http://www.w3.org/2000/svg" xmlns:xlink="http://www.w3.org/1999/xlink" width="24.828" height="32" viewBox="0 0 24.828 32">
  <defs>
    <clipPath id="clip-path">
      <rect width="24.828" height="32" fill="none"/>
    </clipPath>
  </defs>
  <g id="icon_-_SVG" data-name="icon - SVG" clip-path="url(#clip-path)">
    <path id="Path_284" data-name="Path 284" d="M31.024,6.724l-.751-.751L25.029.729h0L24.6.3a1.03,1.03,0,0,0-.732-.3H7.859A1.36,1.36,0,0,0,6.5,1.359V30.641A1.36,1.36,0,0,0,7.859,32h22.11a1.361,1.361,0,0,0,1.359-1.359V7.457A1.041,1.041,0,0,0,31.024,6.724Zm-1.663-.1H24.707V1.967Zm.863,24.02a.256.256,0,0,1-.255.255H7.859a.256.256,0,0,1-.255-.255v-8.02H30.224ZM7.6,21.517V1.359A.256.256,0,0,1,7.859,1.1H23.635a.85.85,0,0,0-.032.216v6.4h6.4a.857.857,0,0,0,.216-.032V21.517Z" transform="translate(-6.5)" fill="#666d6d"/>
    <path id="Path_288" data-name="Path 288" d="M27.948,17.207h-3.31V15H19.121v2.207H15.81V16.1H12.5v3.31h3.31v-1.1h1.958A8.331,8.331,0,0,0,13.6,25.483a.552.552,0,0,0,1.1,0,7.22,7.22,0,0,1,4.414-6.618v1.652h5.517V18.865a7.221,7.221,0,0,1,4.414,6.618.552.552,0,0,0,1.1,0,8.331,8.331,0,0,0-4.164-7.172h1.958v1.1h3.31V16.1h-3.31Zm-13.241,1.1H13.6v-1.1h1.1Zm8.828,1.1h-3.31V16.1h3.31v3.31Zm5.517-2.207h1.1v1.1h-1.1Z" transform="translate(-9.19 -6.724)" fill="#666d6d"/>
    <path id="SVG" d="M2.192.1a1.663,1.663,0,0,0,1.88-1.552A1.464,1.464,0,0,0,3.016-2.872l-.712-.3c-.432-.176-.832-.328-.832-.736,0-.384.328-.616.824-.616a1.7,1.7,0,0,1,1.136.448L3.9-4.664A2.31,2.31,0,0,0,2.3-5.328,1.591,1.591,0,0,0,.536-3.856,1.508,1.508,0,0,0,1.592-2.464l.72.312c.472.2.808.336.808.768,0,.408-.32.672-.912.672A2.081,2.081,0,0,1,.848-1.3L.3-.672A2.71,2.71,0,0,0,2.192.1ZM5.96,0h1.1L8.68-5.232H7.728L7-2.6c-.16.592-.28,1.1-.456,1.7H6.512c-.176-.6-.3-1.112-.464-1.7L5.312-5.232H4.328Zm5.464.1A2.4,2.4,0,0,0,13.1-.528v-2.3H11.272v.76h.992V-.944a1.157,1.157,0,0,1-.752.232c-1.048,0-1.6-.72-1.6-1.912,0-1.176.624-1.9,1.552-1.9a1.417,1.417,0,0,1,1.056.456l.5-.6a2.154,2.154,0,0,0-1.584-.664A2.474,2.474,0,0,0,8.96-2.6,2.416,2.416,0,0,0,11.424.1Z" transform="translate(5.696 29.5)" fill="#666d6d"/>
  </g>
</svg>
