<svg xmlns="http://www.w3.org/2000/svg" xmlns:xlink="http://www.w3.org/1999/xlink" width="24.828" height="32" viewBox="0 0 24.828 32">
  <defs>
    <clipPath id="clip-path">
      <rect width="24.828" height="32" fill="none"/>
    </clipPath>
  </defs>
  <g id="icon_-_ZIP" data-name="icon - ZIP" clip-path="url(#clip-path)">
    <path id="Path_284" data-name="Path 284" d="M31.024,6.724l-.751-.751L25.029.729h0L24.6.3a1.03,1.03,0,0,0-.732-.3H7.859A1.36,1.36,0,0,0,6.5,1.359V30.641A1.36,1.36,0,0,0,7.859,32h22.11a1.361,1.361,0,0,0,1.359-1.359V7.457A1.041,1.041,0,0,0,31.024,6.724Zm-1.663-.1H24.707V1.967Zm.863,24.02a.256.256,0,0,1-.255.255H7.859a.256.256,0,0,1-.255-.255v-8.02H30.224ZM7.6,21.517V1.359A.256.256,0,0,1,7.859,1.1H23.635a.85.85,0,0,0-.032.216v6.4h6.4a.857.857,0,0,0,.216-.032V21.517Z" transform="translate(-6.5)" fill="#666d6d"/>
    <path id="ZIP" d="M-5.3,0h3.7V-.784H-4.152l2.536-3.888v-.56H-5.064v.784h2.3L-5.3-.56ZM-.632,0H.3V-5.232H-.632ZM1.624,0h.928V-1.92H3.3c1.128,0,1.992-.536,1.992-1.7,0-1.216-.864-1.616-2.024-1.616H1.624Zm.928-2.664V-4.488H3.2c.776,0,1.184.216,1.184.872,0,.64-.376.952-1.152.952Z" transform="translate(12.296 29.5)" fill="#666d6d"/>
    <path id="Path_371" data-name="Path 371" d="M26.81,15.828h1.1v-1.1h-1.1v-1.1h1.1v-1.1h-1.1v-1.1h1.1v-1.1h-1.1v-1.1h1.1V8.1h-1.1V7h-1.1V8.1H24.6v1.1h1.1v1.1H24.6v1.1h1.1v1.1H24.6v1.1h1.1v1.1H24.6v1.1h1.1v1.1H23.5V19.69a2.759,2.759,0,0,0,5.517,0V16.931H26.81Zm1.1,3.862a1.655,1.655,0,0,1-3.31,0V18.034h3.31Z" transform="translate(-13.5 -3.138)" fill="#666d6d"/>
  </g>
</svg>
