<svg xmlns="http://www.w3.org/2000/svg" xmlns:xlink="http://www.w3.org/1999/xlink" width="24.828" height="32" viewBox="0 0 24.828 32">
  <defs>
    <clipPath id="clip-path">
      <rect width="24.828" height="32" fill="none"/>
    </clipPath>
  </defs>
  <g id="icon_-_PNG" data-name="icon - PNG" clip-path="url(#clip-path)">
    <path id="Path_274" data-name="Path 274" d="M31.024,6.724,30.6,6.3,25.029.729,24.6.3a1.044,1.044,0,0,0-.733-.3H7.859A1.43,1.43,0,0,0,6.5,1.614V30.9A1.264,1.264,0,0,0,7.514,31.95c.028.007.054.018.083.023A1.345,1.345,0,0,0,7.859,32h22.11a1.345,1.345,0,0,0,.262-.026c.029-.006.055-.016.083-.023A1.264,1.264,0,0,0,31.328,30.9V7.712A1.271,1.271,0,0,0,31.024,6.724Zm-1.663-.1H24.707V1.967ZM9.259,1.1a.552.552,0,1,0,1.1,0h1.1a.552.552,0,1,0,1.1,0h1.1a.552.552,0,1,0,1.1,0h1.1a.552.552,0,1,0,1.1,0h1.1a.552.552,0,1,0,1.1,0h1.1a.552.552,0,0,0,1.1,0h1.1a.552.552,0,0,0,1.1,0h.032a.85.85,0,0,0-.032.216v6.4h1.1a.552.552,0,1,0,1.1,0h1.1a.552.552,0,1,0,1.1,0h1.1a.552.552,0,1,0,1.1,0c0-.011-.006-.02-.006-.031h.006c0,.008,0,.012,0,.02v7l-.09-.086a.538.538,0,0,0,.09-.284.552.552,0,0,0-.552-.552.54.54,0,0,0-.307.105l-.358-.339a.538.538,0,0,0,.113-.318.552.552,0,0,0-.552-.552.541.541,0,0,0-.341.129l-.346-.329a.545.545,0,0,0,.135-.351.548.548,0,0,0-.927-.4l-.335-.318a.549.549,0,1,0-.8-.756l-.321-.3c-.007-.007-.016-.009-.023-.015a.544.544,0,0,0,.195-.413.552.552,0,1,0-1.1,0,.543.543,0,0,0,.2.415.557.557,0,0,0-.055.04l-.276.3a.544.544,0,0,0-.42-.206.552.552,0,0,0-.552.552.542.542,0,0,0,.247.448l-.338.37a.542.542,0,0,0-.461-.266.548.548,0,0,0-.245,1.039l-.357.391a.55.55,0,1,0-.676.742l-.406.444a.545.545,0,0,0-.523-.409.552.552,0,0,0-.552.552.545.545,0,0,0,.458.533l-.469.514a.548.548,0,1,0-.554.606l-.281.308L16.83,13.688a.552.552,0,0,0-.748-.03l-3.538,3.011a.518.518,0,0,0,.024-.117.552.552,0,1,0-.552.552c.008,0,.015,0,.023,0l-.586.5a.546.546,0,0,0-.54-.494.552.552,0,0,0-.552.552.544.544,0,0,0,.41.523l-.45.383a.55.55,0,0,0-1.064.2.543.543,0,0,0,.28.47l-.385.327a.544.544,0,0,0-.447-.245.55.55,0,0,0-.38.949l-.723.616V19.31a.552.552,0,0,0,0-1.1V17.1a.552.552,0,0,0,0-1.1V14.9a.552.552,0,0,0,0-1.1v-1.1a.552.552,0,0,0,0-1.1v-1.1a.552.552,0,0,0,0-1.1v-1.1a.552.552,0,0,0,0-1.1v-1.1a.552.552,0,0,0,0-1.1v-1.1a.552.552,0,0,0,0-1.1v-1.1A.552.552,0,0,0,8.155,1.1ZM7.859,30.9a.318.318,0,0,1-.109-.027.253.253,0,0,1-.146-.228v-8.02H30.224v8.02a.253.253,0,0,1-.146.228.318.318,0,0,1-.109.027Zm.692-9.379,7.8-6.637a.522.522,0,0,0,.082.017c.014,0,.026-.007.039-.008l5.63,5.63a.552.552,0,0,0,.78-.78l-2.652-2.652,5.058-5.54,4.937,4.691v5.28Z" transform="translate(-6.5)" fill="#666d6d"/>
    <circle id="Ellipse_5" data-name="Ellipse 5" cx="0.552" cy="0.552" r="0.552" transform="translate(1.655 1.655)" fill="#666d6d"/>
    <circle id="Ellipse_6" data-name="Ellipse 6" cx="0.552" cy="0.552" r="0.552" transform="translate(3.862 1.655)" fill="#666d6d"/>
    <circle id="Ellipse_7" data-name="Ellipse 7" cx="0.552" cy="0.552" r="0.552" transform="translate(6.069 1.655)" fill="#666d6d"/>
    <circle id="Ellipse_8" data-name="Ellipse 8" cx="0.552" cy="0.552" r="0.552" transform="translate(8.276 1.655)" fill="#666d6d"/>
    <circle id="Ellipse_9" data-name="Ellipse 9" cx="0.552" cy="0.552" r="0.552" transform="translate(10.483 1.655)" fill="#666d6d"/>
    <circle id="Ellipse_10" data-name="Ellipse 10" cx="0.552" cy="0.552" r="0.552" transform="translate(12.69 1.655)" fill="#666d6d"/>
    <circle id="Ellipse_11" data-name="Ellipse 11" cx="0.552" cy="0.552" r="0.552" transform="translate(14.897 1.655)" fill="#666d6d"/>
    <circle id="Ellipse_12" data-name="Ellipse 12" cx="0.552" cy="0.552" r="0.552" transform="translate(16 2.759)" fill="#666d6d"/>
    <circle id="Ellipse_13" data-name="Ellipse 13" cx="0.552" cy="0.552" r="0.552" transform="translate(13.793 2.759)" fill="#666d6d"/>
    <circle id="Ellipse_14" data-name="Ellipse 14" cx="0.552" cy="0.552" r="0.552" transform="translate(11.586 2.759)" fill="#666d6d"/>
    <circle id="Ellipse_15" data-name="Ellipse 15" cx="0.552" cy="0.552" r="0.552" transform="translate(9.379 2.759)" fill="#666d6d"/>
    <circle id="Ellipse_16" data-name="Ellipse 16" cx="0.552" cy="0.552" r="0.552" transform="translate(7.172 2.759)" fill="#666d6d"/>
    <circle id="Ellipse_17" data-name="Ellipse 17" cx="0.552" cy="0.552" r="0.552" transform="translate(4.966 2.759)" fill="#666d6d"/>
    <circle id="Ellipse_18" data-name="Ellipse 18" cx="0.552" cy="0.552" r="0.552" transform="translate(2.759 2.759)" fill="#666d6d"/>
    <circle id="Ellipse_19" data-name="Ellipse 19" cx="0.552" cy="0.552" r="0.552" transform="translate(1.655 3.862)" fill="#666d6d"/>
    <circle id="Ellipse_20" data-name="Ellipse 20" cx="0.552" cy="0.552" r="0.552" transform="translate(3.862 3.862)" fill="#666d6d"/>
    <circle id="Ellipse_21" data-name="Ellipse 21" cx="0.552" cy="0.552" r="0.552" transform="translate(6.069 3.862)" fill="#666d6d"/>
    <circle id="Ellipse_22" data-name="Ellipse 22" cx="0.552" cy="0.552" r="0.552" transform="translate(8.276 3.862)" fill="#666d6d"/>
    <circle id="Ellipse_23" data-name="Ellipse 23" cx="0.552" cy="0.552" r="0.552" transform="translate(10.483 3.862)" fill="#666d6d"/>
    <circle id="Ellipse_24" data-name="Ellipse 24" cx="0.552" cy="0.552" r="0.552" transform="translate(12.69 3.862)" fill="#666d6d"/>
    <circle id="Ellipse_25" data-name="Ellipse 25" cx="0.552" cy="0.552" r="0.552" transform="translate(14.897 3.862)" fill="#666d6d"/>
    <circle id="Ellipse_26" data-name="Ellipse 26" cx="0.552" cy="0.552" r="0.552" transform="translate(16 4.966)" fill="#666d6d"/>
    <circle id="Ellipse_27" data-name="Ellipse 27" cx="0.552" cy="0.552" r="0.552" transform="translate(13.793 4.966)" fill="#666d6d"/>
    <circle id="Ellipse_28" data-name="Ellipse 28" cx="0.552" cy="0.552" r="0.552" transform="translate(11.586 4.966)" fill="#666d6d"/>
    <circle id="Ellipse_29" data-name="Ellipse 29" cx="0.552" cy="0.552" r="0.552" transform="translate(9.379 4.966)" fill="#666d6d"/>
    <circle id="Ellipse_30" data-name="Ellipse 30" cx="0.552" cy="0.552" r="0.552" transform="translate(7.172 4.966)" fill="#666d6d"/>
    <circle id="Ellipse_31" data-name="Ellipse 31" cx="0.552" cy="0.552" r="0.552" transform="translate(4.966 4.966)" fill="#666d6d"/>
    <circle id="Ellipse_32" data-name="Ellipse 32" cx="0.552" cy="0.552" r="0.552" transform="translate(2.759 4.966)" fill="#666d6d"/>
    <circle id="Ellipse_33" data-name="Ellipse 33" cx="0.552" cy="0.552" r="0.552" transform="translate(1.655 6.069)" fill="#666d6d"/>
    <circle id="Ellipse_34" data-name="Ellipse 34" cx="0.552" cy="0.552" r="0.552" transform="translate(8.276 6.069)" fill="#666d6d"/>
    <circle id="Ellipse_35" data-name="Ellipse 35" cx="0.552" cy="0.552" r="0.552" transform="translate(10.483 6.069)" fill="#666d6d"/>
    <circle id="Ellipse_36" data-name="Ellipse 36" cx="0.552" cy="0.552" r="0.552" transform="translate(12.69 6.069)" fill="#666d6d"/>
    <circle id="Ellipse_37" data-name="Ellipse 37" cx="0.552" cy="0.552" r="0.552" transform="translate(14.897 6.069)" fill="#666d6d"/>
    <circle id="Ellipse_38" data-name="Ellipse 38" cx="0.552" cy="0.552" r="0.552" transform="translate(16 7.172)" fill="#666d6d"/>
    <circle id="Ellipse_39" data-name="Ellipse 39" cx="0.552" cy="0.552" r="0.552" transform="translate(13.793 7.172)" fill="#666d6d"/>
    <circle id="Ellipse_40" data-name="Ellipse 40" cx="0.552" cy="0.552" r="0.552" transform="translate(11.586 7.172)" fill="#666d6d"/>
    <circle id="Ellipse_41" data-name="Ellipse 41" cx="0.552" cy="0.552" r="0.552" transform="translate(9.379 7.172)" fill="#666d6d"/>
    <circle id="Ellipse_42" data-name="Ellipse 42" cx="0.552" cy="0.552" r="0.552" transform="translate(10.483 8.276)" fill="#666d6d"/>
    <circle id="Ellipse_43" data-name="Ellipse 43" cx="0.552" cy="0.552" r="0.552" transform="translate(12.69 8.276)" fill="#666d6d"/>
    <circle id="Ellipse_44" data-name="Ellipse 44" cx="0.552" cy="0.552" r="0.552" transform="translate(14.897 8.276)" fill="#666d6d"/>
    <circle id="Ellipse_45" data-name="Ellipse 45" cx="0.552" cy="0.552" r="0.552" transform="translate(17.103 8.276)" fill="#666d6d"/>
    <circle id="Ellipse_46" data-name="Ellipse 46" cx="0.552" cy="0.552" r="0.552" transform="translate(19.31 8.276)" fill="#666d6d"/>
    <circle id="Ellipse_47" data-name="Ellipse 47" cx="0.552" cy="0.552" r="0.552" transform="translate(20.414 9.379)" fill="#666d6d"/>
    <circle id="Ellipse_48" data-name="Ellipse 48" cx="0.552" cy="0.552" r="0.552" transform="translate(22.621 11.586)" fill="#666d6d"/>
    <circle id="Ellipse_49" data-name="Ellipse 49" cx="0.552" cy="0.552" r="0.552" transform="translate(21.517 10.483)" fill="#666d6d"/>
    <circle id="Ellipse_50" data-name="Ellipse 50" cx="0.552" cy="0.552" r="0.552" transform="translate(22.621 9.379)" fill="#666d6d"/>
    <circle id="Ellipse_51" data-name="Ellipse 51" cx="0.552" cy="0.552" r="0.552" transform="translate(21.517 8.276)" fill="#666d6d"/>
    <circle id="Ellipse_52" data-name="Ellipse 52" cx="0.552" cy="0.552" r="0.552" transform="translate(16 9.379)" fill="#666d6d"/>
    <circle id="Ellipse_53" data-name="Ellipse 53" cx="0.552" cy="0.552" r="0.552" transform="translate(13.793 9.379)" fill="#666d6d"/>
    <circle id="Ellipse_54" data-name="Ellipse 54" cx="0.552" cy="0.552" r="0.552" transform="translate(11.586 9.379)" fill="#666d6d"/>
    <circle id="Ellipse_55" data-name="Ellipse 55" cx="0.552" cy="0.552" r="0.552" transform="translate(9.379 9.379)" fill="#666d6d"/>
    <path id="Path_278" data-name="Path 278" d="M10.052,16.517a.549.549,0,0,0,.512-.355,3.053,3.053,0,0,0,.265.473.543.543,0,0,0-.226.434.552.552,0,0,0,.552.552.542.542,0,0,0,.429-.22,3.076,3.076,0,0,0,.454.267.551.551,0,1,0,.772.5.539.539,0,0,0-.077-.265,3.071,3.071,0,0,0,1.258,0,.539.539,0,0,0-.077.265.552.552,0,1,0,.773-.5,3.085,3.085,0,0,0,.454-.267.54.54,0,0,0,.429.22.552.552,0,0,0,.552-.552.541.541,0,0,0-.226-.433,3.079,3.079,0,0,0,.265-.473.55.55,0,1,0,.512-.749.539.539,0,0,0-.3.1,3.028,3.028,0,0,0-.023-1.321.534.534,0,0,0,.323.117.552.552,0,1,0,0-1.1.545.545,0,0,0-.523.409,3.045,3.045,0,0,0-.292-.5.544.544,0,0,0,.264-.459.552.552,0,0,0-.552-.552.543.543,0,0,0-.463.27,3.041,3.041,0,0,0-.526-.293.544.544,0,0,0,.438-.529.552.552,0,0,0-1.1,0,.543.543,0,0,0,.14.357,2.987,2.987,0,0,0-1.383,0,.543.543,0,0,0,.14-.357.552.552,0,0,0-1.1,0,.544.544,0,0,0,.438.529,3.061,3.061,0,0,0-.526.293.543.543,0,0,0-.463-.27.552.552,0,0,0-.552.552.544.544,0,0,0,.264.459,3.109,3.109,0,0,0-.292.5.545.545,0,0,0-.523-.409.552.552,0,1,0,0,1.1.537.537,0,0,0,.323-.116,3.028,3.028,0,0,0-.023,1.321.535.535,0,0,0-.3-.1.552.552,0,1,0,0,1.1Zm3.31-3.586A1.969,1.969,0,1,1,11.393,14.9,1.971,1.971,0,0,1,13.362,12.931Z" transform="translate(-7.845 -4.931)" fill="#666d6d"/>
    <circle id="Ellipse_56" data-name="Ellipse 56" cx="0.552" cy="0.552" r="0.552" transform="translate(10.483 10.483)" fill="#666d6d"/>
    <circle id="Ellipse_57" data-name="Ellipse 57" cx="0.552" cy="0.552" r="0.552" transform="translate(12.69 10.483)" fill="#666d6d"/>
    <circle id="Ellipse_58" data-name="Ellipse 58" cx="0.552" cy="0.552" r="0.552" transform="translate(14.897 10.483)" fill="#666d6d"/>
    <circle id="Ellipse_59" data-name="Ellipse 59" cx="0.552" cy="0.552" r="0.552" transform="translate(13.793 11.586)" fill="#666d6d"/>
    <circle id="Ellipse_60" data-name="Ellipse 60" cx="0.552" cy="0.552" r="0.552" transform="translate(11.586 11.586)" fill="#666d6d"/>
    <circle id="Ellipse_61" data-name="Ellipse 61" cx="0.552" cy="0.552" r="0.552" transform="translate(9.379 11.586)" fill="#666d6d"/>
    <circle id="Ellipse_62" data-name="Ellipse 62" cx="0.552" cy="0.552" r="0.552" transform="translate(1.655 12.69)" fill="#666d6d"/>
    <circle id="Ellipse_63" data-name="Ellipse 63" cx="0.552" cy="0.552" r="0.552" transform="translate(8.276 12.69)" fill="#666d6d"/>
    <circle id="Ellipse_64" data-name="Ellipse 64" cx="0.552" cy="0.552" r="0.552" transform="translate(10.483 12.69)" fill="#666d6d"/>
    <circle id="Ellipse_65" data-name="Ellipse 65" cx="0.552" cy="0.552" r="0.552" transform="translate(12.69 12.69)" fill="#666d6d"/>
    <circle id="Ellipse_66" data-name="Ellipse 66" cx="0.552" cy="0.552" r="0.552" transform="translate(11.586 13.793)" fill="#666d6d"/>
    <circle id="Ellipse_67" data-name="Ellipse 67" cx="0.552" cy="0.552" r="0.552" transform="translate(7.172 13.793)" fill="#666d6d"/>
    <circle id="Ellipse_68" data-name="Ellipse 68" cx="0.552" cy="0.552" r="0.552" transform="translate(4.966 13.793)" fill="#666d6d"/>
    <circle id="Ellipse_69" data-name="Ellipse 69" cx="0.552" cy="0.552" r="0.552" transform="translate(2.759 13.793)" fill="#666d6d"/>
    <circle id="Ellipse_70" data-name="Ellipse 70" cx="0.552" cy="0.552" r="0.552" transform="translate(1.655 14.897)" fill="#666d6d"/>
    <circle id="Ellipse_71" data-name="Ellipse 71" cx="0.552" cy="0.552" r="0.552" transform="translate(3.862 14.897)" fill="#666d6d"/>
    <circle id="Ellipse_72" data-name="Ellipse 72" cx="0.552" cy="0.552" r="0.552" transform="translate(6.069 14.897)" fill="#666d6d"/>
    <circle id="Ellipse_73" data-name="Ellipse 73" cx="0.552" cy="0.552" r="0.552" transform="translate(2.759 16)" fill="#666d6d"/>
    <circle id="Ellipse_74" data-name="Ellipse 74" cx="0.552" cy="0.552" r="0.552" transform="translate(1.655 17.103)" fill="#666d6d"/>
    <path id="PNG" d="M.664,0h.928V-1.92h.752c1.128,0,1.992-.536,1.992-1.7,0-1.216-.864-1.616-2.024-1.616H.664Zm.928-2.664V-4.488H2.24c.776,0,1.184.216,1.184.872,0,.64-.376.952-1.152.952ZM5.32,0h.888V-2.288c0-.584-.08-1.216-.12-1.768H6.12l.536,1.112L8.288,0H9.24V-5.232H8.352V-2.96c0,.584.08,1.248.12,1.784H8.44L7.9-2.288,6.272-5.232H5.32Zm7.44.1a2.4,2.4,0,0,0,1.672-.624v-2.3H12.608v.76H13.6V-.944a1.157,1.157,0,0,1-.752.232c-1.048,0-1.6-.72-1.6-1.912,0-1.176.624-1.9,1.552-1.9a1.417,1.417,0,0,1,1.056.456l.5-.6a2.154,2.154,0,0,0-1.584-.664A2.474,2.474,0,0,0,10.3-2.6,2.416,2.416,0,0,0,12.76.1Z" transform="translate(4.836 29.5)" fill="#666d6d"/>
  </g>
</svg>
