<svg width="380" height="240" viewBox="0 0 380 240" fill="none" xmlns="http://www.w3.org/2000/svg">
<g clip-path="url(#clip0_177_236)">
<path fill-rule="evenodd" clip-rule="evenodd" d="M337.573 64.2243H331.344C332.192 59.6938 333.04 55.1624 333.888 50.6318C335.116 55.1624 336.344 59.6938 337.573 64.2243Z" fill="#FFB800"/>
<path fill-rule="evenodd" clip-rule="evenodd" d="M337.573 64.2246H331.344C332.192 68.7551 333.04 73.2866 333.888 77.8171C335.116 73.2866 336.344 68.7551 337.573 64.2246Z" fill="#FFB800"/>
<path fill-rule="evenodd" clip-rule="evenodd" d="M333.937 61.0811V67.3701C330.571 66.5144 327.206 65.6569 323.84 64.8013C327.206 63.5609 330.571 62.3205 333.937 61.0811Z" fill="#FFB800"/>
<path fill-rule="evenodd" clip-rule="evenodd" d="M333.937 61.0811V67.3701C337.302 66.5144 340.668 65.6569 344.033 64.8013C340.668 63.5609 337.302 62.3205 333.937 61.0811Z" fill="#FFB800"/>
<path fill-rule="evenodd" clip-rule="evenodd" d="M236.546 233.928C236.529 234.056 236.542 234.22 236.542 234.22C236.542 234.266 236.552 234.293 236.534 234.33C236.541 234.363 236.547 234.394 236.554 234.426C236.583 233.862 236.568 233.285 236.642 232.687C236.578 233.198 236.523 233.647 236.546 233.928Z" fill="#FFB8A8"/>
<path fill-rule="evenodd" clip-rule="evenodd" d="M236.324 235.739L236.965 236.064C236.906 235.798 236.832 235.575 236.787 235.447C236.72 235.212 236.633 234.921 236.583 234.603C236.576 234.554 236.564 234.491 236.553 234.427C236.528 234.87 236.472 235.306 236.324 235.739Z" fill="#FFB8A8"/>
<path fill-rule="evenodd" clip-rule="evenodd" d="M69.1468 158.3C70.3391 158.302 71.5313 158.303 72.7236 158.305C72.2402 155.702 71.7559 153.1 71.2726 150.498C70.5637 153.099 69.8548 155.7 69.1468 158.3Z" fill="#FFB800"/>
<path fill-rule="evenodd" clip-rule="evenodd" d="M69.1468 158.3C70.3391 158.302 71.5313 158.303 72.7236 158.305C72.2323 160.906 71.7428 163.507 71.2516 166.108C70.5506 163.506 69.8478 160.903 69.1468 158.3Z" fill="#FFB800"/>
<path fill-rule="evenodd" clip-rule="evenodd" d="M71.2367 156.497C71.2341 157.701 71.2333 158.905 71.2315 160.109C73.1641 159.619 75.0985 159.13 77.032 158.641C75.1002 157.927 73.1676 157.211 71.2367 156.497Z" fill="#FFB800"/>
<path fill-rule="evenodd" clip-rule="evenodd" d="M71.2376 156.497C71.235 157.701 71.2341 158.905 71.2324 160.109C69.3006 159.614 67.368 159.12 65.4354 158.625C67.3689 157.916 69.3033 157.206 71.2376 156.497Z" fill="#FFB800"/>
<path fill-rule="evenodd" clip-rule="evenodd" d="M15.7765 149.597C17.5168 149.6 19.2571 149.603 20.9966 149.605C20.292 145.806 19.5849 142.008 18.8795 138.209C17.8455 142.006 16.8105 145.801 15.7765 149.597Z" fill="#FFB800"/>
<path fill-rule="evenodd" clip-rule="evenodd" d="M15.7765 149.597C17.5168 149.6 19.2571 149.602 20.9966 149.605C20.2816 153.401 19.5648 157.198 18.8489 160.993C17.8245 157.195 16.8009 153.396 15.7765 149.597Z" fill="#FFB800"/>
<path fill-rule="evenodd" clip-rule="evenodd" d="M18.8262 146.966C18.8236 148.723 18.821 150.48 18.8192 152.238C21.6408 151.523 24.4623 150.809 27.2848 150.095C24.465 149.052 21.646 148.009 18.8262 146.966Z" fill="#FFB800"/>
<path fill-rule="evenodd" clip-rule="evenodd" d="M18.8262 146.966C18.8236 148.723 18.821 150.48 18.8192 152.238C16.0003 151.516 13.1804 150.794 10.3606 150.073C13.1831 149.037 16.0046 148.001 18.8262 146.966Z" fill="#FFB800"/>
<path fill-rule="evenodd" clip-rule="evenodd" d="M134.711 111.967L135.089 113.37C135.386 114.471 135.683 115.572 135.979 116.673L136.11 115.981V115.98V115.979C136.357 114.674 136.602 113.37 136.848 112.064C137.967 111.782 139.086 111.499 140.203 111.216L136.871 109.983C136.655 108.818 136.439 107.653 136.222 106.489V106.488L135.995 105.265C135.736 106.214 135.477 107.164 135.219 108.113L135.218 108.117C135.035 108.786 134.852 109.456 134.67 110.125C134.396 110.227 134.122 110.327 133.849 110.427C133.143 110.686 132.436 110.945 131.729 111.204C132.671 111.445 133.613 111.686 134.553 111.927C134.606 111.941 134.658 111.954 134.711 111.967Z" fill="#FFB800"/>
<path fill-rule="evenodd" clip-rule="evenodd" d="M263.857 38.1866L265.846 38.1892C265.577 36.7421 265.309 35.295 265.039 33.8462C264.645 35.2941 264.251 36.7404 263.857 38.1866Z" fill="#FFB800"/>
<path fill-rule="evenodd" clip-rule="evenodd" d="M263.857 38.1865L265.846 38.1891C265.574 39.6353 265.301 41.0824 265.027 42.5295C264.637 41.0816 264.248 39.6336 263.857 38.1865Z" fill="#FFB800"/>
<path fill-rule="evenodd" clip-rule="evenodd" d="M265.019 37.1833L265.017 39.1922C266.092 38.9192 267.167 38.6479 268.242 38.3757C267.168 37.978 266.095 37.5802 265.019 37.1833Z" fill="#FFB800"/>
<path fill-rule="evenodd" clip-rule="evenodd" d="M265.019 37.1833L265.017 39.1922C263.943 38.9165 262.868 38.6418 261.794 38.3661C262.869 37.9719 263.944 37.5776 265.019 37.1833Z" fill="#FFB800"/>
<path fill-rule="evenodd" clip-rule="evenodd" d="M354.327 144.974C355.321 144.975 356.316 144.977 357.31 144.978C356.906 142.808 356.504 140.638 356.1 138.468C355.509 140.636 354.919 142.806 354.327 144.974Z" fill="#FFB800"/>
<path fill-rule="evenodd" clip-rule="evenodd" d="M354.327 144.974C355.321 144.975 356.316 144.977 357.31 144.978C356.9 147.146 356.492 149.316 356.082 151.484C355.497 149.315 354.913 147.143 354.327 144.974Z" fill="#FFB800"/>
<path fill-rule="evenodd" clip-rule="evenodd" d="M356.07 143.471C356.068 144.474 356.067 145.479 356.066 146.482C357.678 146.074 359.29 145.667 360.902 145.259C359.292 144.663 357.68 144.068 356.07 143.471Z" fill="#FFB800"/>
<path fill-rule="evenodd" clip-rule="evenodd" d="M356.07 143.471C356.068 144.474 356.067 145.479 356.066 146.482C354.456 146.07 352.845 145.658 351.233 145.245C352.846 144.654 354.458 144.063 356.07 143.471Z" fill="#FFB800"/>
<path fill-rule="evenodd" clip-rule="evenodd" d="M175.954 125.464L177.171 125.466L177.202 101.022L175.987 101.02L175.954 125.464Z" fill="#013662"/>
<path fill-rule="evenodd" clip-rule="evenodd" d="M175.539 126.722L176.734 126.502L172.387 102.455L171.19 102.676L175.539 126.722Z" fill="#FFB8A8"/>
<path fill-rule="evenodd" clip-rule="evenodd" d="M310.202 234.46C310.199 236.506 311.818 238.166 313.816 238.169C315.814 238.171 317.436 236.515 317.439 234.47C317.441 232.425 315.824 230.765 313.825 230.762C311.828 230.76 310.205 232.414 310.202 234.46Z" fill="#013662"/>
<path fill-rule="evenodd" clip-rule="evenodd" d="M275.893 184.087L314.168 184.141C316.313 184.142 318.072 182.373 318.074 180.208C318.077 177.987 316.324 176.213 314.178 176.21L275.904 176.157C273.759 176.153 272.001 177.924 271.998 180.09C271.996 182.311 273.748 184.085 275.893 184.087Z" fill="#372C24"/>
<path fill-rule="evenodd" clip-rule="evenodd" d="M293.411 232.767L296.524 232.771L296.589 182.843L293.476 182.837L293.411 232.767Z" fill="#013662"/>
<path fill-rule="evenodd" clip-rule="evenodd" d="M313.532 237.019C313.267 236.973 313.14 236.782 313.177 236.583C314.333 230.626 311.917 224.722 307.165 221.898C301.848 218.73 296.094 221.121 295.457 221.403C295.272 221.485 295.062 221.399 294.981 221.215C294.9 221.029 294.983 220.814 295.166 220.734C296.264 220.246 302.02 217.988 307.533 221.267C312.55 224.25 315.102 230.461 313.887 236.723C313.854 236.897 313.702 237.019 313.532 237.019Z" fill="#013662"/>
<path fill-rule="evenodd" clip-rule="evenodd" d="M291.677 234.435C291.674 236.481 293.291 238.141 295.289 238.143C297.287 238.146 298.909 236.489 298.911 234.445C298.914 232.399 297.297 230.739 295.299 230.737C293.301 230.734 291.679 232.39 291.677 234.435Z" fill="#013662"/>
<path fill-rule="evenodd" clip-rule="evenodd" d="M276.722 236.968C276.552 236.968 276.4 236.847 276.367 236.673C275.167 230.408 277.737 224.205 282.761 221.234C288.275 217.975 294.03 220.245 295.128 220.734C295.312 220.815 295.394 221.031 295.314 221.214C295.232 221.4 295.014 221.483 294.837 221.402C293.795 220.941 288.338 218.783 283.125 221.865C278.369 224.678 275.937 230.573 277.077 236.533C277.115 236.732 276.987 236.925 276.791 236.961C276.768 236.968 276.745 236.968 276.722 236.968Z" fill="#013662"/>
<path fill-rule="evenodd" clip-rule="evenodd" d="M280.056 234.418C280.053 236.464 278.431 238.119 276.433 238.117C274.435 238.113 272.817 236.453 272.82 234.408C272.823 232.363 274.445 230.707 276.443 230.71C278.441 230.713 280.058 232.373 280.056 234.418Z" fill="#013662"/>
<path fill-rule="evenodd" clip-rule="evenodd" d="M291.667 223.111L298.293 223.119L298.313 207.808L291.687 207.799L291.667 223.111Z" fill="#013662"/>
<path fill-rule="evenodd" clip-rule="evenodd" d="M159.791 138.311L244.056 138.427C245.2 138.429 246.137 137.485 246.139 136.33C246.141 135.128 245.206 134.182 244.062 134.18L159.797 134.063C158.654 134.062 157.716 135.006 157.714 136.161C157.712 137.363 158.648 138.309 159.791 138.311Z" fill="#372C24"/>
<path fill-rule="evenodd" clip-rule="evenodd" d="M156.167 238.017L153.316 237.514L169.784 138.041L172.635 138.543L156.167 238.017Z" fill="#372C24"/>
<path fill-rule="evenodd" clip-rule="evenodd" d="M250.125 238.017L252.976 237.514L236.508 138.041L233.657 138.543L250.125 238.017Z" fill="#372C24"/>
<path fill-rule="evenodd" clip-rule="evenodd" d="M166.995 134.137L180.422 134.156L180.981 116.731C176.326 116.725 171.672 116.717 167.016 116.711C167.009 122.519 167.003 128.329 166.995 134.137Z" fill="#FFB800"/>
<path fill-rule="evenodd" clip-rule="evenodd" d="M325.382 239.7H19.3113C18.6654 239.7 18.1418 239.309 18.1418 238.828C18.1418 238.345 18.6654 237.956 19.3113 237.956H325.382C326.028 237.956 326.552 238.345 326.552 238.828C326.552 239.309 326.028 239.7 325.382 239.7Z" fill="#013662"/>
<path fill-rule="evenodd" clip-rule="evenodd" d="M12.8116 239.7H9.65007C9.09397 239.7 8.6391 239.309 8.6391 238.828C8.6391 238.345 9.09397 237.956 9.65007 237.956H12.8116C13.3692 237.956 13.822 238.345 13.822 238.828C13.822 239.309 13.3692 239.7 12.8116 239.7Z" fill="#013662"/>
<path fill-rule="evenodd" clip-rule="evenodd" d="M6.0211 239.7H1.75422C1.26455 239.7 0.864044 239.309 0.864044 238.828C0.864044 238.345 1.26455 237.956 1.75422 237.956H6.0211C6.51217 237.956 6.91127 238.345 6.91127 238.828C6.91127 239.309 6.51217 239.7 6.0211 239.7Z" fill="#013662"/>
<path d="M322.978 139.285C326.642 141.002 327.006 147.966 327.756 151.463C328.716 155.941 329.486 160.46 330.063 165.005C330.214 166.196 330.351 167.415 330.088 168.585C329.402 171.642 326.283 173.432 323.356 174.479C315.094 177.435 306.126 177.463 297.359 177.458L297.341 177.457C287.673 177.452 278.006 177.446 268.338 177.441C268.33 177.441 266.766 181.303 266.548 181.744L261.07 193.357L260.863 193.818L259.662 196.285L258.494 198.765L257.471 200.953L256.594 202.736L251.334 213.856L251.235 214.126L250.227 216.167C250.261 216.18 248.985 218.85 248.985 218.85L248.396 220.05L247.784 221.316L245.11 226.995L244.279 228.757L221.864 217.951L224.283 212.869L228.014 205.015C231.29 198.092 234.565 191.17 237.841 184.248C242.779 173.814 247.07 162.553 254.047 153.328C255.872 150.915 257.493 148.404 260.145 146.651C262.797 144.897 270.05 141.625 277.853 142.57C278.472 141.941 277.87 140.483 279.111 139.704C280.158 139.047 281.455 138.991 282.687 138.954C297.609 138.502 302.209 138.998 317.131 138.547C319.113 138.486 321.179 138.443 322.978 139.285Z" fill="#013662"/>
<path d="M325.612 138.959C327.368 146.399 330.089 150.969 331.317 158.488C332.105 163.311 331.828 168.129 328.678 171.387C327.631 172.47 326.284 173.197 324.959 173.907C317.031 178.155 307.997 178.098 299.262 177.634L320.172 227.405C311.605 227.498 303.04 227.592 294.474 227.686C293.663 225.993 292.852 224.301 292.041 222.61C292.041 222.61 288.281 214.775 288.279 214.771C284.931 207.796 281.562 200.831 278.205 193.862C275.852 188.977 273.688 183.997 270.755 179.474C267.487 174.435 263.169 168.555 263 162.285C262.995 161.631 263.023 160.959 263.121 160.331C263.159 154.671 268.091 143.351 287.516 143.351C287.823 141.963 287.511 140.52 287.2 139.133L325.612 138.959Z" fill="#DCEEFC"/>
<path fill-rule="evenodd" clip-rule="evenodd" d="M320.244 235.221C319.3 236.393 317.402 236.846 314.46 236.672C310.769 236.452 306.896 236.176 303.781 234.164C303.08 233.712 302.407 233.147 302.07 232.379C300.782 229.442 303.507 227.019 306.067 227.234C307.116 227.322 307.794 227.345 307.969 227.367C309.132 227.433 311.5 227.522 316.565 227.456C316.939 227.456 317.333 227.433 317.771 227.433C318.407 227.433 319.087 227.411 319.789 227.411C319.811 227.433 319.833 227.499 319.811 227.522C319.855 227.566 319.855 227.654 319.877 227.721C320.031 228.274 320.14 228.761 320.25 229.137C320.25 229.204 320.25 229.293 320.272 229.359C321.178 232.112 321.2 234.035 320.244 235.221Z" fill="#FFB8A8"/>
<path fill-rule="evenodd" clip-rule="evenodd" d="M242.749 237.733C236.379 234.627 230.344 229.325 224.71 224.997C224.469 224.812 224.216 224.612 224.108 224.325C223.992 224.018 224.066 223.672 224.17 223.361C225.357 219.792 227.973 219.584 230.67 221.227C230.769 221.275 230.838 221.334 230.917 221.372C231.343 221.602 231.69 221.844 232.046 222.016C232.958 222.556 233.561 222.872 233.71 222.968C234.729 223.535 236.828 224.648 241.425 226.798C241.761 226.96 242.126 227.112 242.522 227.303C243.095 227.581 243.718 227.858 244.351 228.164C244.361 228.193 244.352 228.263 244.323 228.273C244.345 228.333 244.307 228.411 244.297 228.482C244.199 229.048 244.09 229.536 244.027 229.922C243.999 229.982 243.961 230.062 243.953 230.131C243.953 230.131 243.661 231.464 243.438 232.805C243.393 233.053 243.33 233.341 243.285 233.639C243.249 233.818 243.222 233.976 243.196 234.136C243.039 235.395 243.254 236.571 242.749 237.733Z" fill="#FFB8A8"/>
<path fill-rule="evenodd" clip-rule="evenodd" d="M243.405 239.539C243.212 239.79 243 239.982 242.746 240.105C242.474 240.218 242.221 240.341 241.968 240.416C231.107 235.015 220.266 229.576 209.424 224.136C209.759 221.893 210.65 220.629 211.363 219.845C212.558 218.264 214.068 216.95 216.007 216.464C218.917 215.734 220.819 217.362 225.118 217.888C227.798 218.216 230.136 217.961 231.918 217.601C233.316 217.861 235.286 218.464 236.146 220.071C237.727 223.022 234.018 226.478 235.185 229.743C235.734 231.277 237.497 233.147 243.197 234.136C243.127 234.691 243.066 235.178 243.091 235.485C243.074 235.623 243.087 235.801 243.087 235.801C243.088 235.85 243.098 235.881 243.079 235.921C243.1 236.029 243.122 236.137 243.133 236.216C243.188 236.562 243.281 236.877 243.354 237.133C243.437 237.37 243.622 237.902 243.641 238.476C243.667 238.832 243.615 239.199 243.405 239.539Z" fill="#FFB8A8"/>
<path fill-rule="evenodd" clip-rule="evenodd" d="M222.768 219.3C222.434 219.554 221.955 219.487 221.703 219.15L219.572 216.308C219.32 215.971 219.387 215.487 219.72 215.232C220.053 214.978 220.533 215.045 220.785 215.381L222.916 218.224C223.168 218.561 223.101 219.045 222.768 219.3Z" fill="#013662"/>
<path fill-rule="evenodd" clip-rule="evenodd" d="M227.039 219.974C226.705 220.229 226.226 220.162 225.974 219.825L223.844 216.981C223.591 216.645 223.658 216.161 223.991 215.907C224.324 215.651 224.804 215.718 225.057 216.056L227.187 218.899C227.439 219.234 227.373 219.718 227.039 219.974Z" fill="#013662"/>
<path fill-rule="evenodd" clip-rule="evenodd" d="M323.452 238.88C323.627 238.658 323.737 238.392 323.802 238.082C323.846 237.685 323.737 237.331 323.561 237.02C323.298 236.511 322.903 236.112 322.728 235.935C322.717 235.923 322.706 235.91 322.694 235.897C322.525 235.706 322.32 235.474 322.135 235.204C322.093 235.14 322.03 235.055 321.966 234.969L321.96 234.961C321.96 234.927 321.948 234.907 321.933 234.881C321.927 234.872 321.921 234.861 321.916 234.85C321.916 234.85 321.828 234.695 321.784 234.563C321.633 234.301 321.483 233.849 321.311 233.329C321.31 232.443 320.924 231.296 320.504 230.055C320.427 229.826 320.349 229.594 320.272 229.359C320.25 229.293 320.25 229.205 320.25 229.137C320.194 228.946 320.139 228.727 320.077 228.485C320.018 228.249 319.953 227.993 319.877 227.721C319.87 227.699 319.865 227.675 319.86 227.65C319.851 227.601 319.841 227.552 319.811 227.522C319.833 227.499 319.811 227.433 319.79 227.411C319.43 227.411 319.076 227.417 318.73 227.423C318.402 227.428 318.082 227.433 317.772 227.433C317.544 227.433 317.328 227.439 317.12 227.445C316.929 227.45 316.745 227.456 316.566 227.456C313.892 227.491 311.975 227.482 310.584 227.457C310.409 225.954 310.107 224.556 308.926 223.69C307.464 222.617 305.429 222.933 304.057 223.306C302.602 224.409 300.603 225.66 298.047 226.533C296.387 227.099 295.005 227.332 293.794 227.536C292.01 227.836 290.598 228.074 289.22 229.222C287.679 230.506 286.879 232.35 286.478 234.296C286.171 235.315 285.908 236.843 286.566 239.012C298.671 239.19 310.777 239.367 322.881 239.5C323.025 239.371 323.157 239.219 323.294 239.06C323.346 239 323.398 238.94 323.452 238.88ZM312.326 232.953C312.583 233.186 312.897 233.406 313.283 233.593C312.893 233.398 312.576 233.179 312.326 232.953Z" fill="#FFB8A8"/>
<path fill-rule="evenodd" clip-rule="evenodd" d="M322.881 239.5C323.079 239.323 323.254 239.101 323.451 238.879C323.627 238.658 323.736 238.392 323.802 238.082C323.846 237.684 323.736 237.33 323.561 237.02C323.504 236.909 323.439 236.806 323.373 236.708H286.167C286.191 237.379 286.302 238.142 286.567 239.012C298.672 239.19 310.776 239.367 322.881 239.5Z" fill="#013662"/>
<path fill-rule="evenodd" clip-rule="evenodd" d="M235.185 229.742C235.734 231.278 237.497 233.147 243.196 234.136C243.222 233.976 243.249 233.818 243.285 233.639C243.33 233.341 243.393 233.053 243.438 232.805C243.661 231.464 243.952 230.131 243.952 230.131C243.961 230.062 243.999 229.982 244.027 229.922C244.09 229.536 244.199 229.048 244.298 228.482C244.307 228.412 244.345 228.333 244.323 228.273C244.352 228.263 244.361 228.193 244.351 228.164C243.718 227.858 243.095 227.581 242.522 227.304C242.126 227.113 241.761 226.961 241.425 226.798C238.998 225.663 237.272 224.818 236.03 224.19C235.41 226.019 234.53 227.911 235.185 229.742Z" fill="#FFB8A8"/>
<path fill-rule="evenodd" clip-rule="evenodd" d="M243.091 235.485C243.074 235.623 243.087 235.801 243.087 235.801C243.088 235.851 243.098 235.881 243.079 235.921C243.086 235.957 243.093 235.991 243.1 236.026C243.133 235.411 243.116 234.785 243.197 234.136C243.128 234.692 243.067 235.178 243.091 235.485Z" fill="#FFB8A8"/>
<path fill-rule="evenodd" clip-rule="evenodd" d="M242.851 237.451L243.547 237.804C243.482 237.515 243.402 237.272 243.354 237.134C243.281 236.878 243.188 236.562 243.133 236.216C243.125 236.163 243.113 236.096 243.099 236.025C243.074 236.507 243.012 236.981 242.851 237.451Z" fill="#FFB8A8"/>
<path fill-rule="evenodd" clip-rule="evenodd" d="M298.779 230.488C298.471 230.773 297.987 230.753 297.705 230.441L295.318 227.815C295.035 227.503 295.055 227.016 295.364 226.73C295.672 226.444 296.156 226.465 296.438 226.776L298.825 229.403C299.108 229.714 299.087 230.203 298.779 230.488Z" fill="#013662"/>
<path fill-rule="evenodd" clip-rule="evenodd" d="M301.128 228.312C300.82 228.597 300.336 228.576 300.054 228.265L297.667 225.638C297.384 225.327 297.404 224.839 297.713 224.553C298.021 224.267 298.505 224.289 298.787 224.6L301.174 227.227C301.457 227.538 301.436 228.027 301.128 228.312Z" fill="#013662"/>
<path fill-rule="evenodd" clip-rule="evenodd" d="M241.968 240.416C242.221 240.342 242.474 240.219 242.746 240.106C243 239.982 243.212 239.79 243.405 239.539C243.615 239.199 243.667 238.833 243.641 238.476C243.634 238.236 243.594 238.01 243.547 237.804L210.488 221.024C210.038 221.775 209.627 222.773 209.424 224.137C220.266 229.576 231.107 235.016 241.968 240.416Z" fill="#013662"/>
<path fill-rule="evenodd" clip-rule="evenodd" d="M280.522 138.734C280.448 139.168 280.376 139.601 280.306 140.035C280.296 140.091 285.213 140.056 285.573 140.061C287.386 140.087 289.201 140.096 291.016 140.111C301.032 140.197 311.049 140.21 321.066 140.14C323.097 140.127 325.146 140.012 327.177 140.079C328.314 140.117 329.392 140.65 330.023 139.503C330.567 138.512 329.803 135.201 329.683 134.058C328.89 126.475 326.895 119.043 323.799 112.201C320.83 105.643 317.254 100.953 309.709 101.055C306.24 101.102 302.733 101.154 299.366 102.005C291.452 104.007 289.723 109.772 286.695 116.616C283.612 123.582 281.81 131.153 280.522 138.734Z" fill="#013662"/>
<path fill-rule="evenodd" clip-rule="evenodd" d="M251.233 106.428C251.784 109.874 252.251 113.341 252.505 116.945C252.519 117.154 252.546 117.386 252.701 117.524C252.845 117.652 253.055 117.658 253.248 117.658C254.088 117.655 267.17 116.895 267.068 116.578C264.759 109.472 263.875 101.829 262.74 94.4808C261.189 93.9993 253.561 93.8729 249.163 94.2619C249.832 98.4139 250.59 102.407 251.233 106.428Z" fill="#372C24"/>
<path d="M265.054 127.267C263.572 125.305 262.122 123.319 260.658 121.342C260.611 120.976 260.548 120.62 260.107 120.523L253.66 118.799C252.47 118.186 251.286 117.561 250.089 116.962C246.683 113.675 251.041 114.318 253.644 115.05C254.759 115.353 255.897 115.582 257.008 115.918C257.459 116.054 257.982 116.252 258.548 115.563C256.234 114.245 253.785 113.924 251.295 113.76C250.745 113.377 250.196 112.995 249.647 112.613C249.485 112.126 249.48 111.643 249.591 111.155C253.042 110.661 256.22 112.01 259.337 112.904C259.637 112.441 259.619 112.164 259.436 112.08C256.79 110.861 254.043 110.028 251.111 109.938C250.692 109.171 249.589 108.702 250.078 107.538C253.506 107.054 256.647 108.298 259.808 109.221C260.096 108.967 260.135 108.698 260.029 108.39C257.353 107.064 254.391 106.72 251.557 105.929C251.3 105.348 250.553 105.089 250.523 104.328C250.716 104.043 250.915 103.748 251.113 103.454C254.932 103.23 258.55 104.218 262.19 105.441C262.479 104.47 262.347 103.612 262.127 102.777C261.895 101.901 261.928 101.008 262.034 100.153C262.149 99.2233 262.401 98.2176 263.698 98.2559C264.249 99.1954 264.78 100.149 265.018 101.224C265.473 103.272 266.116 105.26 266.767 107.251C267.122 108.336 267.597 109.306 268.509 109.945L276.891 117.014C280.08 119.639 283.228 122.322 286.462 124.885L293.529 130.679C296.219 126.605 298.91 122.541 301.591 118.468C304.021 114.776 306.662 109.792 310.923 107.974C314.9 106.277 319.236 107.669 320.32 112.104C320.781 113.993 320.613 115.981 320.279 117.898C318.816 126.288 314.255 131.771 308.941 138.046C306.939 140.411 299.918 146.171 298.696 147.014C295.651 149.11 292.34 149.833 288.791 149.412C287.15 149.217 285.735 148.163 284.317 147.305C281.951 145.874 279.94 143.963 277.765 142.272C275.877 139.852 273.547 137.848 271.597 135.468L271.489 135.336C269.309 132.675 267.129 130.014 265.054 127.267Z" fill="#FFBA9A"/>
<path fill-rule="evenodd" clip-rule="evenodd" d="M317.722 92.7038C317.664 92.3689 317.693 91.9816 317.531 91.7095C316.685 90.2816 317.259 89.0316 317.933 87.7782C318.947 85.8915 320.585 84.7828 322.543 84.1522C323.832 83.7379 325.124 83.8443 326.425 84.3537C329.115 85.4065 330.27 87.4301 330.3 90.2301C330.311 91.2917 329.762 92.184 329.223 93.0091C327.903 95.0232 326.17 95.9949 323.589 95.7323C321.358 95.5047 319.681 94.6656 318.287 93.0039C318.157 92.8486 317.906 92.7954 317.712 92.6951L317.722 92.7038Z" fill="#372C24"/>
<path fill-rule="evenodd" clip-rule="evenodd" d="M300.547 89.5197C300.264 88.882 300.172 88.1057 300.151 87.4454C300.125 86.6674 300.087 85.5579 300.367 84.8225C300.587 84.2495 301.141 83.6363 301.561 83.1984C302.517 82.197 303.754 81.5297 305.057 81.1102C306.346 80.6959 307.639 80.8023 308.94 81.3117C311.631 82.3645 312.786 84.3882 312.814 87.1881C312.825 88.2497 312.277 89.142 311.737 89.9671C310.418 91.9812 308.684 92.9538 306.103 92.6903C304.721 92.5499 303.373 92.1321 302.235 91.3113C301.717 90.938 301.12 90.4556 300.765 89.9218C300.682 89.7962 300.61 89.661 300.547 89.5197Z" fill="#372C24"/>
<path fill-rule="evenodd" clip-rule="evenodd" d="M322.111 85.9372C322.33 86.5835 322.359 87.2691 322.448 87.9442C322.528 88.5557 322.553 89.175 322.611 89.8894C323.553 90.2191 324.741 90.261 325.045 91.5598C325.213 92.2803 325.415 92.9955 325.078 93.7125C324.348 95.2678 322.629 95.519 320.527 94.3327C317.506 97.5112 313.844 98.8719 309.686 97.096C307.871 96.3206 306.295 95.0148 305.465 93.1822C304.491 91.0329 304.414 88.3403 305.254 86.1352C305.666 85.0518 306.219 83.9894 306.861 83.0299C307.672 81.8183 308.937 81.049 310.374 80.8214C311.338 80.6678 312.32 80.7132 313.297 80.7062C313.865 80.7019 314.435 80.68 315.002 80.7263C317.239 80.9103 319.3 82.1716 320.802 83.8551C321.302 84.4168 321.752 85.044 322.038 85.7444C322.064 85.8089 322.088 85.8726 322.111 85.9372Z" fill="#FFBA9A"/>
<path fill-rule="evenodd" clip-rule="evenodd" d="M322.101 85.9407C317.621 84.7143 313.287 83.0465 308.918 81.4851C308.927 81.2627 308.913 81.022 309.144 80.8964C310.751 80.0276 312.551 79.4345 314.393 79.5609C315.305 79.6237 316.199 79.8619 317.031 80.2457C317.773 80.5867 318.622 81.0481 319.253 81.5732C319.58 81.8471 319.857 82.1742 320.133 82.4996C320.938 83.4486 322.065 84.6253 322.101 85.9407Z" fill="#372C24"/>
<path fill-rule="evenodd" clip-rule="evenodd" d="M320.432 82.088C320.258 82.1649 320.141 82.2587 320.063 82.3594C319.932 82.5311 319.892 82.7559 319.937 83.0298C319.982 83.3057 320.11 83.6128 320.289 83.9175C320.648 84.531 321.176 85.078 321.498 85.2808L321.498 85.2809C321.572 85.3277 321.654 85.3661 321.745 85.3963C321.77 85.3637 321.796 85.3279 321.823 85.2887C321.825 85.2856 321.828 85.2824 321.83 85.2792C321.846 85.2335 321.86 85.1833 321.871 85.1287C321.919 84.8843 321.9 84.5885 321.855 84.3206V84.3203C321.837 84.2132 321.82 84.0863 321.802 83.9521L321.801 83.9416C321.782 83.802 321.762 83.6522 321.738 83.4982C321.689 83.1885 321.622 82.8729 321.52 82.6075C321.415 82.3384 321.285 82.1506 321.125 82.0576C320.978 81.9717 320.764 81.9435 320.432 82.088ZM322.291 84.5032C322.282 84.4157 322.27 84.3309 322.257 84.2508L322.056 84.2857L322.257 84.2511C322.24 84.1514 322.224 84.0308 322.205 83.8923L322.205 83.8871C322.186 83.7479 322.166 83.593 322.14 83.433C322.09 83.1146 322.018 82.7644 321.899 82.4574C321.782 82.1542 321.606 81.8628 321.329 81.701C321.039 81.5322 320.684 81.53 320.27 81.7102L320.27 81.7104C320.044 81.8098 319.867 81.9426 319.741 82.1071L319.741 82.1073C319.519 82.3974 319.478 82.7501 319.535 83.0967C319.591 83.4414 319.745 83.7978 319.938 84.127C320.321 84.7814 320.891 85.3836 321.282 85.63C321.329 85.6602 321.379 85.6873 321.43 85.7118C321.413 85.7574 321.411 85.8094 321.43 85.8586C321.47 85.9647 321.588 86.018 321.693 85.9775C321.773 85.9465 321.844 85.9062 321.906 85.8588C322.06 85.8852 322.22 85.8955 322.383 85.8932C322.786 85.8875 323.219 85.8047 323.639 85.6793C324.478 85.4292 325.301 84.9996 325.785 84.6212L325.785 84.6211C326.224 84.2774 326.567 83.6748 326.418 83.0715L322.291 84.5032ZM322.19 85.4774C322.251 85.4811 322.313 85.4824 322.378 85.4815C322.732 85.4766 323.127 85.403 323.524 85.2844C324.321 85.0468 325.096 84.6386 325.535 84.2956C325.898 84.0113 326.118 83.5604 326.022 83.171V83.171C325.914 82.7329 325.413 82.4286 324.901 82.4348L322.19 85.4774ZM322.19 85.4774C322.19 85.4769 322.191 85.4763 322.191 85.4758C322.323 85.2798 322.46 85.0424 322.592 84.8037C322.67 84.6633 322.75 84.5135 322.827 84.3706C322.888 84.2567 322.947 84.1472 323 84.0505C323.127 83.819 323.229 83.6446 323.301 83.5541L322.19 85.4774ZM323.301 83.5541C323.386 83.4466 323.466 83.3383 323.539 83.2394L323.301 83.5541ZM323.539 83.2394C323.581 83.1832 323.62 83.1301 323.657 83.0818L323.539 83.2394ZM323.657 83.0818C323.763 82.9421 323.858 82.8279 323.964 82.7349L323.657 83.0818ZM323.964 82.7349C324.164 82.5592 324.421 82.4408 324.901 82.4348L323.964 82.7349Z" fill="#013662"/>
<path fill-rule="evenodd" clip-rule="evenodd" d="M306.241 79.0908C306.641 79.8925 307.328 80.545 308.141 80.9094L307.494 79.7736C307.305 79.4409 307.131 79.157 306.864 79.0148C306.746 78.9518 306.593 78.9329 306.458 78.9639C306.361 78.9866 306.287 79.0315 306.241 79.0908ZM308.471 81.471C307.323 81.1248 306.336 80.2687 305.827 79.1731C305.803 79.1223 305.801 79.064 305.821 79.0116C305.919 78.7569 306.141 78.6149 306.367 78.5627C306.592 78.5106 306.846 78.5394 307.055 78.6508C307.443 78.8575 307.669 79.254 307.848 79.5685L308.485 80.688C308.552 80.3102 308.652 79.9386 308.784 79.578C308.871 79.3384 309.013 79.0728 309.206 78.8764C309.399 78.679 309.668 78.5297 309.99 78.5981C310.39 78.6826 310.563 79.0371 310.587 79.3707C310.611 79.7034 310.499 80.0819 310.265 80.3383C310.055 80.5692 309.794 80.7354 309.56 80.8849L309.551 80.8908C309.537 80.8996 309.523 80.9084 309.509 80.9171C309.615 80.9092 309.71 80.985 309.726 81.0924C309.742 81.2049 309.665 81.3095 309.554 81.3261C309.428 81.3449 309.302 81.3634 309.176 81.3819C309.05 81.4005 308.924 81.419 308.798 81.4378C308.79 81.4389 308.782 81.4396 308.775 81.4398C308.746 81.4798 308.704 81.5092 308.654 81.5204C308.587 81.5354 308.519 81.5159 308.471 81.471ZM308.869 80.8621C309.018 80.7435 309.175 80.6433 309.322 80.5495L309.333 80.5427C309.578 80.3865 309.795 80.2466 309.965 80.0594C310.114 79.8962 310.197 79.6333 310.18 79.4006C310.163 79.1687 310.06 79.0335 309.907 79.0011C309.77 78.972 309.633 79.0254 309.495 79.166C309.356 79.3079 309.241 79.5161 309.166 79.7204C309.031 80.0906 308.931 80.4733 308.869 80.8621Z" fill="#013662"/>
<path fill-rule="evenodd" clip-rule="evenodd" d="M36.336 181.138C37.7992 178.615 40.3044 176.025 44.3969 176.025C48.4885 176.025 50.9936 178.615 52.4569 181.138C53.1894 182.401 53.6701 183.661 53.9673 184.603C54.1168 185.075 54.2199 185.469 54.2863 185.746C54.3196 185.885 54.344 185.994 54.3598 186.069C54.3676 186.107 54.3729 186.136 54.3773 186.156L54.3816 186.179L54.3825 186.186L54.3834 186.187C54.3834 186.188 54.3834 186.188 54.0451 186.25C53.7068 186.312 53.7068 186.312 53.7068 186.312L53.7059 186.311L53.7051 186.307L53.7016 186.288C53.6981 186.271 53.6928 186.245 53.6858 186.21C53.671 186.14 53.6483 186.037 53.6168 185.906C53.5539 185.642 53.4542 185.264 53.3109 184.81C53.0233 183.899 52.5609 182.689 51.8607 181.481C50.4587 179.063 48.1397 176.712 44.3969 176.712C40.6531 176.712 38.3342 179.063 36.9321 181.481C36.232 182.689 35.7696 183.899 35.482 184.81C35.3386 185.264 35.239 185.642 35.1761 185.906C35.1437 186.037 35.1219 186.14 35.107 186.21C35.1 186.245 35.0948 186.271 35.0913 186.288L35.0878 186.307L35.0869 186.311L35.086 186.312C35.086 186.312 35.086 186.312 34.7478 186.25C34.4095 186.188 34.4095 186.188 34.4095 186.188V186.186L34.4112 186.179L34.4156 186.156C34.4191 186.136 34.4252 186.107 34.4331 186.069C34.4488 185.994 34.4733 185.885 34.5065 185.746C34.5729 185.469 34.6761 185.075 34.8256 184.603C35.1228 183.661 35.6035 182.401 36.336 181.138Z" fill="#013662"/>
<path fill-rule="evenodd" clip-rule="evenodd" d="M86.0395 202.739C86.0395 202.739 77.9952 192.254 72.6143 193.955C67.2334 195.656 70.9299 203.614 85.1698 203.064" fill="#DCEEFC"/>
<path fill-rule="evenodd" clip-rule="evenodd" d="M73.8783 194.689C73.5339 194.689 73.2026 194.737 72.8879 194.836C72.1615 195.065 70.9763 195.647 71.2009 196.963C71.5934 199.255 75.9437 202.332 84.3918 202.165C81.9531 199.291 77.296 194.689 73.8783 194.689ZM83.8219 204.015C75.1011 204.016 69.9859 200.713 69.3994 197.277C69.0725 195.362 70.1992 193.752 72.3416 193.075C78.1639 191.237 85.8997 201.048 86.7624 202.173C87.0718 202.576 86.9984 203.156 86.5998 203.469C86.3874 203.634 86.1278 203.693 85.8795 203.648C85.7196 203.846 85.4783 203.977 85.2047 203.988C84.7345 204.005 84.273 204.015 83.8219 204.015Z" fill="#013662"/>
<path fill-rule="evenodd" clip-rule="evenodd" d="M87.3288 202.739C87.3288 202.739 95.3731 192.254 100.754 193.955C106.136 195.656 102.439 203.614 88.1985 203.064" fill="#DCEEFC"/>
<path fill-rule="evenodd" clip-rule="evenodd" d="M88.9773 202.164C97.435 202.32 101.777 199.255 102.168 196.963C102.392 195.647 101.208 195.066 100.48 194.837C97.0312 193.753 91.6608 199.001 88.9773 202.164ZM89.5472 204.015C89.0962 204.015 88.6356 204.005 88.1644 203.988C87.8908 203.978 87.6496 203.845 87.4896 203.648C87.2423 203.694 86.9809 203.634 86.7702 203.468C86.3699 203.156 86.2982 202.576 86.6068 202.174C87.4704 201.049 95.2105 191.24 101.028 193.075C103.17 193.752 104.298 195.362 103.97 197.277C103.384 200.712 98.2672 204.015 89.5472 204.015Z" fill="#013662"/>
<path fill-rule="evenodd" clip-rule="evenodd" d="M79.7924 191.908L86.3148 202.649L79.7924 191.908Z" fill="#DCEEFC"/>
<path fill-rule="evenodd" clip-rule="evenodd" d="M86.3157 203.573C86.0089 203.573 85.7082 203.416 85.5351 203.132L79.0135 192.391C78.7496 191.957 78.8851 191.389 79.3151 191.122C79.746 190.856 80.3081 190.992 80.5729 191.427L87.0954 202.167C87.3585 202.602 87.2239 203.17 86.7938 203.436C86.6444 203.529 86.4792 203.573 86.3157 203.573Z" fill="#013662"/>
<path fill-rule="evenodd" clip-rule="evenodd" d="M93.5768 191.908L87.0543 202.649L93.5768 191.908Z" fill="#DCEEFC"/>
<path fill-rule="evenodd" clip-rule="evenodd" d="M87.0535 203.573C86.89 203.573 86.7248 203.529 86.5762 203.436C86.1462 203.169 86.0107 202.602 86.2747 202.167L92.7971 191.427C93.0611 190.993 93.624 190.857 94.0549 191.122C94.485 191.389 94.6205 191.956 94.3556 192.391L87.8332 203.132C87.661 203.416 87.3612 203.573 87.0535 203.573Z" fill="#013662"/>
<path fill-rule="evenodd" clip-rule="evenodd" d="M61.3368 237.956H111.442V202.193H61.3368V237.956Z" fill="#013662"/>
<path fill-rule="evenodd" clip-rule="evenodd" d="M60.4636 212.459H112.906V202.23H60.4636V212.459Z" fill="#013662"/>
<path fill-rule="evenodd" clip-rule="evenodd" d="M83.3945 237.368H90.6704V202.23H83.3945V237.368Z" fill="#372C24"/>
<path fill-rule="evenodd" clip-rule="evenodd" d="M82.9338 237.956H90.7089V202.193H82.9338V237.956Z" fill="#DCEEFC"/>
<path fill-rule="evenodd" clip-rule="evenodd" d="M111.615 218.897L61.7546 214.48V212.46H111.615V218.897Z" fill="#372C24"/>
<path fill-rule="evenodd" clip-rule="evenodd" d="M118.657 203.498C118.362 203.498 118.079 203.537 117.808 203.623C116.685 203.978 116.13 204.701 116.286 205.607C116.599 207.448 119.936 210.254 127.645 209.982C125.769 207.692 121.673 203.498 118.657 203.498ZM126.674 211.002C119.792 211.002 115.761 208.444 115.307 205.778C115.065 204.364 115.91 203.172 117.511 202.665C122.131 201.215 128.59 209.553 128.863 209.909C129.03 210.129 128.991 210.444 128.775 210.614C128.614 210.74 128.401 210.75 128.234 210.659C128.165 210.841 127.994 210.974 127.789 210.981C127.41 210.996 127.037 211.002 126.674 211.002Z" fill="#FFB8A8"/>
<path fill-rule="evenodd" clip-rule="evenodd" d="M130.332 209.982C138.008 210.26 141.378 207.448 141.693 205.607C141.848 204.701 141.293 203.978 140.169 203.624C137.122 202.648 132.393 207.469 130.332 209.982ZM131.304 211.003C130.941 211.003 130.569 210.995 130.19 210.981C129.985 210.973 129.812 210.84 129.743 210.658C129.577 210.75 129.365 210.739 129.203 210.614C128.986 210.443 128.947 210.128 129.115 209.909C129.388 209.554 135.855 201.216 140.467 202.665C142.069 203.172 142.914 204.365 142.672 205.777C142.217 208.444 138.187 211.003 131.304 211.003Z" fill="#FFB8A8"/>
<path fill-rule="evenodd" clip-rule="evenodd" d="M128.692 210.647C128.525 210.647 128.361 210.561 128.268 210.407L123.016 201.759C122.873 201.523 122.946 201.214 123.18 201.069C123.414 200.924 123.72 200.997 123.861 201.234L129.115 209.883C129.258 210.12 129.185 210.429 128.951 210.573C128.87 210.623 128.781 210.647 128.692 210.647Z" fill="#FFB8A8"/>
<path fill-rule="evenodd" clip-rule="evenodd" d="M129.286 210.647C129.197 210.647 129.108 210.623 129.026 210.573C128.792 210.429 128.72 210.119 128.864 209.883L134.115 201.234C134.258 200.997 134.564 200.922 134.798 201.069C135.032 201.213 135.105 201.523 134.962 201.759L129.709 210.407C129.616 210.562 129.453 210.647 129.286 210.647Z" fill="#FFB8A8"/>
<path fill-rule="evenodd" clip-rule="evenodd" d="M108.915 238.101H149.063V209.807H108.915V238.101Z" fill="#FFB800"/>
<path fill-rule="evenodd" clip-rule="evenodd" d="M107.874 218.045H150.102V209.807H107.874V218.045Z" fill="#FFB8A8"/>
<path fill-rule="evenodd" clip-rule="evenodd" d="M126.34 238.101H132.199V209.807H126.34V238.101Z" fill="#372C24"/>
<path fill-rule="evenodd" clip-rule="evenodd" d="M126.059 238.101H131.918V209.807H126.059V238.101Z" fill="#DCEEFC"/>
<path fill-rule="evenodd" clip-rule="evenodd" d="M149.063 223.227L108.915 219.672V218.044H149.063V223.227Z" fill="#372C24"/>
<path fill-rule="evenodd" clip-rule="evenodd" d="M27.3294 183.876L20.7335 237.956H54.7418L61.3368 183.876H27.3294Z" fill="#FFB800"/>
<path fill-rule="evenodd" clip-rule="evenodd" d="M57.2592 183.876L49.242 237.956H70.8391L64.2134 183.876H57.2592Z" fill="#372C24"/>
<path fill-rule="evenodd" clip-rule="evenodd" d="M45.0708 10.2877V85.8C45.0708 86.7141 45.8164 87.4582 46.7325 87.4582H204.153C205.069 87.4582 205.814 86.7141 205.814 85.8V10.2877H45.0708ZM204.153 88.0094H46.7316C45.5113 88.0094 44.5184 87.0177 44.5184 85.8V9.73657H206.366V85.8C206.366 87.0177 205.373 88.0094 204.153 88.0094Z" fill="#013662"/>
<path fill-rule="evenodd" clip-rule="evenodd" d="M206.09 10.0321H44.7946V7.82075C44.7946 4.85192 47.2062 2.44482 50.1816 2.44482H200.703C203.677 2.44482 206.09 4.85192 206.09 7.82075V10.0321Z" fill="#013662"/>
<path fill-rule="evenodd" clip-rule="evenodd" d="M56.219 6.35848C56.219 7.08228 55.6307 7.6687 54.9061 7.6687C54.1806 7.6687 53.5932 7.08228 53.5932 6.35848C53.5932 5.63537 54.1806 5.04834 54.9061 5.04834C55.6307 5.04834 56.219 5.63537 56.219 6.35848Z" fill="#DCEEFC"/>
<path fill-rule="evenodd" clip-rule="evenodd" d="M62.0728 6.35848C62.0728 7.08228 61.4854 7.6687 60.7599 7.6687C60.0344 7.6687 59.447 7.08228 59.447 6.35848C59.447 5.63537 60.0344 5.04834 60.7599 5.04834C61.4854 5.04834 62.0728 5.63537 62.0728 6.35848Z" fill="#DCEEFC"/>
<path fill-rule="evenodd" clip-rule="evenodd" d="M67.9265 6.35848C67.9265 7.08228 67.3392 7.6687 66.6137 7.6687C65.8882 7.6687 65.3008 7.08228 65.3008 6.35848C65.3008 5.63537 65.8882 5.04834 66.6137 5.04834C67.3392 5.04834 67.9265 5.63537 67.9265 6.35848Z" fill="#DCEEFC"/>
<path fill-rule="evenodd" clip-rule="evenodd" d="M181.311 16.2072C180.913 15.7243 180.304 15.4675 179.678 15.5193L169.258 16.399C168.547 16.4585 167.928 16.9105 167.655 17.5692C167.383 18.2284 167.503 18.9836 167.965 19.526L170.172 22.1161L154.395 33.8924L148.537 27.503C147.75 26.6459 146.445 26.5147 145.504 27.1971L112.231 51.3307L103.274 45.0304C102.437 44.4407 101.306 44.4791 100.511 45.1263L75.0268 65.8417C74.0478 66.6372 73.901 68.0756 74.6981 69.0525C75.1509 69.6064 75.8091 69.8942 76.4734 69.8942C76.9813 69.8942 77.4926 69.7259 77.9165 69.3805L102.056 49.7589L110.933 56.0034C111.733 56.566 112.804 56.5582 113.596 55.9842L146.541 32.0895L152.417 38.4997C153.212 39.3659 154.534 39.4906 155.476 38.7876L173.14 25.6013L175.568 28.4513C175.935 28.8822 176.467 29.122 177.019 29.122C177.154 29.122 177.289 29.1081 177.422 29.0793C178.108 28.931 178.658 28.4181 178.853 27.7447L181.671 17.9396C181.844 17.3383 181.71 16.6906 181.311 16.2072Z" fill="#013662"/>
<path fill-rule="evenodd" clip-rule="evenodd" d="M92.3776 77.3258H101.049V62.5566H92.3776V77.3258Z" fill="#DCEEFC"/>
<path fill-rule="evenodd" clip-rule="evenodd" d="M105.103 77.326H113.775V66.7437H105.103V77.326Z" fill="#DCEEFC"/>
<path fill-rule="evenodd" clip-rule="evenodd" d="M117.829 77.3253H126.501V58.5586H117.829V77.3253Z" fill="#DCEEFC"/>
<path fill-rule="evenodd" clip-rule="evenodd" d="M130.555 77.3262H139.227V55.4019H130.555V77.3262Z" fill="#DCEEFC"/>
<path fill-rule="evenodd" clip-rule="evenodd" d="M143.281 77.3258H151.952V47.0234H143.281V77.3258Z" fill="#DCEEFC"/>
<path fill-rule="evenodd" clip-rule="evenodd" d="M185.326 77.4812H70.8163V18.6997H71.2446V77.0547H185.326V77.4812Z" fill="#013662"/>
<path fill-rule="evenodd" clip-rule="evenodd" d="M222.087 11.8166C218.977 11.8166 216.455 14.3333 216.455 17.4372C216.455 20.5412 218.977 23.0578 222.087 23.0578C225.198 23.0578 227.719 20.5412 227.719 17.4372C227.719 14.3333 225.198 11.8166 222.087 11.8166ZM216.006 17.4372C216.006 14.0855 218.728 11.3679 222.087 11.3679C225.447 11.3679 228.169 14.0855 228.169 17.4372C228.169 20.789 225.447 23.5065 222.087 23.5065C218.728 23.5065 216.006 20.789 216.006 17.4372Z" fill="#DCEEFC"/>
<path fill-rule="evenodd" clip-rule="evenodd" d="M224.404 15.343C224.505 15.4146 224.529 15.5546 224.457 15.6557L221.832 19.3565C221.798 19.4056 221.745 19.4386 221.685 19.4483C221.626 19.458 221.565 19.4434 221.516 19.4079L219.478 17.9174C219.378 17.8442 219.356 17.7038 219.429 17.6038C219.503 17.5039 219.644 17.4822 219.744 17.5555L221.598 18.9112L224.09 15.3965C224.163 15.2954 224.302 15.2714 224.404 15.343Z" fill="#DCEEFC"/>
<path fill-rule="evenodd" clip-rule="evenodd" d="M30.5993 87.4371C27.4902 87.4371 24.9676 89.9536 24.9676 93.058C24.9676 96.1615 27.4902 98.678 30.5993 98.678C33.7111 98.678 36.232 96.1615 36.232 93.058C36.232 89.9536 33.7111 87.4371 30.5993 87.4371ZM24.5183 93.058C24.5183 89.7059 27.242 86.9888 30.5993 86.9888C33.9593 86.9888 36.6821 89.7059 36.6821 93.058C36.6821 96.4092 33.9593 99.1272 30.5993 99.1272C27.242 99.1272 24.5183 96.4092 24.5183 93.058Z" fill="#DCEEFC"/>
<path fill-rule="evenodd" clip-rule="evenodd" d="M28.7847 91.0459C28.8721 90.9587 29.0146 90.9587 29.102 91.0459L32.4157 94.3526C32.504 94.4407 32.504 94.582 32.4157 94.6701C32.3283 94.7574 32.1858 94.7574 32.0975 94.6701L28.7847 91.3634C28.6964 91.2753 28.6964 91.134 28.7847 91.0459Z" fill="#DCEEFC"/>
<path fill-rule="evenodd" clip-rule="evenodd" d="M32.4157 91.0459C32.504 91.134 32.504 91.2753 32.4157 91.3634L29.102 94.6701C29.0146 94.7574 28.8721 94.7574 28.7847 94.6701C28.6964 94.582 28.6964 94.4407 28.7847 94.3526L32.0975 91.0459C32.1858 90.9587 32.3283 90.9587 32.4157 91.0459Z" fill="#DCEEFC"/>
<path fill-rule="evenodd" clip-rule="evenodd" d="M216.005 71.3194C216.005 71.1955 216.105 71.0952 216.23 71.0952H220.66C220.784 71.0952 220.885 71.1955 220.885 71.3194V75.7391C220.885 75.863 220.784 75.9642 220.66 75.9642H216.23C216.105 75.9642 216.005 75.863 216.005 75.7391V71.3194ZM216.455 71.5436V75.515H220.435V71.5436H216.455Z" fill="#DCEEFC"/>
<path fill-rule="evenodd" clip-rule="evenodd" d="M118.756 100.467C118.756 100.343 118.857 100.243 118.981 100.243H123.41C123.535 100.243 123.635 100.343 123.635 100.467V104.887C123.635 105.011 123.535 105.112 123.41 105.112H118.981C118.857 105.112 118.756 105.011 118.756 104.887V100.467ZM119.206 100.692V104.663H123.186V100.692H119.206Z" fill="#DCEEFC"/>
<path fill-rule="evenodd" clip-rule="evenodd" d="M26.2175 49.357C26.2175 49.2331 26.318 49.1328 26.4422 49.1328H30.8712C30.9953 49.1328 31.0967 49.2331 31.0967 49.357V53.7767C31.0967 53.9006 30.9953 54.0018 30.8712 54.0018H26.4422C26.318 54.0018 26.2175 53.9006 26.2175 53.7767V49.357ZM26.6668 49.5812V53.5526H30.6466V49.5812H26.6668Z" fill="#DCEEFC"/>
<path fill-rule="evenodd" clip-rule="evenodd" d="M31.1981 28.5212H53.6972C54.7357 28.5212 55.5774 27.6812 55.5774 26.645V21.6422C55.5774 20.6059 54.7357 19.7659 53.6972 19.7659H31.1981C30.1597 19.7659 29.3179 20.6059 29.3179 21.6422V26.645C29.3179 27.6812 30.1597 28.5212 31.1981 28.5212Z" fill="#FFB800"/>
<path fill-rule="evenodd" clip-rule="evenodd" d="M51.6623 23.2179H34.4611V22.8899H51.6623V23.2179Z" fill="#DCEEFC"/>
<path fill-rule="evenodd" clip-rule="evenodd" d="M39.5238 25.1734H34.4611V24.8455H39.5238V25.1734Z" fill="#DCEEFC"/>
<path fill-rule="evenodd" clip-rule="evenodd" d="M52.4516 27.356V31.3158L47.3932 27.356H52.4516Z" fill="#FFB800"/>
<path fill-rule="evenodd" clip-rule="evenodd" d="M217.822 46.5169C217.822 52.3113 213.114 57.0093 207.308 57.0093C201.501 57.0093 196.793 52.3113 196.793 46.5169C196.793 40.7224 201.501 36.0244 207.308 36.0244C213.114 36.0244 217.822 40.7224 217.822 46.5169Z" fill="#FFB8A8"/>
<path fill-rule="evenodd" clip-rule="evenodd" d="M202.831 49.7836H204.864V46.3076H202.831V49.7836Z" fill="#013662"/>
<path fill-rule="evenodd" clip-rule="evenodd" d="M205.943 49.7833H207.975V41.9478H205.943V49.7833Z" fill="#013662"/>
<path fill-rule="evenodd" clip-rule="evenodd" d="M209.055 49.7834H211.087V43.572H209.055V49.7834Z" fill="#013662"/>
<path fill-rule="evenodd" clip-rule="evenodd" d="M200.738 49.6561C200.738 49.5741 200.804 49.5078 200.886 49.5078H214.026C214.108 49.5078 214.174 49.5741 214.174 49.6561C214.174 49.7381 214.108 49.8044 214.026 49.8044H200.886C200.804 49.8044 200.738 49.7381 200.738 49.6561Z" fill="#013662"/>
<path fill-rule="evenodd" clip-rule="evenodd" d="M219.22 100.026H190.763C189.304 100.026 188.119 98.8445 188.119 97.387V71.2461C188.119 70.3494 188.849 69.6211 189.749 69.6211H219.22C220.12 69.6211 220.849 70.3494 220.849 71.2461V98.4005C220.849 99.2981 220.12 100.026 219.22 100.026Z" fill="#FFB800"/>
<path fill-rule="evenodd" clip-rule="evenodd" d="M204.153 87.4583C202.691 87.4583 201.507 86.2755 201.507 84.8171C201.507 83.3586 202.691 82.1758 204.153 82.1758C205.614 82.1758 206.8 83.3586 206.8 84.8171V84.8319C206.791 86.2842 205.609 87.4583 204.153 87.4583ZM210.508 83.5784L209.455 83.3935C209.332 82.9356 209.148 82.4951 208.911 82.0843L209.525 81.2102C209.751 80.8901 209.713 80.4531 209.435 80.1757L208.804 79.5468C208.522 79.2738 208.085 79.2433 207.766 79.4736L206.891 80.0859C206.479 79.8486 206.038 79.6663 205.579 79.5434L205.399 78.4687C205.332 78.0867 205.004 77.8058 204.616 77.7988H203.707C203.313 77.798 202.975 78.0806 202.908 78.4687L202.724 79.5163C202.265 79.6393 201.823 79.8216 201.412 80.0589L200.539 79.4736C200.218 79.2477 199.78 79.286 199.503 79.5634L198.872 80.1923C198.594 80.4697 198.555 80.9067 198.781 81.2277L199.395 82.1017C199.157 82.5117 198.975 82.9522 198.852 83.4101L197.802 83.5941C197.414 83.6622 197.13 83.9989 197.13 84.3914V85.282C197.13 85.6762 197.414 86.0121 197.802 86.0792L198.852 86.2633C198.975 86.7212 199.157 87.1617 199.395 87.5725L198.781 88.4465C198.555 88.7675 198.594 89.2045 198.872 89.481L199.503 90.11C199.78 90.3882 200.218 90.4266 200.539 90.2015L201.415 89.5883C201.827 89.8256 202.268 90.0079 202.727 90.1309L202.912 91.1785C202.979 91.5666 203.316 91.8492 203.711 91.8484H204.616C205.01 91.8492 205.348 91.5666 205.415 91.1785L205.6 90.1309C206.058 90.0079 206.5 89.8256 206.912 89.5883L207.766 90.1876C208.089 90.4126 208.526 90.3751 208.804 90.0969L209.435 89.468C209.712 89.1906 209.751 88.7545 209.525 88.4326L208.911 87.5525C209.148 87.1416 209.332 86.7012 209.455 86.2432L210.508 86.0592C210.897 85.992 211.181 85.6553 211.179 85.2628V84.3713C211.179 83.9797 210.896 83.6447 210.508 83.5784Z" fill="#DCEEFC"/>
</g>
<defs>
<clipPath id="clip0_177_236">
<rect width="380" height="240" fill="white"/>
</clipPath>
</defs>
</svg>
