<svg width="380" height="240" viewBox="0 0 380 240" fill="none" xmlns="http://www.w3.org/2000/svg">
<g clip-path="url(#clip0_177_383)">
<path fill-rule="evenodd" clip-rule="evenodd" d="M88.966 146.362C88.966 151.107 85.1026 154.969 80.354 154.969H10.0795C5.33011 154.969 1.46712 151.107 1.46712 146.362V23.9851H88.966V146.362ZM80.354 0.672852H10.0795C4.91868 0.672852 0.720398 4.86882 0.720398 10.0261V146.362C0.720398 151.519 4.91868 155.715 10.0795 155.715H80.354C85.514 155.715 89.7125 151.519 89.7125 146.362V10.0261C89.7125 4.86882 85.514 0.672852 80.354 0.672852Z" fill="#013662"/>
<path fill-rule="evenodd" clip-rule="evenodd" d="M14.6381 10.1253C12.965 10.1253 11.5925 11.5216 11.5925 13.2638C11.5925 15.006 12.965 16.4022 14.6381 16.4022H64.6886C66.3616 16.4022 67.7338 15.0061 67.7338 13.2638C67.7338 11.5215 66.3616 10.1253 64.6886 10.1253H14.6381ZM10.8507 13.2638C10.8507 11.1298 12.5372 9.38281 14.6381 9.38281H64.6886C66.7894 9.38281 68.4756 11.1299 68.4756 13.2638C68.4756 15.3977 66.7894 17.1447 64.6886 17.1447H14.6381C12.5372 17.1447 10.8507 15.3978 10.8507 13.2638Z" fill="#DCEEFC"/>
<path fill-rule="evenodd" clip-rule="evenodd" d="M78.0109 10.7926C77.0914 9.87205 75.5992 9.87189 74.6782 10.7928C73.7587 11.7143 73.7587 13.2078 74.6782 14.1285C75.5992 15.0495 77.0914 15.0493 78.0117 14.1285C78.9312 13.2078 78.9312 11.7143 78.0109 10.7926ZM74.1538 10.2676C75.3647 9.05701 77.326 9.05686 78.5361 10.2677V10.2678C79.7455 11.4792 79.7455 13.4428 78.5361 14.6536C77.326 15.8644 75.3647 15.8643 74.1538 14.6537V14.6536C72.9444 13.4428 72.9444 11.4792 74.1538 10.2678V10.2676Z" fill="#DCEEFC"/>
<path fill-rule="evenodd" clip-rule="evenodd" d="M80.6494 17.2122L77.9805 14.5409L78.5049 14.0159L81.1738 16.6872L80.6494 17.2122Z" fill="#DCEEFC"/>
<path fill-rule="evenodd" clip-rule="evenodd" d="M70.2327 101.415H20.8189C19.6171 101.415 18.6429 100.438 18.6429 99.2328V42.7613C18.6429 41.5566 19.6171 40.5801 20.8189 40.5801H70.2327C71.4351 40.5801 72.4091 41.5566 72.4091 42.7613V99.2328C72.4091 100.438 71.4351 101.415 70.2327 101.415Z" fill="#FFB800"/>
<path fill-rule="evenodd" clip-rule="evenodd" d="M68.9735 125.593H22.078C20.1808 125.593 18.6429 124.022 18.6429 122.083C18.6429 120.145 20.1808 118.574 22.078 118.574H68.9735C70.8709 118.574 72.4091 120.145 72.4091 122.083C72.4091 124.022 70.8709 125.593 68.9735 125.593Z" fill="#372C24"/>
<path fill-rule="evenodd" clip-rule="evenodd" d="M68.9735 113.894H22.078C20.1808 113.894 18.6429 112.323 18.6429 110.384C18.6429 108.445 20.1808 106.875 22.078 106.875H68.9735C70.8709 106.875 72.4091 108.445 72.4091 110.384C72.4091 112.323 70.8709 113.894 68.9735 113.894Z" fill="#372C24"/>
<path d="M147.96 113.674H52.9615C49.6325 113.674 46.9156 110.943 46.9156 107.551V53.1625C46.9156 49.7704 49.6325 47.0396 52.9615 47.0396H147.96C151.289 47.0396 154.007 49.7705 154.007 53.1625V107.551C154.007 110.943 151.289 113.674 147.96 113.674Z" fill="#FFF8E4" stroke="#372C24" stroke-width="2"/>
<path fill-rule="evenodd" clip-rule="evenodd" d="M45.9156 85.0366H155.007V70.2178H45.9156V85.0366Z" fill="#372C24"/>
<path fill-rule="evenodd" clip-rule="evenodd" d="M128.513 99.8555C128.513 105.455 123.978 109.995 118.383 109.995C112.789 109.995 108.253 105.455 108.253 99.8555C108.253 94.2563 112.789 89.7163 118.383 89.7163C123.978 89.7163 128.513 94.2563 128.513 99.8555Z" fill="#FFF8E4"/>
<path fill-rule="evenodd" clip-rule="evenodd" d="M142.539 99.8555C142.539 105.455 138.003 109.995 132.409 109.995C126.814 109.995 122.279 105.455 122.279 99.8555C122.279 94.2563 126.814 89.7163 132.409 89.7163C138.003 89.7163 142.539 94.2563 142.539 99.8555Z" fill="#372C24"/>
<path fill-rule="evenodd" clip-rule="evenodd" d="M123.058 100.245C123.058 103.16 124.261 105.78 126.175 107.655C128.09 105.78 129.292 103.16 129.292 100.245C129.292 97.3307 128.09 94.7109 126.175 92.8359C124.261 94.7109 123.058 97.3307 123.058 100.245Z" fill="#372C24"/>
<path fill-rule="evenodd" clip-rule="evenodd" d="M57.1426 53.1988C56.2099 53.1988 55.4057 54.0132 55.4057 55.0789C55.4057 56.1453 56.2099 56.9589 57.1426 56.9589H83.919C84.8517 56.9589 85.6559 56.1453 85.6559 55.0789C85.6559 54.0132 84.8517 53.1988 83.919 53.1988H57.1426ZM54.487 55.0789C54.487 53.5601 55.6495 52.2793 57.1426 52.2793H83.919C85.412 52.2793 86.5746 53.5601 86.5746 55.0789C86.5746 56.5986 85.412 57.8784 83.919 57.8784H57.1426C55.6496 57.8784 54.487 56.5986 54.487 55.0789Z" fill="#372C24"/>
<path fill-rule="evenodd" clip-rule="evenodd" d="M57.1449 61.7779C56.2099 61.7779 55.4057 62.592 55.4057 63.6572C55.4057 64.7234 56.2107 65.538 57.1449 65.538H101.839C102.773 65.538 103.578 64.7234 103.578 63.6572C103.578 62.592 102.774 61.7779 101.839 61.7779H57.1449ZM54.487 63.6572C54.487 62.1379 55.6508 60.8584 57.1449 60.8584H101.839C103.332 60.8584 104.497 62.1379 104.497 63.6572C104.497 65.177 103.333 66.4576 101.839 66.4576H57.1449C55.6506 66.4576 54.487 65.177 54.487 63.6572Z" fill="#372C24"/>
<path fill-rule="evenodd" clip-rule="evenodd" d="M125.669 147.01C125.841 147.204 126.01 147.399 126.175 147.6C125.491 148.368 125.052 149.245 124.387 150.032C119.068 157.202 113.749 164.371 108.431 171.542C105.831 175.047 100.893 175.773 97.4018 173.161C93.9102 170.55 93.1886 165.593 95.7881 162.087C95.8005 162.071 95.8122 162.056 95.8231 162.04C98.3766 158.598 100.929 155.157 103.483 151.714C105.359 149.185 107.236 146.654 109.113 144.124C110.175 142.693 111.747 139.41 113.947 139.644C114.237 139.675 114.511 139.784 114.781 139.893C118.829 141.541 122.761 143.755 125.669 147.01Z" fill="#FFB800"/>
<path fill-rule="evenodd" clip-rule="evenodd" d="M129.891 84.0609C112.812 87.3866 101.619 103.999 104.941 121.093C108.263 138.189 124.861 149.392 141.94 146.067C159.019 142.742 170.212 126.13 166.89 109.034C163.569 91.939 146.972 80.736 129.891 84.0609Z" fill="#FFF8E4"/>
<path fill-rule="evenodd" clip-rule="evenodd" d="M131.148 87.0489C115.614 90.0743 105.434 105.192 108.455 120.748C111.476 136.303 126.571 146.498 142.106 143.473C157.639 140.446 167.819 125.33 164.798 109.774C161.777 94.2181 146.681 84.0235 131.148 87.0489ZM143.659 151.477C123.718 155.36 104.34 142.274 100.462 122.304C96.5836 102.335 109.652 82.9277 129.593 79.0444C149.535 75.1605 168.913 88.2469 172.791 108.217C176.669 128.187 163.602 147.593 143.659 151.477Z" fill="#FFB800"/>
<path fill-rule="evenodd" clip-rule="evenodd" d="M158.148 124.813C157.675 124.813 157.209 124.606 156.909 124.216L145.952 109.973C145.452 109.323 145.601 108.411 146.285 107.937C146.97 107.459 147.93 107.603 148.43 108.253L159.386 122.495C159.887 123.145 159.737 124.057 159.052 124.531C158.779 124.722 158.462 124.813 158.148 124.813Z" fill="#372C24"/>
<path fill-rule="evenodd" clip-rule="evenodd" d="M147.189 124.813C146.875 124.813 146.558 124.722 146.285 124.531C145.601 124.057 145.451 123.145 145.952 122.495L156.908 108.253C157.407 107.603 158.367 107.459 159.052 107.937C159.737 108.411 159.886 109.323 159.386 109.973L148.429 124.216C148.129 124.606 147.662 124.813 147.189 124.813Z" fill="#372C24"/>
<path fill-rule="evenodd" clip-rule="evenodd" d="M141.005 124.813C140.532 124.813 140.065 124.606 139.765 124.216L128.808 109.973C128.309 109.323 128.458 108.411 129.143 107.936C129.827 107.459 130.788 107.602 131.287 108.253L142.243 122.494C142.743 123.145 142.594 124.057 141.91 124.531C141.637 124.722 141.32 124.813 141.005 124.813Z" fill="#372C24"/>
<path fill-rule="evenodd" clip-rule="evenodd" d="M130.047 124.813C129.732 124.813 129.415 124.722 129.142 124.531C128.458 124.057 128.309 123.145 128.809 122.494L139.765 108.253C140.265 107.602 141.226 107.459 141.909 107.936C142.594 108.411 142.743 109.323 142.244 109.973L131.287 124.216C130.987 124.606 130.519 124.813 130.047 124.813Z" fill="#372C24"/>
<path fill-rule="evenodd" clip-rule="evenodd" d="M126.2 124.813C125.727 124.813 125.26 124.606 124.96 124.216L114.003 109.973C113.504 109.323 113.652 108.411 114.337 107.936C115.021 107.459 115.982 107.602 116.482 108.253L127.438 122.494C127.938 123.145 127.788 124.057 127.105 124.531C126.831 124.722 126.515 124.813 126.2 124.813Z" fill="#372C24"/>
<path fill-rule="evenodd" clip-rule="evenodd" d="M115.241 124.813C114.926 124.813 114.61 124.722 114.337 124.531C113.653 124.057 113.504 123.145 114.004 122.494L124.96 108.253C125.459 107.602 126.42 107.459 127.104 107.936C127.789 108.411 127.938 109.323 127.438 109.973L116.482 124.216C116.182 124.606 115.714 124.813 115.241 124.813Z" fill="#372C24"/>
<path fill-rule="evenodd" clip-rule="evenodd" d="M296.56 240.141L296.705 240.147L296.825 240.066C296.739 240 296.654 239.935 296.569 239.869C296.53 239.959 296.527 240.049 296.56 240.141Z" fill="#DCEEFC"/>
<path fill-rule="evenodd" clip-rule="evenodd" d="M219.703 150.497C219.683 148.093 219.619 145.925 219.892 143.525C220.17 141.079 220.45 138.624 221.031 136.236C221.202 135.526 221.405 134.815 221.759 134.183C222.151 133.485 222.713 132.909 223.268 132.344C224.935 130.642 226.34 131.098 228.63 131.136C230.911 131.174 233.193 131.204 235.475 131.241C240.037 131.312 244.6 131.403 249.158 131.603C251.829 131.72 254.504 131.744 257.176 131.743C257.712 131.742 264.775 131.497 264.782 131.534C264.98 132.528 264.795 133.615 264.906 134.637C265.135 136.745 265.222 141.441 265.443 141.586C265.453 141.816 265.465 142.046 265.475 142.276C265.423 146.304 265.577 150.318 266.228 154.662C266.252 154.608 266.276 154.558 266.301 154.505C267.335 166.178 267.337 178.062 267.764 189.773C267.863 192.465 267.958 195.158 268.032 197.853C268.12 201.071 267.739 203.063 269.793 205.655C270.542 206.601 278.285 215.025 278.121 215.386C277.814 216.052 277.331 216.382 276.933 216.783C274.911 218.834 272.743 220.727 270.844 222.911C267.845 225.563 265.039 228.421 262.356 231.412C261.136 231.989 260.497 233.281 259.397 234.004C256.106 231.201 252.933 228.262 249.988 225.065C249.174 224.179 248.611 223.038 247.502 222.458C247.393 222.253 247.318 222.017 247.173 221.847C244.618 218.908 242.274 215.792 240.043 212.582C235.039 205.382 230.892 197.675 227.632 189.477C224.752 182.235 222.583 174.763 221.292 167.014C220.38 161.54 219.75 156.052 219.703 150.497Z" fill="#DCEEFC"/>
<path fill-rule="evenodd" clip-rule="evenodd" d="M271.083 223.085C268.066 225.753 265.24 228.63 262.539 231.639C264.609 233.384 266.246 235.608 268.399 237.241V240.114C268.779 240.306 269.186 240.228 269.582 240.228C278.622 240.23 287.663 240.226 296.704 240.223C296.671 240.129 296.786 239.193 296.825 239.101C292.182 237.525 287.424 236.803 282.789 235.2C282.266 235.02 281.794 234.684 281.379 234.244C278.781 231.489 276.139 228.775 273.544 226.015C272.674 225.089 271.901 224.065 271.083 223.085Z" fill="#C09671"/>
<path fill-rule="evenodd" clip-rule="evenodd" d="M296.825 240.244H268.773V239.464H296.825V240.244Z" fill="#013662"/>
<path fill-rule="evenodd" clip-rule="evenodd" d="M259.403 234.078C256.106 231.221 252.928 228.223 249.978 224.963C249.161 224.062 248.598 222.896 247.486 222.305C247.333 224.272 247.106 226.238 247.047 228.208C246.97 230.725 246.69 235.874 246.69 235.874C243.395 237.389 236.83 239.302 236.825 239.213C236.83 239.302 236.845 240.154 236.825 240.241C237.051 240.263 237.171 240.139 237.397 240.139C244.348 240.143 251.299 240.144 258.25 240.139C258.644 240.139 259.05 240.215 259.422 239.996C259.416 238.023 259.41 236.051 259.403 234.078Z" fill="#C09671"/>
<path fill-rule="evenodd" clip-rule="evenodd" d="M259.422 240.244H236.825V239.464H259.422V240.244Z" fill="#013662"/>
<path fill-rule="evenodd" clip-rule="evenodd" d="M267.21 203.587C267.376 203.587 267.545 203.533 267.688 203.419C268.031 203.147 268.095 202.641 267.831 202.288C246.867 174.306 247.74 143.121 247.752 142.809C247.767 142.363 247.43 141.99 246.997 141.973C246.572 141.95 246.2 142.303 246.184 142.748C246.171 143.066 245.266 174.811 266.589 203.273C266.742 203.478 266.975 203.587 267.21 203.587Z" fill="#013662"/>
<path fill-rule="evenodd" clip-rule="evenodd" d="M240.276 101.348C240.146 101.289 240.013 101.232 239.876 101.176C237.727 100.314 235.322 100.504 233.01 100.655C225.61 101.137 218.173 101.066 210.782 100.443C210.035 100.38 209.264 100.304 208.607 99.9418C207.902 99.5534 207.407 98.8795 206.936 98.2259C201.1 90.1403 196.808 80.8755 188.766 74.8466C188.204 74.4254 187.537 74.0011 186.85 74.147C186.103 74.3053 185.638 75.1227 185.646 75.8862C185.674 78.563 188.822 80.2118 189.19 82.7793C187.057 82.4564 185.937 78.7619 183.523 79.4966C182.98 79.6627 182.527 80.126 182.348 80.6322C181.537 82.9517 188.118 90.5256 189.316 92.6767C192.437 98.2875 195.787 103.771 199.353 109.111C200.406 110.689 201.551 112.319 203.246 113.167C204.801 113.946 206.612 113.963 208.35 113.963C217.78 113.963 227.208 113.963 236.638 113.962C243.696 113.962 247.349 104.577 240.276 101.348Z" fill="#C09671"/>
<path fill-rule="evenodd" clip-rule="evenodd" d="M293.954 103.369H288.335C289.1 99.3183 289.865 95.2665 290.63 91.2163C291.738 95.2665 292.846 99.3183 293.954 103.369Z" fill="#FFB800"/>
<path fill-rule="evenodd" clip-rule="evenodd" d="M293.954 103.37H288.335C289.1 107.421 289.865 111.472 290.63 115.523L293.954 103.37Z" fill="#FFB800"/>
<path fill-rule="evenodd" clip-rule="evenodd" d="M290.674 100.558V106.181C287.638 105.416 284.603 104.65 281.568 103.885C284.603 102.775 287.638 101.666 290.674 100.558Z" fill="#FFB800"/>
<path fill-rule="evenodd" clip-rule="evenodd" d="M290.674 100.558V106.181C293.71 105.416 296.746 104.65 299.782 103.885C296.746 102.775 293.71 101.666 290.674 100.558Z" fill="#FFB800"/>
<path fill-rule="evenodd" clip-rule="evenodd" d="M279.102 138.436C279.048 137.857 278.958 137.401 278.897 137.135C278.561 135.446 278.276 134.739 277.894 133.518C277.668 132.817 277.502 132.091 277.308 131.363C277.282 131.331 277.256 131.298 277.258 131.27L276.473 128.443C276.252 127.683 276.058 126.954 275.837 126.195C275.49 124.919 275.146 123.614 274.739 122.333C274.699 122.151 274.66 121.941 274.59 121.756C274.528 121.484 274.463 121.241 274.399 120.999L274.378 120.907C273.669 118.593 272.916 115.755 270.668 114.452C268.668 113.295 265.932 113.948 264.366 115.649C263.025 117.105 262.499 119.126 262.625 121.072C262.894 125.289 262.939 129.442 263.304 133.649C263.278 133.363 259.194 132.538 258.743 132.423C257.084 132.003 255.418 131.61 253.748 131.244C252.076 130.877 250.399 130.537 248.717 130.224C247.234 129.948 245.385 129.339 243.898 129.464C243.997 130.747 243.336 132.228 243.037 133.48C242.659 135.068 242.316 136.664 242.007 138.266C241.927 138.679 248.169 140.982 248.804 141.223C251.236 142.149 253.713 142.953 256.225 143.634C258.442 144.235 260.744 145.067 262.99 145.415C265.739 145.84 268.508 146.137 271.284 146.3C272.585 146.378 273.907 146.424 275.176 146.127C276.961 145.711 278.606 144.434 279.235 142.689C279.735 141.279 279.656 139.719 279.102 138.436Z" fill="#C09671"/>
<path fill-rule="evenodd" clip-rule="evenodd" d="M264.449 127.298C268.67 126.389 273.407 126.542 277.7 125.82C276.701 119.829 275.116 113.78 271.65 108.793C263.517 97.0929 248.816 99.9686 236.442 99.9865C231.373 99.9943 216.954 100.004 211.884 100.015C211.749 105.571 211.615 111.905 211.48 117.461C214.692 117.465 217.903 117.466 221.114 117.467C221.716 117.467 222.985 117.203 223.406 117.722C223.795 118.2 223.37 119.901 223.268 120.454C222.923 122.33 222.182 124.107 221.445 125.856C220.872 127.217 220.3 128.578 219.726 129.938C219.148 131.311 218.539 132.73 217.435 133.73C227.625 133.945 237.757 133.949 247.945 133.928C251.474 133.92 255.003 133.909 258.531 133.892C260.277 133.885 262.259 133.603 263.944 133.789C263.955 133.224 263.469 127.53 263.744 127.462C263.977 127.403 264.212 127.349 264.449 127.298Z" fill="#013662"/>
<path fill-rule="evenodd" clip-rule="evenodd" d="M249.292 141.582H207.214L203.318 115.454C219.808 115.291 228.819 114.898 245.308 114.734C246.94 124.539 247.659 131.777 249.292 141.582Z" fill="#FFB800"/>
<path fill-rule="evenodd" clip-rule="evenodd" d="M226.106 128.464C227.14 130.53 227.017 132.686 225.83 133.282C224.644 133.877 222.844 132.685 221.809 130.621C220.774 128.556 220.897 126.399 222.084 125.804C223.27 125.208 225.071 126.4 226.106 128.464Z" fill="#372C24"/>
<path d="M207.993 141.192H252.409C252.839 141.192 253.188 141.541 253.188 141.972C253.188 142.403 252.839 142.752 252.409 142.752H207.993C207.563 142.752 207.214 142.403 207.214 141.972C207.214 141.541 207.563 141.192 207.993 141.192Z" fill="#FFB800"/>
<path fill-rule="evenodd" clip-rule="evenodd" d="M259.578 83.4906C257.01 80.0409 252.581 78.9241 248.689 80.7616C248.089 81.0447 247.503 81.3801 247.036 81.8512C246.451 82.4431 246.092 83.2098 245.664 83.9086C245.237 84.6059 244.949 85.389 244.824 86.1962C244.616 87.5221 244.64 88.9166 245.098 90.2417C245.949 92.7047 247.61 94.515 250.016 95.3355C252.286 96.1099 254.657 96.0897 256.826 94.6897C257.301 94.3839 257.713 93.9246 258.328 93.8567C259.137 94.5867 260.075 94.7505 260.989 94.2077C261.802 93.7241 262.129 92.8506 262.033 91.9311C261.986 91.4779 261.75 91.1831 261.489 90.8196C261.332 90.5997 260.697 89.989 260.747 89.7667C260.773 89.6482 260.798 89.5273 260.819 89.4064C261.18 87.3762 260.821 85.1604 259.578 83.4906Z" fill="#C09671"/>
<path fill-rule="evenodd" clip-rule="evenodd" d="M260.758 89.7923C259.752 89.0256 258.956 87.7902 258.16 86.8137C257.24 85.6844 256.335 84.5426 255.472 83.3703C254.848 82.5225 254.216 81.681 253.57 80.8129C252.853 80.7567 252.238 81.1717 251.583 81.3596C250.648 81.6295 249.737 81.975 248.828 82.326C248.197 82.5685 247.588 82.8899 246.923 83.0342C246.292 83.1706 245.626 83.5169 244.97 83.435C244.461 83.3711 243.959 82.9593 243.978 82.4461C243.998 81.9321 244.489 81.5811 244.93 81.3175C245.371 81.0531 245.866 80.7123 245.901 80.1991C245.915 79.9901 245.852 79.7576 245.969 79.5829C246.021 79.5065 246.101 79.455 246.184 79.4153C246.8 79.1259 247.503 79.473 248.145 79.6999C249.253 80.0922 250.357 80.0595 251.484 79.7959C252.536 79.5494 253.695 79.618 254.753 79.845C257.886 80.5173 260.128 83.2003 260.906 86.2124C261.183 87.2817 261.018 88.4056 260.814 89.4967C260.796 89.5958 260.777 89.694 260.758 89.7923Z" fill="#372C24"/>
<path fill-rule="evenodd" clip-rule="evenodd" d="M268.154 94.6565C270.81 94.6565 272.964 92.5 272.964 89.8412C272.964 87.1824 270.81 85.0259 268.154 85.0259C265.496 85.0259 263.344 87.1824 263.344 89.8412C263.344 92.5 265.496 94.6565 268.154 94.6565Z" fill="#372C24"/>
<path fill-rule="evenodd" clip-rule="evenodd" d="M276.73 100.379C278.809 100.379 280.496 98.6916 280.496 96.61C280.496 94.5283 278.809 92.8413 276.73 92.8413C274.65 92.8413 272.964 94.5283 272.964 96.61C272.964 98.6916 274.65 100.379 276.73 100.379Z" fill="#372C24"/>
<path fill-rule="evenodd" clip-rule="evenodd" d="M260.966 88.5814C262.331 87.048 265.459 82.0299 260.519 78.2535C258.197 76.4776 255.194 76.8964 252.893 78.5077C252.73 78.6224 252.505 78.652 252.212 78.7542C249.964 76.7958 247.965 74.5238 245.699 72.5576C245.075 73.2385 245.538 73.492 245.813 73.7782C247.791 75.8372 258.607 85.8423 260.966 88.5814Z" fill="#FFB8A8"/>
<path fill-rule="evenodd" clip-rule="evenodd" d="M280.495 104.804C281.767 104.804 282.799 103.772 282.799 102.499C282.799 101.226 281.767 100.194 280.495 100.194C279.224 100.194 278.193 101.226 278.193 102.499C278.193 103.772 279.224 104.804 280.495 104.804Z" fill="#372C24"/>
</g>
<defs>
<clipPath id="clip0_177_383">
<rect width="380" height="240" fill="white"/>
</clipPath>
</defs>
</svg>
