<svg width="380" height="240" viewBox="0 0 380 240" fill="none" xmlns="http://www.w3.org/2000/svg">
<path d="M67.4682 116.844V137.531C67.4682 139.35 68.9573 140.869 70.7664 140.917L70.8556 140.919H91.5425V153.089H70.8556C62.3706 153.089 55.4375 146.241 55.2996 137.788L55.2975 137.531V116.844H67.4682Z" fill="#013662"/>
<path fill-rule="evenodd" clip-rule="evenodd" d="M72.8847 126.407H65.2643C48.7541 126.407 35.246 112.899 35.246 96.389V75.9124C35.246 59.4025 48.7541 45.894 65.2643 45.894H72.8847C83.2075 45.894 91.6533 54.3398 91.6533 64.6627V107.639C91.6533 117.962 83.2075 126.407 72.8847 126.407Z" fill="#FFB800"/>
<path fill-rule="evenodd" clip-rule="evenodd" d="M114.434 224.084H111.314C109.94 224.084 108.817 222.634 108.817 220.861V153.972C108.817 152.199 109.94 150.749 111.314 150.749H114.434C115.807 150.749 116.931 152.199 116.931 153.972V220.861C116.931 222.634 115.807 224.084 114.434 224.084Z" fill="#013662"/>
<path fill-rule="evenodd" clip-rule="evenodd" d="M116.931 228.765H112.874H108.817C108.817 228.765 80.731 233.321 80.731 231.262V230.325C80.731 228.266 82.4161 226.581 84.4758 226.581L108.817 220.339H112.874H116.931L141.272 226.581C143.332 226.581 145.017 228.266 145.017 230.325V231.262C145.017 233.321 116.931 228.765 116.931 228.765Z" fill="#013662"/>
<path fill-rule="evenodd" clip-rule="evenodd" d="M115.394 194.126H110.353C108.135 194.126 106.32 193.268 106.32 192.219V152.655C106.32 151.607 108.135 150.749 110.353 150.749H115.394C117.612 150.749 119.427 151.607 119.427 152.655V192.219C119.427 193.268 117.612 194.126 115.394 194.126Z" fill="#013662"/>
<path fill-rule="evenodd" clip-rule="evenodd" d="M142.6 156.99H83.1473C78.3858 156.99 74.4896 153.094 74.4896 148.332V143.803C74.4896 139.041 78.3858 135.145 83.1473 135.145H142.6C147.362 135.145 151.258 139.041 151.258 143.803V148.332C151.258 153.094 147.362 156.99 142.6 156.99Z" fill="#FFB800"/>
<path fill-rule="evenodd" clip-rule="evenodd" d="M85.7241 235.631C85.7241 238.044 83.768 240 81.3551 240C78.9422 240 76.9862 238.044 76.9862 235.631C76.9862 233.218 78.9422 231.262 81.3551 231.262C83.768 231.262 85.7241 233.218 85.7241 235.631Z" fill="#013662"/>
<path fill-rule="evenodd" clip-rule="evenodd" d="M149.386 235.631C149.386 238.044 147.43 240 145.017 240C142.604 240 140.648 238.044 140.648 235.631C140.648 233.218 142.604 231.262 145.017 231.262C147.43 231.262 149.386 233.218 149.386 235.631Z" fill="#013662"/>
<path fill-rule="evenodd" clip-rule="evenodd" d="M117.555 235.631C117.555 238.044 115.599 240 113.186 240C110.773 240 108.817 238.044 108.817 235.631C108.817 233.218 110.773 231.262 113.186 231.262C115.599 231.262 117.555 233.218 117.555 235.631Z" fill="#013662"/>
<path fill-rule="evenodd" clip-rule="evenodd" d="M114.434 231.886H111.938L108.817 224.084C108.817 222.025 110.502 220.339 112.562 220.339H113.81C115.87 220.339 117.555 222.025 117.555 224.084L114.434 231.886Z" fill="#013662"/>
<path fill-rule="evenodd" clip-rule="evenodd" d="M131.376 216.589C131.376 216.589 116.8 202.768 116.8 202.768C116.01 202.021 115.352 201.434 116.062 200.612C124.489 190.859 132.717 180.943 140.486 170.703C146.486 162.732 152.357 154.596 157.204 145.918C160.239 140.799 158.679 139.12 153.738 137.173C146.825 134.362 139.302 132.234 131.923 130.451L137.173 106.436C152.044 110.49 188.567 118.402 184.396 140.319C180.842 157.747 168.77 172.174 158.9 186.024C150.744 196.771 142.199 207.073 133.501 217.139C132.784 217.969 132.165 217.337 131.376 216.589Z" fill="#372C24"/>
<path fill-rule="evenodd" clip-rule="evenodd" d="M126.329 105.913L116.827 130.906C116.623 131.928 116.664 132.791 116.897 132.831C127.54 134.925 139.092 137.829 149.018 141.699L153.913 127.388C153.089 125.87 152.217 124.354 151.308 122.848C152.864 122.264 154.437 121.709 156.035 121.185L161.009 106.645C155.822 105.896 144.262 105.652 126.329 105.913Z" fill="#FFB8A8"/>
<path fill-rule="evenodd" clip-rule="evenodd" d="M139.208 213.777C146.995 204.676 154.698 195.256 161.945 185.648L140.328 167.913C131.505 179.641 121.934 190.993 112.326 202.052C112.546 202.255 118.882 208.107 119.288 208.482C119.913 207.961 120.471 207.532 121.045 207.081L123.429 212.307C127.767 216.312 136.606 224.478 140.913 228.454L143.076 225.951C144.727 224.044 139.519 217.929 139.208 213.777Z" fill="#FFB8A8"/>
<path fill-rule="evenodd" clip-rule="evenodd" d="M192.821 235.621C191.756 235.646 190.897 235.701 190.869 234.702C190.252 218.015 187.86 200.962 182.628 185.228C171.305 148.956 145.154 138.297 116.071 135.104L124.441 112.053C145.359 119.49 168.328 125.072 184.707 141.933C202.574 160.654 209.286 187.512 212.708 212.922C213.575 219.889 214.146 226.844 214.37 233.927C214.404 235.107 213.537 235.098 212.474 235.124L192.821 235.621Z" fill="#694D3D"/>
<path fill-rule="evenodd" clip-rule="evenodd" d="M114.389 105.812C114.285 106.861 90.3216 136.645 104.808 136.726C119.294 136.807 131.363 137.497 138.643 140.763L141.718 133.565C140.753 132.105 139.721 130.655 138.643 129.218C140.197 128.505 141.771 127.82 143.38 127.176L147.278 114.389C140.468 112.364 129.505 109.505 114.389 105.812Z" fill="#FFB8A8"/>
<path fill-rule="evenodd" clip-rule="evenodd" d="M216.346 227.03C215.522 214.141 213.742 201.375 210.674 188.821L184.102 196.044C187.345 209.448 189.065 223.621 189.279 237.523C189.571 237.525 198.016 237.59 198.557 237.594C198.693 237.086 198.84 236.167 198.943 235.632C200.66 236.276 202.374 236.96 204.077 237.637C209.858 237.681 221.641 237.772 227.38 237.816C227.378 237.218 227.372 236.011 227.359 235.418C228.555 229.814 220.496 230.599 216.346 227.03Z" fill="#FFB8A8"/>
<path fill-rule="evenodd" clip-rule="evenodd" d="M112.862 136.706C96.5377 136.706 83.3042 122.874 83.3042 105.812H145.405C145.405 122.874 132.172 136.706 115.848 136.706H112.862Z" fill="#DCEEFC"/>
<path fill-rule="evenodd" clip-rule="evenodd" d="M100.78 136.706C91.1284 136.706 83.3042 128.882 83.3042 119.23V105.812H145.405C145.405 122.874 132.172 136.706 115.848 136.706H100.78Z" fill="#FFB8A8"/>
<path fill-rule="evenodd" clip-rule="evenodd" d="M142.977 66.2147L143.132 66.1885C147.312 65.5096 151.676 67.21 153.866 70.9242C161.192 83.014 171.203 96.7237 186.252 96.8623C192.589 96.7864 198.833 94.7254 204.673 92.2306C208.317 90.7469 211.852 88.3461 215.32 86.891C221.611 83.1821 228.908 79.4379 235.429 78.2698L235.725 78.2186L235.899 78.1873L236.075 78.157C241.826 77.1828 249.112 77.8183 245.833 81.9505C245.297 82.2892 243.238 82.9995 240.811 83.9832L240.722 84.0196C243.26 84.7829 244.985 86.4232 243.961 88.5653C241.736 91.8986 237.912 87.3971 232.779 88.393C232.768 88.4029 232.758 88.4125 232.747 88.4221C231.378 89.6771 230.544 91.1405 230.747 92.886C230.983 94.8946 231.933 95.8426 233.17 96.222C235.468 97.0255 239.328 94.8586 240.35 97.9929C241.532 101.077 237.808 101.69 235.474 102.428C231.834 103.502 226.53 104.352 223.569 105.957L223.404 106.049C223.358 106.058 223.313 106.066 223.267 106.072L223.086 106.17C222.417 106.531 221.723 106.861 221.013 107.157C217.089 109.259 212.878 111.235 208.68 112.826C204.533 114.421 200.166 115.725 195.717 116.538L195.374 116.599C188.523 117.811 181.484 117.848 174.76 115.985C161.162 112.269 150.414 102.128 142.375 91.0327C137.077 83.6681 129.073 73.2327 140.251 67.0636C141.132 66.6603 142.049 66.3786 142.977 66.2147Z" fill="#372C24"/>
<path fill-rule="evenodd" clip-rule="evenodd" d="M140.251 67.0636C145.145 64.8227 151.162 66.3388 153.866 70.9242C161.192 83.014 171.203 96.7237 186.252 96.8623C192.589 96.7864 198.833 94.7254 204.673 92.2306C208.316 90.747 211.851 88.3463 215.32 86.8912C221.706 83.1263 229.129 79.3247 235.725 78.2186C241.524 77.1583 249.178 77.734 245.833 81.9505C245.29 82.2933 243.187 83.0171 240.721 84.0197C243.26 84.7829 244.985 86.4232 243.961 88.5653C241.736 91.8986 237.912 87.3971 232.779 88.393C231.391 89.6548 230.543 91.1272 230.747 92.886C230.983 94.8946 231.933 95.8426 233.17 96.222C235.468 97.0255 239.328 94.8586 240.35 97.9929C241.532 101.077 237.808 101.69 235.474 102.428C231.765 103.522 226.329 104.384 223.404 106.049C223.358 106.058 223.313 106.066 223.267 106.072C222.543 106.471 221.788 106.834 221.013 107.157C217.089 109.259 212.878 111.235 208.68 112.826C198.047 116.916 185.967 119.09 174.76 115.985C161.162 112.269 150.414 102.128 142.375 91.0327C137.077 83.6681 129.073 73.2327 140.251 67.0636Z" fill="#372C24"/>
<path fill-rule="evenodd" clip-rule="evenodd" d="M163.808 82.4881C160.212 78.2554 157.913 74.0127 154.611 69.1563C150.157 62.6056 143.84 59.4598 135.218 60.6613C115.605 66.7269 138.685 88.2553 145.753 97.8669L163.808 82.4881Z" fill="#013662"/>
<path fill-rule="evenodd" clip-rule="evenodd" d="M94.5387 59.6255H136.98C143.874 59.6255 149.462 65.2142 149.462 72.1082V106.748H82.056V72.1082C82.056 65.2142 87.6447 59.6255 94.5387 59.6255Z" fill="#013662"/>
<path fill-rule="evenodd" clip-rule="evenodd" d="M101.404 59.6255C101.404 65.313 107.831 69.9237 115.759 69.9237C123.687 69.9237 130.114 65.313 130.114 59.6255" fill="#694D3D"/>
<path fill-rule="evenodd" clip-rule="evenodd" d="M17.5607 2.18776C19.073 2.16058 20.3368 3.24563 20.4364 4.66729C20.5591 6.42177 20.7096 8.18103 20.8888 9.93924L20.9728 9.93203C22.4821 9.8237 23.8006 10.8451 23.9691 12.2438C23.7819 15.2285 26.8291 21.656 23.7645 23.2935C23.8205 23.5882 23.8779 23.8796 23.9358 24.1668C26.6655 36.8005 30.3641 50.6256 40.2591 59.4512C51.4558 68.3757 67.6374 66.1244 81.0575 62.9445C86.2746 61.6525 91.6784 64.8172 93.5099 69.9357C95.5105 75.562 91.9845 81.4479 86.1454 82.9027C75.5096 85.5955 63.9787 87.1465 52.7249 85.7953C42.5768 84.6494 32.1423 80.5235 24.6898 73.1431C15.0098 63.7699 9.67189 51.0288 6.1265 38.3957C5.51357 36.1443 4.95995 33.8944 4.45929 31.6382C3.50844 30.8745 2.87059 29.4556 2.79481 28.1615C1.45043 21.3618 0.551675 14.5825 0.00992682 7.73356C-0.120829 6.08023 1.05597 4.65534 2.60539 4.56702C4.15324 4.48027 5.4842 5.70544 5.60997 7.29605C5.74238 8.97031 5.89702 10.6416 6.0751 12.3102C7.54463 11.0687 9.39319 10.2473 11.4844 10.052C12.7913 9.93205 14.0765 10.0533 15.2882 10.3804C15.108 8.60487 14.9564 6.82725 14.832 5.05051C14.7262 3.53636 15.9264 2.25876 17.4764 2.19041L17.5607 2.18776Z" fill="#694D3D"/>
<path fill-rule="evenodd" clip-rule="evenodd" d="M7.42356 0.746905C2.59932 1.09548 5.71625 9.90794 5.53618 13.1313C5.71531 14.73 7.12866 15.8609 8.66933 15.6593C10.2044 15.4584 11.2916 14.0494 11.1194 12.5096C10.7823 9.50631 10.528 6.49424 10.3557 3.47562C10.2681 1.9312 8.97485 0.710081 7.42356 0.746905Z" fill="#694D3D"/>
<path fill-rule="evenodd" clip-rule="evenodd" d="M12.3992 0.000998691C7.58374 0.19292 10.6223 8.80596 10.4295 11.9547C10.6039 13.5091 12.0001 14.6098 13.543 14.4135C18.0242 13.9357 14.9111 5.81605 15.3099 2.59677C15.2312 1.10603 13.9483 -0.0386338 12.3992 0.000998691Z" fill="#694D3D"/>
<path fill-rule="evenodd" clip-rule="evenodd" d="M68.328 87.9792C80.2521 86.2703 110.147 84.9207 100.885 66.5041C98.6913 61.4654 99.9877 59.6255 92.9216 59.6255C82.056 59.6255 72.8828 63.1379 66.6865 64.3193L68.328 87.9792Z" fill="#013662"/>
<path fill-rule="evenodd" clip-rule="evenodd" d="M103.556 40.5715C108.291 37.6972 107.633 26.2942 117.288 26.235C126.942 26.1757 125.049 33.61 129.723 42.4264C134.396 51.2427 134.342 61.8099 122.422 61.8099C117.528 61.8099 115.062 61.8099 108.42 61.8099C95.2068 61.8099 95.6277 45.3833 103.556 40.5715Z" fill="#372C24"/>
<path fill-rule="evenodd" clip-rule="evenodd" d="M108.27 45.5825H122.313V61.6955C122.313 66.0348 119.169 69.5524 115.291 69.5524C111.413 69.5524 108.27 66.0348 108.27 61.6955V45.5825Z" fill="#694D3D"/>
<path fill-rule="evenodd" clip-rule="evenodd" d="M122.953 55.5687H121.397C114.147 55.5687 108.27 49.6915 108.27 42.4416V36.2839C108.27 30.7338 112.769 26.2344 118.319 26.2344H120.065C125.615 26.2344 130.114 30.7338 130.114 36.2839V48.4073C130.114 52.3625 126.908 55.5687 122.953 55.5687Z" fill="#694D3D"/>
<path fill-rule="evenodd" clip-rule="evenodd" d="M112.014 44.4902C112.014 46.6444 110.268 48.391 108.114 48.391C105.959 48.391 104.213 46.6444 104.213 44.4902C104.213 42.336 105.959 40.5894 108.114 40.5894C110.268 40.5894 112.014 42.336 112.014 44.4902Z" fill="#694D3D"/>
<path fill-rule="evenodd" clip-rule="evenodd" d="M107.354 42.8264C107.637 42.8264 108.027 42.8915 108.428 43.092C109.098 43.427 109.522 44.0394 109.55 44.9278L109.552 45.024H108.616C108.616 44.4512 108.397 44.1229 108.01 43.9294C107.866 43.8575 107.707 43.8099 107.548 43.7833C107.469 43.7702 107.408 43.7646 107.372 43.7631L107.354 43.7626V42.8264Z" fill="#372C24"/>
<path opacity="0.12" fill-rule="evenodd" clip-rule="evenodd" d="M115.057 56.2961C112.157 55.27 110.71 52.6783 110.136 49.1924C112.406 52.969 116.521 55.5102 121.234 55.5675L121.397 55.5685H122.313C119.836 56.8885 117.417 57.131 115.057 56.2961Z" fill="#372C24"/>
<path fill-rule="evenodd" clip-rule="evenodd" d="M128.231 30.658C126.426 27.9891 123.369 26.2344 119.902 26.2344H118.157C112.61 26.2344 108.113 30.7265 108.113 36.2678C108.113 36.2678 107.962 39.5246 107.958 40.5665C107.958 40.6182 109.673 40.5665 109.673 40.5665L112.012 31.7236C123.248 31.7236 128.866 31.7236 128.866 31.7236C128.746 31.4739 128.534 31.1187 128.231 30.658Z" fill="#372C24"/>
<path d="M114.511 28.1068C118.82 28.1068 122.313 24.6138 122.313 20.3051C122.313 15.9963 118.82 12.5034 114.511 12.5034C110.202 12.5034 106.709 15.9963 106.709 20.3051C106.709 24.6138 110.202 28.1068 114.511 28.1068Z" fill="#372C24"/>
<path fill-rule="evenodd" clip-rule="evenodd" d="M120.068 26.2344C125.305 26.2344 129.61 30.2033 130.114 35.284H108.27C108.774 30.2033 113.079 26.2344 118.315 26.2344H120.068Z" fill="#372C24"/>
<path fill-rule="evenodd" clip-rule="evenodd" d="M126.584 40.2975C126.584 39.7804 126.164 39.3613 125.647 39.3613C125.13 39.3613 124.711 39.7804 124.711 40.2975C124.711 40.8146 125.13 41.2337 125.647 41.2337C126.164 41.2337 126.584 40.8146 126.584 40.2975Z" fill="#372C24"/>
<path d="M118.895 46.4097C118.895 47.5563 120.062 48.6167 121.316 48.6578L121.391 48.659V49.5952C119.645 49.5952 118.013 48.1704 117.96 46.4937L117.958 46.4097H118.895Z" fill="#372C24"/>
<path d="M115.627 37.2234C116.777 36.8666 118.054 36.7878 119.369 37.1573L119.515 37.2002L119.242 38.0955C118.073 37.7382 116.93 37.7992 115.904 38.1176C115.721 38.1745 115.558 38.2352 115.418 38.2953L115.347 38.3266L115.262 38.367L114.823 37.5403C114.981 37.4565 115.255 37.3388 115.627 37.2234Z" fill="#372C24"/>
<path d="M123.384 34.8514C124.725 34.5171 126.011 34.638 127.164 35.0417C127.512 35.1639 127.783 35.2877 127.963 35.3861L128.052 35.4371L127.57 36.2395L127.519 36.2111C127.488 36.1947 127.447 36.1735 127.395 36.1486C127.24 36.073 127.058 35.9968 126.854 35.9253C125.903 35.5923 124.849 35.483 123.753 35.7261L123.61 35.7598L123.384 34.8514Z" fill="#372C24"/>
<path d="M115.539 41.0601C116.316 39.1178 119.684 39.0941 120.161 41.0681L120.177 41.1422L119.259 41.3258C119.048 40.2723 116.945 40.2538 116.434 41.3481L116.408 41.4078L115.539 41.0601Z" fill="#372C24"/>
<path d="M122.374 39.4654L123.295 39.2949L124.633 46.519H121.551V45.5828L123.507 45.5826L122.374 39.4654Z" fill="#372C24"/>
<path d="M243.083 21.5532H162.881V89.2717H243.083V21.5532Z" fill="#FFB800"/>
<path d="M170.995 21.5532H162.881V89.2717H170.995V21.5532Z" fill="#372C24"/>
<path d="M193.464 102.066H130.114V106.747H193.464V102.066Z" fill="#DCEEFC"/>
<path d="M151.335 102.066H130.114V106.747H151.335V102.066Z" fill="#DCEEFC"/>
<path d="M252.132 106.436H89.8577V118.294H252.132V106.436Z" fill="#FFB800"/>
<path d="M144.157 106.436H89.8577V118.294H144.157V106.436Z" fill="#372C24"/>
<path d="M170.059 106.436H89.8577V118.294H170.059V106.436Z" fill="#372C24"/>
<path fill-rule="evenodd" clip-rule="evenodd" d="M94.8508 118.294H105.461L77.9992 240H72.382L94.8508 118.294Z" fill="#372C24"/>
<path fill-rule="evenodd" clip-rule="evenodd" d="M169.435 118.294H158.824L186.286 240H191.904L169.435 118.294Z" fill="#372C24"/>
<path fill-rule="evenodd" clip-rule="evenodd" d="M248.7 118.294H238.089L265.551 240H271.168L248.7 118.294Z" fill="#372C24"/>
<path d="M224.671 47.4546H205.01V106.435H224.671V47.4546Z" fill="#013662"/>
<path d="M210.628 47.4546H205.01V106.435H210.628V47.4546Z" fill="#372C24"/>
</svg>
