<svg width="526" height="142" viewBox="0 0 526 142" fill="none" xmlns="http://www.w3.org/2000/svg">
<path fill-rule="evenodd" clip-rule="evenodd" d="M70.9496 16.4348L79.4469 7.93755C80.0317 7.35984 80.7968 7.07275 81.5562 7.07275C82.3206 7.07346 83.0921 7.36408 83.6776 7.94957L94.9913 19.2633C95.5768 19.8488 95.8674 20.6202 95.8681 21.3846C95.8681 22.144 95.581 22.9091 95.004 23.4932L86.506 31.9912C85.9205 32.5767 85.1491 32.8687 84.3847 32.868C83.6203 32.8673 82.8488 32.5767 82.2633 31.9912L70.9496 20.6775C70.3642 20.092 70.0721 19.3206 70.0728 18.5562C70.0735 17.7918 70.3642 17.0203 70.9496 16.4348ZM81.2783 20.8521L79.4908 10.7221L72.3638 17.8491C72.1715 18.0414 72.0746 18.2952 72.0739 18.5562C72.0732 18.8171 72.1715 19.0709 72.3638 19.2633L83.6776 30.577C83.8699 30.7693 84.1237 30.8662 84.3847 30.8669C84.6456 30.8676 84.8994 30.7693 85.0918 30.577L92.2187 23.4501L82.0894 21.6632C81.6665 21.5882 81.3526 21.2587 81.2783 20.8521ZM83.1267 19.8141L93.8175 21.7014L93.8168 21.7007C93.85 21.5996 93.867 21.4921 93.867 21.3846C93.8677 21.1237 93.7694 20.8698 93.5771 20.6775L82.2633 9.36378C82.071 9.17145 81.8172 9.07316 81.5555 9.07316C81.4481 9.07316 81.3413 9.08942 81.2395 9.12336L83.1267 19.8141Z" fill="#DCEEFC"/>
<path fill-rule="evenodd" clip-rule="evenodd" d="M3.92764 40.6426L0.817416 29.035C0.609496 28.2398 0.743418 27.4336 1.12313 26.7759C1.50594 26.1143 2.14335 25.5915 2.94314 25.3772L18.3979 21.2361C19.1977 21.0218 20.0111 21.1559 20.6735 21.5374C21.3312 21.9172 21.8502 22.5483 22.0675 23.3401L25.178 34.9486C25.3923 35.7483 25.2595 36.5625 24.8767 37.2241C24.4939 37.8857 23.8565 38.4085 23.0567 38.6228L7.60188 42.7639C6.80209 42.9782 5.98798 42.8454 5.32636 42.4626C4.66473 42.0798 4.14195 41.4424 3.92764 40.6426ZM12.9175 33.9063L3.25086 30.3894L5.8595 40.1249C5.92989 40.3877 6.1013 40.5985 6.32691 40.7296C6.55252 40.8606 6.82151 40.9024 7.08424 40.832L22.5391 36.6909C22.8018 36.6205 23.0126 36.4491 23.1437 36.2235C23.2748 35.9979 23.3166 35.7289 23.2462 35.4662L20.6375 25.7306L14.0254 33.6094C13.7491 33.9382 13.3067 34.0453 12.9175 33.9063ZM12.9427 31.7865L19.9225 23.4717C19.8516 23.3924 19.766 23.3242 19.6729 23.2705C19.4473 23.1394 19.1783 23.0976 18.9156 23.168L3.46077 27.3091C3.19804 27.3795 2.986 27.5502 2.85518 27.7768C2.80144 27.8698 2.76214 27.9704 2.74062 28.0756L12.9427 31.7865Z" fill="#DCEEFC"/>
<path fill-rule="evenodd" clip-rule="evenodd" d="M358.165 27.8015C357.822 28.5554 357.821 29.3797 358.089 30.0957C358.357 30.8116 358.901 31.4313 359.655 31.7738L374.222 38.392C374.976 38.7344 375.8 38.7355 376.516 38.4677C377.232 38.1998 377.852 37.6554 378.194 36.9015L383.166 25.9599C383.501 25.2103 383.501 24.3931 383.234 23.6821C382.965 22.9667 382.421 22.3465 381.668 22.004L367.101 15.3858C366.347 15.0433 365.522 15.0422 364.806 15.3101C364.095 15.5769 363.48 16.1144 363.135 16.8607L363.128 16.8762L358.165 27.8015ZM364.155 19.4525L369.387 28.3089C369.599 28.6635 370.009 28.8617 370.431 28.7833L380.543 26.8979L376.374 36.0743C376.261 36.3219 376.058 36.5031 375.813 36.5941C375.569 36.6851 375.297 36.6836 375.049 36.5711L360.482 29.9529C360.235 29.8404 360.054 29.6372 359.963 29.3927C359.872 29.1481 359.873 28.8764 359.986 28.6288L364.155 19.4525ZM381.425 24.6991L370.753 26.6877L365.23 17.3413C365.314 17.2737 365.408 17.221 365.508 17.1832C365.753 17.0913 366.026 17.0942 366.273 17.2067L380.84 23.8249C381.088 23.9374 381.269 24.1405 381.36 24.3851C381.398 24.4857 381.42 24.5923 381.424 24.6987L381.425 24.6991Z" fill="#DCEEFC"/>
<path fill-rule="evenodd" clip-rule="evenodd" d="M155.499 40.8513L154.516 28.8917L154.515 28.8747C154.452 28.0551 154.728 27.2859 155.219 26.7067C155.714 26.1242 156.435 25.7238 157.26 25.656L173.206 24.3455C174.032 24.2777 174.808 24.555 175.391 25.0489C175.97 25.5401 176.368 26.2539 176.441 27.0718L177.425 39.0494C177.493 39.8746 177.216 40.6518 176.721 41.2343C176.227 41.8168 175.506 42.2172 174.681 42.285L158.734 43.5955C157.909 43.6633 157.132 43.3871 156.549 42.8921C155.967 42.3972 155.567 41.6766 155.499 40.8513ZM165.548 35.8313L156.667 30.6424L157.492 40.6875C157.514 40.9586 157.645 41.1967 157.844 41.366C158.042 41.5353 158.3 41.6245 158.571 41.6023L174.517 40.2917C174.788 40.2695 175.026 40.1385 175.195 39.94C175.365 39.7415 175.454 39.4843 175.432 39.2132L174.606 29.1681L166.692 35.7374C166.361 36.0114 165.906 36.0377 165.548 35.8313ZM165.952 33.7503L174.307 26.8177C174.251 26.7269 174.179 26.6446 174.097 26.575C173.898 26.4057 173.641 26.3165 173.37 26.3388L157.424 27.6493C157.153 27.6716 156.914 27.8016 156.744 28.0011C156.675 28.0831 156.618 28.175 156.578 28.2747L165.952 33.7503Z" fill="#DCEEFC"/>
<path fill-rule="evenodd" clip-rule="evenodd" d="M439.505 24.7413L447.447 33.7207C447.996 34.3409 448.748 34.6782 449.511 34.7256C450.274 34.7731 451.062 34.5288 451.682 33.9802L463.666 23.3797C464.287 22.8311 464.624 22.0789 464.671 21.316C464.719 20.5531 464.474 19.7652 463.926 19.145L455.964 10.1431C455.416 9.53148 454.67 9.19814 453.912 9.15169C453.149 9.10564 452.361 9.34853 451.741 9.89711L439.756 20.4976C439.136 21.0462 438.799 21.7984 438.751 22.5613C438.705 23.3194 438.945 24.1006 439.485 24.7196L439.505 24.7413ZM442.267 24.8462L452.488 23.6815C452.898 23.6323 453.246 23.3391 453.347 22.9216L455.75 12.9206L462.428 20.4701C462.608 20.6738 462.691 20.9332 462.674 21.1936C462.657 21.454 462.545 21.7014 462.341 21.8816L450.357 32.4822C450.153 32.6624 449.894 32.7449 449.633 32.7283C449.373 32.7116 449.125 32.5994 448.945 32.3957L442.267 24.8462ZM454.102 11.2178L451.565 21.7731L440.779 23.003C440.751 22.8993 440.741 22.7917 440.748 22.6844C440.764 22.4233 440.878 22.1759 441.081 21.9957L453.066 11.3952C453.27 11.215 453.529 11.1324 453.789 11.1491C453.897 11.1556 454.003 11.1791 454.102 11.2185L454.102 11.2178Z" fill="#DCEEFC"/>
<path fill-rule="evenodd" clip-rule="evenodd" d="M501.286 33.6492L504.376 22.0665L504.38 22.0549L504.384 22.0385C504.601 21.2456 505.119 20.6139 505.776 20.2335C506.438 19.8512 507.252 19.7164 508.052 19.9299L523.511 24.0551C524.311 24.2686 524.949 24.7907 525.332 25.4519C525.712 26.1092 525.847 26.9152 525.64 27.7097L522.542 39.3214C522.328 40.1214 521.807 40.7606 521.145 41.1429C520.483 41.5251 519.67 41.66 518.87 41.4465L503.411 37.3213C502.611 37.1078 501.972 36.5864 501.589 35.9245C501.207 35.2625 501.072 34.4492 501.286 33.6492ZM512.438 32.2989L505.817 24.4267L503.218 34.1649C503.148 34.4277 503.191 34.6959 503.321 34.9221C503.451 35.1483 503.664 35.3188 503.926 35.3889L519.385 39.5141C519.648 39.5843 519.916 39.541 520.143 39.4109C520.369 39.2808 520.539 39.0686 520.609 38.8058L523.208 29.0675L513.546 32.5946C513.143 32.7416 512.706 32.6136 512.438 32.2989ZM513.518 30.4747L523.716 26.7532L523.715 26.753C523.693 26.6488 523.654 26.5473 523.6 26.4543C523.47 26.2281 523.258 26.0576 522.995 25.9875L507.536 21.8622C507.273 21.7921 507.004 21.8342 506.778 21.9652C506.685 22.0191 506.6 22.0866 506.529 22.167L513.518 30.4747Z" fill="#DCEEFC"/>
<path fill-rule="evenodd" clip-rule="evenodd" d="M470.611 64.953L468.616 76.7738C468.478 77.5903 468.688 78.3874 469.13 79.0107C469.573 79.6341 470.258 80.0935 471.074 80.2313L486.851 82.8941C487.668 83.0319 488.465 82.8216 489.088 82.3792C489.712 81.9367 490.171 81.2516 490.309 80.4352L492.309 68.5848C492.441 67.7744 492.231 66.9845 491.791 66.3656C491.347 65.7431 490.663 65.2829 489.847 65.1451L474.07 62.4823C473.254 62.3445 472.457 62.5548 471.833 62.9972C471.214 63.4374 470.757 64.1147 470.615 64.9244L470.611 64.953ZM472.265 67.1683L479.593 74.3875C479.889 74.6758 480.336 74.7623 480.724 74.5783L490.014 70.1639L488.337 80.1023C488.291 80.3705 488.141 80.5978 487.928 80.7484C487.715 80.8991 487.452 80.9672 487.184 80.922L471.407 78.2592C471.139 78.2139 470.912 78.064 470.761 77.851C470.611 77.6379 470.542 77.3749 470.588 77.1067L472.265 67.1683ZM490.303 67.8123L480.497 72.4703L472.764 64.8519C472.827 64.7652 472.904 64.6901 472.992 64.6278C473.205 64.4762 473.469 64.4091 473.737 64.4544L489.514 67.1172C489.782 67.1625 490.01 67.3124 490.16 67.5254C490.222 67.613 490.271 67.7104 490.302 67.8121L490.303 67.8123Z" fill="#DCEEFC"/>
<path fill-rule="evenodd" clip-rule="evenodd" d="M403.296 74.2361L399.581 62.8256L399.576 62.8095C399.326 62.0263 399.417 61.2142 399.761 60.5373C400.109 59.8564 400.717 59.3006 401.505 59.0443L416.719 54.0908C417.506 53.8344 418.325 53.9252 419.007 54.2712C419.684 54.6156 420.236 55.2184 420.494 55.9975L424.215 67.4251C424.471 68.2124 424.382 69.0324 424.035 69.7134C423.687 70.3943 423.079 70.9501 422.291 71.2065L407.077 76.1599C406.29 76.4162 405.47 76.3267 404.789 75.9795C404.108 75.6322 403.552 75.0234 403.296 74.2361ZM411.917 67.0333L402.077 64.0331L405.198 73.6169C405.282 73.8755 405.464 74.077 405.696 74.1959C405.929 74.3149 406.2 74.3424 406.458 74.2582L421.672 69.3047C421.931 69.2205 422.132 69.0382 422.251 68.8059C422.37 68.5737 422.398 68.3029 422.313 68.0443L419.193 58.4604L413.007 66.6782C412.749 67.0211 412.313 67.1515 411.917 67.0333ZM411.83 64.9152L418.359 56.2425C418.284 56.1671 418.195 56.1035 418.099 56.0548C417.867 55.9358 417.596 55.9083 417.338 55.9925L402.124 60.946C401.865 61.0302 401.663 61.2119 401.544 61.4451C401.495 61.5409 401.461 61.6434 401.445 61.7495L411.83 64.9152Z" fill="#DCEEFC"/>
<path fill-rule="evenodd" clip-rule="evenodd" d="M361.489 123.422C362.126 123.95 362.921 124.169 363.682 124.099C364.443 124.029 365.185 123.666 365.713 123.029L375.933 110.718C376.461 110.081 376.679 109.286 376.61 108.525C376.54 107.764 376.177 107.022 375.54 106.494L366.293 98.8177C365.658 98.2972 364.87 98.0821 364.114 98.1523C363.352 98.2237 362.611 98.5844 362.082 99.2215L351.863 111.533C351.334 112.17 351.116 112.965 351.186 113.726C351.256 114.482 351.613 115.218 352.242 115.746L352.255 115.757L361.489 123.422ZM355.011 115.445L364.932 112.729C365.33 112.617 365.629 112.274 365.665 111.846L366.508 101.595L374.263 108.032C374.472 108.206 374.594 108.45 374.617 108.71C374.64 108.97 374.567 109.231 374.394 109.441L364.175 121.752C364.001 121.961 363.757 122.083 363.497 122.106C363.237 122.129 362.976 122.056 362.766 121.883L355.011 115.445ZM364.619 100.165L363.728 110.984L353.257 113.852C353.214 113.754 353.188 113.649 353.178 113.542C353.154 113.281 353.228 113.02 353.402 112.81L363.621 100.499C363.795 100.29 364.039 100.168 364.299 100.145C364.406 100.135 364.514 100.142 364.618 100.166L364.619 100.165Z" fill="#DCEEFC"/>
<path fill-rule="evenodd" clip-rule="evenodd" d="M424.598 123.544L432.966 114.919C433.542 114.333 434.303 114.034 435.062 114.023C435.826 114.012 436.602 114.291 437.196 114.868L448.679 126.009C449.273 126.586 449.576 127.353 449.588 128.117C449.599 128.877 449.324 129.646 448.756 130.239L440.387 138.864C439.81 139.458 439.043 139.762 438.279 139.773C437.514 139.783 436.739 139.504 436.145 138.928L424.662 127.786C424.067 127.209 423.764 126.442 423.753 125.678C423.742 124.914 424.021 124.138 424.598 123.544ZM434.992 127.805L433.052 117.703L426.033 124.936C425.844 125.132 425.751 125.387 425.754 125.648C425.757 125.909 425.859 126.161 426.054 126.35L437.537 137.492C437.732 137.682 437.988 137.775 438.249 137.772C438.51 137.768 438.762 137.666 438.951 137.471L445.97 130.238L435.815 128.604C435.391 128.535 435.072 128.21 434.992 127.805ZM436.824 126.739L447.542 128.465C447.574 128.363 447.589 128.255 447.587 128.147C447.584 127.887 447.482 127.634 447.286 127.445L435.803 116.303C435.608 116.114 435.353 116.019 435.091 116.023C434.984 116.025 434.877 116.042 434.776 116.078L436.824 126.739Z" fill="#DCEEFC"/>
<path fill-rule="evenodd" clip-rule="evenodd" d="M499.668 113.615C499.092 114.209 498.813 114.984 498.824 115.749C498.835 116.513 499.138 117.28 499.732 117.857L511.215 128.999C511.81 129.575 512.585 129.854 513.35 129.843C514.114 129.832 514.881 129.529 515.457 128.935L523.826 120.309C524.395 119.717 524.67 118.947 524.659 118.188C524.646 117.424 524.344 116.657 523.75 116.08L512.267 104.938C511.673 104.362 510.897 104.083 510.133 104.094C509.373 104.105 508.613 104.404 508.037 104.99L499.668 113.615ZM508.123 107.774L510.063 117.876C510.143 118.281 510.462 118.606 510.886 118.674L521.041 120.308L514.022 127.542C513.833 127.737 513.58 127.839 513.319 127.842C513.059 127.846 512.803 127.753 512.608 127.563L501.125 116.421C500.93 116.232 500.828 115.98 500.825 115.719C500.821 115.458 500.914 115.202 501.104 115.007L508.123 107.774ZM522.612 118.535L511.895 116.81L509.847 106.149C509.948 106.113 510.055 106.095 510.162 106.094C510.424 106.09 510.679 106.184 510.874 106.374L522.357 117.516C522.552 117.705 522.655 117.957 522.658 118.218C522.659 118.326 522.644 118.433 522.612 118.535Z" fill="#DCEEFC"/>
<path fill-rule="evenodd" clip-rule="evenodd" d="M107.452 66.9536L114.021 56.891C114.474 56.2055 115.164 55.7672 115.907 55.6111C116.656 55.4547 117.47 55.5805 118.164 56.0332L131.561 64.7796C132.255 65.2323 132.698 65.9275 132.855 66.6754C133.012 67.4186 132.888 68.2264 132.443 68.9166L125.874 78.98C125.421 79.6733 124.726 80.1177 123.978 80.2741C123.23 80.4305 122.415 80.3047 121.721 79.8521L108.324 71.1056C107.63 70.653 107.186 69.958 107.03 69.2098C106.873 68.4616 106.999 67.6469 107.452 66.9536ZM118.468 69.1534L114.636 59.6071L109.126 68.0469C108.978 68.2746 108.935 68.543 108.988 68.7985C109.041 69.054 109.189 69.2822 109.417 69.4309L122.815 78.1774C123.043 78.326 123.311 78.3687 123.566 78.3157C123.822 78.2628 124.05 78.1144 124.199 77.8867L129.709 69.4469L119.428 69.7804C118.999 69.794 118.624 69.536 118.468 69.1534ZM120.063 67.7576L130.914 67.407L130.913 67.4064C130.925 67.3006 130.919 67.192 130.897 67.0868C130.844 66.8313 130.696 66.603 130.468 66.4544L117.07 57.7079C116.842 57.5592 116.574 57.5152 116.318 57.569C116.213 57.591 116.111 57.6289 116.019 57.6831L120.063 67.7576Z" fill="#DCEEFC"/>
<path fill-rule="evenodd" clip-rule="evenodd" d="M46.1704 82.8501C46.3499 83.6584 46.8447 84.3179 47.4891 84.7289C48.1336 85.14 48.9412 85.3079 49.7495 85.1284L65.3689 81.6595C66.1772 81.48 66.8367 80.9853 67.2477 80.3408C67.6588 79.6964 67.8267 78.8888 67.6472 78.0805L65.0416 66.3483C64.8587 65.5479 64.3675 64.8949 63.7268 64.4871C63.0816 64.0772 62.2748 63.9081 61.4665 64.0877L45.847 67.5565C45.0387 67.736 44.3793 68.2307 43.9682 68.8752C43.5604 69.5158 43.3918 70.3154 43.5651 71.119L46.1704 82.8501ZM45.9377 72.5773L55.4432 76.509C55.826 76.6647 56.2726 76.5767 56.5629 76.2603L63.5096 68.6748L65.6947 78.5141C65.7537 78.7796 65.7003 79.0465 65.5596 79.2663C65.4189 79.486 65.2008 79.6481 64.9353 79.7071L49.3159 83.1759C49.0503 83.2349 48.7834 83.1815 48.5637 83.0408C48.3439 82.9001 48.1818 82.6821 48.1228 82.4165L45.9377 72.5773ZM62.8929 66.3871L55.5601 74.3923L45.528 70.2436C45.554 70.1395 45.5977 70.0406 45.6554 69.95C45.7959 69.7293 46.0151 69.5679 46.2806 69.5089L61.9001 66.0401C62.1656 65.9811 62.4325 66.0345 62.6523 66.1752C62.7429 66.2329 62.8255 66.3048 62.8929 66.3871Z" fill="#DCEEFC"/>
<path fill-rule="evenodd" clip-rule="evenodd" d="M9.5811 125.917L1.98843 116.602C1.47295 115.962 1.26485 115.172 1.3418 114.416C1.41994 113.656 1.78723 112.918 2.42902 112.395L14.8308 102.285C15.4726 101.762 16.2695 101.551 17.03 101.628C17.7855 101.705 18.5176 102.068 19.0402 102.701L26.6335 112.017C27.1567 112.658 27.369 113.455 27.2909 114.216C27.2127 114.976 26.8454 115.714 26.2037 116.237L13.8019 126.347C13.1601 126.87 12.363 127.082 11.6027 127.004C10.8423 126.926 10.1043 126.559 9.5811 125.917ZM15.0221 116.089L4.76313 116.841L11.1313 124.653C11.3032 124.864 11.5459 124.986 11.8054 125.013C12.0649 125.04 12.3274 124.968 12.5383 124.796L24.94 114.687C25.1508 114.515 25.2729 114.273 25.3001 114.013C25.3272 113.754 25.2551 113.491 25.0833 113.28L18.7151 105.468L15.9112 115.364C15.7938 115.777 15.4341 116.056 15.0221 116.089ZM14.1767 114.145L17.1374 103.7L17.1366 103.701C17.0394 103.658 16.9342 103.63 16.8273 103.619C16.5678 103.592 16.3053 103.664 16.0944 103.836L3.69268 113.945C3.48185 114.117 3.35834 114.359 3.33184 114.62C3.32095 114.727 3.32631 114.834 3.34976 114.939L14.1767 114.145Z" fill="#DCEEFC"/>
<path fill-rule="evenodd" clip-rule="evenodd" d="M98.148 140.484C98.6711 141.126 99.4092 141.493 100.17 141.571C100.93 141.649 101.727 141.437 102.369 140.914L114.771 130.805C115.412 130.281 115.78 129.543 115.858 128.783C115.936 128.023 115.724 127.226 115.2 126.584L107.607 117.268C107.084 116.635 106.352 116.272 105.597 116.195C104.836 116.118 104.039 116.329 103.398 116.853L90.9959 126.962C90.3541 127.485 89.9868 128.223 89.9087 128.983C89.8318 129.739 90.0398 130.529 90.5553 131.169L98.148 140.484ZM93.33 131.408L103.589 130.656C104.001 130.623 104.361 130.344 104.478 129.931L107.282 120.035L113.65 127.847C113.822 128.058 113.894 128.321 113.867 128.58C113.84 128.84 113.718 129.082 113.507 129.254L101.105 139.364C100.894 139.535 100.632 139.607 100.372 139.58C100.113 139.553 99.8701 139.431 99.6982 139.22L93.33 131.408ZM105.704 118.267L102.744 128.712L91.9167 129.506C91.8932 129.402 91.8878 129.294 91.8987 129.187C91.9252 128.926 92.0487 128.684 92.2596 128.512L104.661 118.403C104.872 118.231 105.135 118.159 105.394 118.186C105.501 118.197 105.606 118.225 105.704 118.268L105.704 118.267Z" fill="#DCEEFC"/>
<path fill-rule="evenodd" clip-rule="evenodd" d="M156.301 107.068L165.66 99.5311C166.304 99.0195 167.095 98.8161 167.85 98.8976C168.61 98.9803 169.346 99.352 169.865 99.9969L179.9 112.459C180.419 113.104 180.625 113.902 180.544 114.662C180.463 115.417 180.095 116.147 179.459 116.666L170.098 124.203C169.453 124.723 168.655 124.93 167.895 124.847C167.135 124.765 166.399 124.393 165.88 123.748L155.845 111.286C155.326 110.641 155.118 109.843 155.201 109.083C155.284 108.323 155.656 107.587 156.301 107.068ZM166.096 112.568L165.405 102.304L157.555 108.625C157.343 108.796 157.219 109.038 157.191 109.297C157.162 109.557 157.233 109.82 157.403 110.032L167.438 122.494C167.608 122.706 167.85 122.829 168.11 122.858C168.369 122.887 168.632 122.816 168.844 122.645L176.694 116.324L166.815 113.461C166.403 113.341 166.126 112.98 166.096 112.568ZM168.045 111.734L178.471 114.757C178.515 114.66 178.543 114.554 178.555 114.448C178.583 114.188 178.513 113.925 178.342 113.714L168.308 101.251C168.137 101.039 167.895 100.914 167.635 100.886C167.528 100.875 167.42 100.88 167.315 100.902L168.045 111.734Z" fill="#DCEEFC"/>
<path d="M209 50L263.5 0L318 50V123H209V50Z" fill="#FFB800"/>
<path d="M221 16H306V98H221V16Z" fill="#FFF8E4"/>
<path d="M209 50L263.5 92L318 50V123H209V50Z" fill="#DCEEFC"/>
<path d="M286 48C284.667 45.3333 283.333 45.3333 282 48C280.667 50.6667 279.333 50.6667 278 48C276.667 45.3333 275.333 45.3333 274 48C272.667 50.6667 271.333 50.6667 270 48C268.667 45.3333 267.333 45.3333 266 48C264.667 50.6667 263.333 50.6667 262 48C260.667 45.3333 259.333 45.3333 258 48C256.667 50.6667 255.333 50.6667 254 48C252.667 45.3333 251.333 45.3333 250 48C248.667 50.6667 247.333 50.6667 246 48C244.667 45.3333 243.333 45.3333 242 48C240.667 50.6667 239.333 50.6667 238 48C236.667 45.3333 235.333 45.3333 234 48C232.667 50.6667 231.333 50.6667 230 48" stroke="#013662" stroke-width="1.5"/>
<path d="M230 36C231.333 33.3333 232.667 33.3333 234 36C235.333 38.6667 236.667 38.6667 238 36C239.333 33.3333 240.667 33.3333 242 36C243.333 38.6667 244.667 38.6667 246 36C247.333 33.3333 248.667 33.3333 250 36C251.333 38.6667 252.667 38.6667 254 36C255.333 33.3333 256.667 33.3333 258 36C259.333 38.6667 260.667 38.6667 262 36C263.333 33.3333 264.667 33.3333 266 36C267.333 38.6667 268.667 38.6667 270 36C271.333 33.3333 272.667 33.3333 274 36C275.333 38.6667 276.667 38.6667 278 36C279.333 33.3333 280.667 33.3333 282 36C283.333 38.6667 284.667 38.6667 286 36C287.333 33.3333 288.667 33.3333 290 36C291.333 38.6667 292.667 38.6667 294 36" stroke="#013662" stroke-width="1.5"/>
</svg>
