<svg width="378" height="362" viewBox="0 0 378 362" fill="none" xmlns="http://www.w3.org/2000/svg">
<path fill-rule="evenodd" clip-rule="evenodd" d="M310.299 268.968C310.76 271.424 312.399 273.178 313.842 275.075C315.159 276.802 316.309 278.657 317.552 280.487C315.478 283.639 312.393 285.014 309.759 286.881C300.626 293.353 291.437 299.748 282.224 306.105C281.237 306.787 280.513 307.432 280.449 308.653C289.714 321.965 298.981 335.276 308.244 348.587C309.787 348.76 311.001 348.199 312.288 347.295C330.157 334.784 348.071 322.34 365.978 309.881C368.088 308.414 370.267 307.037 371.998 305.093C367.464 296.989 360.73 292.759 351.278 293.402C347.504 293.66 344.34 295.536 341.094 297.273C337.122 299.4 332.614 298.976 330.599 296.005C329.667 294.629 328.286 293.67 327.565 292.364C325.201 288.085 321.464 284.744 319.485 280.238C317.063 276.701 314.656 273.158 312.207 269.642C311.776 269.019 311.067 268.825 310.299 268.968Z" fill="#FFB800"/>
<path fill-rule="evenodd" clip-rule="evenodd" d="M371.997 305.091C370.267 307.035 368.087 308.412 365.978 309.881C348.073 322.337 330.156 334.782 312.29 347.295C311.002 348.196 309.788 348.758 308.246 348.587C308.069 350.141 308.536 351.425 309.643 352.575C310.909 353.888 312.405 355.018 313.052 356.834C315.441 356.628 317.327 355.886 319.182 354.554C325.932 349.698 373.122 316.79 377.601 313.045C376.247 310.081 376.075 306.297 371.997 305.091Z" fill="#FFB8A8"/>
<path fill-rule="evenodd" clip-rule="evenodd" d="M317.56 281.825C324.003 277.954 330.807 274.776 337.303 270.635C335.298 267.591 333.713 264.914 331.862 262.417C314.903 239.529 298.798 216.1 282.203 192.984C268.324 173.655 253.137 155.731 229.249 146.58C182.536 128.681 124.704 136.536 75.4238 136.557L75.0605 136.421C75.3772 139.216 76.6844 141.874 76.3755 144.756C77.2069 145.257 77.1972 145.954 76.9058 146.72C79.7126 147.99 79.4154 151.745 83.3623 153.087H86.1807H84.6385C84.8211 153.252 84.9998 153.427 85.1862 153.584C85.4096 153.776 85.6408 153.961 85.9127 154.165C85.9826 154.214 86.0506 154.262 86.1225 154.309C86.239 154.386 86.3594 154.462 86.4779 154.534C86.7227 154.68 86.9732 154.814 87.2335 154.932C87.2996 154.961 87.3637 154.99 87.4569 155.029C87.4724 155.035 87.4783 155.035 87.5132 155.047C87.655 155.097 87.7929 155.144 87.9347 155.187C88.0085 155.208 88.0726 155.251 88.1348 155.286C87.5404 155.36 86.9286 155.482 86.2818 155.69C89.9043 158.766 93.9387 160.427 97.6253 162.533C110.888 170.112 124.239 177.555 137.58 185.018C151.38 192.737 165.183 200.454 179.052 208.063C180.905 209.076 181.913 211.394 184.52 211.219C184.978 210.263 185.868 210.211 186.816 210.213C191.221 210.226 195.626 210.219 200.302 210.219C207.955 221.069 215.553 231.95 223.307 242.74C224.815 244.838 225.842 247.38 228.416 248.703C228.41 248.231 228.429 247.769 228.468 247.314C228.429 247.769 228.41 248.231 228.416 248.703C231.382 254.851 235.915 260.072 239.833 265.647C249.096 278.818 258.599 291.842 267.93 304.974C273.507 312.82 274.466 309.296 282.026 305.085C292.072 299.489 301.658 293.205 310.777 286.351C312.972 284.7 315.243 283.22 317.56 281.825Z" fill="#013662"/>
<path fill-rule="evenodd" clip-rule="evenodd" d="M89.2704 275.545C77.9287 280.824 66.5502 286.044 55.2629 291.42C51.7491 293.093 47.6196 293.778 44.7896 296.583C45.3956 297.605 46.0327 298.613 46.6037 299.65C51.1548 307.93 55.6553 316.252 60.4569 324.392C66.9853 335.47 73.3991 346.582 79.4419 357.877C91.5061 355.335 98.0772 342.185 92.6385 332.44C89.7074 327.182 91.3662 324.802 96.6262 321.03C101.694 317.398 106.874 317.254 112.363 316.31C110.042 311.947 108.385 307.087 105.886 302.789C101.288 294.887 96.7797 286.943 92.2364 279.016C91.4808 277.695 90.8845 276.267 89.2704 275.545Z" fill="#FFB800"/>
<path fill-rule="evenodd" clip-rule="evenodd" d="M79.443 357.877C73.4002 346.584 66.9864 335.47 60.458 324.394C55.6565 316.252 51.1559 307.931 46.6049 299.65C46.0338 298.613 45.3967 297.607 44.7888 296.583C41.6557 297.09 38.9985 298.446 36.2034 300.367C47.5741 320.951 59.0071 341.365 71.1198 361.626C74.4336 360.939 77.2287 359.96 79.443 357.877Z" fill="#FFB8A8"/>
<path fill-rule="evenodd" clip-rule="evenodd" d="M277.022 228.452C276.921 226.552 276.016 224.891 274.94 223.283C271.257 215.614 264.15 210.805 256.173 206.716C254.291 205.753 252.432 204.757 250.561 203.774C247.955 203.933 246.948 201.82 245.095 200.893C231.225 193.949 217.422 186.904 203.621 179.857C190.281 173.049 176.929 166.252 163.666 159.334C160.422 157.64 156.905 156.261 153.64 154.039C153.601 154.035 153.562 154.043 153.523 154.031C148.117 152.564 144.324 146.819 142.444 141.895C142.333 139.719 141.37 137.653 141.101 135.499C115.778 135.51 90.4561 135.516 65.1312 135.528C65.135 138.148 65.137 140.768 65.1389 143.389C65.5041 143.387 65.8712 143.387 66.2383 143.387C65.8712 143.387 65.5041 143.389 65.1389 143.389C65.1409 143.8 65.1409 144.212 65.1428 144.624H65.6789C65.1797 146.116 65.102 147.887 65.0807 149.909C65.0127 155.563 64.9427 161.218 64.8748 166.872C64.9738 179.212 69.4433 190.315 77.8519 200.266C84.6561 208.319 93.3658 214.48 103.769 218.806C117.286 224.427 130.921 229.843 144.427 235.485C147.35 236.705 150.796 237.113 153.612 239.731C142.675 245.576 131.281 250.414 120.269 255.805C109.303 261.173 98.1771 266.295 87.4609 271.363C85.9109 274.382 89.9918 275.798 89.2712 278.296C90.8853 278.983 91.4817 280.343 92.2373 281.598C96.7805 289.138 101.289 296.69 105.886 304.207C107.767 307.282 109.62 312.756 112.579 315.885C113.081 318.027 114.584 319.808 115.691 321.718C117.628 325.057 119.768 328.306 121.876 331.68C133.245 326.364 144.361 321.217 155.423 315.98C166.988 310.504 178.493 304.937 190.032 299.427C206.376 291.615 222.713 283.798 239.078 276.023C245.016 273.201 250.996 270.441 257.008 267.741C263.682 264.742 268.87 260.41 273.023 255.078C273.666 254.251 273.928 253.373 274.008 252.419C276.356 250.912 276.708 248.662 277.05 246.409C279.994 240.419 279.567 234.434 277.022 228.452Z" fill="#372C24"/>
<path fill-rule="evenodd" clip-rule="evenodd" d="M252.102 47.3771C252.405 47.3355 252.715 47.3323 253.013 47.3538C254.966 47.503 256.813 48.6696 257.788 50.3666C259.505 53.3563 258.167 57.6271 255.421 59.5376C258.177 62.4137 262.966 63.2545 265.813 65.8574C270.324 69.9799 272.109 76.1771 269.512 84.0902C268.311 87.4562 259.61 91.222 256.471 93.1278C256.072 93.3708 255.656 93.6192 255.191 93.6717C253.767 93.8371 252.858 92.2401 252.316 90.9146C248.94 82.6359 244.392 74.8374 238.856 67.8182C238.406 67.249 237.92 66.5699 238.089 65.8631C238.216 65.3319 238.677 64.959 239.111 64.6308C242.94 61.7113 246.55 59.5477 248.13 54.7344C248.705 52.9782 249.28 51.22 249.856 49.4638C250 49.028 250.147 48.5786 250.436 48.2216C250.838 47.72 251.451 47.4641 252.102 47.3771Z" fill="#FFBA9A"/>
<path fill-rule="evenodd" clip-rule="evenodd" d="M25.6203 111.662C31.5018 91.8963 37.9992 71.7245 55.1505 60.6374C58.6546 58.3725 62.6035 56.4884 67.0826 55.0607C83.4939 49.8376 100.838 52.9979 117.655 53.4252C132.668 53.804 147.439 53.4505 161.061 61.0491C169.699 65.8682 176.461 73.2066 182.958 80.5216C186.25 84.2277 189.407 88.7516 193.264 91.8808C197.679 95.4645 197.586 93.6678 201.102 90.3599C206.442 85.3349 211.575 80.0671 216.589 74.7197C220.337 70.7223 226.12 60.1304 232.967 63.5121C234.319 64.1822 235.434 65.2389 236.523 66.28C239.975 69.5762 243.427 72.8725 246.878 76.1687C250.485 79.6107 254.157 83.1439 256.421 87.5861C257.074 88.872 257.614 90.2608 257.598 91.704C257.567 94.9478 254.941 97.5098 252.855 99.7047C250.12 102.585 247.315 105.405 244.565 108.276C235.395 117.838 225.188 127.288 217.371 138.033C212.807 144.305 206.471 148.056 197.644 149.313C189.741 148.759 183.088 144.057 177.23 137.488C172.947 132.684 168.621 127.921 164.282 123.172C161.578 120.216 158.645 115.305 155.124 113.447C155.902 113.858 158.373 134.085 158.666 136.357L64.5614 136.567C64.5614 136.567 49.941 184.622 46.4252 196.297C46.1378 197.255 45.4696 198.096 44.9762 198.992C34.1163 196.946 5.69519 192.768 2.34456 192.723C1.91335 189.118 18.7364 134.793 25.6203 111.662Z" fill="#FFF8E4"/>
<path fill-rule="evenodd" clip-rule="evenodd" d="M144.969 54.9041C137.564 53.5642 129.954 53.403 122.258 53.2398C121.007 53.2134 119.755 53.1868 118.502 53.1553C114.384 53.0506 110.233 52.7822 106.074 52.513C93.2468 51.6828 80.3221 50.8466 67.9296 54.7908C63.4504 56.2185 59.5016 58.1026 55.9975 60.3674C49.5371 64.543 44.5898 70.0074 40.6157 76.2533C46.9964 78.2484 53.3461 79.9986 59.9949 80.4708C78.1155 81.7582 94.587 75.4354 111.268 69.0319C113.764 68.0739 116.264 67.114 118.776 66.1775C127.707 62.8473 136.434 59.0721 144.969 54.9041ZM39.5648 77.9605C38.2556 80.1571 37.0572 82.441 35.9462 84.7913C62.487 98.0246 72.537 112.275 75.7439 124.481C76.8627 128.743 77.1404 132.721 77.0122 136.272L123.542 136.169C119.172 131.631 115.493 126.467 112.869 119.779C112.711 119.373 112.544 118.951 112.372 118.516C111.249 115.684 109.893 112.26 108.937 108.758C107.84 104.731 107.226 100.454 108.193 96.7345C109.382 92.1668 112.941 87.9114 117.049 84.4502C121.176 80.972 125.98 78.1901 129.863 76.602C132.598 75.4828 136.5 74.3041 140.449 73.7513C144.365 73.2034 148.5 73.2443 151.589 74.7382C156.293 77.0151 159.863 81.6841 162.656 86.6855C165.051 90.9701 166.943 95.6273 168.503 99.4647V99.4649C168.769 100.122 169.027 100.755 169.274 101.357C174.503 114.053 177.547 125.692 178.924 138.15C184.576 144.23 190.967 148.517 198.491 149.043C207.318 147.786 213.654 144.035 218.218 137.763C221.959 132.62 226.248 127.774 230.71 123.069C225.662 119.977 221.192 115.832 217.556 111.702C211.16 104.438 207.768 95.5422 205.989 86.2059C204.655 87.5145 203.309 88.8101 201.949 90.09C201.294 90.7061 200.764 91.2698 200.308 91.7559C198.311 93.8803 197.703 94.527 194.111 91.6108C191.427 89.4338 189.083 86.5818 186.796 83.7999C185.796 82.583 184.805 81.3795 183.805 80.2517C177.308 72.9367 170.546 65.5983 161.908 60.7792C157.41 58.2698 152.785 56.6278 148.069 55.54C138.769 60.1755 129.233 64.3509 119.455 67.9976C116.973 68.9227 114.491 69.8766 112.003 70.8327C95.3543 77.2301 78.4438 83.7286 59.857 82.4084C52.8353 81.9096 46.1398 80.0278 39.5648 77.9605ZM207.663 84.5526C209.322 94.1078 212.603 103.138 219.015 110.418C222.688 114.591 227.136 118.668 232.083 121.63C234.28 119.344 236.508 117.087 238.724 114.843C240.981 112.557 243.227 110.286 245.412 108.006C246.638 106.726 247.877 105.456 249.114 104.185C250.651 102.606 252.187 101.031 253.702 99.4348C253.817 99.3138 253.933 99.1918 254.05 99.0685C256.07 96.9553 258.416 94.499 258.445 91.4341C258.461 89.9909 257.921 88.6021 257.268 87.3162C255.003 82.874 251.332 79.3408 247.725 75.8988L237.37 66.0101C236.281 64.969 235.166 63.9123 233.814 63.2422C228.377 60.557 223.612 66.681 220.003 71.319C219.065 72.5226 218.207 73.6262 217.436 74.4498C214.235 77.8639 210.985 81.2458 207.663 84.5526ZM176.663 135.637C175.177 124.373 172.252 113.688 167.479 102.097C167.225 101.48 166.964 100.839 166.694 100.176C165.133 96.3338 163.291 91.8031 160.961 87.633C158.22 82.7277 154.896 78.4966 150.742 76.4868C148.185 75.2495 144.524 75.1423 140.719 75.6749C136.949 76.2028 133.204 77.3341 130.597 78.3999C126.901 79.9126 122.27 82.59 118.3 85.9356C114.31 89.2982 111.111 93.2314 110.074 97.2232C109.237 100.442 109.74 104.319 110.812 108.247C111.736 111.636 113.049 114.952 114.172 117.79C114.347 118.229 114.516 118.656 114.677 119.07C117.447 126.13 121.437 131.425 126.271 136.161L159.513 136.087C159.486 135.879 159.442 135.518 159.379 135.036C158.779 130.268 156.678 113.552 155.971 113.177C158.422 114.47 160.588 117.244 162.59 119.808C163.464 120.925 164.307 122.005 165.129 122.902C168.99 127.131 172.842 131.369 176.663 135.637ZM75.0679 136.276C75.1961 132.859 74.9358 129.048 73.8656 124.975C70.8452 113.486 61.3061 99.618 35.1342 86.5564C31.6088 94.4145 28.9807 102.94 26.4673 111.392C26.3196 111.887 26.1662 112.398 26.0108 112.922C26.0458 113.384 26.0807 113.839 26.1137 114.278C26.2497 116.026 26.3663 117.547 26.3663 118.561C26.3663 134.261 36.3618 145.554 48.0842 156.927C50.7491 159.512 53.7424 161.939 56.9182 164.221C61.3022 149.795 65.4084 136.297 65.4084 136.297L75.0679 136.276ZM56.3219 166.181C53.0392 176.988 49.6983 187.994 47.888 193.984C37.7798 181.498 25.298 170.411 10.9961 162.939C14.1719 152.147 17.845 139.991 21.0674 129.332C22.2639 125.375 23.3963 121.624 24.42 118.225C24.4219 118.343 24.4239 118.454 24.4239 118.561C24.4239 135.165 35.0371 146.974 46.7323 158.322C49.6206 161.125 52.878 163.741 56.3219 166.181ZM10.4367 164.839C24.4918 172.257 36.793 183.258 46.7595 195.678C46.909 195.864 47.0566 196.049 47.2043 196.235C46.9945 196.81 46.6604 197.348 46.3244 197.886C46.1515 198.162 45.9786 198.44 45.8232 198.722C34.9633 196.676 6.54219 192.498 3.19156 192.454C2.99926 190.853 6.20809 179.261 10.4367 164.839Z" fill="#FFB800"/>
<path d="M166.345 98.4358C167.417 98.4358 168.287 97.5662 168.287 96.4934C168.287 95.4207 167.417 94.551 166.345 94.551C165.272 94.551 164.402 95.4207 164.402 96.4934C164.402 97.5662 165.272 98.4358 166.345 98.4358Z" fill="#013662"/>
<path fill-rule="evenodd" clip-rule="evenodd" d="M17.2448 193.829C16.6368 193.669 16.0249 193.51 15.415 193.355C14.1583 193.032 10.1123 191.278 8.97018 191.752C7.69208 192.283 7.459 195.645 7.10354 197.074C5.8876 201.981 2.81666 208.587 3.22068 213.661C3.35859 215.397 4.4172 217.184 6.10514 217.611C7.48229 217.959 8.90606 217.351 10.1608 216.689C10.3862 216.568 10.662 216.448 10.8815 216.578C11.0738 216.695 11.1185 216.953 11.134 217.178C11.3885 220.981 8.11358 225.263 12.1052 227.986C14.3409 228.749 16.6348 228.598 18.7754 226.968C20.2088 229.398 18.5811 231.554 18.1771 233.761C19.191 235.571 20.3235 237.154 22.6757 237.589C25.1134 236.923 26.6848 235.468 27.3588 232.82C28.532 228.201 30.0218 223.662 31.1698 219.039C31.8963 216.106 31.7292 216.061 35.2857 213.622C37.0377 214.877 37.3078 217.489 39.4755 218.437C41.6121 219.222 43.708 219.445 45.4076 217.192C47.3694 213.218 44.5412 210.23 43.0281 206.952C42.1385 206.889 41.8296 206.371 41.917 205.539C42.1773 203.051 41.9384 201.357 39.829 200.433C37.2437 199.299 34.2796 198.669 31.5758 197.857C26.8247 196.428 22.0464 195.084 17.2448 193.829Z" fill="#FFBA9A"/>
<path d="M36.2044 146.996C37.2771 146.996 38.1468 146.126 38.1468 145.053C38.1468 143.981 37.2771 143.111 36.2044 143.111C35.1316 143.111 34.262 143.981 34.262 145.053C34.262 146.126 35.1316 146.996 36.2044 146.996Z" fill="#013662"/>
<path d="M48.4163 207.824L0.530455 192.844C-1.99077 192.056 5.15724 175.6 7.68041 174.143C10.2036 172.688 46.8624 181.811 51.3279 183.719C54.9 185.247 50.8754 200.425 48.4163 207.824Z" fill="#FFB800"/>
<path d="M222.674 117.86C223.747 117.86 224.617 116.99 224.617 115.917C224.617 114.845 223.747 113.975 222.674 113.975C221.602 113.975 220.732 114.845 220.732 115.917C220.732 116.99 221.602 117.86 222.674 117.86Z" fill="#013662"/>
<path d="M113.9 121.745C114.973 121.745 115.843 120.875 115.843 119.802C115.843 118.73 114.973 117.86 113.9 117.86C112.827 117.86 111.958 118.73 111.958 119.802C111.958 120.875 112.827 121.745 113.9 121.745Z" fill="#013662"/>
<path d="M94.4763 78.012C95.5491 78.012 96.4187 77.1423 96.4187 76.0696C96.4187 74.9968 95.5491 74.1272 94.4763 74.1272C93.4036 74.1272 92.5339 74.9968 92.5339 76.0696C92.5339 77.1423 93.4036 78.012 94.4763 78.012Z" fill="#013662"/>
<path d="M57.5132 101.321C58.5859 101.321 59.4556 100.451 59.4556 99.3782C59.4556 98.3054 58.5859 97.4358 57.5132 97.4358C56.4404 97.4358 55.5708 98.3054 55.5708 99.3782C55.5708 100.451 56.4404 101.321 57.5132 101.321Z" fill="#013662"/>
<path d="M249.868 109.119L215.876 72.2135C214.087 70.2711 228.501 59.5879 231.415 59.5879C234.329 59.5879 261.522 85.8102 264.436 89.695C266.767 92.8028 255.695 103.939 249.868 109.119Z" fill="#FFB800"/>
<path fill-rule="evenodd" clip-rule="evenodd" d="M113.588 18.0981C113.171 15.4541 112.028 12.7953 110.194 10.6187C109.882 10.5352 109.493 10.5278 109.567 10.0643C109.591 10.0568 109.614 10.0587 109.638 10.0494C108.365 7.20339 105.827 5.59392 103.309 4.19229C98.778 1.67262 93.7874 1.22761 88.7671 2.30117C79.8879 4.19792 73.3096 12.8288 73.5943 20.7217C73.6613 22.5757 73.691 24.4316 73.7414 26.2876C73.8736 26.3544 73.9946 26.3989 74.1081 26.4212C73.9946 26.3989 73.8736 26.3544 73.7396 26.2876C73.5273 26.8179 74.0617 27.1665 74.082 27.771C72.9279 28.648 71.7516 29.625 70.7965 30.8266C70.2157 33.6893 70.4391 36.4055 73.1812 38.0261C75.4633 39.3776 77.8087 38.9697 79.8302 37.1528C81.3678 37.3214 82.3972 38.4635 83.5848 39.2274C89.0072 42.7094 94.934 42.7595 100.608 40.833C106.622 38.7898 110.771 34.2899 112.901 28.1622C114.046 24.8656 114.105 21.3965 113.588 18.0981Z" fill="#FFBA9A"/>
<path fill-rule="evenodd" clip-rule="evenodd" d="M70.7406 16.9161C69.4781 19.2839 68.2077 21.6769 66.7471 23.934C63.5285 28.9123 51.9843 39.0821 46.8875 42.1064C50.3119 45.1599 57.4385 48.4503 60.4842 45.02C60.4842 45.9912 59.5033 46.469 58.5418 47.9336C64.402 49.0272 78.8301 50.4606 84.7641 49.876C84.0668 49.9479 82.732 45.9498 80.8793 39.1928C80.1471 36.522 81.4193 41.1352 84.7641 42.1064C79.9081 27.5385 79.5241 15.8555 82.6961 11.693C83.7333 13.7306 87.3339 14.7789 89.6201 14.9129C91.9044 15.045 92.9072 14.4259 95.0769 13.6995C97.7185 12.8176 100.329 11.8445 102.813 10.5781C104.4 9.76808 106.312 8.34819 108.116 9.52528C109.002 10.1041 109.557 11.0637 110.026 12.0174C111.061 14.1307 111.781 16.3936 112.193 18.7109C112.411 19.9307 111.999 24.1068 113.199 24.7187C112.776 24.7362 113.578 24.911 113.199 24.7187C113.199 24.7187 114.446 21.7113 114.446 18.7109C113.475 15.7973 114.037 15.1058 112.193 11.693C110.478 8.52107 110.07 7.64505 107.287 5.34525C101.73 0.755376 94.4534 -1.05105 87.4141 0.601927C78.3995 2.71525 74.5924 9.69622 70.7406 16.9161Z" fill="#372C24"/>
<path d="M80.8796 15.8841L81.8508 9.08569L84.7644 13.9417L80.8796 15.8841Z" fill="#FFB8A8"/>
</svg>
