<svg width="100" height="100" viewBox="0 0 100 100" fill="none" xmlns="http://www.w3.org/2000/svg">
<path d="M43.4147 59.056C45.0947 57.952 45.9347 56.512 45.9347 54.736C45.9347 53.416 45.2627 52.072 43.9187 50.704L46.5827 50.848C47.7107 50.896 48.7187 51.148 49.6067 51.604C50.4947 52.036 51.5027 52.744 52.6307 53.728C53.7587 54.688 54.8027 55.444 55.7627 55.996C56.7227 56.548 57.5507 56.824 58.2467 56.824C59.1347 56.824 59.9267 56.68 60.6227 56.392C61.2947 56.104 61.8347 55.6 62.2427 54.88C62.4347 54.544 62.6267 54.184 62.8187 53.8C62.9867 53.392 63.1427 52.96 63.2867 52.504C63.4547 51.928 63.6467 51.508 63.8627 51.244C64.0787 50.98 64.3667 50.776 64.7267 50.632C64.8947 50.56 65.0387 50.5 65.1587 50.452C65.2547 50.404 65.3027 50.32 65.3027 50.2C65.3027 49.912 65.1107 49.756 64.7267 49.732C64.1507 49.66 63.6707 49.048 63.2867 47.896C62.9987 47.008 62.6507 46.216 62.2427 45.52C61.8107 44.8 61.2587 44.296 60.5867 44.008C59.8907 43.72 59.1107 43.576 58.2467 43.576C57.4547 43.576 56.5547 43.876 55.5467 44.476C54.5387 45.076 53.4467 45.892 52.2707 46.924C51.0707 47.956 50.0147 48.64 49.1027 48.976C48.1907 49.312 47.3507 49.504 46.5827 49.552L43.9187 49.696C45.2627 48.28 45.9347 46.936 45.9347 45.664C45.9347 43.888 45.0947 42.448 43.4147 41.344C42.9107 42.544 42.3107 43.648 41.6147 44.656C40.8947 45.64 39.9827 46.588 38.8787 47.5C37.7507 48.388 36.3587 49.288 34.7027 50.2C36.4787 51.184 37.9307 52.144 39.0587 53.08C40.1627 53.992 41.0507 54.928 41.7227 55.888C42.3707 56.848 42.9347 57.904 43.4147 59.056Z" fill="#372C24"/>
</svg>
