<svg width="100" height="100" viewBox="0 0 100 100" fill="none" xmlns="http://www.w3.org/2000/svg">
<path d="M56.5853 59.056C54.9053 57.952 54.0653 56.512 54.0653 54.736C54.0653 53.416 54.7373 52.072 56.0813 50.704L53.4173 50.848C52.2893 50.896 51.2813 51.148 50.3933 51.604C49.5053 52.036 48.4973 52.744 47.3693 53.728C46.2413 54.688 45.1973 55.444 44.2373 55.996C43.2773 56.548 42.4493 56.824 41.7533 56.824C40.8653 56.824 40.0733 56.68 39.3773 56.392C38.7053 56.104 38.1653 55.6 37.7573 54.88C37.5653 54.544 37.3733 54.184 37.1813 53.8C37.0133 53.392 36.8573 52.96 36.7133 52.504C36.5453 51.928 36.3533 51.508 36.1373 51.244C35.9213 50.98 35.6333 50.776 35.2733 50.632C35.1053 50.56 34.9613 50.5 34.8413 50.452C34.7453 50.404 34.6973 50.32 34.6973 50.2C34.6973 49.912 34.8893 49.756 35.2733 49.732C35.8493 49.66 36.3293 49.048 36.7133 47.896C37.0013 47.008 37.3493 46.216 37.7573 45.52C38.1893 44.8 38.7413 44.296 39.4133 44.008C40.1093 43.72 40.8893 43.576 41.7533 43.576C42.5453 43.576 43.4453 43.876 44.4533 44.476C45.4613 45.076 46.5533 45.892 47.7293 46.924C48.9293 47.956 49.9853 48.64 50.8973 48.976C51.8093 49.312 52.6493 49.504 53.4173 49.552L56.0813 49.696C54.7373 48.28 54.0653 46.936 54.0653 45.664C54.0653 43.888 54.9053 42.448 56.5853 41.344C57.0893 42.544 57.6893 43.648 58.3853 44.656C59.1053 45.64 60.0173 46.588 61.1213 47.5C62.2493 48.388 63.6413 49.288 65.2973 50.2C63.5213 51.184 62.0693 52.144 60.9413 53.08C59.8373 53.992 58.9493 54.928 58.2773 55.888C57.6293 56.848 57.0653 57.904 56.5853 59.056Z" fill="#372C24"/>
</svg>
