<svg width="100" height="100" viewBox="0 0 100 100" fill="none" xmlns="http://www.w3.org/2000/svg">
<path d="M67.1147 17.7591C67.399 17.0715 67.0325 16.3876 66.3051 16.074L64.1296 15.1486C63.7082 14.9744 63.5675 14.8123 63.6729 14.5573C63.7829 14.2911 64.0487 14.2451 64.3515 14.2665L66.4361 14.3751C68.229 14.4671 68.7859 13.9052 69.0976 13.1511C69.5102 12.153 69.5711 10.1526 66.832 9.02016C63.4607 7.62644 60.6875 9.84308 59.1287 13.6136C58.4731 15.1994 59.0183 16.048 59.7058 16.3323C60.97 16.8549 61.5066 15.9341 61.4958 14.735L61.465 11.6058C61.4634 11.3585 61.4996 11.1137 61.5867 10.903C61.9122 10.1157 62.8129 9.69594 63.9552 10.1682L67.4263 11.6031C68.2358 11.9378 68.483 12.5334 68.2583 13.0768C68.0199 13.6535 67.4117 14.0253 66.2893 13.3795L63.0969 11.5533C62.7095 11.3282 62.4556 11.3142 62.3253 11.5979C62.2611 11.7532 62.2757 12.0319 62.3913 12.4433L63.7597 16.8915C64.0625 17.8867 64.5631 18.3403 65.0067 18.5237C66.16 19.0005 66.8259 18.4577 67.1147 17.7591Z" fill="#372C24"/>
<path d="M52.0366 6.34018C51.1674 6.62242 51.1324 7.53501 51.5244 8.12505L51.8307 8.59881C52.2325 9.21384 52.1269 9.84285 51.3533 10.2664L49.3094 11.4055C48.3575 11.9332 49.0133 13.4631 49.9836 12.9973L55.3133 10.4467C56.5226 9.87008 57.346 10.3548 57.3044 11.3391L57.1951 13.8596C57.1372 15.1557 56.5048 15.6162 55.6205 15.5356C54.7361 15.4549 54.1149 14.4705 55.0137 13.3354L56.4722 11.4802C56.758 11.1206 56.4843 10.8185 56.2214 10.7946C55.9944 10.7739 55.8129 10.7814 55.3304 11.3158L53.1374 13.6945C52.1071 14.8176 51.5693 15.1662 50.4937 15.0681C49.0836 14.9396 47.9085 13.2901 48.1842 10.2666C48.4674 7.15949 50.506 5.54994 53.2188 5.79728C55.4893 6.0043 56.9275 6.88251 57.1825 8.18303C57.4147 9.33688 55.7132 9.89269 55.0508 8.83216L53.8833 6.96645C53.5358 6.41662 52.7819 6.09484 52.0366 6.34018Z" fill="#372C24"/>
<path fill-rule="evenodd" clip-rule="evenodd" d="M42.7996 15.924C45.5434 15.3861 46.6684 13.5146 46.0635 10.4294C45.4586 7.34413 43.7195 6.08317 40.9757 6.62111C38.2437 7.15675 37.1095 8.98105 37.7144 12.0663C38.3193 15.1516 40.0677 16.4596 42.7996 15.924ZM45.1713 10.4943L42.799 14.8603C42.4554 15.4779 41.6463 15.343 41.3378 14.7676L38.753 10.004C38.1945 8.96398 38.8163 8.20619 39.8323 8.39831L44.6462 9.3132C45.2553 9.42612 45.477 9.93295 45.1713 10.4943Z" fill="#372C24"/>
<path fill-rule="evenodd" clip-rule="evenodd" d="M26.7665 14.9353C26.1577 13.7371 26.3591 12.5176 27.7498 11.8109L29.9323 10.702C32.2752 9.51153 33.9 10.1397 35.0035 12.3114C35.8188 13.9161 35.7591 15.4675 34.1437 16.2883C33.2236 16.7558 32.4022 16.7021 31.2071 16.1248L29.1559 15.1345C28.7145 14.9281 28.2009 15.1622 28.054 15.6944C27.9283 16.1621 28.2209 16.6057 28.6567 16.7746L30.7227 17.5823C31.4169 17.8623 31.8053 18.1764 32.0716 18.7006C32.4522 19.4495 32.1552 20.0042 31.3314 20.4227C30.5933 20.7978 29.7943 20.8942 29.1093 19.5462L26.7665 14.9353ZM28.6254 13.587C28.407 13.846 28.2902 14.0399 28.4043 14.2646C28.4968 14.4465 28.6853 14.5526 29.0234 14.5558L33.6924 14.5524C35.0501 14.549 35.3013 13.5599 34.3428 13.0509L31.5316 11.5449C30.8693 11.195 30.6495 11.2394 30.1914 11.7683L28.6254 13.587Z" fill="#372C24"/>
<path d="M21.5738 17.5686L23.8205 19.8716C24.0892 20.1462 24.1878 20.626 23.4136 20.4574L19.2829 19.5271C18.3826 19.3277 17.9167 19.2995 17.413 19.7624C16.123 20.9479 17.7083 23.0276 18.7978 23.5747C19.1304 23.7416 19.4495 23.6277 19.5326 23.4698C19.726 23.1128 19.6223 22.7517 19.0485 22.4642L17.7009 21.7958C17.2767 21.5826 17.3756 21.0517 17.9234 21.1513L23.9902 22.2907C24.2851 22.3456 24.5817 22.562 23.9809 23.1141L23.1503 23.8774C21.7454 25.1684 23.6333 26.9212 24.9321 25.7276C25.5683 25.143 25.4555 23.9917 25.2731 23.0837L24.1737 17.5425C24.0557 16.9175 23.9081 16.1894 23.584 15.819C22.5062 14.593 20.4098 16.3729 21.5738 17.5686Z" fill="#372C24"/>
<path d="M12.4459 27.7706C12.2765 28.0468 12.4491 28.2934 13.1576 28.4464L18.9551 29.7355C20.3273 29.9999 20.9769 30.708 20.3057 31.8026C19.7034 32.7846 19.0153 32.6442 17.9184 31.9996L12.8472 29.0443C12.1965 28.6593 11.8615 28.6087 11.6921 28.8849C11.4788 29.2327 11.7537 29.542 12.2038 29.8181L12.6539 30.0941C14.0655 30.9599 14.5587 31.6706 13.9571 32.5827C13.5352 33.2248 12.6714 33.3708 12.0372 32.9818C10.6153 32.1097 10.2824 30.3571 11.418 28.5056L13.5636 25.0071C14.216 23.9433 15.0368 23.9821 15.5585 24.3021C16.7349 25.0236 16.3997 26.9014 14.7791 27.2026L12.7978 27.5641C12.6225 27.5974 12.5024 27.6785 12.4459 27.7706Z" fill="#372C24"/>
<path d="M79.7147 74.2822C78.3238 73.3615 78.1218 70.623 79.6386 68.3316C81.2283 65.93 83.0423 65.9507 84.203 66.7191C84.7534 67.0834 85.248 67.7274 84.8506 68.3278C84.5327 68.8081 83.9237 68.8367 83.5034 68.5585L81.8024 67.4325C81.3221 67.1146 80.8732 67.2492 80.766 68.0416L80.1387 72.6633L80.1327 72.7063C80.0569 73.2401 79.9937 73.686 80.4188 73.8272C80.8553 73.9722 81.1106 73.6952 81.1757 73.249L81.5993 70.4785C81.7883 69.2365 82.8593 69.01 83.593 69.4669L83.9798 69.7085C84.3567 69.9436 84.5127 69.8166 84.8677 69.476L85.4351 68.945C85.8067 68.6009 86.3858 68.5957 86.7961 68.8673C88.5372 70.0198 88.3088 72.4302 87.143 74.1913C85.9971 75.9224 84.124 77.1433 82.3228 75.9511C81.6124 75.4808 81.3009 74.886 81.6917 74.2957C81.95 73.9054 82.7211 73.5667 83.1739 74.6436L83.5429 75.521C83.6435 75.7604 83.8435 75.8496 83.9798 75.7959C84.1958 75.7086 84.3249 75.4919 84.4735 75.1153L86.3977 70.1865C86.5924 69.6967 86.4685 69.4707 86.2385 69.3617C85.9985 69.246 85.8224 69.3164 85.5504 69.5969L81.2583 74.0807C80.7807 74.5849 80.195 74.6001 79.7147 74.2822Z" fill="#372C24"/>
<path d="M76.9407 83.6816C77.3651 84.1871 77.3645 84.8769 76.6201 85.5019C76.0962 85.9417 75.3145 86.0183 74.9067 85.4206L71.1681 79.8477C70.6861 79.1242 70.4144 78.3339 71.3978 77.5083C72.0135 76.9914 72.7456 77.1915 73.1391 77.6602C73.386 77.9543 73.598 78.3561 73.5055 79.1231L73.3298 80.6495C73.2819 81.003 73.3858 81.2762 73.5093 81.4232C73.7253 81.6805 74.0716 81.4212 74.3224 81.0853L77.2361 77.464C77.5711 77.0418 77.5597 76.879 77.444 76.7411C77.3058 76.5765 77.0552 76.5586 76.7549 76.5372C76.6528 76.5299 76.5449 76.5222 76.4337 76.5082C75.8695 76.4334 75.4355 76.2337 75.1886 75.9396C74.7411 75.4066 74.9269 74.5455 75.4784 74.0825C76.0022 73.6427 76.7686 73.5478 77.4097 74.498L80.7264 79.4379C81.2085 80.1614 81.6841 81.2505 80.7007 82.0761C80.0758 82.6008 79.4241 82.5524 79.0075 82.0562C78.6603 81.6426 78.5968 81.1004 78.7642 80.6466L79.3104 79.1696C79.4549 78.7819 79.3852 78.6054 79.2386 78.4308C79.0302 78.1827 78.7016 78.2392 78.3892 78.5015L74.4832 81.7807C74.1063 82.0971 73.9813 82.3587 74.1499 82.6715C74.3076 82.9676 74.5244 82.9881 74.7856 83.0128C74.8396 83.018 74.8956 83.0233 74.9533 83.0312L75.7265 83.1498C76.2892 83.2415 76.7015 83.3967 76.9407 83.6816Z" fill="#372C24"/>
<path fill-rule="evenodd" clip-rule="evenodd" d="M64.3207 81.7412C61.7544 82.8511 61.0538 84.9192 62.3018 87.8048C63.5498 90.6905 65.5176 91.5522 68.0838 90.4423C70.6391 89.3372 71.3588 87.3132 70.1108 84.4275C68.8627 81.5418 66.8759 80.6361 64.3207 81.7412ZM63.1597 87.5515L64.5479 82.7804C64.752 82.1038 65.5713 82.0633 65.9952 82.5598L69.5351 86.6637C70.3023 87.5609 69.8561 88.4338 68.8226 88.4624L63.9242 88.5936C63.305 88.613 62.9805 88.165 63.1597 87.5515Z" fill="#372C24"/>
<path d="M48.5726 90.0454L50.4883 92.2506C50.7697 92.5753 50.9763 92.8704 51.0024 93.1692C51.0611 93.8387 50.5105 94.429 49.59 94.5096C48.6576 94.5913 48.0172 93.7439 47.7764 90.9945C47.5722 88.6634 48.7269 85.0689 51.2971 84.8438C53.0782 84.6877 53.5609 85.9344 52.7618 88.0883L52.0317 90.0676C51.9923 90.1674 51.9908 90.288 51.9981 90.3717C52.0096 90.5032 52.0809 90.6294 52.2722 90.6127C52.4276 90.5991 52.5694 90.4301 52.6743 90.2522L55.6001 85.286C55.9464 84.7015 56.5091 84.3872 56.9992 84.3443C57.9795 84.2584 58.7512 84.8172 58.8548 86.0007C58.8737 86.2158 58.8816 86.444 58.8558 86.6992L58.2589 92.124C58.2161 92.5976 58.4065 92.8459 58.7053 92.8197C58.9803 92.7956 59.2395 92.5922 59.2595 92.1327L59.3558 89.9319C59.3706 89.4127 59.5788 89.1776 59.9614 89.1441C60.1765 89.1252 60.4683 89.2924 60.4955 89.6032C60.64 91.2529 59.6674 93.6269 57.7428 93.7954C56.392 93.9138 55.8002 93.4838 55.7374 92.7665C55.6923 92.2525 55.9378 91.6166 56.3194 90.8846L57.8119 87.9832C58.06 87.5158 58.2043 87.2382 58.1761 86.9154C58.1447 86.5568 57.9075 86.3246 57.4771 86.3623C57.1663 86.3895 56.982 86.6225 56.6497 87.2298L54.2812 91.5449C53.9489 92.1522 53.5183 92.5995 52.9804 92.6466C52.5261 92.6864 52.2063 92.4735 51.96 91.7242L50.7673 88.0101C50.5705 87.413 50.2729 87.0415 49.7828 87.0845C49.4481 87.1138 49.1826 87.2455 48.9023 87.8964L48.5115 88.7979C48.3802 89.0865 48.3044 89.322 48.3233 89.5372C48.339 89.7165 48.4254 89.8776 48.5726 90.0454Z" fill="#372C24"/>
<path d="M42.3529 83.9957C40.1459 83.4233 37.7276 84.3829 37.4624 85.4051C37.2425 86.253 38.198 87.1578 39.3781 86.3358L41.6038 84.7808C42.9802 83.8237 44.5158 86.2675 42.6667 86.7053L41.9405 86.8764C40.8292 87.1461 40.9009 88.2556 41.6654 88.7018L43.6056 89.8249C44.0573 90.0908 43.9256 90.503 43.4003 90.6642L39.0579 91.9678C38.4392 92.1545 38.2392 91.7307 38.4677 91.2321L38.9514 90.1798C39.2393 89.5478 39.5014 88.5373 38.5528 88.1797C37.4011 87.7446 36.8568 88.4092 36.6459 89.2223C36.2543 90.7324 37.2083 92.4551 39.4385 93.0335C42.1101 93.7264 44.4954 92.2252 45.2125 89.4607C45.8572 86.9749 45.0942 84.7067 42.3529 83.9957Z" fill="#372C24"/>
<path d="M33.1808 83.9124L30.4921 82.3758C29.9001 82.033 29.4414 81.9106 29.0638 82.3976L26.4289 85.7695C26.0163 86.2914 26.077 86.8183 26.5582 86.9963C27.0302 87.1709 27.8483 86.6371 28.2061 86.4037L28.2264 86.3905L31.0062 84.5912C31.744 84.1112 32.4 84.3245 32.7803 84.5537C33.3867 84.9192 33.5764 85.7201 33.1924 86.3573C32.926 86.7992 32.3761 87.0142 31.6741 87.1095L28.6172 87.5088C27.2956 87.679 26.7646 87.7232 26.0965 87.3205C25.4799 86.9488 25.3249 86.2529 25.6125 85.4735L27.6569 79.9664C28.1349 78.6852 29.0171 78.012 30.0757 78.65C30.9184 79.158 30.9971 79.934 30.6192 80.5609L30.2971 81.0954C29.9564 81.6606 30.2111 81.9122 30.7566 81.8207L32.2842 81.5645C32.3663 81.5512 32.4552 81.5354 32.5493 81.5186C33.2739 81.3898 34.3144 81.2049 35.0602 81.6545C35.6563 82.0138 36.1199 82.7556 35.5376 83.7216C35.042 84.5438 34.0976 84.437 33.1808 83.9124Z" fill="#372C24"/>
<path d="M25.2878 74.5901C23.4133 72.5807 20.7032 72.1385 19.4836 73.2763C19.0624 73.6692 18.9406 74.2423 19.3194 74.8244L22.6787 80.0437C22.888 80.3736 22.9154 80.5614 22.7469 80.7678C22.5872 80.966 22.3387 81.0338 21.9077 80.7302L17.5636 77.7096C17.2321 77.4773 17.0514 77.3012 17.0169 77.0708C16.9965 76.9257 17.1299 76.7521 17.3861 76.71L18.3254 76.5558C19.4781 76.3666 19.3286 75.5379 19.0094 75.1957C18.5264 74.678 17.8754 74.8421 17.2524 75.4233C15.673 76.8968 16.4234 79.003 17.8396 80.521C19.2803 82.0653 21.5709 82.8495 23.0977 81.4252C23.4575 81.0896 23.5874 80.5253 23.3396 80.0837L22.9555 79.4081C22.707 78.9834 22.6199 78.8021 22.9364 78.4904L23.2616 78.1706C23.877 77.5637 23.9066 76.4695 22.7428 75.996L20.1475 74.938C19.7288 74.7707 19.5189 74.4577 19.7617 74.0671C19.9982 73.6866 20.4171 73.8521 20.9185 74.0502L20.9589 74.0662L25.3068 75.7539C26.0524 76.043 26.0787 76.5109 25.6575 76.9038L24.1658 78.2954C23.7973 78.6392 23.6831 79.2381 24.076 79.6592C24.5671 80.1857 25.3088 79.8549 25.7914 79.4046C26.8092 78.4551 27.2524 76.696 25.2878 74.5901Z" fill="#372C24"/>
<path d="M19.0239 69.0207L16.1821 64.5461C15.694 63.7853 15.92 63.4387 16.2611 63.2623C16.9326 62.9149 17.7059 63.339 18.6928 65.2468C20.1044 67.9753 20.2086 70.8668 18.2688 71.8703C17.2989 72.372 16.3186 71.7307 16.2046 70.4657L15.9758 67.8819C15.9247 67.2868 15.4201 67.2777 15.3422 67.8584L14.779 72.1759C14.6861 72.832 14.4402 73.2969 14.0459 73.5009C12.98 74.0523 11.9986 72.9387 11.2653 71.5212C10.5158 70.0985 9.93388 68.3729 9.90185 67.6059C9.87608 66.9032 10.0628 66.4283 10.6868 66.146C11.3429 65.8471 11.8468 66.1944 12.0012 67.2764L12.7322 72.4241C12.8212 73.0401 13.4071 73.1018 13.6415 72.9805C13.908 72.8427 14.0771 72.6471 13.9778 72.0635L13.149 67.2231C12.9622 66.1308 13.386 65.7224 13.7803 65.5184C14.2919 65.2537 14.9256 65.2772 15.4406 66.0376L17.8834 69.6107C18.3051 70.2167 18.645 70.3516 18.9541 70.1917C19.2526 70.0373 19.397 69.6113 19.0239 69.0207Z" fill="#372C24"/>
<path d="M10.9457 47.5115C9.60668 47.3447 9.25226 48.5571 9.21382 49.6605C9.17372 50.8118 9.71536 51.1188 10.4208 51.2034C11.6759 51.3672 12.1214 49.9539 12.1598 48.8505C12.1824 48.2029 11.867 47.6036 10.9457 47.5115Z" fill="#372C24"/>
<path d="M71.339 18.7132L73.7838 20.6141C74.3215 21.0371 74.7583 21.223 75.2009 20.7942L78.2855 17.8282C78.7677 17.3698 78.782 16.8396 78.3308 16.5955C77.8881 16.356 77.0029 16.7688 76.6157 16.9494L76.5938 16.9596L73.5877 18.3482C72.7895 18.7193 72.1702 18.4155 71.8261 18.1349C71.2774 17.6875 71.2026 16.8677 71.6728 16.2912C71.999 15.8913 72.5737 15.7561 73.2821 15.7609L76.3648 15.7973C77.6971 15.8155 78.2291 15.8467 78.8336 16.3397C79.3916 16.7947 79.4467 17.5055 79.0519 18.2365L76.2503 23.3998C75.5962 24.6006 74.6278 25.1425 73.6699 24.3613C72.9073 23.7395 72.939 22.9601 73.4016 22.3928L73.796 21.9092C74.2131 21.3978 73.9965 21.1127 73.4435 21.1263L71.8951 21.1642C71.8119 21.1658 71.7218 21.1689 71.6263 21.1722C70.8908 21.1973 69.8344 21.2335 69.1596 20.6831C68.6202 20.2432 68.266 19.4434 68.9789 18.5692C69.5856 17.8253 70.5055 18.0644 71.339 18.7132Z" fill="#372C24"/>
<path d="M82.9536 29.9987C82.2825 30.5769 81.8616 30.6291 81.6571 30.304C81.5357 30.111 81.5298 29.8312 81.8097 29.4424L84.7662 25.2856C85.5477 24.1842 85.5322 23.2583 85.0274 22.4559C84.2861 21.2777 83.0657 21.0956 80.7804 22.5334L78.6373 23.8818C77.1645 24.8084 75.926 25.8144 76.7632 27.145C77.4533 28.242 78.6235 27.8034 79.4013 26.7186L81.9626 23.1506C82.1286 22.9186 82.5026 22.499 82.787 22.3201C83.3659 21.9559 84.0034 22.0226 84.3612 22.5914C84.6552 23.0586 84.6531 23.6412 84.084 23.8859L83.4475 24.1587C82.5214 24.5571 81.7415 25.3455 81.3238 26.0336L79.729 28.6816C78.9771 29.9203 78.8784 30.507 79.1723 30.9742C79.6005 31.6547 80.4246 31.5899 81.632 31.2556L87.9436 29.5246C89.0201 29.2301 89.4029 30.492 88.4129 30.7888L83.6382 32.1909C83.549 32.2172 83.4482 32.245 83.3407 32.2747C82.8858 32.4004 82.3077 32.5601 81.9545 32.7823C81.4365 33.1082 80.9425 33.7876 81.4793 34.6408C81.8371 35.2096 82.6144 35.6563 83.7659 34.9176L87.1354 32.7693C89.5869 31.2127 89.9314 30.2729 89.1262 28.9932C88.1165 27.3884 86.3121 27.1343 84.5954 28.5971L82.9536 29.9987Z" fill="#372C24"/>
<path d="M90.7674 48.9412C90.7659 50.0452 90.4523 51.2688 89.1085 51.147C88.1846 51.0858 87.8493 50.4973 87.8502 49.8493C87.8517 48.7453 88.2496 47.3179 89.5094 47.4395C90.2173 47.5005 90.769 47.7892 90.7674 48.9412Z" fill="#372C24"/>
</svg>
