<svg width="100" height="100" viewBox="0 0 100 100" fill="none" xmlns="http://www.w3.org/2000/svg">
<path d="M48.368 52.3759C47.672 51.4879 47.384 50.9119 47.408 50.0239C47.384 49.1359 47.672 48.5599 48.368 47.6719L52.784 41.8639C55.304 38.8159 49.808 36.7759 49.808 40.7839L49.808 43.2559C49.808 44.7439 49.112 45.4639 48.344 45.8719L46.712 46.7599C45.152 47.6719 44.48 48.4159 44.48 50.0239C44.48 51.6319 45.152 52.3759 46.712 53.2879L48.344 54.1759C49.112 54.5839 49.808 55.3039 49.808 56.7919L49.808 59.2639C49.808 63.2719 55.304 61.2319 52.784 58.1839L48.368 52.3759Z" fill="#013662"/>
</svg>
