<svg width="100" height="100" viewBox="0 0 100 100" fill="none" xmlns="http://www.w3.org/2000/svg">
<path d="M51.632 52.3759C52.328 51.4879 52.616 50.9119 52.592 50.0239C52.616 49.1359 52.328 48.5599 51.632 47.6719L47.216 41.8639C44.696 38.8159 50.192 36.7759 50.192 40.7839L50.192 43.2559C50.192 44.7439 50.888 45.4639 51.656 45.8719L53.288 46.7599C54.848 47.6719 55.52 48.4159 55.52 50.0239C55.52 51.6319 54.848 52.3759 53.288 53.2879L51.656 54.1759C50.888 54.5839 50.192 55.3039 50.192 56.7919L50.192 59.2639C50.192 63.2719 44.696 61.2319 47.216 58.1839L51.632 52.3759Z" fill="#013662"/>
</svg>
