<svg width="160" height="160" viewBox="0 0 160 160" fill="none" xmlns="http://www.w3.org/2000/svg">
<path d="M73.6145 17.0136C73.8413 17.87 73.7043 18.2713 73.3226 18.3132C73.096 18.3381 72.8417 18.2212 72.6143 17.7995L70.1671 13.3239C69.518 12.1396 68.6783 11.749 67.736 11.8524C66.3523 12.0044 65.6553 13.0225 65.95 15.7064L66.2264 18.2233C66.4163 19.9529 66.7801 21.5065 68.3427 21.3349C69.6309 21.1934 69.7478 19.9492 69.1119 18.7756L67.0218 14.9127C66.8856 14.6621 66.6716 14.1423 66.6349 13.8083C66.5602 13.1284 66.8989 12.5842 67.5668 12.5108C68.1155 12.4506 68.6387 12.707 68.61 13.3258L68.5773 14.0175C68.531 15.0246 68.8994 16.0707 69.3358 16.7471L71.0208 19.3386C71.8064 20.5561 72.2909 20.9013 72.8396 20.8411C73.6388 20.7533 73.9406 19.9838 74.1675 18.7516L75.3684 12.3181C75.5739 11.2211 76.8763 11.4282 76.7107 12.4484L75.8854 17.3558C75.8701 17.4476 75.8511 17.5504 75.8308 17.6603C75.7451 18.1243 75.6362 18.7139 75.6817 19.1286C75.7485 19.7369 76.1438 20.4782 77.1457 20.3682C77.8137 20.2948 78.5552 19.7909 78.3939 18.4324L77.9339 14.4629C77.6049 11.5776 76.9102 10.8571 75.4072 11.0221C73.5225 11.2291 72.5055 12.7411 73.0712 14.9244L73.6145 17.0136Z" fill="#FFB800"/>
<path d="M57.8621 21.4695L60.7895 20.4592C61.4375 20.2397 61.8317 19.9753 61.7141 19.3704L60.9135 15.1667C60.7928 14.5124 60.3564 14.2109 59.9055 14.4556C59.4631 14.6957 59.3257 15.6628 59.2655 16.0858L59.2621 16.1097L58.7842 19.3864C58.6593 20.2576 58.0666 20.6107 57.6436 20.7457C56.9692 20.9611 56.2416 20.5761 56.0153 19.8674C55.8583 19.3758 56.0589 18.8205 56.4497 18.2296L58.1634 15.6669C58.9061 14.5606 59.2227 14.132 59.9657 13.8947C60.6516 13.6757 61.2773 14.0176 61.6741 14.7475L64.47 19.9138C65.1189 21.1175 65.0442 22.2247 63.8667 22.6007C62.9294 22.9 62.2937 22.4479 62.0711 21.7506L61.8813 21.1562C61.6805 20.5274 61.3234 20.5533 61.0329 21.024L60.2192 22.3419C60.1751 22.4125 60.1284 22.4897 60.079 22.5716C59.6985 23.2015 59.1521 24.1061 58.3225 24.371C57.6595 24.5827 56.796 24.4427 56.4529 23.3682C56.1609 22.4537 56.8635 21.8136 57.8621 21.4695Z" fill="#FFB800"/>
<path d="M54.6429 24.2979C54.2953 23.6401 53.5349 23.4855 52.8291 23.845L50.7278 24.9284C50.3247 25.1415 50.11 25.1463 49.9811 24.9023C49.8465 24.6477 49.9808 24.4138 50.1906 24.1944L51.6053 22.6594C52.8209 21.3383 52.744 20.551 52.3628 19.8296C51.8581 18.8747 50.3574 17.5505 47.7369 18.9355C44.5117 20.64 44.4468 24.1897 46.3532 27.7969C47.1551 29.314 48.1563 29.4364 48.814 29.0887C50.0235 28.4495 49.6574 27.4486 48.7278 26.6912L46.2999 24.7169C46.1085 24.5602 45.9433 24.376 45.8367 24.1745C45.4386 23.4212 45.6907 22.46 46.7835 21.8825L50.1042 20.1274C50.8787 19.7181 51.4949 19.9082 51.7697 20.428C52.0613 20.9797 51.9591 21.6852 50.7454 22.1367L47.3014 23.4275C46.8808 23.5819 46.7079 23.7683 46.8431 24.0498C46.9216 24.1983 47.1454 24.365 47.5358 24.5387L51.8329 26.326C52.7921 26.7284 53.4609 26.6328 53.8853 26.4085C54.9887 25.8254 54.9962 24.9663 54.6429 24.2979Z" fill="#FFB800"/>
<path d="M35.7923 27.7328C35.359 28.5375 35.9643 29.2214 36.6554 29.377L37.2041 29.5078C37.9196 29.6747 38.2779 30.2023 38.0113 31.0431L37.3211 33.2788C36.9977 34.318 38.5289 34.9707 38.9084 33.9635L40.9984 28.437C41.4742 27.1846 42.4043 26.966 43.0545 27.7063L44.7171 29.6037C45.5708 30.5806 45.4319 31.3505 44.7369 31.9033C44.042 32.4561 42.9127 32.1737 42.778 30.7321L42.5503 28.3833C42.5085 27.9259 42.1019 27.8966 41.8953 28.061C41.7168 28.2029 41.5909 28.3337 41.6114 29.0534L41.6698 32.2883C41.7012 33.812 41.5533 34.4357 40.7081 35.108C39.5999 35.9895 37.6107 35.6091 35.7207 33.2331C33.7785 30.7914 34.1398 28.2193 36.2717 26.5235C38.056 25.1042 39.7025 24.7452 40.7854 25.5091C41.7506 26.1827 40.9047 27.7602 39.693 27.4514L37.56 26.9094C36.9288 26.7521 36.1615 27.0405 35.7923 27.7328Z" fill="#FFB800"/>
<path fill-rule="evenodd" clip-rule="evenodd" d="M34.8013 41.1127C36.6535 39.0182 36.4097 36.8484 34.0545 34.7657C31.6992 32.683 29.5518 32.7383 27.6997 34.8329C25.8554 36.9184 26.0632 39.0565 28.4185 41.1392C30.7737 43.2219 32.9571 43.1983 34.8013 41.1127ZM33.3853 35.3593L34.1544 40.2683C34.2568 40.9677 33.5323 41.3522 32.9377 41.0827L27.9901 38.8701C26.9146 38.3836 26.9479 37.4039 27.8715 36.9391L32.2507 34.7404C32.803 34.46 33.287 34.7278 33.3853 35.3593Z" fill="#FFB800"/>
<path fill-rule="evenodd" clip-rule="evenodd" d="M20.7353 49.1721C19.5927 48.4644 19.1314 47.3176 19.9529 45.9914L21.242 43.9103C22.6258 41.6762 24.3405 41.3691 26.4114 42.6518C27.9417 43.5997 28.6963 44.9564 27.7422 46.4969C27.1987 47.3742 26.4689 47.7549 25.1478 47.8823L22.8807 48.1014C22.3962 48.1542 22.0788 48.621 22.2298 49.1521C22.3652 49.6171 22.8457 49.8441 23.3058 49.7622L25.4909 49.3794C26.2294 49.2581 26.7245 49.3248 27.2244 49.6344C27.9385 50.0768 27.9728 50.705 27.4862 51.4905C27.0502 52.1944 26.4175 52.6918 25.1321 51.8956L20.7353 49.1721ZM21.6235 47.0545C21.5714 47.3892 21.5723 47.6156 21.7866 47.7483C21.96 47.8557 22.1762 47.8485 22.4668 47.6756L26.455 45.2478C27.6134 44.5398 27.3144 43.5641 26.2309 43.6269L23.0465 43.8C22.2987 43.845 22.134 43.997 22.0172 44.6869L21.6235 47.0545Z" fill="#FFB800"/>
<path d="M17.3475 53.634L20.3634 54.7548C20.7237 54.8881 21.0181 55.2796 20.2462 55.4584L16.1144 56.3841C15.2153 56.5889 14.7821 56.7627 14.5248 57.3965C13.8658 59.0198 16.1882 60.2217 17.407 60.2503C17.7791 60.2589 18.0188 60.0195 18.0264 59.8413C18.0485 59.4358 17.8004 59.1538 17.1587 59.1393L15.6547 59.1115C15.1801 59.1001 15.0424 58.578 15.5802 58.4337L21.5514 56.869C21.8415 56.7925 22.2021 56.8612 21.8952 57.6173L21.4708 58.6624C20.7531 60.4303 23.2092 61.2073 23.8728 59.5728C24.1978 58.7723 23.6035 57.7798 23.0502 57.0372L19.6865 52.4984C19.3126 51.984 18.8677 51.3889 18.4164 51.1927C16.9178 50.5455 15.784 53.051 17.3475 53.634Z" fill="#FFB800"/>
<path d="M12.8485 66.3366C12.7798 66.6532 13.024 66.829 13.7434 66.7395L19.6413 66.0424C21.0239 65.839 21.8709 66.293 21.5986 67.5478C21.3543 68.6736 20.6584 68.7681 19.4103 68.5218L13.6478 67.4064C12.9064 67.2578 12.5735 67.3206 12.5048 67.6373C12.4183 68.036 12.7798 68.2372 13.2958 68.3492L13.8118 68.4612C15.4301 68.8124 16.1303 69.3204 15.8636 70.38C15.6772 71.1254 14.9101 71.5483 14.183 71.3905C12.553 71.0368 11.6602 69.4924 12.1208 67.3698L12.9911 63.3591C13.2558 62.1395 14.0434 61.9052 14.6415 62.035C15.9901 62.3276 16.2936 64.2108 14.8633 65.0301L13.1124 66.0255C12.958 66.1147 12.8714 66.231 12.8485 66.3366Z" fill="#FFB800"/>
<path d="M15.9583 78.8761C14.615 78.7487 14.2962 79.971 14.2902 81.0749C14.2838 82.2269 14.8342 82.518 15.5419 82.5819C16.8012 82.7088 17.2051 81.283 17.2111 80.179C17.2147 79.531 16.882 78.9412 15.9583 78.8761Z" fill="#FFB800"/>
<path d="M147.523 92.8764C147.585 92.5585 147.338 92.3874 146.62 92.4907L140.737 93.3012C139.358 93.5312 138.503 93.0936 138.751 91.8338C138.974 90.7035 139.667 90.5956 140.92 90.8178L146.703 91.8221C147.447 91.9564 147.779 91.8872 147.841 91.5693C147.92 91.169 147.555 90.9747 147.037 90.8727L146.519 90.7707C144.894 90.4507 144.184 89.9562 144.43 88.8918C144.602 88.1429 145.361 87.7053 146.091 87.849C147.728 88.1713 148.65 89.6983 148.23 91.8294L147.437 95.856C147.196 97.0805 146.413 97.3299 145.813 97.2117C144.459 96.945 144.119 95.068 145.533 94.2213L147.265 93.1925C147.418 93.1003 147.502 92.9823 147.523 92.8764Z" fill="#FFB800"/>
<path d="M140.293 104.441L143.334 105.493C144.91 106.04 143.834 108.571 142.321 107.958C141.865 107.772 141.407 107.187 141.021 106.682L137.555 102.221C136.985 101.491 136.368 100.512 136.675 99.7043C137.301 98.0552 139.774 98.7761 139.097 100.56L138.697 101.614C138.407 102.377 138.769 102.438 139.057 102.355L144.991 100.654C145.526 100.498 145.376 99.979 144.901 99.9784L143.397 99.9848C142.755 99.985 142.501 99.7087 142.514 99.3028C142.517 99.1245 142.751 98.8796 143.124 98.8798C144.343 98.8806 146.692 100.029 146.07 101.667C145.827 102.307 145.398 102.49 144.504 102.716L140.394 103.735C139.627 103.931 139.93 104.316 140.293 104.441Z" fill="#FFB800"/>
<path fill-rule="evenodd" clip-rule="evenodd" d="M140.747 113.453C141.544 112.111 141.061 110.973 139.906 110.287L135.459 107.646C134.159 106.874 133.536 107.383 133.113 108.095C132.641 108.889 132.687 109.517 133.409 109.946C133.915 110.246 134.411 110.303 135.147 110.168L137.325 109.745C137.783 109.654 138.268 109.872 138.412 110.335C138.573 110.863 138.264 111.336 137.781 111.398L135.518 111.659C134.199 111.811 133.477 112.205 132.95 113.092C132.024 114.65 132.804 115.993 134.352 116.912C136.446 118.156 138.155 117.817 139.497 115.557L140.747 113.453ZM138.881 111.73C139.098 111.859 139.103 112.085 139.057 112.421L138.707 114.795C138.604 115.487 138.442 115.642 137.695 115.701L134.514 115.934C133.432 116.017 133.115 115.047 134.26 114.317L138.202 111.815C138.49 111.637 138.706 111.626 138.881 111.73Z" fill="#FFB800"/>
<path fill-rule="evenodd" clip-rule="evenodd" d="M126.824 124.951C124.431 122.912 124.147 120.747 125.961 118.619C127.767 116.5 129.949 116.436 132.342 118.476C134.735 120.515 134.982 122.649 133.176 124.768C131.363 126.896 129.217 126.99 126.824 124.951ZM126.623 119.451L127.482 124.345C127.592 124.975 128.081 125.234 128.628 124.943L132.966 122.665C133.881 122.183 133.896 121.203 132.812 120.736L127.825 118.615C127.225 118.356 126.508 118.754 126.623 119.451Z" fill="#FFB800"/>
<path d="M124.198 130.463C124.892 130.606 125.51 131.279 125.091 132.091C124.734 132.79 123.972 133.093 123.338 132.947L121.196 132.444C119.979 132.157 119.162 133.75 120.139 134.406C121.236 135.15 122.875 134.761 124.634 133.309C126.734 131.575 127.049 128.997 125.063 126.591C123.13 124.25 121.134 123.905 120.042 124.807C119.209 125.494 119.073 126.121 119.132 127.644L119.249 130.877C119.282 131.596 119.159 131.729 118.983 131.874C118.779 132.042 118.372 132.02 118.322 131.564L118.052 129.22C117.891 127.781 116.757 127.519 116.072 128.084C115.387 128.65 115.262 129.422 116.134 130.383L117.83 132.25C118.494 132.978 119.42 132.743 119.873 131.482L121.862 125.918C122.223 124.904 123.766 125.529 123.462 126.574L122.812 128.822C122.561 129.668 122.929 130.189 123.647 130.342L124.198 130.463Z" fill="#FFB800"/>
<path d="M108.257 136.166C107.557 136.538 106.794 136.397 106.435 135.746C106.069 135.084 106.061 134.225 107.154 133.622C107.574 133.39 108.241 133.282 109.207 133.667L113.536 135.375C113.93 135.542 114.157 135.704 114.238 135.852C114.378 136.13 114.209 136.32 113.791 136.482L110.371 137.836C109.166 138.309 109.077 139.017 109.378 139.563C109.662 140.078 110.282 140.256 111.049 139.833L114.337 138.017C115.419 137.42 115.654 136.454 115.242 135.708C115.132 135.509 114.963 135.328 114.769 135.175L112.305 133.245C111.362 132.505 110.977 131.511 112.175 130.849C112.826 130.49 113.83 130.594 114.659 132.096C116.631 135.668 116.631 139.218 113.438 140.981C110.843 142.414 109.318 141.117 108.796 140.172C108.402 139.458 108.311 138.672 109.502 137.329L110.888 135.768C111.094 135.545 111.224 135.309 111.085 135.057C110.951 134.815 110.737 134.824 110.338 135.044L108.257 136.166Z" fill="#FFB800"/>
<path d="M100.337 139.691L103.245 138.626C104.237 138.264 104.928 137.611 104.619 136.702C104.256 135.634 103.39 135.51 102.731 135.734C101.906 136.014 101.377 136.929 101.008 137.566C100.96 137.648 100.915 137.727 100.872 137.798L100.083 139.131C99.8014 139.607 99.4448 139.639 99.2324 139.014L99.0316 138.424C98.796 137.731 98.1521 137.29 97.2204 137.607C96.0502 138.005 95.996 139.113 96.6672 140.305L99.5588 145.418C99.9691 146.14 100.601 146.471 101.283 146.239C102.021 145.988 102.33 145.553 103.052 144.434L104.717 141.839C105.097 141.241 105.287 140.682 105.121 140.194C104.882 139.489 104.147 139.118 103.477 139.346C103.057 139.489 102.471 139.853 102.362 140.726L101.945 144.011L101.942 144.035C101.89 144.459 101.77 145.429 101.333 145.677C100.886 145.93 100.444 145.637 100.311 144.985L99.4327 140.797C99.3039 140.194 99.6932 139.922 100.337 139.691Z" fill="#FFB800"/>
<path d="M87.6163 142.079C87.2355 142.128 87.1062 142.532 87.3493 143.384L87.9322 145.462C88.5393 147.634 87.5513 149.165 85.6709 149.408C84.1713 149.602 83.4629 148.895 83.0792 146.016L82.5437 142.056C82.3566 140.701 83.0883 140.183 83.7548 140.097C84.7545 139.968 85.1638 140.701 85.2422 141.308C85.2956 141.722 85.1979 142.314 85.121 142.779L85.1072 142.863C85.1007 142.903 85.0945 142.941 85.0886 142.978C85.0828 143.015 85.0773 143.051 85.0722 143.085L84.3405 148.007C84.1943 149.03 85.5004 149.212 85.685 148.112L86.7633 141.657C86.9666 140.42 87.2537 139.645 88.0511 139.542C88.5986 139.472 89.0896 139.807 89.8982 141.01L91.6322 143.569C92.0814 144.237 92.4697 145.276 92.4425 146.283L92.423 146.976C92.4061 147.595 92.934 147.841 93.4815 147.771C94.1479 147.685 94.4762 147.134 94.3886 146.456C94.3455 146.122 94.1217 145.607 93.9808 145.359L91.8175 141.536C91.1594 140.375 91.2525 139.129 92.5379 138.963C94.0969 138.762 94.4902 140.308 94.713 142.034L95.0372 144.545C95.383 147.223 94.7054 148.254 93.3249 148.432C92.3847 148.553 91.5378 148.179 90.8662 147.007L88.3343 142.579C88.0989 142.162 87.8425 142.05 87.6163 142.079Z" fill="#FFB800"/>
<path d="M72.4477 146.915C72.8329 147.253 72.8294 147.593 72.6553 147.857C72.4557 148.13 72.0517 148.311 71.3671 147.866L69.3692 146.565L69.268 146.498C68.7384 146.149 67.9782 145.647 67.5886 145.588C66.8888 145.481 66.2804 145.727 66.1241 146.747C65.9896 147.625 66.6669 148.117 67.4616 148.239L71.5894 148.872C72.6451 149.033 73.433 148.486 73.7571 147.322L75.3584 141.546C75.6069 140.637 75.1924 140.015 74.362 139.888C73.2352 139.715 72.4976 140.488 73.032 141.675L73.9282 143.67C74.2471 144.362 73.7539 144.966 73.0603 144.581L70.0246 142.683C69.2388 142.186 68.5982 141.93 68.2509 142.375C67.9619 142.756 68.1719 143.128 68.611 143.511L72.4477 146.915Z" fill="#FFB800"/>
<path d="M63.1707 139.185L58.0128 137.963C57.1323 137.759 57.0523 137.353 57.1734 136.988C57.412 136.271 58.2618 136.035 60.3001 136.713C63.2152 137.682 65.3075 139.68 64.6184 141.753C64.2738 142.789 63.1242 143.014 62.1597 142.187L60.1928 140.496C59.741 140.106 59.3731 140.451 59.7226 140.922L62.3321 144.407C62.7234 144.942 62.8718 145.446 62.7317 145.868C62.353 147.006 60.873 146.894 59.3585 146.39C57.8289 145.894 56.2079 145.064 55.6497 144.537C55.1409 144.052 54.9432 143.581 55.1932 142.944C55.4545 142.272 56.0578 142.169 56.9235 142.836L61.0393 146.013C61.5329 146.392 61.9956 146.028 62.0789 145.777C62.1736 145.492 62.1582 145.234 61.6798 144.886L57.7084 141.997C56.8123 141.345 56.8309 140.757 56.971 140.335C57.1527 139.789 57.623 139.364 58.5224 139.549L62.7656 140.403C63.4905 140.543 63.8281 140.403 63.9379 140.072C64.0439 139.753 63.8501 139.348 63.1707 139.185Z" fill="#FFB800"/>
<path d="M50.4762 135.652L53.2402 137.049C54.1827 137.525 55.1313 137.584 55.5841 136.737C56.1161 135.743 55.6151 135.026 55.0013 134.697C54.2334 134.287 53.2038 134.525 52.4868 134.69C52.3936 134.712 52.3057 134.732 52.2243 134.75L50.7119 135.084C50.1718 135.203 49.9045 134.965 50.2158 134.383L50.5101 133.833C50.8554 133.187 50.737 132.416 49.8693 131.952C48.7794 131.369 47.9329 132.087 47.5213 133.391L45.7618 138.996C45.5145 139.789 45.705 140.476 46.3399 140.815C47.0277 141.183 47.5558 141.112 48.8669 140.874L51.8993 140.319C52.5955 140.188 53.1336 139.945 53.377 139.49C53.7279 138.834 53.4973 138.043 52.873 137.71C52.4815 137.5 51.8154 137.321 51.1032 137.838L48.4193 139.777L48.3997 139.792C48.0544 140.043 47.2647 140.618 46.7843 140.468C46.2946 140.315 46.207 139.792 46.5924 139.249L49.0509 135.747C49.403 135.241 49.8674 135.34 50.4762 135.652Z" fill="#FFB800"/>
<path d="M38.4659 134.845C38.7215 135.044 38.9858 134.9 39.2168 134.213L41.1436 128.595C41.5592 127.261 42.3352 126.694 43.3482 127.483C44.257 128.191 44.0408 128.859 43.2781 129.878L39.7764 134.588C39.3213 135.192 39.2337 135.519 39.4893 135.718C39.8112 135.969 40.1492 135.73 40.4737 135.314L40.7981 134.897C41.8157 133.591 42.577 133.18 43.4163 133.879C44.0075 134.37 44.0563 135.245 43.5992 135.832C42.5742 137.148 40.7954 137.283 39.0819 135.948L35.8441 133.427C34.8596 132.66 34.9896 131.848 35.3657 131.365C36.2137 130.277 38.0425 130.819 38.1613 132.463L38.2999 134.472C38.3134 134.65 38.3807 134.779 38.4659 134.845Z" fill="#FFB800"/>
<path d="M32.5034 121.273C32.5295 120.875 32.7424 120.29 33.3572 120.216C33.9721 120.141 34.4545 120.562 34.7616 121.679L35.7695 125.376C35.9818 126.142 35.6172 126.703 34.745 126.834L32.1373 127.22C31.1199 127.37 30.3124 128.531 31.1791 129.479C31.7947 130.152 32.5252 130.15 33.508 129.251L36.3765 126.626C38.0587 125.087 38.0032 122.894 36.3669 121.105C34.6092 119.184 32.8808 118.895 31.1721 120.458L27.852 123.496C27.0818 124.201 26.9102 124.813 27.4934 125.45C27.9551 125.955 28.5493 125.964 28.9742 125.576C29.3018 125.276 29.3538 124.871 29.4489 124.068L29.5723 123.012C29.6139 122.648 29.8211 122.573 30.0076 122.581C30.1432 122.587 30.351 122.69 30.3706 123.013L30.478 124.802C30.5717 126.326 32.077 126.283 32.1992 124.87L32.5034 121.273Z" fill="#FFB800"/>
<path d="M25.9406 111.762C25.5256 111.087 25.6188 110.317 26.2465 109.917C26.8844 109.512 27.7413 109.45 28.4111 110.503C28.6687 110.908 28.8176 111.567 28.4935 112.556L27.0567 116.982C26.9149 117.385 26.7666 117.622 26.6249 117.712C26.3552 117.869 26.1555 117.712 25.9678 117.305L24.4049 113.976C23.8576 112.802 23.1461 112.757 22.6196 113.092C22.1235 113.407 21.9834 114.037 22.4536 114.776L24.4693 117.945C25.1327 118.988 26.111 119.162 26.8299 118.705C27.0223 118.583 27.1926 118.403 27.3334 118.2L29.1066 115.621C29.787 114.634 30.7553 114.189 31.4895 115.343C31.8888 115.971 31.8472 116.979 30.3992 117.9C26.9566 120.089 23.4132 120.309 21.4553 117.231C19.8646 114.73 21.0642 113.128 21.9755 112.549C22.664 112.111 23.4427 111.971 24.857 113.077L26.5005 114.364C26.736 114.555 26.9799 114.67 27.2229 114.516C27.4558 114.368 27.4338 114.154 27.189 113.769L25.9406 111.762Z" fill="#FFB800"/>
<path d="M21.9413 101.216L24.3846 105.92C24.7051 106.541 24.5243 106.953 24.2136 107.081C23.8919 107.213 23.5648 107.05 23.1973 106.409L21.0733 102.638C20.6261 101.836 19.9969 101.757 19.4643 101.977C19.0537 102.146 18.5962 102.516 18.6876 103.62L19.0938 108.514C19.1421 109.104 18.9568 109.285 18.6794 109.399C18.4353 109.499 17.857 109.387 17.8217 108.766L17.5395 103.574C17.4794 102.483 17.0075 102.093 16.328 102.334C15.6818 102.561 15.4547 103.018 15.4195 103.72C15.3849 104.487 15.8151 106.257 16.4385 107.739C17.0463 109.215 17.9275 110.409 19.0371 109.952C19.4476 109.783 19.7329 109.341 19.8823 108.696L20.8175 104.443C20.9454 103.872 21.4473 103.924 21.4467 104.522L21.4507 107.116C21.4547 108.386 22.3757 109.11 23.3854 108.694C25.4049 107.862 25.5516 104.973 24.3818 102.132C23.5639 100.146 22.8302 99.6563 22.1312 99.9441C21.7761 100.09 21.5209 100.416 21.9413 101.216Z" fill="#FFB800"/>
<path d="M17.5736 90.2603C19.2043 89.9099 21.3032 91.6804 21.8805 94.3671C22.4856 97.1828 21.2024 98.465 19.8415 98.7575C19.1962 98.8962 18.3899 98.7994 18.2386 98.0955C18.1176 97.5323 18.523 97.077 19.0157 96.9711L21.0102 96.5425C21.5733 96.4215 21.791 96.0065 21.2995 95.3757L18.4343 91.6955L18.4078 91.6611C18.0792 91.2337 17.8046 90.8767 17.4064 91.0818C16.9975 91.2924 17.017 91.6687 17.2905 92.0272L18.9747 94.2674C19.7305 95.271 19.1435 96.195 18.3038 96.3999L17.8605 96.5075C17.4289 96.6125 17.4106 96.8128 17.4059 97.3048L17.3887 98.0817C17.3748 98.588 16.9736 99.0056 16.4925 99.109C14.4512 99.5477 12.8878 97.6989 12.4441 95.634C12.0079 93.6043 12.445 91.4116 14.5567 90.9577C15.3897 90.7787 16.0327 90.972 16.1814 91.6642C16.2798 92.1217 15.9827 92.9097 14.8962 92.4804L14.011 92.1306C13.7696 92.0352 13.5659 92.1158 13.509 92.2507C13.4203 92.4662 13.485 92.71 13.6503 93.0795L15.8281 97.9016C16.0421 98.3834 16.2902 98.4528 16.529 98.3647C16.7795 98.274 16.8523 98.0988 16.8421 97.7083L16.6381 91.5046C16.6117 90.8107 17.0104 90.3813 17.5736 90.2603Z" fill="#FFB800"/>
<path d="M88.6003 12.7519C88.4212 13.0132 88.4112 13.3524 88.7898 13.6981L92.5601 17.1757C92.9917 17.5671 93.1946 17.9432 92.8983 18.3181C92.5425 18.7559 91.9069 18.4876 91.1308 17.9758L88.1323 16.02C87.4463 15.6212 86.9415 16.2158 87.2469 16.9141L88.1045 18.9258C88.616 20.1225 87.8636 20.8813 86.7403 20.687C85.9126 20.5437 85.5101 19.9139 85.7761 19.01L87.4884 13.2659C87.8349 12.108 88.6332 11.5763 89.6856 11.7584L93.8005 12.4703C94.5927 12.6074 95.2604 13.1126 95.109 13.9876C94.933 15.0045 94.32 15.2394 93.6224 15.1187C93.234 15.0515 92.4836 14.5357 91.9608 14.1763L91.8609 14.1076L89.8885 12.7677C89.2127 12.3098 88.8052 12.4829 88.6003 12.7519Z" fill="#FFB800"/>
<path d="M103.003 22.8788L97.8693 21.5589C97.1932 21.3833 97.0071 20.9738 97.1192 20.657C97.2353 20.3289 97.5755 20.1947 98.2976 20.3484L102.524 21.2836C103.419 21.486 103.898 21.0697 104.09 20.5267C104.238 20.1081 104.268 19.5203 103.384 18.8514L99.4686 15.8875C98.997 15.5297 98.9865 15.2714 99.0866 14.9886C99.1746 14.7397 99.6442 14.384 100.13 14.7724L104.185 18.0273C105.038 18.7109 105.643 18.6195 105.917 17.9527C106.179 17.3199 105.99 16.8458 105.491 16.3509C104.943 15.8133 103.338 14.9527 101.818 14.4276C100.314 13.8953 98.8359 13.7543 98.4357 14.8856C98.2876 15.3042 98.4263 15.8115 98.8073 16.3536L101.35 19.8882C101.69 20.365 101.316 20.7035 100.872 20.3045L98.9373 18.5763C97.9888 17.7315 96.8351 17.9343 96.4708 18.9638C95.7423 21.0227 97.7962 23.0605 100.692 24.0852C102.717 24.8017 103.571 24.582 103.824 23.8693C103.952 23.5073 103.88 23.0999 103.003 22.8788Z" fill="#FFB800"/>
<path d="M107.705 23.8162L110.443 25.2644C111.046 25.5877 111.508 25.6951 111.869 25.196L114.393 21.7401C114.789 21.2051 114.711 20.6804 114.224 20.5182C113.746 20.3591 112.946 20.9192 112.596 21.1641L112.576 21.178L109.857 23.0669C109.135 23.5707 108.472 23.3789 108.085 23.1622C107.467 22.8167 107.251 22.0223 107.614 21.373C107.866 20.9226 108.409 20.6898 109.107 20.5717L112.149 20.0731C113.465 19.8599 113.994 19.7984 114.675 20.1791C115.303 20.5305 115.481 21.221 115.219 22.0093L113.355 27.5802C112.919 28.8762 112.059 29.5778 110.98 28.9746C110.121 28.4944 110.017 27.7213 110.375 27.0824L110.679 26.5378C111.001 25.9617 110.739 25.7186 110.196 25.8278L108.678 26.1337C108.596 26.1496 108.508 26.1683 108.415 26.1881C107.695 26.3404 106.661 26.5592 105.9 26.1342C105.293 25.7945 104.805 25.0682 105.356 24.0836C105.824 23.2457 106.772 23.3218 107.705 23.8162Z" fill="#FFB800"/>
<path d="M121.758 26.9255C122.002 26.2428 122.269 26.1036 122.521 26.3074C122.605 26.3753 122.67 26.505 122.68 26.6831L122.782 28.6945C122.87 30.3405 124.689 30.9162 125.557 29.8433C125.941 29.3674 126.086 28.5586 125.116 27.7738L121.925 25.1928C120.236 23.8269 118.455 23.9298 117.406 25.2267C116.939 25.8052 116.971 26.6805 117.553 27.1822C118.38 27.8969 119.148 27.5 120.19 26.2124L120.522 25.8019C120.854 25.3914 121.196 25.1589 121.514 25.4155C121.765 25.6193 121.672 25.9449 121.206 26.5402L117.618 31.1856C116.837 32.1897 116.608 32.8538 117.504 33.5783C118.502 34.3857 119.289 33.8333 119.729 32.507L121.758 26.9255Z" fill="#FFB800"/>
<path d="M127.346 40.9685C127.962 40.9051 128.186 40.3239 128.219 39.9264L128.589 36.3363C128.737 34.9257 130.243 34.9095 130.308 36.4355L130.383 38.2256C130.397 38.5495 130.603 38.656 130.738 38.6645C130.925 38.6761 131.133 38.6042 131.182 38.2416L131.324 37.1878C131.434 36.387 131.493 35.9826 131.826 35.6889C132.258 35.3079 132.852 35.3281 133.304 35.841C133.876 36.489 133.693 37.0982 132.91 37.7888L129.536 40.7656C127.799 42.2976 126.076 41.9771 124.353 40.0243C122.75 38.2064 122.734 36.012 124.444 34.5037L127.36 31.9318C128.359 31.0507 129.089 31.0624 129.693 31.7464C130.542 32.7093 129.713 33.8562 128.693 33.9878L126.079 34.3256C125.205 34.4409 124.83 34.9955 125.028 35.7646L125.969 39.4794C126.256 40.6026 126.73 41.0319 127.346 40.9685Z" fill="#FFB800"/>
<path d="M134.442 51.6328C135.078 51.2474 135.188 50.4793 134.788 49.7956L133.584 47.7612C133.347 47.3712 133.33 47.1573 133.566 47.0143C133.812 46.865 134.054 46.9855 134.285 47.182L135.9 48.5047C137.29 49.641 138.071 49.5184 138.769 49.0956C139.693 48.536 140.927 46.9606 139.392 44.4254C137.502 41.3052 133.954 41.4478 130.464 43.5617C128.997 44.4507 128.933 45.4574 129.319 46.0937C130.027 47.2638 131.005 46.8398 131.707 45.8676L133.536 43.3285C133.681 43.1283 133.856 42.9526 134.051 42.8345C134.779 42.393 135.754 42.5886 136.394 43.6457L138.34 46.8583C138.794 47.6075 138.64 48.2338 138.137 48.5385C137.603 48.8618 136.893 48.801 136.372 47.6157L134.882 44.253C134.703 43.8422 134.507 43.6804 134.234 43.8318C134.09 43.9189 133.937 44.1521 133.786 44.552L132.253 48.9461C131.907 49.9272 132.042 50.5893 132.29 50.9998C132.937 52.0672 133.795 52.0245 134.442 51.6328Z" fill="#FFB800"/>
<path d="M136.238 55.6589L138.577 60.416C138.979 61.2253 138.717 61.5453 138.359 61.6836C137.654 61.9559 136.931 61.4502 136.157 59.4464C135.051 56.5806 135.262 53.695 137.299 52.9083C138.318 52.515 139.222 53.2591 139.198 54.529L139.145 57.1224C139.131 57.7194 139.631 57.7834 139.772 57.2146L140.801 52.9839C140.965 52.3418 141.26 51.9064 141.674 51.7465C142.794 51.3142 143.648 52.5279 144.223 54.0168C144.813 55.5125 145.204 57.2911 145.153 58.0571C145.102 58.7585 144.865 59.2102 144.214 59.423C143.529 59.6488 143.066 59.2487 143.03 58.1563L142.863 52.9597C142.841 52.3377 142.266 52.2126 142.019 52.3077C141.74 52.4158 141.55 52.5918 141.585 53.1828L141.883 58.0846C141.95 59.1908 141.484 59.5506 141.07 59.7106C140.533 59.918 139.905 59.8258 139.476 59.0139L137.436 55.1964C137.083 54.5481 136.76 54.3771 136.435 54.5025C136.122 54.6235 135.932 55.0313 136.238 55.6589Z" fill="#FFB800"/>
<path d="M138.472 67.0858C138.999 69.7829 141.064 71.5927 142.701 71.273C143.266 71.1627 143.673 70.7409 143.66 70.0466L143.573 63.8402C143.57 63.4495 143.646 63.2757 143.898 63.1898C144.139 63.1062 144.385 63.1803 144.59 63.666L146.677 68.5283C146.835 68.9009 146.895 69.1459 146.802 69.3596C146.743 69.4935 146.538 69.5702 146.298 69.4703L145.42 69.1039C144.341 68.6541 144.03 69.4364 144.119 69.8957C144.255 70.5906 144.894 70.7959 145.73 70.6327C147.85 70.2187 148.329 68.0346 147.931 65.9971C147.526 63.9242 145.998 62.0462 143.949 62.4464C143.466 62.5407 143.057 62.9506 143.033 63.4565L143.001 64.233C142.987 64.7248 142.965 64.9247 142.532 65.0216L142.087 65.1208C141.243 65.3099 140.639 66.2226 141.376 67.2403L143.017 69.5118C143.284 69.8754 143.296 70.252 142.883 70.4549C142.481 70.6525 142.214 70.2903 141.893 69.8568L141.867 69.8219L139.072 66.0883C138.593 65.4484 138.818 65.0376 139.383 64.9272L141.386 64.5363C141.88 64.4397 142.294 63.9921 142.184 63.4267C142.046 62.7201 141.241 62.6081 140.594 62.7346C139.227 63.0014 137.92 64.2592 138.472 67.0858Z" fill="#FFB800"/>
<path d="M145.835 80.6542C145.808 81.7579 145.466 82.9738 144.125 82.8205C143.203 82.7377 142.881 82.1416 142.897 81.4938C142.925 80.3901 143.356 78.9723 144.613 79.1235C145.319 79.201 145.864 79.5025 145.835 80.6542Z" fill="#FFB800"/>
</svg>
