<svg width="100" height="100" viewBox="0 0 100 100" fill="none" xmlns="http://www.w3.org/2000/svg">
<path d="M51.2093 12.7312C51.5932 12.7411 51.783 12.3618 51.6736 11.4827L51.4166 9.33941C51.1501 7.09982 52.3614 5.7385 54.2568 5.78723C55.7683 5.82609 56.3598 6.63356 56.2971 9.53691L56.2184 13.5322C56.1952 14.9001 55.3927 15.2996 54.7209 15.2823C53.7133 15.2564 53.4214 14.4686 53.4371 13.8568C53.4479 13.4397 53.6352 12.8702 53.7826 12.422C53.8175 12.3158 53.8502 12.2165 53.8777 12.1276L55.3563 7.37602C55.6578 6.38744 54.3952 6.00686 54.0439 7.06618L51.9875 13.2794C51.5968 14.4697 51.1941 15.1916 50.3904 15.171C49.8386 15.1568 49.4049 14.7495 48.7904 13.4373L47.4698 10.6424C47.1284 9.91339 46.9043 8.82727 47.0858 7.83561L47.2113 7.15461C47.323 6.54528 46.8392 6.22074 46.2874 6.20655C45.6156 6.18928 45.2068 6.68294 45.1892 7.36671C45.1806 7.7026 45.3227 8.24643 45.4238 8.51312L46.9747 12.6223C47.4468 13.8709 47.1634 15.088 45.8679 15.0547C44.2964 15.0143 44.1452 13.4259 44.1899 11.6865L44.2549 9.15529C44.3243 6.45618 45.1521 5.54116 46.5437 5.57693C47.4914 5.6013 48.2708 6.10149 48.7545 7.36234L50.5767 12.1267C50.7452 12.5752 50.9814 12.7253 51.2093 12.7312Z" fill="#013662"/>
<path d="M37.7993 10.292C37.8502 10.5019 37.9831 10.6426 38.2746 10.5718L38.7761 10.4502C39.1493 10.3597 39.3818 10.402 39.4469 10.6703C39.461 10.7286 39.4663 10.8014 39.4628 10.8887L39.3556 14.5697C39.3236 15.8123 40.1567 16.5486 41.4861 16.2261C42.3841 16.0083 43.2208 15.3855 42.9496 14.6239C42.7156 13.9645 42.1272 14.0332 41.6883 14.3619L40.436 15.3078C40.2371 15.4548 39.9907 15.3047 39.9342 15.0714C39.9059 14.9548 39.9415 14.8474 40.0772 14.5922L41.6879 11.5096C42.2426 10.4366 41.6056 9.54154 40.4617 9.96721L39.6914 10.2529C39.5892 10.29 39.391 10.3381 39.3429 10.1398C39.3146 10.0232 39.3591 9.90128 39.4994 9.81786L40.6747 9.06353C41.1864 8.72949 41.5093 8.3301 41.3509 7.67704C41.1812 6.97734 40.5107 6.70779 39.916 6.85207C39.5778 6.93411 39.2707 7.14442 39.0937 7.48371L38.1437 9.31942C37.9342 9.72833 37.754 10.1054 37.7993 10.292Z" fill="#013662"/>
<path d="M31.1693 10.6419C30.8762 10.7799 30.8852 11.0807 31.3937 11.5973L35.5341 15.8551C36.5365 16.8289 36.6913 17.7773 35.5296 18.3243C34.4874 18.8151 33.9891 18.3202 33.4255 17.1796L30.8062 11.927C30.4732 11.2482 30.2209 11.0221 29.9278 11.1602C29.5587 11.334 29.6188 11.7434 29.8437 12.221L30.0687 12.6987C30.7742 14.1969 30.7967 15.0617 29.7934 15.4944C29.0884 15.7998 28.2861 15.4481 27.9691 14.775C27.2585 13.2659 27.9416 11.6179 29.9066 10.6926L33.6195 8.94425C34.7486 8.41258 35.4136 8.89527 35.6743 9.44896C36.2623 10.6975 34.952 12.0838 33.4317 11.4467L31.5768 10.6622C31.412 10.5939 31.267 10.5959 31.1693 10.6419Z" fill="#013662"/>
<path d="M26.5595 24.2025C28.6577 22.428 29.2313 19.7426 28.1542 18.469C27.7822 18.0292 27.2157 17.8797 26.616 18.2298L21.2393 21.3311C20.8996 21.5241 20.7108 21.5423 20.5128 21.364C20.3226 21.1948 20.267 20.9433 20.5912 20.5276L23.8196 16.3356C24.0678 16.0158 24.2524 15.8439 24.4843 15.8207C24.6301 15.8073 24.7971 15.949 24.8266 16.2069L24.9349 17.1526C25.0678 18.3132 25.9029 18.2042 26.2602 17.902C26.8008 17.4448 26.6685 16.7866 26.1183 16.1361C24.7235 14.4868 22.5832 15.1339 20.9981 16.4745C19.3855 17.8383 18.4907 20.0881 19.8391 21.6823C20.1568 22.058 20.7141 22.2153 21.1673 21.9892L21.8607 21.6385C22.297 21.411 22.4823 21.3328 22.7782 21.664L23.0818 22.0045C23.6581 22.6487 24.7496 22.7314 25.2791 21.5921L26.4621 19.0514C26.6497 18.6413 26.9725 18.4469 27.3508 18.7084C27.7193 18.9631 27.5336 19.3734 27.3113 19.8646L27.2934 19.9042L25.3961 24.1649C25.0711 24.8955 24.6025 24.8989 24.2305 24.4591L22.9132 22.9015C22.5877 22.5166 21.9952 22.3734 21.5553 22.7454C21.0056 23.2103 21.3 23.9672 21.7261 24.4712C22.625 25.534 24.3605 26.0623 26.5595 24.2025Z" fill="#013662"/>
<path d="M18.449 31.924L21.0242 27.2908C21.4596 26.4987 21.8721 26.5319 22.1899 26.7473C22.8157 27.1715 22.8122 28.0535 21.607 29.8315C19.8833 32.3743 17.3924 33.8462 15.5846 32.6208C14.6807 32.0081 14.7762 30.8406 15.8334 30.1365L17.9945 28.702C18.493 28.373 18.2601 27.9252 17.7127 28.134L13.6501 29.7003C13.0292 29.9318 12.5033 29.9377 12.1358 29.6886C11.1425 29.0153 11.6524 27.6214 12.548 26.3003C13.4403 24.9625 14.6787 23.6274 15.3374 23.2331C15.9426 22.875 16.449 22.8123 16.995 23.2259C17.5707 23.6597 17.5061 24.2683 16.6291 24.9205L12.4548 28.0203C11.956 28.3925 12.1815 28.9368 12.4 29.0849C12.6484 29.2532 12.9009 29.3084 13.3663 28.9426L17.2239 25.9036C18.0946 25.218 18.6557 25.3954 19.0232 25.6446C19.5 25.9677 19.7819 26.5357 19.3595 27.3512L17.3861 31.2035C17.0549 31.8633 17.0987 32.2264 17.3867 32.4217C17.6649 32.6102 18.1081 32.5337 18.449 31.924Z" fill="#013662"/>
<path d="M9.50109 36.5512C8.77623 36.5568 8.55397 36.3539 8.65889 36.0473C8.69386 35.9452 8.79338 35.8397 8.95712 35.7689L10.8115 34.9831C12.3271 34.335 12.2437 32.4293 10.9381 31.9824C10.3591 31.7842 9.54964 31.9257 9.14549 33.1064L7.81645 36.9893C7.11308 39.0442 7.82094 40.6817 9.39906 41.2219C10.103 41.4628 10.9139 41.1316 11.1853 40.4127C11.573 39.3912 10.9364 38.8055 9.36965 38.2692L8.8701 38.0983C8.37056 37.9273 8.03476 37.6855 8.16688 37.2995C8.27181 36.9929 8.60974 36.9691 9.32889 37.2026L14.9234 38.978C16.1346 39.3672 16.8368 39.3538 17.2099 38.2639C17.6257 37.0491 16.837 36.5001 15.4401 36.542L9.50109 36.5512Z" fill="#013662"/>
<path d="M91.1726 64.443C91.2811 64.1376 91.0611 63.9322 90.3363 63.9294L84.3975 63.8701C83.0003 63.8959 82.218 63.3378 82.6477 62.1279C83.0333 61.0424 83.7356 61.0371 84.9423 61.4403L90.516 63.2801C91.2324 63.5218 91.5706 63.5019 91.679 63.1966C91.8156 62.8121 91.4826 62.5665 90.985 62.3897L90.4875 62.213C88.927 61.6587 88.2972 61.0657 88.6966 60.0487C88.9763 59.333 89.7911 59.0112 90.4921 59.2602C92.0639 59.8185 92.7529 61.4641 92.0258 63.5108L90.6521 67.378C90.2344 68.554 89.4234 68.6862 88.8467 68.4814C87.5463 68.0194 87.4849 66.1129 89.0078 65.4823L90.8712 64.7179C91.0357 64.649 91.1365 64.5447 91.1726 64.443Z" fill="#013662"/>
<path d="M81.3863 68.3524L78.7765 72.9661C78.3351 73.755 77.9229 73.7187 77.6067 73.5009C76.9841 73.072 76.9941 72.1901 78.2126 70.4212C79.9553 67.8913 82.4572 66.4381 84.2558 67.677C85.1551 68.2965 85.0508 69.4632 83.9884 70.1594L81.8166 71.5777C81.3157 71.9029 81.5452 72.3525 82.0942 72.1478L86.1684 70.6119C86.791 70.3851 87.3169 70.3831 87.6825 70.6349C88.6708 71.3157 88.1504 72.7058 87.245 74.0201C86.3427 75.3512 85.0943 76.677 84.4327 77.0663C83.8248 77.4199 83.318 77.4788 82.7751 77.0611C82.2026 76.623 82.2718 76.015 83.1537 75.3693L87.351 72.3008C87.8526 71.9323 87.6312 71.3864 87.4138 71.2367C87.1667 71.0665 86.9146 71.0094 86.4464 71.3717L82.5662 74.3818C81.6904 75.0608 81.1307 74.8792 80.765 74.6273C80.2907 74.3006 80.0131 73.7305 80.4415 72.9182L82.4437 69.0808C82.7799 68.4235 82.7388 68.0601 82.4522 67.8627C82.1755 67.6721 81.7317 67.7452 81.3863 68.3524Z" fill="#013662"/>
<path d="M73.0695 76.1237C70.952 77.8751 70.3491 80.554 71.4122 81.8393C71.7794 82.2832 72.3442 82.4389 72.9478 82.0954L78.358 79.0531C78.6998 78.8639 78.8889 78.8476 79.0849 79.0281C79.2732 79.1994 79.3261 79.4515 78.9973 79.8636L75.7232 84.02C75.4716 84.3371 75.2851 84.507 75.053 84.5277C74.907 84.5394 74.7416 84.3959 74.7149 84.1377L74.6169 83.1909C74.4967 82.0289 73.6605 82.1287 73.2999 82.427C72.7544 82.8783 72.8795 83.5379 73.4225 84.1944C74.7992 85.8588 76.9464 85.2352 78.5461 83.9121C80.1735 82.566 81.0928 80.3261 79.762 78.7172C79.4485 78.3381 78.8929 78.1747 78.4373 78.3958L77.74 78.739C77.3013 78.9617 77.1151 79.0378 76.8229 78.7033L76.523 78.3596C75.9538 77.7091 74.8633 77.6145 74.3213 78.7479L73.1106 81.2755C72.9185 81.6835 72.5936 81.8744 72.2182 81.6087C71.8525 81.35 72.0427 80.9418 72.2703 80.453L72.2886 80.4136L74.2325 76.174C74.5655 75.447 75.0341 75.4487 75.4012 75.8925L76.7014 77.4645C77.0226 77.8529 77.6136 78.0025 78.0575 77.6354C78.6123 77.1765 78.3262 76.4165 77.9056 75.9079C77.0184 74.8352 75.2888 74.2881 73.0695 76.1237Z" fill="#013662"/>
<path d="M68.3165 89.5996C68.6111 89.4648 68.6053 89.1639 68.1025 88.6418L64.0089 84.3389C63.0173 83.3542 62.8729 82.4042 64.0404 81.8699C65.088 81.3906 65.5808 81.8909 66.1319 83.0375L68.6936 88.3185C69.0191 89.001 69.2689 89.2297 69.5635 89.0949C69.9345 88.9252 69.8789 88.5151 69.6592 88.035L69.4395 87.5549C68.7504 86.0491 68.7373 85.1841 69.7453 84.7624C70.4537 84.4647 71.252 84.8252 71.5616 85.5017C72.2557 87.0185 71.5547 88.6589 69.5796 89.5627L65.8478 91.2703C64.7129 91.7896 64.0533 91.2997 63.7986 90.7431C63.2244 89.4883 64.5497 88.1164 66.0629 88.7701L67.9092 89.5748C68.0732 89.6449 68.2182 89.6445 68.3165 89.5996Z" fill="#013662"/>
<path d="M61.8342 89.8143C61.7848 89.604 61.653 89.4624 61.3609 89.531L60.8586 89.6489C60.4847 89.7366 60.2525 89.6925 60.1894 89.4238C60.1757 89.3654 60.171 89.2926 60.1751 89.2053L60.3097 85.5252C60.3509 84.2829 59.5233 83.5404 58.1915 83.853C57.292 84.0641 56.4506 84.6807 56.7161 85.4443C56.9453 86.1054 57.5342 86.0411 57.9755 85.7157L59.2348 84.7791C59.4348 84.6335 59.68 84.7855 59.7349 85.0192C59.7623 85.136 59.7258 85.2432 59.5882 85.4973L57.9547 88.5679C57.3921 89.6367 58.0224 90.5365 59.1694 90.1193L59.9419 89.8394C60.0443 89.803 60.2429 89.7564 60.2895 89.955C60.3169 90.0719 60.2715 90.1934 60.1306 90.2758L58.9497 91.0214C58.4356 91.3516 58.1097 91.7486 58.2632 92.4028C58.4278 93.1038 59.0962 93.3783 59.692 93.2385C60.0308 93.1589 60.3394 92.9509 60.5189 92.6129L61.4826 90.7843C61.6951 90.377 61.8781 90.0012 61.8342 89.8143Z" fill="#013662"/>
<path d="M48.3885 87.2539C48.0047 87.2411 47.812 87.6189 47.9147 88.4988L48.1554 90.644C48.4048 92.8856 47.183 94.2376 45.2881 94.1744C43.7769 94.1239 43.1916 93.312 43.2765 90.4092L43.3857 86.4146C43.4193 85.047 44.2249 84.6536 44.8965 84.676C45.904 84.7096 46.1898 85.4996 46.1694 86.1113C46.1555 86.5282 45.9638 87.0963 45.813 87.5434C45.7773 87.6492 45.7438 87.7484 45.7156 87.8371L44.2007 92.5772C43.8916 93.5635 45.1513 93.9537 45.5108 92.8971L47.6146 86.6998C48.0144 85.5124 48.4226 84.7937 49.2261 84.8205C49.7778 84.8389 50.2084 85.2495 50.8128 86.5663L52.112 89.3712C52.4478 90.1028 52.6636 91.1906 52.4745 92.1809L52.3438 92.8609C52.2274 93.4693 52.7087 93.7976 53.2604 93.816C53.9321 93.8384 54.3446 93.3479 54.3675 92.6642C54.3787 92.3284 54.2407 91.7835 54.1416 91.5161L52.6222 87.3951C52.1596 86.143 52.4523 84.9281 53.7476 84.9713C55.3187 85.0237 55.4578 86.6132 55.3998 88.3523L55.3154 90.8829C55.2253 93.5814 54.3906 94.49 52.9994 94.4436C52.0519 94.412 51.2763 93.9059 50.8022 92.6414L49.0166 87.8632C48.8515 87.4134 48.6164 87.2615 48.3885 87.2539Z" fill="#013662"/>
<path fill-rule="evenodd" clip-rule="evenodd" d="M38.1049 82.7332C35.4886 81.7469 33.5473 82.7463 32.4382 85.6882C31.3292 88.6301 32.1445 90.6175 34.7608 91.6038C37.3658 92.5858 39.2902 91.6313 40.3993 88.6894C41.5084 85.7475 40.7099 83.7152 38.1049 82.7332ZM33.2311 86.1025L37.5457 83.6381C38.1629 83.2937 38.78 83.8341 38.7395 84.4857L38.4309 89.8967C38.3586 91.0749 37.4311 91.3921 36.6683 90.6942L33.0561 87.3831C32.5975 86.9666 32.6757 86.4189 33.2311 86.1025Z" fill="#013662"/>
<path d="M29.545 81.2845C29.9184 79.8965 30.7906 79.142 31.8239 79.9243C33.0773 80.8731 32.3817 81.8516 31.3315 83.2389L29.3759 85.8222C27.7463 87.9749 26.9345 88.1129 25.9107 87.3379C25.1549 86.7657 25.1829 85.8539 25.2897 84.5199L25.7092 79.2537C25.7548 78.7163 25.7223 78.481 25.5501 78.3506C25.3109 78.1696 25.1164 78.1879 24.957 78.3984C24.8267 78.5706 24.7366 78.8486 24.622 79.2585L23.7857 82.1924C23.5764 82.9325 23.344 83.236 23.1726 83.4599L23.1366 83.5071C22.7672 83.9951 22.0477 84.4286 21.244 83.8203C20.2968 83.1032 20.705 81.9674 21.4671 81.1596L25.3084 77.0991C26.109 76.2603 26.7434 76.0783 27.3653 76.5491C27.9475 76.9898 27.9342 77.6237 27.9039 79.0679L27.9036 79.0788L27.826 82.4816C27.8104 83.2976 27.5676 84.4533 26.8421 85.1533L26.3431 85.6334C25.8972 86.0635 26.0055 86.5367 26.3499 86.7975C26.8857 87.2031 27.5057 87.0403 27.9185 86.4949C28.1213 86.227 28.3611 85.7313 28.4343 85.4556L29.545 81.2845Z" fill="#013662"/>
<path d="M19.7728 78.4868C19.9387 78.3485 20.0063 78.1672 19.8143 77.9368L19.4839 77.5404C19.2381 77.2454 19.1736 77.018 19.3856 76.8413C19.4317 76.8029 19.4947 76.766 19.5746 76.7307L22.9256 75.2035C24.0549 74.6842 24.3484 73.6118 23.4727 72.5609C22.8812 71.851 21.9532 71.3747 21.3893 71.9539C20.9007 72.4548 21.2218 72.9526 21.7104 73.2015L23.1116 73.9083C23.3313 74.022 23.3052 74.3093 23.1208 74.463C23.0286 74.5398 22.9164 74.5551 22.6276 74.5459L19.1506 74.4598C17.943 74.4352 17.4206 75.4016 18.3071 76.2405L18.9032 76.8059C18.9815 76.8812 19.1121 77.0379 18.9554 77.1685C18.8632 77.2453 18.7342 77.2592 18.5974 77.1701L17.4021 76.4479C16.8766 76.136 16.3758 76.0223 15.8595 76.4525C15.3064 76.9134 15.3601 77.634 15.7519 78.1041C15.9747 78.3715 16.2989 78.5543 16.6814 78.5636L18.748 78.6066C19.2074 78.6143 19.6253 78.6097 19.7728 78.4868Z" fill="#013662"/>
<path d="M18.0832 70.3615L16.5794 67.6543C16.2506 67.0543 15.9216 66.7121 15.3464 66.933L11.3459 68.4521C10.7226 68.6848 10.5015 69.1669 10.8209 69.5684C11.1342 69.9623 12.1105 69.9296 12.5374 69.9153L12.5616 69.9145L15.8714 69.8156C16.7512 69.7871 17.2018 70.3094 17.4084 70.7025C17.7377 71.3292 17.4851 72.1126 16.8265 72.4587C16.3697 72.6987 15.7879 72.5977 15.1381 72.3156L12.3166 71.0735C11.098 70.5344 10.6208 70.2971 10.258 69.6066C9.92314 68.9692 10.1511 68.2937 10.8009 67.776L15.4025 64.1246C16.4751 63.2763 17.5784 63.1575 18.1533 64.2517C18.611 65.1227 18.2763 65.8273 17.6283 66.1677L17.0759 66.458C16.4917 66.765 16.5792 67.1121 17.0932 67.3165L18.5325 67.8887C18.6097 67.9198 18.6939 67.9523 18.7831 67.9868C19.4696 68.252 20.4554 68.6328 20.8604 69.4037C21.1842 70.0199 21.1964 70.8945 20.1979 71.4192C19.3481 71.8658 18.5956 71.2851 18.0832 70.3615Z" fill="#013662"/>
<path d="M9.49628 62.814L14.5902 62.2487C14.8316 62.2244 15.0439 62.1828 15.23 62.1355C16.4278 61.8307 16.7723 61.384 16.4499 60.1164L15.8611 57.8021C15.5505 56.581 14.7604 56.2496 14.0975 56.4182C13.4346 56.5868 12.9019 57.2672 13.0971 58.0347C13.1859 58.3836 13.429 58.7551 13.8787 59.1113L14.9766 59.9711C15.581 60.4489 15.9226 60.721 15.9848 60.9653C16.0351 61.163 15.9025 61.4691 15.6001 61.546C15.3675 61.6052 15.018 61.5455 14.6072 61.4395L9.42414 60.1454C8.94926 60.031 8.56508 60.0296 8.26271 60.1066C7.37886 60.3314 7.12628 61.1881 7.29491 61.851C7.49609 62.6418 8.20754 62.9561 9.49628 62.814Z" fill="#013662"/>
<path d="M9.21607 49.9572C9.24866 48.8537 9.59666 47.6394 10.9365 47.799C11.8584 47.8863 12.1768 48.4839 12.1577 49.1317C12.1251 50.2352 11.6871 51.6509 10.4312 51.4937C9.72532 51.4128 9.18206 51.1087 9.21607 49.9572Z" fill="#013662"/>
<path fill-rule="evenodd" clip-rule="evenodd" d="M61.5754 17.1516C64.1991 18.1178 66.1327 17.1035 67.2192 14.1532C68.3056 11.2029 67.475 9.22184 64.8513 8.25565C62.2388 7.29361 60.3218 8.26286 59.2353 11.2132C58.1489 14.1635 58.9629 16.1896 61.5754 17.1516ZM66.4232 13.745L62.1276 16.2425C61.5131 16.5916 60.8919 16.056 60.9273 15.4041L61.1944 9.99086C61.2576 8.81209 62.1827 8.48778 62.9508 9.17986L66.5884 12.4631C67.0501 12.8761 66.9761 13.4243 66.4232 13.745Z" fill="#013662"/>
<path d="M70.0692 18.45C69.7061 19.8406 68.8396 20.6016 67.8005 19.8271C66.54 18.8877 67.2283 17.904 68.2682 16.5089L70.2044 13.9111C71.818 11.7463 72.6288 11.6023 73.6583 12.3696C74.4183 12.9362 74.3971 13.8482 74.3002 15.1829L73.9199 20.4521C73.8783 20.9898 73.9126 21.2249 74.0858 21.354C74.3264 21.5333 74.5207 21.5135 74.6785 21.3018C74.8076 21.1286 74.8955 20.85 75.0071 20.4393L75.8216 17.4992C76.0253 16.7575 76.2554 16.4523 76.4251 16.2272L76.4608 16.1797C76.8266 15.689 77.5429 15.2501 78.3511 15.8525C79.3036 16.5624 78.9038 17.7012 78.1478 18.5147L74.3368 22.6037C73.5425 23.4484 72.9094 23.6351 72.284 23.169C71.6986 22.7326 71.7072 22.0987 71.7268 20.6543L71.7269 20.6434L71.7792 17.2401C71.7887 16.424 72.0229 15.2665 72.7432 14.5612L73.2385 14.0773C73.6813 13.644 73.5694 13.1715 73.2231 12.9133C72.6843 12.5117 72.0656 12.6792 71.6568 13.2276C71.456 13.497 71.2199 13.9945 71.1487 14.2707L70.0692 18.45Z" fill="#013662"/>
<path d="M79.8563 21.1162C79.6919 21.2563 79.6262 21.4383 79.8208 21.6667L80.1554 22.0594C80.4045 22.3517 80.4715 22.5784 80.2614 22.7574C80.2157 22.7963 80.1531 22.8339 80.0736 22.8701L76.7395 24.4338C75.616 24.9654 75.3342 26.041 76.2214 27.0823C76.8207 27.7856 77.7538 28.2518 78.3113 27.6664C78.7944 27.1602 78.4679 26.666 77.9766 26.4224L76.5678 25.731C76.3468 25.6197 76.3698 25.3321 76.5525 25.1765C76.6438 25.0986 76.7558 25.082 77.0447 25.0881L80.5224 25.1362C81.7303 25.1476 82.2421 24.1755 81.3465 23.3464L80.7442 22.7875C80.665 22.7131 80.5327 22.5578 80.688 22.4255C80.7793 22.3476 80.9082 22.3324 81.046 22.42L82.2491 23.1291C82.778 23.4352 83.28 23.5434 83.7916 23.1076C84.3396 22.6407 84.278 21.9207 83.8811 21.4549C83.6554 21.19 83.3292 21.0107 82.9466 21.0056L80.8797 20.9852C80.4203 20.9825 80.0024 20.9917 79.8563 21.1162Z" fill="#013662"/>
<path d="M81.6485 29.2099L83.1818 31.9006C83.5171 32.4969 83.8498 32.8355 84.4226 32.6083L88.4063 31.0456C89.027 30.8062 89.2428 30.3217 88.919 29.9237C88.6014 29.5332 87.6256 29.5766 87.1988 29.5956L87.1747 29.5966L83.8661 29.7317C82.9867 29.7697 82.5304 29.2524 82.3196 28.8616C81.9834 28.2385 82.2275 27.4524 82.8823 27.0991C83.3364 26.8541 83.9192 26.9488 84.5721 27.2238L87.407 28.4351C88.6314 28.9608 89.1111 29.1929 89.4814 29.8793C89.8233 30.513 89.6027 31.191 88.9586 31.7157L84.3971 35.4172C83.3339 36.2771 82.2319 36.408 81.6451 35.3202C81.1779 34.4541 81.5049 33.746 82.1491 33.3984L82.6983 33.1022C83.2792 32.7888 83.1879 32.4427 82.6716 32.2439L81.2262 31.6875C81.1487 31.6572 81.0642 31.6256 80.9746 31.5921C80.2852 31.3344 79.2953 30.9644 78.8819 30.1979C78.5514 29.5854 78.5296 28.7109 79.5224 28.1753C80.3673 27.7196 81.126 28.292 81.6485 29.2099Z" fill="#013662"/>
<path d="M90.3853 36.8021L85.2958 37.4052C85.0545 37.4312 84.8425 37.4744 84.6568 37.5231C83.4612 37.8367 83.12 38.286 83.4519 39.5512L84.0578 41.861C84.3775 43.0798 85.17 43.4054 85.8316 43.2319C86.4932 43.0583 87.0209 42.374 86.82 41.608C86.7286 41.2597 86.4828 40.89 86.0305 40.5372L84.9262 39.6855C84.3183 39.2123 83.9746 38.9427 83.9107 38.6989C83.8589 38.5016 83.9893 38.1945 84.2911 38.1153C84.5232 38.0544 84.8731 38.1115 85.2847 38.2144L90.4772 39.4701C90.9529 39.581 91.3371 39.5795 91.6389 39.5004C92.5211 39.269 92.7673 38.4104 92.5937 37.7488C92.3867 36.9595 91.673 36.6505 90.3853 36.8021Z" fill="#013662"/>
<path d="M90.7828 49.5367C90.7628 50.6405 90.4288 51.8587 89.0872 51.7144C88.1644 51.6377 87.8391 51.0437 87.8508 50.3959C87.8707 49.292 88.2924 47.8714 89.5501 48.0142C90.2569 48.0869 90.8036 48.3849 90.7828 49.5367Z" fill="#013662"/>
</svg>
