<svg width="160" height="160" viewBox="0 0 160 160" fill="none" xmlns="http://www.w3.org/2000/svg">
<path d="M60.86 85.18C63.14 85.18 65.24 83.644 65.24 82.588C65.24 81.712 64.088 81.076 63.152 82.168L61.388 84.232C60.296 85.504 58.196 83.524 59.876 82.636L60.536 82.288C61.544 81.748 61.196 80.692 60.344 80.452L58.184 79.852C57.68 79.708 57.704 79.276 58.172 78.988L62.048 76.636C62.6 76.3 62.9 76.66 62.804 77.2L62.6 78.34C62.48 79.024 62.48 80.068 63.488 80.176C64.712 80.308 65.072 79.528 65.072 78.688C65.072 77.128 63.716 75.7 61.412 75.7C58.652 75.7 56.72 77.752 56.72 80.608C56.72 83.176 58.028 85.18 60.86 85.18ZM68.5621 77.596L67.8541 82.672C67.8181 82.912 67.8061 83.128 67.8061 83.32C67.8061 84.556 68.1541 85 69.4621 85H71.8501C73.1101 85 73.6261 84.316 73.6261 83.632C73.6261 82.948 73.0981 82.264 72.3061 82.264C71.9461 82.264 71.5261 82.408 71.0701 82.756L69.9661 83.608C69.3541 84.076 69.0061 84.34 68.7541 84.34C68.5501 84.34 68.2861 84.136 68.2861 83.824C68.2861 83.584 68.4301 83.26 68.6341 82.888L71.1661 78.184C71.3941 77.752 71.4901 77.38 71.4901 77.068C71.4901 76.156 70.7221 75.7 70.0381 75.7C69.2221 75.7 68.7421 76.312 68.5621 77.596ZM79.777 85.18C82.573 85.18 84.037 83.56 84.037 80.416C84.037 77.272 82.573 75.7 79.777 75.7C76.993 75.7 75.529 77.272 75.529 80.416C75.529 83.56 76.993 85.18 79.777 85.18ZM83.149 80.308L79.981 84.136C79.525 84.676 78.757 84.388 78.565 83.764L76.945 78.592C76.597 77.464 77.353 76.84 78.313 77.224L82.861 79.048C83.437 79.276 83.557 79.816 83.149 80.308ZM91.4062 75.712C88.6582 75.712 86.4862 77.392 86.4862 79.06C86.4862 79.636 86.8222 80.116 87.5062 80.236L93.6142 81.34C93.9982 81.412 94.1542 81.52 94.1902 81.784C94.2262 82.036 94.1062 82.264 93.5902 82.372L88.4182 83.488C88.0222 83.572 87.7702 83.584 87.5782 83.452C87.4582 83.368 87.4222 83.152 87.5662 82.936L88.0942 82.144C88.7422 81.172 88.0342 80.716 87.5662 80.716C86.8582 80.716 86.5342 81.304 86.5342 82.156C86.5342 84.316 88.5862 85.204 90.6622 85.204C92.7742 85.204 94.9102 84.064 94.9102 81.976C94.9102 81.484 94.5862 81.004 94.0942 80.884L93.3382 80.704C92.8582 80.596 92.6662 80.536 92.6542 80.092L92.6422 79.636C92.6182 78.772 91.8382 78.004 90.6982 78.532L88.1542 79.708C87.7462 79.9 87.3742 79.84 87.2542 79.396C87.1342 78.952 87.5662 78.76 88.0702 78.52L92.2702 76.492C92.9902 76.144 93.3502 76.444 93.3502 77.02V79.06C93.3502 79.564 93.7102 80.056 94.2862 80.056C95.0062 80.056 95.2702 79.288 95.2702 78.628C95.2702 77.236 94.2862 75.712 91.4062 75.712ZM104.846 77.62C105.746 77.704 105.95 77.344 105.95 76.96C105.95 76.204 105.218 75.712 103.07 75.712C99.998 75.712 97.382 76.948 97.382 79.132C97.382 80.224 98.402 80.8 99.578 80.32L101.978 79.336C102.53 79.108 102.77 79.552 102.29 79.888L98.714 82.372C98.174 82.756 97.874 83.188 97.874 83.632C97.874 84.832 99.314 85.192 100.91 85.192C102.518 85.204 104.318 84.928 105.014 84.604C105.65 84.304 105.986 83.92 105.95 83.236C105.914 82.516 105.374 82.228 104.342 82.588L99.434 84.304C98.846 84.508 98.522 84.016 98.522 83.752C98.522 83.452 98.618 83.212 99.182 83.032L103.862 81.544C104.918 81.208 105.086 80.644 105.086 80.2C105.086 79.624 104.774 79.072 103.862 78.964L99.566 78.436C98.834 78.34 98.558 78.1 98.558 77.752C98.558 77.416 98.87 77.092 99.566 77.152L104.846 77.62Z" fill="#FFB800"/>
<path d="M47 47L68 68" stroke="#FFB800"/>
<path d="M113 47L92 68" stroke="#FFB800"/>
<path d="M92 92L113 113" stroke="#FFB800"/>
<path d="M68 92L47 113" stroke="#FFB800"/>
</svg>
