<svg width="248" height="60" viewBox="0 0 248 60" fill="none" xmlns="http://www.w3.org/2000/svg">
<g clip-path="url(#clip0_176_181)">
<path d="M14.328 3.11596C13.356 3.11596 12.996 3.94396 13.716 5.99596L19.512 22.844C20.988 26.768 20.196 29.54 16.344 29.54C12.888 29.54 12.168 27.56 12.096 23.744L11.7 6.13996C11.664 3.87197 11.268 2.93596 10.296 2.93596C9.07197 2.93596 8.71197 4.12396 8.71197 5.70796V7.29196C8.71197 12.26 7.66797 14.636 4.39197 14.528C2.08797 14.456 0.359973 12.476 0.359973 10.244C0.359973 5.23996 4.31997 1.63996 10.836 1.63996H23.148C26.892 1.63996 28.08 3.79996 28.08 5.63596C28.08 9.77596 22.752 11.864 19.44 8.19197L15.408 3.69197C15.048 3.29596 14.652 3.11596 14.328 3.11596Z" fill="#FFF8E4"/>
<path d="M49.2283 14.348L48.9403 4.69997C48.7963 -0.304034 57.0403 0.0199633 56.9323 4.91596C56.8963 6.39196 55.7443 8.29996 54.7363 9.91996L45.9163 24.392C44.4763 26.768 42.3883 29.54 39.7963 29.54C34.5043 29.54 33.8923 21.836 39.6163 21.836H43.0003C45.4483 21.836 45.2323 20.756 44.6923 20.036L33.6043 5.20397C32.5963 3.87197 31.3003 4.84397 31.8043 6.17597L33.4243 10.388C34.1083 12.188 33.6043 13.196 32.4523 13.592C31.9483 13.772 31.0123 13.376 30.6163 12.332C29.3203 8.91196 30.0403 1.09996 35.2963 1.09996C37.3483 1.09996 38.3203 2.10796 39.9043 4.37597L47.1403 14.816C48.5083 16.76 49.2643 15.5 49.2283 14.348Z" fill="#FFF8E4"/>
<path fill-rule="evenodd" clip-rule="evenodd" d="M59.4337 8.65997C59.4337 4.62796 61.6297 1.63996 66.3097 1.63996H73.6537C81.5377 1.63996 85.0297 5.52797 85.0297 12.836C85.0297 18.236 82.7617 22.304 77.3257 22.304C74.2297 22.304 72.1057 21.044 69.6937 17.876L65.5537 12.44C64.6537 11.288 62.9617 11.216 61.8457 12.44C60.8737 13.52 61.0537 15.104 61.9897 16.148L66.4177 21.116C67.8937 22.808 68.5057 24.176 68.5057 25.94C68.5057 28.46 66.9577 29.54 64.1857 29.54C61.7017 29.54 59.4337 28.712 59.4337 24.176V8.65997ZM66.2377 7.57996C65.3017 7.97596 64.7257 8.33597 64.7257 9.09196C64.7257 9.70397 65.0857 10.244 65.9857 10.712L78.4777 17.048C82.1137 18.884 84.1297 16.58 82.2577 13.916L76.7857 6.06796C75.4897 4.23196 74.8417 4.05196 72.8977 4.84397L66.2377 7.57996Z" fill="#FFF8E4"/>
<path fill-rule="evenodd" clip-rule="evenodd" d="M88.2576 15.392C88.2576 5.95996 92.6496 1.09996 101.002 1.09996C109.39 1.09996 113.782 5.95996 113.782 15.392C113.782 24.824 109.39 29.54 101.002 29.54C92.6496 29.54 88.2576 24.824 88.2576 15.392ZM110.254 19.496C111.982 18.812 112.342 17.192 111.118 15.716L101.614 4.23196C100.246 2.61196 97.9416 3.47596 97.3656 5.34797L92.5056 20.864C91.4616 24.248 93.7296 26.12 96.6096 24.968L110.254 19.496Z" fill="#FFF8E4"/>
<path d="M128.194 3.04397C125.674 4.12396 125.818 6.85997 127.15 8.51597L128.194 9.84797C129.562 11.576 129.418 13.484 127.222 14.96L121.426 18.92C118.726 20.756 121.102 25.148 123.874 23.492L139.102 14.42C142.558 12.368 145.15 13.592 145.294 16.544L145.654 24.104C145.834 27.992 144.07 29.54 141.406 29.54C138.742 29.54 136.618 26.768 138.994 23.132L142.846 17.192C143.602 16.04 142.702 15.212 141.91 15.212C141.226 15.212 140.686 15.284 139.39 17.012L133.486 24.716C130.714 28.352 129.202 29.54 125.962 29.54C121.714 29.54 117.754 24.932 117.754 15.824C117.754 6.46396 123.406 1.09996 131.578 1.09996C138.418 1.09996 142.954 3.33196 144.07 7.14796C145.078 10.532 140.146 12.656 137.878 9.66797L133.882 4.41196C132.694 2.86397 130.354 2.10796 128.194 3.04397Z" fill="#FFF8E4"/>
<path d="M172.673 21.26C175.049 21.296 176.849 22.772 176.849 25.004C176.849 27.272 175.625 29.54 171.881 29.54C170.441 29.54 168.533 28.856 166.553 26.444L157.661 15.68C156.869 14.672 156.509 13.916 156.509 13.412C156.545 12.476 157.265 12.224 158.597 12.404L169.541 13.808C173.393 14.312 174.653 12.584 174.653 10.712C174.653 8.94796 173.285 7.57996 170.657 7.57996H159.389C155.681 7.57996 153.665 9.77596 153.665 12.332C153.665 13.016 153.845 13.736 154.133 14.42L157.805 23.06C159.209 26.372 158.777 29.54 154.673 29.54C152.441 29.54 149.957 27.812 149.957 22.664C149.957 10.424 155.105 1.09996 166.049 1.09996C174.941 1.09996 177.065 6.71597 177.065 9.95596C177.065 12.404 176.165 14.6 171.089 16.4L165.185 18.488C164.321 18.776 163.637 19.208 163.637 20.072C163.637 20.9 164.213 21.188 165.581 21.188L172.673 21.26Z" fill="#FFF8E4"/>
<path d="M185.715 20.828L195.003 20.612C197.055 20.576 198.423 20.18 198.639 18.344L200.187 5.59996C200.439 3.61996 199.467 2.35997 197.955 2.64796C196.472 2.93049 195.196 5.56888 194.639 6.72262L194.607 6.78796L190.251 15.716C189.099 18.092 187.083 18.56 185.751 18.56C183.627 18.56 181.899 16.796 181.899 14.564C181.899 13.016 182.979 11.612 184.635 10.28L191.871 4.51997C195.003 2.03597 196.299 1.09996 198.639 1.09996C200.799 1.09996 202.275 2.64796 202.743 5.09596L206.019 22.412C206.775 26.444 205.551 29.54 201.843 29.54C198.891 29.54 197.487 27.668 197.487 25.472V23.6C197.487 21.62 196.443 21.368 195.183 22.448L191.655 25.472C191.465 25.6334 191.261 25.8115 191.045 26.0003C189.382 27.4534 186.996 29.54 184.383 29.54C182.295 29.54 179.955 28.352 179.955 24.968C179.955 22.088 182.547 20.9 185.715 20.828Z" fill="#FFF8E4"/>
<path d="M231.14 22.16C232.292 22.16 232.832 21.008 232.436 18.38L231.5 11.972C230.528 5.27596 234.056 1.09996 239.744 1.09996C244.28 1.09996 246.116 3.47596 246.152 12.188L246.224 24.176C246.26 28.28 243.884 29.54 241.868 29.54C238.844 29.54 237.908 27.2 237.908 25.364C237.908 24.1123 238.426 22.3899 238.833 21.0342C238.93 20.7132 239.02 20.4127 239.096 20.144L243.164 5.77996C243.992 2.79196 240.176 1.74796 239.204 4.95196L233.516 23.744C232.436 27.344 231.284 29.54 228.872 29.54C227.216 29.54 225.884 28.352 223.94 24.464L219.764 16.184C218.684 14.024 217.928 10.784 218.396 7.79596L218.72 5.74396C219.008 3.90796 217.532 2.97196 215.876 2.97196C213.86 2.97196 212.672 4.48396 212.672 6.53596C212.672 7.54397 213.14 9.16397 213.464 9.95596L218.432 22.16C219.944 25.868 219.188 29.54 215.3 29.54C210.584 29.54 210.008 24.788 210.008 19.568V11.972C210.008 3.87197 212.42 1.06396 216.596 1.06396C219.44 1.06396 221.816 2.50396 223.364 6.24796L229.196 20.396C229.736 21.728 230.456 22.16 231.14 22.16Z" fill="#FFF8E4"/>
<path fill-rule="evenodd" clip-rule="evenodd" d="M20.684 44.248C20.684 53.68 16.292 58.54 7.90397 58.54C-0.448027 58.54 -4.84003 53.68 -4.84003 44.248C-4.84003 34.816 -0.448027 30.1 7.90397 30.1C16.292 30.1 20.684 34.816 20.684 44.248ZM8.51597 55.408L18.02 43.924C19.244 42.448 18.884 40.828 17.156 40.144L3.51197 34.672C0.631974 33.52 -1.63603 35.392 -0.592027 38.776L4.26797 54.292C4.84397 56.164 7.14797 57.028 8.51597 55.408Z" fill="#FFF8E4"/>
<path d="M35.0961 32.044C32.5761 33.124 32.7201 35.86 34.0521 37.516L35.0961 38.848C36.4641 40.576 36.3201 42.484 34.1241 43.96L28.3281 47.92C25.6281 49.756 28.0041 54.148 30.7761 52.492L46.0041 43.42C49.4601 41.368 52.0521 42.592 52.1961 45.544L52.5561 53.104C52.7361 56.992 50.9721 58.54 48.3081 58.54C45.6441 58.54 43.5201 55.768 45.8961 52.132L49.7481 46.192C50.5041 45.04 49.6041 44.212 48.8121 44.212C48.1281 44.212 47.5881 44.284 46.2921 46.012L40.3881 53.716C37.6161 57.352 36.1041 58.54 32.8641 58.54C28.6161 58.54 24.6561 53.932 24.6561 44.824C24.6561 35.464 30.3081 30.1 38.4801 30.1C45.3201 30.1 49.8561 32.332 50.9721 36.148C51.9801 39.532 47.0481 41.656 44.7801 38.668L40.7841 33.412C39.5961 31.864 37.2561 31.108 35.0961 32.044Z" fill="#FFF8E4"/>
<path d="M79.5752 50.26C81.9512 50.296 83.7512 51.772 83.7512 54.004C83.7512 56.272 82.5272 58.54 78.7832 58.54C77.3432 58.54 75.4352 57.856 73.4552 55.444L64.5632 44.68C63.7712 43.672 63.4112 42.916 63.4112 42.412C63.4472 41.476 64.1672 41.224 65.4992 41.404L76.4432 42.808C80.2952 43.312 81.5552 41.584 81.5552 39.712C81.5552 37.948 80.1872 36.58 77.5592 36.58H66.2912C62.5832 36.58 60.5672 38.776 60.5672 41.332C60.5672 42.016 60.7472 42.736 61.0352 43.42L64.7072 52.06C66.1112 55.372 65.6792 58.54 61.5752 58.54C59.3432 58.54 56.8592 56.812 56.8592 51.664C56.8592 39.424 62.0072 30.1 72.9512 30.1C81.8432 30.1 83.9672 35.716 83.9672 38.956C83.9672 41.404 83.0672 43.6 77.9912 45.4L72.0872 47.488C71.2232 47.776 70.5392 48.208 70.5392 49.072C70.5392 49.9 71.1152 50.188 72.4832 50.188L79.5752 50.26Z" fill="#FFF8E4"/>
<path d="M92.6173 49.828L101.905 49.612C103.957 49.576 105.325 49.18 105.541 47.344L107.089 34.6C107.341 32.62 106.369 31.36 104.857 31.648C103.374 31.9305 102.099 34.5688 101.541 35.7226L101.509 35.788L97.1533 44.716C96.0013 47.092 93.9853 47.56 92.6533 47.56C90.5293 47.56 88.8013 45.796 88.8013 43.564C88.8013 42.016 89.8813 40.612 91.5373 39.28L98.7733 33.52C101.905 31.036 103.201 30.1 105.541 30.1C107.701 30.1 109.177 31.648 109.645 34.096L112.921 51.412C113.677 55.444 112.453 58.54 108.745 58.54C105.793 58.54 104.389 56.668 104.389 54.472V52.6C104.389 50.62 103.345 50.368 102.085 51.448L98.5573 54.472C98.3669 54.6334 98.1631 54.8115 97.9471 55.0003C96.2848 56.4534 93.8979 58.54 91.2853 58.54C89.1973 58.54 86.8573 57.352 86.8573 53.968C86.8573 51.088 89.4493 49.9 92.6173 49.828Z" fill="#FFF8E4"/>
<path d="M131.634 40.972L130.698 47.38C130.302 50.008 130.842 51.16 131.994 51.16C132.678 51.16 133.398 50.728 133.938 49.396L139.77 35.248C141.318 31.504 143.694 30.064 146.538 30.064C150.714 30.064 153.126 32.872 153.126 40.972V48.568C153.126 53.788 152.55 58.54 147.834 58.54C143.946 58.54 143.19 54.868 144.702 51.16L149.67 38.956C149.994 38.164 150.462 36.544 150.462 35.536C150.462 33.484 149.274 31.972 147.258 31.972C145.602 31.972 144.126 32.908 144.414 34.744L144.738 36.796C145.206 39.784 144.45 43.024 143.37 45.184L139.194 53.464C137.25 57.352 135.918 58.54 134.262 58.54C131.85 58.54 130.698 56.344 129.618 52.744L123.93 33.952C122.958 30.748 119.142 31.792 119.97 34.78L124.038 49.144C124.114 49.4127 124.204 49.7132 124.301 50.0342C124.708 51.3899 125.226 53.1123 125.226 54.364C125.226 56.2 124.29 58.54 121.266 58.54C119.25 58.54 116.874 57.28 116.91 53.176L116.982 41.188C117.018 32.476 118.854 30.1 123.39 30.1C129.078 30.1 132.606 34.276 131.634 40.972Z" fill="#FFF8E4"/>
<path d="M166.653 58.54C162.801 58.54 162.009 55.768 163.485 51.844L169.281 34.996C170.001 32.944 169.641 32.116 168.669 32.116C168.345 32.116 167.949 32.296 167.589 32.692L163.557 37.192C160.245 40.864 154.917 38.776 154.917 34.636C154.917 32.8 156.105 30.64 159.849 30.64H172.161C178.677 30.64 182.637 34.24 182.637 39.244C182.637 41.476 180.909 43.456 178.605 43.528C175.329 43.636 174.285 41.26 174.285 36.292V34.708C174.285 33.124 173.925 31.936 172.701 31.936C171.729 31.936 171.333 32.872 171.297 35.14L170.901 52.744C170.829 56.56 170.109 58.54 166.653 58.54Z" fill="#FFF8E4"/>
<path d="M203.982 43.348L203.694 33.7C203.55 28.696 211.794 29.02 211.686 33.916C211.65 35.392 210.498 37.3 209.49 38.92L200.67 53.392C199.23 55.768 197.142 58.54 194.55 58.54C189.258 58.54 188.646 50.836 194.37 50.836H197.754C200.202 50.836 199.986 49.756 199.446 49.036L188.358 34.204C187.35 32.872 186.054 33.844 186.558 35.176L188.178 39.388C188.862 41.188 188.358 42.196 187.206 42.592C186.702 42.772 185.766 42.376 185.37 41.332C184.074 37.912 184.794 30.1 190.05 30.1C192.102 30.1 193.074 31.108 194.658 33.376L201.894 43.816C203.262 45.76 204.018 44.5 203.982 43.348Z" fill="#FFF8E4"/>
<path fill-rule="evenodd" clip-rule="evenodd" d="M214.188 37.66C214.188 33.628 216.384 30.64 221.064 30.64H228.408C236.292 30.64 239.784 34.528 239.784 41.836C239.784 47.236 237.516 51.304 232.08 51.304C228.984 51.304 226.86 50.044 224.448 46.876L220.308 41.44C219.408 40.288 217.716 40.216 216.6 41.44C215.628 42.52 215.808 44.104 216.744 45.148L221.172 50.116C222.648 51.808 223.26 53.176 223.26 54.94C223.26 57.46 221.712 58.54 218.94 58.54C216.456 58.54 214.188 57.712 214.188 53.176V37.66ZM220.992 36.58C220.056 36.976 219.48 37.336 219.48 38.092C219.48 38.704 219.84 39.244 220.74 39.712L233.232 46.048C236.868 47.884 238.884 45.58 237.012 42.916L231.54 35.068C230.244 33.232 229.596 33.052 227.652 33.844L220.992 36.58Z" fill="#FFF8E4"/>
<path fill-rule="evenodd" clip-rule="evenodd" d="M268.536 44.248C268.536 53.68 264.144 58.54 255.756 58.54C247.404 58.54 243.012 53.68 243.012 44.248C243.012 34.816 247.404 30.1 255.756 30.1C264.144 30.1 268.536 34.816 268.536 44.248ZM256.368 55.408L265.872 43.924C267.096 42.448 266.736 40.828 265.008 40.144L251.364 34.672C248.484 33.52 246.216 35.392 247.26 38.776L252.12 54.292C252.696 56.164 255 57.028 256.368 55.408Z" fill="#FFF8E4"/>
</g>
<defs>
<clipPath id="clip0_176_181">
<rect width="248" height="60" fill="white"/>
</clipPath>
</defs>
</svg>
