<svg width="699" height="326" viewBox="0 0 699 326" fill="none" xmlns="http://www.w3.org/2000/svg">
<path d="M544.401 71.5967C525.218 71.5967 509.666 56.0703 509.666 36.9175C509.666 17.7647 525.218 2.23828 544.401 2.23828C563.584 2.23828 579.136 17.7647 579.136 36.9175C579.136 56.0703 563.584 71.5967 544.401 71.5967Z" fill="#FFB8A8" fill-opacity="0.5"/>
<path d="M557.753 37.8895C557.753 58.2525 535.593 72.0425 557.753 74.7585C582.57 77.8015 620.906 81.7905 605.616 37.8895C591.877 3.56851 546.672 -12.2445 520.716 10.9755C504.556 25.4315 557.753 17.5275 557.753 37.8895Z" fill="#372C24"/>
<path d="M601.913 306.933L606.502 165.816L527.827 144.376L601.913 306.933Z" fill="#013662"/>
<path fill-rule="evenodd" clip-rule="evenodd" d="M331 36.8765C331 55.9235 541.72 168.47 578.909 176.008C583.136 176.865 587.479 178.004 591.857 179.294L584.683 184.752L693.262 300.255L661.858 174.249L661.847 174.244C649.347 119.509 591.058 78.6795 551.454 78.6795C544.46 78.6795 538.246 79.3775 531.684 80.1145C502.978 83.3405 467.6 87.3155 331 36.8765Z" fill="#013662"/>
<path d="M148.678 82.0415C167.862 82.0415 183.413 66.5151 183.413 47.3623C183.413 28.2095 167.862 12.6831 148.678 12.6831C129.495 12.6831 113.944 28.2095 113.944 47.3623C113.944 66.5151 129.495 82.0415 148.678 82.0415Z" fill="#FFB8A8" fill-opacity="0.5"/>
<path d="M135.326 47.7711C135.326 68.1331 164.177 83.3911 137 82.0001C65.5003 78.3411 -24.27 170.9 73.6343 47.7711C103.719 14.0101 146.407 -2.36385 172.363 20.8562C188.523 35.3122 135.326 27.4081 135.326 47.7711Z" fill="#372C24"/>
<path d="M79.9142 318.056L75.3252 176.939L150.212 170.641L79.9142 318.056Z" fill="#372C24"/>
<path fill-rule="evenodd" clip-rule="evenodd" d="M166.209 179.688C214.236 172.623 279 163.096 279 148.676C189.648 145.103 180.323 125 171.5 105C167.309 95.5002 153 87.5002 143 87.5002C109.078 87.5002 65.0002 107 43.5172 184.408L12.0002 311L121.299 194.755L114.078 189.262C118.485 187.963 122.857 186.817 127.113 185.955C136.388 184.075 150.391 182.015 166.209 179.688Z" fill="#372C24"/>
</svg>
