<svg width="815" height="464" viewBox="0 0 815 464" fill="none" xmlns="http://www.w3.org/2000/svg">
<path fill-rule="evenodd" clip-rule="evenodd" d="M564.925 0.806431C618.328 -7.78369 652.367 54.2968 693.171 89.8136C739.334 129.995 809.267 157.119 814.567 218.101C819.995 280.559 773.643 342.771 717.591 370.817C669.5 394.88 615.994 359.852 564.925 343.012C535.09 333.173 516.774 307.606 487.957 295.094C416.649 264.132 284.427 295.529 277.243 218.101C270.33 143.587 412.508 170.451 472.21 125.356C515.14 92.9304 511.814 9.34962 564.925 0.806431Z" fill="#FFB8A8"/>
<path fill-rule="evenodd" clip-rule="evenodd" d="M148.231 273.099C183.187 266.126 221.074 230.335 248.827 251.743C275.937 272.655 242.114 314.417 244.747 347.549C247.855 386.663 299.606 437.336 265.3 459.043C228.216 482.508 192.178 415.419 148.231 408.619C118.564 404.029 91.4591 439.269 63.8854 427.878C30.3245 414.014 -4.09898 382.124 0.397672 347.549C4.87729 313.104 50.2599 301.15 82.4766 284.925C102.975 274.602 125.535 277.626 148.231 273.099Z" fill="#FFB8A8"/>
</svg>
