<svg width="632" height="444" viewBox="0 0 632 444" fill="none" xmlns="http://www.w3.org/2000/svg">
<path fill-rule="evenodd" clip-rule="evenodd" d="M0.0184967 194.07C1.33177 151.728 71.5278 154.992 100.133 123.709C131.916 88.9527 126.3 23.6175 170.595 7.52903C221.137 -10.8286 283.236 5.64318 321.618 43.2632C360.209 81.0885 377.025 142.525 360.913 194.07C346.823 239.145 284.196 240.762 249.767 273.129C217.586 303.381 214.776 374.189 170.595 372.985C126.129 371.773 126.301 301.1 95.6292 268.928C66.5997 238.48 -1.28482 236.091 0.0184967 194.07Z" fill="#FFB8A8"/>
<path fill-rule="evenodd" clip-rule="evenodd" d="M498.669 187.077C461.384 176.647 417.798 165.398 386.937 188.739C354.353 213.383 344.516 259.695 349.037 300.248C353.166 337.296 382.35 363.63 409.308 389.431C435.439 414.441 462.847 448.707 498.669 443.463C533.551 438.357 541.173 392.394 565.169 366.616C587.403 342.731 632.918 332.836 631.986 300.248C631.052 267.605 586.401 258.723 561.477 237.565C540.189 219.495 525.578 194.605 498.669 187.077Z" fill="#FFB8A8"/>
</svg>
