<svg width="24" height="32" viewBox="0 0 24 32" fill="none" xmlns="http://www.w3.org/2000/svg">
<path d="M23.5 6.5L17.5 0.5M23.5 6.5H18C17.7239 6.5 17.5 6.27614 17.5 6V0.5M23.5 6.5V13M17.5 0.5H1C0.723858 0.5 0.5 0.723858 0.5 1V20M0.5 20.5H23.5M0.5 20V31C0.5 31.2761 0.723858 31.5 1 31.5H23C23.2761 31.5 23.5 31.2761 23.5 31V13M0.5 20L9.64892 12.2956C9.84749 12.1284 10.141 12.141 10.3245 12.3245L13 15M16 18L13 15M13 15L18.647 8.88239C18.8396 8.67372 19.1672 8.66717 19.368 8.86798L23.5 13" stroke="black" stroke-linecap="round"/>
<circle cx="5.5" cy="7.5" r="2.5" stroke="black"/>
<path d="M1.5 1C1.5 1.27614 1.27614 1.5 1 1.5C0.723858 1.5 0.5 1.27614 0.5 1C0.5 0.723858 0.723858 0.5 1 0.5C1.27614 0.5 1.5 0.723858 1.5 1ZM3.5 1C3.5 1.27614 3.27614 1.5 3 1.5C2.72386 1.5 2.5 1.27614 2.5 1C2.5 0.723858 2.72386 0.5 3 0.5C3.27614 0.5 3.5 0.723858 3.5 1ZM7 1.5C7.27614 1.5 7.5 1.27614 7.5 1C7.5 0.723858 7.27614 0.5 7 0.5C6.72386 0.5 6.5 0.723858 6.5 1C6.5 1.27614 6.72386 1.5 7 1.5ZM5.5 1C5.5 1.27614 5.27614 1.5 5 1.5C4.72386 1.5 4.5 1.27614 4.5 1C4.5 0.723858 4.72386 0.5 5 0.5C5.27614 0.5 5.5 0.723858 5.5 1ZM9 1.5C9.27614 1.5 9.5 1.27614 9.5 1C9.5 0.723858 9.27614 0.5 9 0.5C8.72386 0.5 8.5 0.723858 8.5 1C8.5 1.27614 8.72386 1.5 9 1.5ZM11.5 1C11.5 1.27614 11.2761 1.5 11 1.5C10.7239 1.5 10.5 1.27614 10.5 1C10.5 0.723858 10.7239 0.5 11 0.5C11.2761 0.5 11.5 0.723858 11.5 1ZM15 1.5C15.2761 1.5 15.5 1.27614 15.5 1C15.5 0.723858 15.2761 0.5 15 0.5C14.7239 0.5 14.5 0.723858 14.5 1C14.5 1.27614 14.7239 1.5 15 1.5ZM13.5 1C13.5 1.27614 13.2761 1.5 13 1.5C12.7239 1.5 12.5 1.27614 12.5 1C12.5 0.723858 12.7239 0.5 13 0.5C13.2761 0.5 13.5 0.723858 13.5 1ZM17 1.5C17.2761 1.5 17.5 1.27614 17.5 1C17.5 0.723858 17.2761 0.5 17 0.5C16.7239 0.5 16.5 0.723858 16.5 1C16.5 1.27614 16.7239 1.5 17 1.5ZM1.5 3C1.5 3.27614 1.27614 3.5 1 3.5C0.723858 3.5 0.5 3.27614 0.5 3C0.5 2.72386 0.723858 2.5 1 2.5C1.27614 2.5 1.5 2.72386 1.5 3ZM3.5 3C3.5 3.27614 3.27614 3.5 3 3.5C2.72386 3.5 2.5 3.27614 2.5 3C2.5 2.72386 2.72386 2.5 3 2.5C3.27614 2.5 3.5 2.72386 3.5 3ZM7 3.5C7.27614 3.5 7.5 3.27614 7.5 3C7.5 2.72386 7.27614 2.5 7 2.5C6.72386 2.5 6.5 2.72386 6.5 3C6.5 3.27614 6.72386 3.5 7 3.5ZM5.5 3C5.5 3.27614 5.27614 3.5 5 3.5C4.72386 3.5 4.5 3.27614 4.5 3C4.5 2.72386 4.72386 2.5 5 2.5C5.27614 2.5 5.5 2.72386 5.5 3ZM9 3.5C9.27614 3.5 9.5 3.27614 9.5 3C9.5 2.72386 9.27614 2.5 9 2.5C8.72386 2.5 8.5 2.72386 8.5 3C8.5 3.27614 8.72386 3.5 9 3.5ZM11.5 3C11.5 3.27614 11.2761 3.5 11 3.5C10.7239 3.5 10.5 3.27614 10.5 3C10.5 2.72386 10.7239 2.5 11 2.5C11.2761 2.5 11.5 2.72386 11.5 3ZM15 3.5C15.2761 3.5 15.5 3.27614 15.5 3C15.5 2.72386 15.2761 2.5 15 2.5C14.7239 2.5 14.5 2.72386 14.5 3C14.5 3.27614 14.7239 3.5 15 3.5ZM13.5 3C13.5 3.27614 13.2761 3.5 13 3.5C12.7239 3.5 12.5 3.27614 12.5 3C12.5 2.72386 12.7239 2.5 13 2.5C13.2761 2.5 13.5 2.72386 13.5 3ZM17 3.5C17.2761 3.5 17.5 3.27614 17.5 3C17.5 2.72386 17.2761 2.5 17 2.5C16.7239 2.5 16.5 2.72386 16.5 3C16.5 3.27614 16.7239 3.5 17 3.5ZM1 5.5C1.27614 5.5 1.5 5.27614 1.5 5C1.5 4.72386 1.27614 4.5 1 4.5C0.723858 4.5 0.5 4.72386 0.5 5C0.5 5.27614 0.723858 5.5 1 5.5ZM3 5.5C3.27614 5.5 3.5 5.27614 3.5 5C3.5 4.72386 3.27614 4.5 3 4.5C2.72386 4.5 2.5 4.72386 2.5 5C2.5 5.27614 2.72386 5.5 3 5.5ZM7.5 5C7.5 5.27614 7.27614 5.5 7 5.5C6.72386 5.5 6.5 5.27614 6.5 5C6.5 4.72386 6.72386 4.5 7 4.5C7.27614 4.5 7.5 4.72386 7.5 5ZM5 5.5C5.27614 5.5 5.5 5.27614 5.5 5C5.5 4.72386 5.27614 4.5 5 4.5C4.72386 4.5 4.5 4.72386 4.5 5C4.5 5.27614 4.72386 5.5 5 5.5ZM9.5 5C9.5 5.27614 9.27614 5.5 9 5.5C8.72386 5.5 8.5 5.27614 8.5 5C8.5 4.72386 8.72386 4.5 9 4.5C9.27614 4.5 9.5 4.72386 9.5 5ZM11 5.5C11.2761 5.5 11.5 5.27614 11.5 5C11.5 4.72386 11.2761 4.5 11 4.5C10.7239 4.5 10.5 4.72386 10.5 5C10.5 5.27614 10.7239 5.5 11 5.5ZM15.5 5C15.5 5.27614 15.2761 5.5 15 5.5C14.7239 5.5 14.5 5.27614 14.5 5C14.5 4.72386 14.7239 4.5 15 4.5C15.2761 4.5 15.5 4.72386 15.5 5ZM13 5.5C13.2761 5.5 13.5 5.27614 13.5 5C13.5 4.72386 13.2761 4.5 13 4.5C12.7239 4.5 12.5 4.72386 12.5 5C12.5 5.27614 12.7239 5.5 13 5.5ZM17.5 5C17.5 5.27614 17.2761 5.5 17 5.5C16.7239 5.5 16.5 5.27614 16.5 5C16.5 4.72386 16.7239 4.5 17 4.5C17.2761 4.5 17.5 4.72386 17.5 5ZM1.5 7C1.5 7.27614 1.27614 7.5 1 7.5C0.723858 7.5 0.5 7.27614 0.5 7C0.5 6.72386 0.723858 6.5 1 6.5C1.27614 6.5 1.5 6.72386 1.5 7ZM3.5 7C3.5 7.27614 3.27614 7.5 3 7.5C2.72386 7.5 2.5 7.27614 2.5 7C2.5 6.72386 2.72386 6.5 3 6.5C3.27614 6.5 3.5 6.72386 3.5 7ZM9 7.5C9.27614 7.5 9.5 7.27614 9.5 7C9.5 6.72386 9.27614 6.5 9 6.5C8.72386 6.5 8.5 6.72386 8.5 7C8.5 7.27614 8.72386 7.5 9 7.5ZM11.5 7C11.5 7.27614 11.2761 7.5 11 7.5C10.7239 7.5 10.5 7.27614 10.5 7C10.5 6.72386 10.7239 6.5 11 6.5C11.2761 6.5 11.5 6.72386 11.5 7ZM15 7.5C15.2761 7.5 15.5 7.27614 15.5 7C15.5 6.72386 15.2761 6.5 15 6.5C14.7239 6.5 14.5 6.72386 14.5 7C14.5 7.27614 14.7239 7.5 15 7.5ZM13.5 7C13.5 7.27614 13.2761 7.5 13 7.5C12.7239 7.5 12.5 7.27614 12.5 7C12.5 6.72386 12.7239 6.5 13 6.5C13.2761 6.5 13.5 6.72386 13.5 7ZM17 7.5C17.2761 7.5 17.5 7.27614 17.5 7C17.5 6.72386 17.2761 6.5 17 6.5C16.7239 6.5 16.5 6.72386 16.5 7C16.5 7.27614 16.7239 7.5 17 7.5ZM19.5 7C19.5 7.27614 19.2761 7.5 19 7.5C18.7239 7.5 18.5 7.27614 18.5 7C18.5 6.72386 18.7239 6.5 19 6.5C19.2761 6.5 19.5 6.72386 19.5 7ZM21 7.5C21.2761 7.5 21.5 7.27614 21.5 7C21.5 6.72386 21.2761 6.5 21 6.5C20.7239 6.5 20.5 6.72386 20.5 7C20.5 7.27614 20.7239 7.5 21 7.5ZM2.5 2C2.5 2.27614 2.27614 2.5 2 2.5C1.72386 2.5 1.5 2.27614 1.5 2C1.5 1.72386 1.72386 1.5 2 1.5C2.27614 1.5 2.5 1.72386 2.5 2ZM4.5 2C4.5 2.27614 4.27614 2.5 4 2.5C3.72386 2.5 3.5 2.27614 3.5 2C3.5 1.72386 3.72386 1.5 4 1.5C4.27614 1.5 4.5 1.72386 4.5 2ZM8 2.5C8.27614 2.5 8.5 2.27614 8.5 2C8.5 1.72386 8.27614 1.5 8 1.5C7.72386 1.5 7.5 1.72386 7.5 2C7.5 2.27614 7.72386 2.5 8 2.5ZM6.5 2C6.5 2.27614 6.27614 2.5 6 2.5C5.72386 2.5 5.5 2.27614 5.5 2C5.5 1.72386 5.72386 1.5 6 1.5C6.27614 1.5 6.5 1.72386 6.5 2ZM10 2.5C10.2761 2.5 10.5 2.27614 10.5 2C10.5 1.72386 10.2761 1.5 10 1.5C9.72386 1.5 9.5 1.72386 9.5 2C9.5 2.27614 9.72386 2.5 10 2.5ZM12.5 2C12.5 2.27614 12.2761 2.5 12 2.5C11.7239 2.5 11.5 2.27614 11.5 2C11.5 1.72386 11.7239 1.5 12 1.5C12.2761 1.5 12.5 1.72386 12.5 2ZM16 2.5C16.2761 2.5 16.5 2.27614 16.5 2C16.5 1.72386 16.2761 1.5 16 1.5C15.7239 1.5 15.5 1.72386 15.5 2C15.5 2.27614 15.7239 2.5 16 2.5ZM14.5 2C14.5 2.27614 14.2761 2.5 14 2.5C13.7239 2.5 13.5 2.27614 13.5 2C13.5 1.72386 13.7239 1.5 14 1.5C14.2761 1.5 14.5 1.72386 14.5 2ZM2 4.5C2.27614 4.5 2.5 4.27614 2.5 4C2.5 3.72386 2.27614 3.5 2 3.5C1.72386 3.5 1.5 3.72386 1.5 4C1.5 4.27614 1.72386 4.5 2 4.5ZM4 4.5C4.27614 4.5 4.5 4.27614 4.5 4C4.5 3.72386 4.27614 3.5 4 3.5C3.72386 3.5 3.5 3.72386 3.5 4C3.5 4.27614 3.72386 4.5 4 4.5ZM8.5 4C8.5 4.27614 8.27614 4.5 8 4.5C7.72386 4.5 7.5 4.27614 7.5 4C7.5 3.72386 7.72386 3.5 8 3.5C8.27614 3.5 8.5 3.72386 8.5 4ZM6 4.5C6.27614 4.5 6.5 4.27614 6.5 4C6.5 3.72386 6.27614 3.5 6 3.5C5.72386 3.5 5.5 3.72386 5.5 4C5.5 4.27614 5.72386 4.5 6 4.5ZM10.5 4C10.5 4.27614 10.2761 4.5 10 4.5C9.72386 4.5 9.5 4.27614 9.5 4C9.5 3.72386 9.72386 3.5 10 3.5C10.2761 3.5 10.5 3.72386 10.5 4ZM12 4.5C12.2761 4.5 12.5 4.27614 12.5 4C12.5 3.72386 12.2761 3.5 12 3.5C11.7239 3.5 11.5 3.72386 11.5 4C11.5 4.27614 11.7239 4.5 12 4.5ZM16.5 4C16.5 4.27614 16.2761 4.5 16 4.5C15.7239 4.5 15.5 4.27614 15.5 4C15.5 3.72386 15.7239 3.5 16 3.5C16.2761 3.5 16.5 3.72386 16.5 4ZM14 4.5C14.2761 4.5 14.5 4.27614 14.5 4C14.5 3.72386 14.2761 3.5 14 3.5C13.7239 3.5 13.5 3.72386 13.5 4C13.5 4.27614 13.7239 4.5 14 4.5ZM2.5 6C2.5 6.27614 2.27614 6.5 2 6.5C1.72386 6.5 1.5 6.27614 1.5 6C1.5 5.72386 1.72386 5.5 2 5.5C2.27614 5.5 2.5 5.72386 2.5 6ZM8 6.5C8.27614 6.5 8.5 6.27614 8.5 6C8.5 5.72386 8.27614 5.5 8 5.5C7.72386 5.5 7.5 5.72386 7.5 6C7.5 6.27614 7.72386 6.5 8 6.5ZM10 6.5C10.2761 6.5 10.5 6.27614 10.5 6C10.5 5.72386 10.2761 5.5 10 5.5C9.72386 5.5 9.5 5.72386 9.5 6C9.5 6.27614 9.72386 6.5 10 6.5ZM12.5 6C12.5 6.27614 12.2761 6.5 12 6.5C11.7239 6.5 11.5 6.27614 11.5 6C11.5 5.72386 11.7239 5.5 12 5.5C12.2761 5.5 12.5 5.72386 12.5 6ZM16 6.5C16.2761 6.5 16.5 6.27614 16.5 6C16.5 5.72386 16.2761 5.5 16 5.5C15.7239 5.5 15.5 5.72386 15.5 6C15.5 6.27614 15.7239 6.5 16 6.5ZM14.5 6C14.5 6.27614 14.2761 6.5 14 6.5C13.7239 6.5 13.5 6.27614 13.5 6C13.5 5.72386 13.7239 5.5 14 5.5C14.2761 5.5 14.5 5.72386 14.5 6ZM2.5 8C2.5 8.27614 2.27614 8.5 2 8.5C1.72386 8.5 1.5 8.27614 1.5 8C1.5 7.72386 1.72386 7.5 2 7.5C2.27614 7.5 2.5 7.72386 2.5 8ZM8.5 8C8.5 8.27614 8.27614 8.5 8 8.5C7.72386 8.5 7.5 8.27614 7.5 8C7.5 7.72386 7.72386 7.5 8 7.5C8.27614 7.5 8.5 7.72386 8.5 8ZM10 8.5C10.2761 8.5 10.5 8.27614 10.5 8C10.5 7.72386 10.2761 7.5 10 7.5C9.72386 7.5 9.5 7.72386 9.5 8C9.5 8.27614 9.72386 8.5 10 8.5ZM12.5 8C12.5 8.27614 12.2761 8.5 12 8.5C11.7239 8.5 11.5 8.27614 11.5 8C11.5 7.72386 11.7239 7.5 12 7.5C12.2761 7.5 12.5 7.72386 12.5 8ZM16 8.5C16.2761 8.5 16.5 8.27614 16.5 8C16.5 7.72386 16.2761 7.5 16 7.5C15.7239 7.5 15.5 7.72386 15.5 8C15.5 8.27614 15.7239 8.5 16 8.5ZM14.5 8C14.5 8.27614 14.2761 8.5 14 8.5C13.7239 8.5 13.5 8.27614 13.5 8C13.5 7.72386 13.7239 7.5 14 7.5C14.2761 7.5 14.5 7.72386 14.5 8ZM18 8.5C18.2761 8.5 18.5 8.27614 18.5 8C18.5 7.72386 18.2761 7.5 18 7.5C17.7239 7.5 17.5 7.72386 17.5 8C17.5 8.27614 17.7239 8.5 18 8.5ZM20.5 8C20.5 8.27614 20.2761 8.5 20 8.5C19.7239 8.5 19.5 8.27614 19.5 8C19.5 7.72386 19.7239 7.5 20 7.5C20.2761 7.5 20.5 7.72386 20.5 8ZM22 8.5C22.2761 8.5 22.5 8.27614 22.5 8C22.5 7.72386 22.2761 7.5 22 7.5C21.7239 7.5 21.5 7.72386 21.5 8C21.5 8.27614 21.7239 8.5 22 8.5ZM1 9.5C1.27614 9.5 1.5 9.27614 1.5 9C1.5 8.72386 1.27614 8.5 1 8.5C0.723858 8.5 0.5 8.72386 0.5 9C0.5 9.27614 0.723858 9.5 1 9.5ZM3 9.5C3.27614 9.5 3.5 9.27614 3.5 9C3.5 8.72386 3.27614 8.5 3 8.5C2.72386 8.5 2.5 8.72386 2.5 9C2.5 9.27614 2.72386 9.5 3 9.5ZM9.5 9C9.5 9.27614 9.27614 9.5 9 9.5C8.72386 9.5 8.5 9.27614 8.5 9C8.5 8.72386 8.72386 8.5 9 8.5C9.27614 8.5 9.5 8.72386 9.5 9ZM11 9.5C11.2761 9.5 11.5 9.27614 11.5 9C11.5 8.72386 11.2761 8.5 11 8.5C10.7239 8.5 10.5 8.72386 10.5 9C10.5 9.27614 10.7239 9.5 11 9.5ZM15.5 9C15.5 9.27614 15.2761 9.5 15 9.5C14.7239 9.5 14.5 9.27614 14.5 9C14.5 8.72386 14.7239 8.5 15 8.5C15.2761 8.5 15.5 8.72386 15.5 9ZM13 9.5C13.2761 9.5 13.5 9.27614 13.5 9C13.5 8.72386 13.2761 8.5 13 8.5C12.7239 8.5 12.5 8.72386 12.5 9C12.5 9.27614 12.7239 9.5 13 9.5ZM17.5 9C17.5 9.27614 17.2761 9.5 17 9.5C16.7239 9.5 16.5 9.27614 16.5 9C16.5 8.72386 16.7239 8.5 17 8.5C17.2761 8.5 17.5 8.72386 17.5 9ZM19 9.5C19.2761 9.5 19.5 9.27614 19.5 9C19.5 8.72386 19.2761 8.5 19 8.5C18.7239 8.5 18.5 8.72386 18.5 9C18.5 9.27614 18.7239 9.5 19 9.5ZM21.5 9C21.5 9.27614 21.2761 9.5 21 9.5C20.7239 9.5 20.5 9.27614 20.5 9C20.5 8.72386 20.7239 8.5 21 8.5C21.2761 8.5 21.5 8.72386 21.5 9ZM1 11.5C1.27614 11.5 1.5 11.2761 1.5 11C1.5 10.7239 1.27614 10.5 1 10.5C0.723858 10.5 0.5 10.7239 0.5 11C0.5 11.2761 0.723858 11.5 1 11.5ZM3 11.5C3.27614 11.5 3.5 11.2761 3.5 11C3.5 10.7239 3.27614 10.5 3 10.5C2.72386 10.5 2.5 10.7239 2.5 11C2.5 11.2761 2.72386 11.5 3 11.5ZM9.5 11C9.5 11.2761 9.27614 11.5 9 11.5C8.72386 11.5 8.5 11.2761 8.5 11C8.5 10.7239 8.72386 10.5 9 10.5C9.27614 10.5 9.5 10.7239 9.5 11ZM11 11.5C11.2761 11.5 11.5 11.2761 11.5 11C11.5 10.7239 11.2761 10.5 11 10.5C10.7239 10.5 10.5 10.7239 10.5 11C10.5 11.2761 10.7239 11.5 11 11.5ZM15.5 11C15.5 11.2761 15.2761 11.5 15 11.5C14.7239 11.5 14.5 11.2761 14.5 11C14.5 10.7239 14.7239 10.5 15 10.5C15.2761 10.5 15.5 10.7239 15.5 11ZM13 11.5C13.2761 11.5 13.5 11.2761 13.5 11C13.5 10.7239 13.2761 10.5 13 10.5C12.7239 10.5 12.5 10.7239 12.5 11C12.5 11.2761 12.7239 11.5 13 11.5ZM17.5 11C17.5 11.2761 17.2761 11.5 17 11.5C16.7239 11.5 16.5 11.2761 16.5 11C16.5 10.7239 16.7239 10.5 17 10.5C17.2761 10.5 17.5 10.7239 17.5 11ZM21 11.5C21.2761 11.5 21.5 11.2761 21.5 11C21.5 10.7239 21.2761 10.5 21 10.5C20.7239 10.5 20.5 10.7239 20.5 11C20.5 11.2761 20.7239 11.5 21 11.5ZM1.5 13C1.5 13.2761 1.27614 13.5 1 13.5C0.723858 13.5 0.5 13.2761 0.5 13C0.5 12.7239 0.723858 12.5 1 12.5C1.27614 12.5 1.5 12.7239 1.5 13ZM3.5 13C3.5 13.2761 3.27614 13.5 3 13.5C2.72386 13.5 2.5 13.2761 2.5 13C2.5 12.7239 2.72386 12.5 3 12.5C3.27614 12.5 3.5 12.7239 3.5 13ZM7 13.5C7.27614 13.5 7.5 13.2761 7.5 13C7.5 12.7239 7.27614 12.5 7 12.5C6.72386 12.5 6.5 12.7239 6.5 13C6.5 13.2761 6.72386 13.5 7 13.5ZM5.5 13C5.5 13.2761 5.27614 13.5 5 13.5C4.72386 13.5 4.5 13.2761 4.5 13C4.5 12.7239 4.72386 12.5 5 12.5C5.27614 12.5 5.5 12.7239 5.5 13ZM15 13.5C15.2761 13.5 15.5 13.2761 15.5 13C15.5 12.7239 15.2761 12.5 15 12.5C14.7239 12.5 14.5 12.7239 14.5 13C14.5 13.2761 14.7239 13.5 15 13.5ZM13.5 13C13.5 13.2761 13.2761 13.5 13 13.5C12.7239 13.5 12.5 13.2761 12.5 13C12.5 12.7239 12.7239 12.5 13 12.5C13.2761 12.5 13.5 12.7239 13.5 13ZM1.5 15C1.5 15.2761 1.27614 15.5 1 15.5C0.723858 15.5 0.5 15.2761 0.5 15C0.5 14.7239 0.723858 14.5 1 14.5C1.27614 14.5 1.5 14.7239 1.5 15ZM3.5 15C3.5 15.2761 3.27614 15.5 3 15.5C2.72386 15.5 2.5 15.2761 2.5 15C2.5 14.7239 2.72386 14.5 3 14.5C3.27614 14.5 3.5 14.7239 3.5 15ZM5.5 15C5.5 15.2761 5.27614 15.5 5 15.5C4.72386 15.5 4.5 15.2761 4.5 15C4.5 14.7239 4.72386 14.5 5 14.5C5.27614 14.5 5.5 14.7239 5.5 15ZM2 10.5C2.27614 10.5 2.5 10.2761 2.5 10C2.5 9.72386 2.27614 9.5 2 9.5C1.72386 9.5 1.5 9.72386 1.5 10C1.5 10.2761 1.72386 10.5 2 10.5ZM8.5 10C8.5 10.2761 8.27614 10.5 8 10.5C7.72386 10.5 7.5 10.2761 7.5 10C7.5 9.72386 7.72386 9.5 8 9.5C8.27614 9.5 8.5 9.72386 8.5 10ZM10 10.5C10.2761 10.5 10.5 10.2761 10.5 10C10.5 9.72386 10.2761 9.5 10 9.5C9.72386 9.5 9.5 9.72386 9.5 10C9.5 10.2761 9.72386 10.5 10 10.5ZM12.5 10C12.5 10.2761 12.2761 10.5 12 10.5C11.7239 10.5 11.5 10.2761 11.5 10C11.5 9.72386 11.7239 9.5 12 9.5C12.2761 9.5 12.5 9.72386 12.5 10ZM16 10.5C16.2761 10.5 16.5 10.2761 16.5 10C16.5 9.72386 16.2761 9.5 16 9.5C15.7239 9.5 15.5 9.72386 15.5 10C15.5 10.2761 15.7239 10.5 16 10.5ZM14.5 10C14.5 10.2761 14.2761 10.5 14 10.5C13.7239 10.5 13.5 10.2761 13.5 10C13.5 9.72386 13.7239 9.5 14 9.5C14.2761 9.5 14.5 9.72386 14.5 10ZM18 10.5C18.2761 10.5 18.5 10.2761 18.5 10C18.5 9.72386 18.2761 9.5 18 9.5C17.7239 9.5 17.5 9.72386 17.5 10C17.5 10.2761 17.7239 10.5 18 10.5ZM20.5 10C20.5 10.2761 20.2761 10.5 20 10.5C19.7239 10.5 19.5 10.2761 19.5 10C19.5 9.72386 19.7239 9.5 20 9.5C20.2761 9.5 20.5 9.72386 20.5 10ZM22 10.5C22.2761 10.5 22.5 10.2761 22.5 10C22.5 9.72386 22.2761 9.5 22 9.5C21.7239 9.5 21.5 9.72386 21.5 10C21.5 10.2761 21.7239 10.5 22 10.5ZM2.5 12C2.5 12.2761 2.27614 12.5 2 12.5C1.72386 12.5 1.5 12.2761 1.5 12C1.5 11.7239 1.72386 11.5 2 11.5C2.27614 11.5 2.5 11.7239 2.5 12ZM4 12.5C4.27614 12.5 4.5 12.2761 4.5 12C4.5 11.7239 4.27614 11.5 4 11.5C3.72386 11.5 3.5 11.7239 3.5 12C3.5 12.2761 3.72386 12.5 4 12.5ZM8.5 12C8.5 12.2761 8.27614 12.5 8 12.5C7.72386 12.5 7.5 12.2761 7.5 12C7.5 11.7239 7.72386 11.5 8 11.5C8.27614 11.5 8.5 11.7239 8.5 12ZM6 12.5C6.27614 12.5 6.5 12.2761 6.5 12C6.5 11.7239 6.27614 11.5 6 11.5C5.72386 11.5 5.5 11.7239 5.5 12C5.5 12.2761 5.72386 12.5 6 12.5ZM10.5 12C10.5 12.2761 10.2761 12.5 10 12.5C9.72386 12.5 9.5 12.2761 9.5 12C9.5 11.7239 9.72386 11.5 10 11.5C10.2761 11.5 10.5 11.7239 10.5 12ZM12 12.5C12.2761 12.5 12.5 12.2761 12.5 12C12.5 11.7239 12.2761 11.5 12 11.5C11.7239 11.5 11.5 11.7239 11.5 12C11.5 12.2761 11.7239 12.5 12 12.5ZM16.5 12C16.5 12.2761 16.2761 12.5 16 12.5C15.7239 12.5 15.5 12.2761 15.5 12C15.5 11.7239 15.7239 11.5 16 11.5C16.2761 11.5 16.5 11.7239 16.5 12ZM14 12.5C14.2761 12.5 14.5 12.2761 14.5 12C14.5 11.7239 14.2761 11.5 14 11.5C13.7239 11.5 13.5 11.7239 13.5 12C13.5 12.2761 13.7239 12.5 14 12.5ZM22.5 12C22.5 12.2761 22.2761 12.5 22 12.5C21.7239 12.5 21.5 12.2761 21.5 12C21.5 11.7239 21.7239 11.5 22 11.5C22.2761 11.5 22.5 11.7239 22.5 12ZM2 14.5C2.27614 14.5 2.5 14.2761 2.5 14C2.5 13.7239 2.27614 13.5 2 13.5C1.72386 13.5 1.5 13.7239 1.5 14C1.5 14.2761 1.72386 14.5 2 14.5ZM4.5 14C4.5 14.2761 4.27614 14.5 4 14.5C3.72386 14.5 3.5 14.2761 3.5 14C3.5 13.7239 3.72386 13.5 4 13.5C4.27614 13.5 4.5 13.7239 4.5 14ZM6.5 14C6.5 14.2761 6.27614 14.5 6 14.5C5.72386 14.5 5.5 14.2761 5.5 14C5.5 13.7239 5.72386 13.5 6 13.5C6.27614 13.5 6.5 13.7239 6.5 14ZM14 14.5C14.2761 14.5 14.5 14.2761 14.5 14C14.5 13.7239 14.2761 13.5 14 13.5C13.7239 13.5 13.5 13.7239 13.5 14C13.5 14.2761 13.7239 14.5 14 14.5ZM2.5 16C2.5 16.2761 2.27614 16.5 2 16.5C1.72386 16.5 1.5 16.2761 1.5 16C1.5 15.7239 1.72386 15.5 2 15.5C2.27614 15.5 2.5 15.7239 2.5 16ZM4 16.5C4.27614 16.5 4.5 16.2761 4.5 16C4.5 15.7239 4.27614 15.5 4 15.5C3.72386 15.5 3.5 15.7239 3.5 16C3.5 16.2761 3.72386 16.5 4 16.5ZM1 17.5C1.27614 17.5 1.5 17.2761 1.5 17C1.5 16.7239 1.27614 16.5 1 16.5C0.723858 16.5 0.5 16.7239 0.5 17C0.5 17.2761 0.723858 17.5 1 17.5ZM3.5 17C3.5 17.2761 3.27614 17.5 3 17.5C2.72386 17.5 2.5 17.2761 2.5 17C2.5 16.7239 2.72386 16.5 3 16.5C3.27614 16.5 3.5 16.7239 3.5 17ZM1.5 19C1.5 19.2761 1.27614 19.5 1 19.5C0.723858 19.5 0.5 19.2761 0.5 19C0.5 18.7239 0.723858 18.5 1 18.5C1.27614 18.5 1.5 18.7239 1.5 19ZM2 18.5C2.27614 18.5 2.5 18.2761 2.5 18C2.5 17.7239 2.27614 17.5 2 17.5C1.72386 17.5 1.5 17.7239 1.5 18C1.5 18.2761 1.72386 18.5 2 18.5ZM23.5 11C23.5 11.2761 23.2761 11.5 23 11.5C22.7239 11.5 22.5 11.2761 22.5 11C22.5 10.7239 22.7239 10.5 23 10.5C23.2761 10.5 23.5 10.7239 23.5 11ZM23 13.5C23.2761 13.5 23.5 13.2761 23.5 13C23.5 12.7239 23.2761 12.5 23 12.5C22.7239 12.5 22.5 12.7239 22.5 13C22.5 13.2761 22.7239 13.5 23 13.5ZM23.5 9C23.5 9.27614 23.2761 9.5 23 9.5C22.7239 9.5 22.5 9.27614 22.5 9C22.5 8.72386 22.7239 8.5 23 8.5C23.2761 8.5 23.5 8.72386 23.5 9ZM23 7.5C23.2761 7.5 23.5 7.27614 23.5 7C23.5 6.72386 23.2761 6.5 23 6.5C22.7239 6.5 22.5 6.72386 22.5 7C22.5 7.27614 22.7239 7.5 23 7.5Z" fill="black"/>
<path d="M4 10.5C4.27614 10.5 4.5 10.2761 4.5 10C4.5 9.72386 4.27614 9.5 4 9.5C3.72386 9.5 3.5 9.72386 3.5 10C3.5 10.2761 3.72386 10.5 4 10.5Z" fill="black"/>
<path d="M6 10.5C6.27614 10.5 6.5 10.2761 6.5 10C6.5 9.72386 6.27614 9.5 6 9.5C5.72386 9.5 5.5 9.72386 5.5 10C5.5 10.2761 5.72386 10.5 6 10.5Z" fill="black"/>
<path d="M5.5 11C5.5 11.2761 5.27614 11.5 5 11.5C4.72386 11.5 4.5 11.2761 4.5 11C4.5 10.7239 4.72386 10.5 5 10.5C5.27614 10.5 5.5 10.7239 5.5 11Z" fill="black"/>
<path d="M7 11.5C7.27614 11.5 7.5 11.2761 7.5 11C7.5 10.7239 7.27614 10.5 7 10.5C6.72386 10.5 6.5 10.7239 6.5 11C6.5 11.2761 6.72386 11.5 7 11.5Z" fill="black"/>
<path d="M4.83769 29H3.80969V23.1H5.68569C6.13902 23.1 6.52169 23.1867 6.83369 23.36C7.14835 23.5307 7.38702 23.7627 7.54969 24.056C7.71235 24.3493 7.79369 24.6773 7.79369 25.04C7.79369 25.4027 7.71102 25.736 7.54569 26.04C7.38035 26.344 7.14035 26.588 6.82569 26.772C6.51369 26.9533 6.13369 27.044 5.68569 27.044H4.83769V29ZM4.83769 26.712L4.37369 26.224H5.57369C5.82435 26.224 6.03769 26.176 6.21369 26.08C6.38969 25.984 6.52435 25.848 6.61769 25.672C6.71102 25.496 6.75769 25.2853 6.75769 25.04C6.75769 24.7947 6.71235 24.5893 6.62169 24.424C6.53102 24.2587 6.39769 24.1333 6.22169 24.048C6.04835 23.9627 5.83235 23.92 5.57369 23.92H4.37369L4.83769 23.408V26.712ZM10.2622 29H9.26219V23.1H10.8742L13.0542 28.572L12.9062 28.616V23.1H13.9062V29H12.2742L10.0982 23.54L10.2622 23.496V29ZM17.8977 29.088C17.439 29.088 17.023 28.9707 16.6497 28.736C16.2764 28.5013 15.979 28.1587 15.7577 27.708C15.539 27.2573 15.4297 26.708 15.4297 26.06C15.4297 25.4147 15.543 24.8667 15.7697 24.416C15.999 23.9627 16.3084 23.616 16.6977 23.376C17.087 23.136 17.5217 23.016 18.0017 23.016C18.4017 23.016 18.739 23.0827 19.0137 23.216C19.291 23.3467 19.5164 23.516 19.6897 23.724C19.8657 23.9293 19.9924 24.148 20.0697 24.38C20.1497 24.6093 20.1897 24.8213 20.1897 25.016C20.1897 25.024 20.1897 25.032 20.1897 25.04C20.1897 25.048 20.1897 25.056 20.1897 25.064H19.1897C19.1897 25.056 19.1897 25.048 19.1897 25.04C19.1897 25.032 19.1897 25.024 19.1897 25.016C19.1897 24.88 19.1657 24.744 19.1177 24.608C19.0697 24.4693 18.995 24.3453 18.8937 24.236C18.795 24.1267 18.671 24.0387 18.5217 23.972C18.375 23.9053 18.2017 23.872 18.0017 23.872C17.735 23.872 17.4844 23.9467 17.2497 24.096C17.0177 24.2453 16.8297 24.4813 16.6857 24.804C16.5417 25.124 16.4697 25.5427 16.4697 26.06C16.4697 26.4547 16.5097 26.7907 16.5897 27.068C16.6697 27.3453 16.779 27.5707 16.9177 27.744C17.0564 27.9147 17.215 28.04 17.3937 28.12C17.575 28.2 17.7657 28.24 17.9657 28.24C18.2377 28.24 18.463 28.1947 18.6417 28.104C18.8204 28.0107 18.9604 27.896 19.0617 27.76C19.163 27.6213 19.227 27.4853 19.2537 27.352V26.88H17.9817V26.104H20.1697V29H19.5737L19.4897 28.344C19.4684 28.392 19.423 28.4573 19.3537 28.54C19.287 28.62 19.191 28.7027 19.0657 28.788C18.943 28.8733 18.7844 28.944 18.5897 29C18.3977 29.0587 18.167 29.088 17.8977 29.088Z" fill="black"/>
</svg>
