<svg width="24" height="32" viewBox="0 0 24 32" fill="none" xmlns="http://www.w3.org/2000/svg">
<path d="M23.5 6.5L17.5 0.5M23.5 6.5H18C17.7239 6.5 17.5 6.27614 17.5 6V0.5M23.5 6.5V20.5M17.5 0.5H1C0.723858 0.5 0.5 0.723857 0.5 1V20.5M0.5 20.5H23.5M0.5 20.5V31C0.5 31.2761 0.723858 31.5 1 31.5H23C23.2761 31.5 23.5 31.2761 23.5 31V20.5" stroke="black" stroke-linecap="round"/>
<path d="M20 17.5C20 13.7723 17.4505 10.6401 14 9.75204M4 17.5C4 13.7723 6.54955 10.6401 10 9.75204M18.5 9.5H14M10 9.5H5.5M3.5 8.5H5.5V10.5H3.5V8.5ZM18.5 8.5H20.5V10.5H18.5V8.5ZM10 7.5H14V11.5H10V7.5Z" stroke="black" stroke-linecap="round"/>
<path d="M6.14747 29.088C5.7288 29.088 5.36347 29.0213 5.05147 28.888C4.74214 28.7547 4.50214 28.5547 4.33147 28.288C4.1608 28.0213 4.07547 27.6893 4.07547 27.292C4.07547 27.244 4.07547 27.2027 4.07547 27.168C4.07547 27.1307 4.07547 27.0893 4.07547 27.044H5.09947C5.09947 27.0867 5.09947 27.124 5.09947 27.156C5.09947 27.188 5.09947 27.2267 5.09947 27.272C5.09947 27.5973 5.18747 27.84 5.36347 28C5.54214 28.16 5.8048 28.24 6.15147 28.24C6.5008 28.24 6.76747 28.1827 6.95147 28.068C7.13814 27.9507 7.23147 27.7627 7.23147 27.504C7.23147 27.3173 7.1688 27.1587 7.04347 27.028C6.9208 26.8947 6.75147 26.7787 6.53547 26.68C6.31947 26.5813 6.0728 26.4893 5.79547 26.404C5.48614 26.308 5.20347 26.184 4.94747 26.032C4.69414 25.88 4.49147 25.688 4.33947 25.456C4.19014 25.224 4.11547 24.9387 4.11547 24.6C4.11547 24.264 4.20214 23.9787 4.37547 23.744C4.5488 23.5067 4.78614 23.3267 5.08747 23.204C5.39147 23.0787 5.73814 23.016 6.12747 23.016C6.53547 23.016 6.89414 23.08 7.20347 23.208C7.5128 23.3333 7.75414 23.5227 7.92747 23.776C8.1008 24.0293 8.18747 24.3467 8.18747 24.728C8.18747 24.776 8.18747 24.82 8.18747 24.86C8.18747 24.8973 8.18747 24.94 8.18747 24.988H7.15947C7.15947 24.9507 7.15947 24.9147 7.15947 24.88C7.15947 24.8453 7.15947 24.8093 7.15947 24.772C7.15947 24.4627 7.07547 24.2347 6.90747 24.088C6.73947 23.9387 6.4848 23.864 6.14347 23.864C5.8128 23.864 5.5568 23.9227 5.37547 24.04C5.1968 24.1573 5.10747 24.344 5.10747 24.6C5.10747 24.7867 5.16747 24.944 5.28747 25.072C5.41014 25.2 5.5768 25.3107 5.78747 25.404C5.99814 25.4973 6.23814 25.5907 6.50747 25.684C6.85947 25.8013 7.1648 25.9347 7.42347 26.084C7.68214 26.2307 7.8808 26.4147 8.01947 26.636C8.1608 26.8547 8.23147 27.132 8.23147 27.468C8.23147 27.812 8.1448 28.1053 7.97147 28.348C7.8008 28.588 7.55947 28.772 7.24747 28.9C6.93547 29.0253 6.5688 29.088 6.14747 29.088ZM10.9985 29.02L9.48647 23.1H10.6185L11.7865 28.34H11.7345L12.8945 23.1H14.0265L12.5265 29.02H10.9985ZM17.4719 29.088C17.0132 29.088 16.5972 28.9707 16.2239 28.736C15.8506 28.5013 15.5532 28.1587 15.3319 27.708C15.1132 27.2573 15.0039 26.708 15.0039 26.06C15.0039 25.4147 15.1172 24.8667 15.3439 24.416C15.5732 23.9627 15.8826 23.616 16.2719 23.376C16.6612 23.136 17.0959 23.016 17.5759 23.016C17.9759 23.016 18.3132 23.0827 18.5879 23.216C18.8652 23.3467 19.0906 23.516 19.2639 23.724C19.4399 23.9293 19.5666 24.148 19.6439 24.38C19.7239 24.6093 19.7639 24.8213 19.7639 25.016C19.7639 25.024 19.7639 25.032 19.7639 25.04C19.7639 25.048 19.7639 25.056 19.7639 25.064H18.7639C18.7639 25.056 18.7639 25.048 18.7639 25.04C18.7639 25.032 18.7639 25.024 18.7639 25.016C18.7639 24.88 18.7399 24.744 18.6919 24.608C18.6439 24.4693 18.5692 24.3453 18.4679 24.236C18.3692 24.1267 18.2452 24.0387 18.0959 23.972C17.9492 23.9053 17.7759 23.872 17.5759 23.872C17.3092 23.872 17.0586 23.9467 16.8239 24.096C16.5919 24.2453 16.4039 24.4813 16.2599 24.804C16.1159 25.124 16.0439 25.5427 16.0439 26.06C16.0439 26.4547 16.0839 26.7907 16.1639 27.068C16.2439 27.3453 16.3532 27.5707 16.4919 27.744C16.6306 27.9147 16.7892 28.04 16.9679 28.12C17.1492 28.2 17.3399 28.24 17.5399 28.24C17.8119 28.24 18.0372 28.1947 18.2159 28.104C18.3946 28.0107 18.5346 27.896 18.6359 27.76C18.7372 27.6213 18.8012 27.4853 18.8279 27.352V26.88H17.5559V26.104H19.7439V29H19.1479L19.0639 28.344C19.0426 28.392 18.9972 28.4573 18.9279 28.54C18.8612 28.62 18.7652 28.7027 18.6399 28.788C18.5172 28.8733 18.3586 28.944 18.1639 29C17.9719 29.0587 17.7412 29.088 17.4719 29.088Z" fill="black"/>
</svg>
