<svg width="24" height="32" viewBox="0 0 24 32" fill="none" xmlns="http://www.w3.org/2000/svg">
<path d="M23.5 6.5L17.5 0.5M23.5 6.5H18C17.7239 6.5 17.5 6.27614 17.5 6V0.5M23.5 6.5V20.5M17.5 0.5H1C0.723858 0.5 0.5 0.723857 0.5 1V20.5M0.5 20.5H23.5M0.5 20.5V31C0.5 31.2761 0.723858 31.5 1 31.5H23C23.2761 31.5 23.5 31.2761 23.5 31V20.5" stroke="black" stroke-linecap="round"/>
<path d="M11.5 12.5H9.5V14.5C9.5 15.6046 10.3954 16.5 11.5 16.5V16.5C12.6046 16.5 13.5 15.6046 13.5 14.5V12.5H11.5ZM11.5 12.5V3M10 4.5H13M10 6.5H13M10 8.5H13M10 10.5H13" stroke="black"/>
<path d="M7.16144 28.176H9.79344V29H6.00944V28.28L8.68544 23.916L8.69344 23.92H6.19344V23.1H9.82944V23.808L7.16144 28.164V28.176ZM11.3717 29V23.1H12.3838V29H11.3717ZM15.1021 29H14.0741V23.1H15.9501C16.4034 23.1 16.7861 23.1867 17.0981 23.36C17.4127 23.5307 17.6514 23.7627 17.8141 24.056C17.9767 24.3493 18.0581 24.6773 18.0581 25.04C18.0581 25.4027 17.9754 25.736 17.8101 26.04C17.6447 26.344 17.4047 26.588 17.0901 26.772C16.7781 26.9533 16.3981 27.044 15.9501 27.044H15.1021V29ZM15.1021 26.712L14.6381 26.224H15.8381C16.0887 26.224 16.3021 26.176 16.4781 26.08C16.6541 25.984 16.7887 25.848 16.8821 25.672C16.9754 25.496 17.0221 25.2853 17.0221 25.04C17.0221 24.7947 16.9767 24.5893 16.8861 24.424C16.7954 24.2587 16.6621 24.1333 16.4861 24.048C16.3127 23.9627 16.0967 23.92 15.8381 23.92H14.6381L15.1021 23.408V26.712Z" fill="black"/>
</svg>
